<?xml version="1.0" encoding="utf-8" standalone="no"?>
<!DOCTYPE svg PUBLIC "-//W3C//DTD SVG 1.1//EN"
  "http://www.w3.org/Graphics/SVG/1.1/DTD/svg11.dtd">
<svg xmlns:xlink="http://www.w3.org/1999/xlink" width="528.469398pt" height="347.642687pt" viewBox="0 0 528.469398 347.642687" xmlns="http://www.w3.org/2000/svg" version="1.1">
 <metadata>
  <rdf:RDF xmlns:dc="http://purl.org/dc/elements/1.1/" xmlns:cc="http://creativecommons.org/ns#" xmlns:rdf="http://www.w3.org/1999/02/22-rdf-syntax-ns#">
   <cc:Work>
    <dc:type rdf:resource="http://purl.org/dc/dcmitype/StillImage"/>
    <dc:date>2025-07-01T14:56:51.062189</dc:date>
    <dc:format>image/svg+xml</dc:format>
    <dc:creator>
     <cc:Agent>
      <dc:title>Matplotlib v3.7.1, https://matplotlib.org/</dc:title>
     </cc:Agent>
    </dc:creator>
   </cc:Work>
  </rdf:RDF>
 </metadata>
 <defs>
  <style type="text/css">*{stroke-linejoin: round; stroke-linecap: butt}</style>
 </defs>
 <g id="figure_1">
  <g id="patch_1">
   <path d="M 0 347.642687 
L 528.469398 347.642687 
L 528.469398 0 
L 0 0 
z
" style="fill: #ffffff"/>
  </g>
  <g id="axes_1">
   <g id="patch_2">
    <path d="M 40.925 135.486437 
L 164.896861 135.486437 
L 164.896861 20.798437 
L 40.925 20.798437 
z
" style="fill: #ffffff"/>
   </g>
   <g id="matplotlib.axis_1">
    <g id="xtick_1">
     <g id="line2d_1">
      <defs>
       <path id="m24cfaf56ed" d="M 0 0 
L 0 3.5 
" style="stroke: #000000; stroke-width: 0.8"/>
      </defs>
      <g>
       <use xlink:href="#m24cfaf56ed" x="40.925" y="135.486437" style="stroke: #000000; stroke-width: 0.8"/>
      </g>
     </g>
     <g id="text_1">
      <!-- $\mathdefault{10^{-3}}$ -->
      <g transform="translate(29.175 150.084875) scale(0.1 -0.1)">
       <defs>
        <path id="DejaVuSans-31" d="M 794 531 
L 1825 531 
L 1825 4091 
L 703 3866 
L 703 4441 
L 1819 4666 
L 2450 4666 
L 2450 531 
L 3481 531 
L 3481 0 
L 794 0 
L 794 531 
z
" transform="scale(0.015625)"/>
        <path id="DejaVuSans-30" d="M 2034 4250 
Q 1547 4250 1301 3770 
Q 1056 3291 1056 2328 
Q 1056 1369 1301 889 
Q 1547 409 2034 409 
Q 2525 409 2770 889 
Q 3016 1369 3016 2328 
Q 3016 3291 2770 3770 
Q 2525 4250 2034 4250 
z
M 2034 4750 
Q 2819 4750 3233 4129 
Q 3647 3509 3647 2328 
Q 3647 1150 3233 529 
Q 2819 -91 2034 -91 
Q 1250 -91 836 529 
Q 422 1150 422 2328 
Q 422 3509 836 4129 
Q 1250 4750 2034 4750 
z
" transform="scale(0.015625)"/>
        <path id="DejaVuSans-2212" d="M 678 2272 
L 4684 2272 
L 4684 1741 
L 678 1741 
L 678 2272 
z
" transform="scale(0.015625)"/>
        <path id="DejaVuSans-33" d="M 2597 2516 
Q 3050 2419 3304 2112 
Q 3559 1806 3559 1356 
Q 3559 666 3084 287 
Q 2609 -91 1734 -91 
Q 1441 -91 1130 -33 
Q 819 25 488 141 
L 488 750 
Q 750 597 1062 519 
Q 1375 441 1716 441 
Q 2309 441 2620 675 
Q 2931 909 2931 1356 
Q 2931 1769 2642 2001 
Q 2353 2234 1838 2234 
L 1294 2234 
L 1294 2753 
L 1863 2753 
Q 2328 2753 2575 2939 
Q 2822 3125 2822 3475 
Q 2822 3834 2567 4026 
Q 2313 4219 1838 4219 
Q 1578 4219 1281 4162 
Q 984 4106 628 3988 
L 628 4550 
Q 988 4650 1302 4700 
Q 1616 4750 1894 4750 
Q 2613 4750 3031 4423 
Q 3450 4097 3450 3541 
Q 3450 3153 3228 2886 
Q 3006 2619 2597 2516 
z
" transform="scale(0.015625)"/>
       </defs>
       <use xlink:href="#DejaVuSans-31" transform="translate(0 0.765625)"/>
       <use xlink:href="#DejaVuSans-30" transform="translate(63.623047 0.765625)"/>
       <use xlink:href="#DejaVuSans-2212" transform="translate(128.203125 39.046875) scale(0.7)"/>
       <use xlink:href="#DejaVuSans-33" transform="translate(186.855469 39.046875) scale(0.7)"/>
      </g>
     </g>
    </g>
    <g id="xtick_2">
     <g id="line2d_2">
      <g>
       <use xlink:href="#m24cfaf56ed" x="100.297199" y="135.486437" style="stroke: #000000; stroke-width: 0.8"/>
      </g>
     </g>
     <g id="text_2">
      <!-- $\mathdefault{10^{-1}}$ -->
      <g transform="translate(88.547199 150.084875) scale(0.1 -0.1)">
       <use xlink:href="#DejaVuSans-31" transform="translate(0 0.684375)"/>
       <use xlink:href="#DejaVuSans-30" transform="translate(63.623047 0.684375)"/>
       <use xlink:href="#DejaVuSans-2212" transform="translate(128.203125 38.965625) scale(0.7)"/>
       <use xlink:href="#DejaVuSans-31" transform="translate(186.855469 38.965625) scale(0.7)"/>
      </g>
     </g>
    </g>
    <g id="xtick_3">
     <g id="line2d_3">
      <g>
       <use xlink:href="#m24cfaf56ed" x="159.669398" y="135.486437" style="stroke: #000000; stroke-width: 0.8"/>
      </g>
     </g>
     <g id="text_3">
      <!-- $\mathdefault{10^{1}}$ -->
      <g transform="translate(150.869398 150.084875) scale(0.1 -0.1)">
       <use xlink:href="#DejaVuSans-31" transform="translate(0 0.684375)"/>
       <use xlink:href="#DejaVuSans-30" transform="translate(63.623047 0.684375)"/>
       <use xlink:href="#DejaVuSans-31" transform="translate(128.203125 38.965625) scale(0.7)"/>
      </g>
     </g>
    </g>
    <g id="text_4">
     <!-- Concentration / mM -->
     <g transform="translate(53.492962 163.763) scale(0.1 -0.1)">
      <defs>
       <path id="DejaVuSans-43" d="M 4122 4306 
L 4122 3641 
Q 3803 3938 3442 4084 
Q 3081 4231 2675 4231 
Q 1875 4231 1450 3742 
Q 1025 3253 1025 2328 
Q 1025 1406 1450 917 
Q 1875 428 2675 428 
Q 3081 428 3442 575 
Q 3803 722 4122 1019 
L 4122 359 
Q 3791 134 3420 21 
Q 3050 -91 2638 -91 
Q 1578 -91 968 557 
Q 359 1206 359 2328 
Q 359 3453 968 4101 
Q 1578 4750 2638 4750 
Q 3056 4750 3426 4639 
Q 3797 4528 4122 4306 
z
" transform="scale(0.015625)"/>
       <path id="DejaVuSans-6f" d="M 1959 3097 
Q 1497 3097 1228 2736 
Q 959 2375 959 1747 
Q 959 1119 1226 758 
Q 1494 397 1959 397 
Q 2419 397 2687 759 
Q 2956 1122 2956 1747 
Q 2956 2369 2687 2733 
Q 2419 3097 1959 3097 
z
M 1959 3584 
Q 2709 3584 3137 3096 
Q 3566 2609 3566 1747 
Q 3566 888 3137 398 
Q 2709 -91 1959 -91 
Q 1206 -91 779 398 
Q 353 888 353 1747 
Q 353 2609 779 3096 
Q 1206 3584 1959 3584 
z
" transform="scale(0.015625)"/>
       <path id="DejaVuSans-6e" d="M 3513 2113 
L 3513 0 
L 2938 0 
L 2938 2094 
Q 2938 2591 2744 2837 
Q 2550 3084 2163 3084 
Q 1697 3084 1428 2787 
Q 1159 2491 1159 1978 
L 1159 0 
L 581 0 
L 581 3500 
L 1159 3500 
L 1159 2956 
Q 1366 3272 1645 3428 
Q 1925 3584 2291 3584 
Q 2894 3584 3203 3211 
Q 3513 2838 3513 2113 
z
" transform="scale(0.015625)"/>
       <path id="DejaVuSans-63" d="M 3122 3366 
L 3122 2828 
Q 2878 2963 2633 3030 
Q 2388 3097 2138 3097 
Q 1578 3097 1268 2742 
Q 959 2388 959 1747 
Q 959 1106 1268 751 
Q 1578 397 2138 397 
Q 2388 397 2633 464 
Q 2878 531 3122 666 
L 3122 134 
Q 2881 22 2623 -34 
Q 2366 -91 2075 -91 
Q 1284 -91 818 406 
Q 353 903 353 1747 
Q 353 2603 823 3093 
Q 1294 3584 2113 3584 
Q 2378 3584 2631 3529 
Q 2884 3475 3122 3366 
z
" transform="scale(0.015625)"/>
       <path id="DejaVuSans-65" d="M 3597 1894 
L 3597 1613 
L 953 1613 
Q 991 1019 1311 708 
Q 1631 397 2203 397 
Q 2534 397 2845 478 
Q 3156 559 3463 722 
L 3463 178 
Q 3153 47 2828 -22 
Q 2503 -91 2169 -91 
Q 1331 -91 842 396 
Q 353 884 353 1716 
Q 353 2575 817 3079 
Q 1281 3584 2069 3584 
Q 2775 3584 3186 3129 
Q 3597 2675 3597 1894 
z
M 3022 2063 
Q 3016 2534 2758 2815 
Q 2500 3097 2075 3097 
Q 1594 3097 1305 2825 
Q 1016 2553 972 2059 
L 3022 2063 
z
" transform="scale(0.015625)"/>
       <path id="DejaVuSans-74" d="M 1172 4494 
L 1172 3500 
L 2356 3500 
L 2356 3053 
L 1172 3053 
L 1172 1153 
Q 1172 725 1289 603 
Q 1406 481 1766 481 
L 2356 481 
L 2356 0 
L 1766 0 
Q 1100 0 847 248 
Q 594 497 594 1153 
L 594 3053 
L 172 3053 
L 172 3500 
L 594 3500 
L 594 4494 
L 1172 4494 
z
" transform="scale(0.015625)"/>
       <path id="DejaVuSans-72" d="M 2631 2963 
Q 2534 3019 2420 3045 
Q 2306 3072 2169 3072 
Q 1681 3072 1420 2755 
Q 1159 2438 1159 1844 
L 1159 0 
L 581 0 
L 581 3500 
L 1159 3500 
L 1159 2956 
Q 1341 3275 1631 3429 
Q 1922 3584 2338 3584 
Q 2397 3584 2469 3576 
Q 2541 3569 2628 3553 
L 2631 2963 
z
" transform="scale(0.015625)"/>
       <path id="DejaVuSans-61" d="M 2194 1759 
Q 1497 1759 1228 1600 
Q 959 1441 959 1056 
Q 959 750 1161 570 
Q 1363 391 1709 391 
Q 2188 391 2477 730 
Q 2766 1069 2766 1631 
L 2766 1759 
L 2194 1759 
z
M 3341 1997 
L 3341 0 
L 2766 0 
L 2766 531 
Q 2569 213 2275 61 
Q 1981 -91 1556 -91 
Q 1019 -91 701 211 
Q 384 513 384 1019 
Q 384 1609 779 1909 
Q 1175 2209 1959 2209 
L 2766 2209 
L 2766 2266 
Q 2766 2663 2505 2880 
Q 2244 3097 1772 3097 
Q 1472 3097 1187 3025 
Q 903 2953 641 2809 
L 641 3341 
Q 956 3463 1253 3523 
Q 1550 3584 1831 3584 
Q 2591 3584 2966 3190 
Q 3341 2797 3341 1997 
z
" transform="scale(0.015625)"/>
       <path id="DejaVuSans-69" d="M 603 3500 
L 1178 3500 
L 1178 0 
L 603 0 
L 603 3500 
z
M 603 4863 
L 1178 4863 
L 1178 4134 
L 603 4134 
L 603 4863 
z
" transform="scale(0.015625)"/>
       <path id="DejaVuSans-20" transform="scale(0.015625)"/>
       <path id="DejaVuSans-2f" d="M 1625 4666 
L 2156 4666 
L 531 -594 
L 0 -594 
L 1625 4666 
z
" transform="scale(0.015625)"/>
       <path id="DejaVuSans-6d" d="M 3328 2828 
Q 3544 3216 3844 3400 
Q 4144 3584 4550 3584 
Q 5097 3584 5394 3201 
Q 5691 2819 5691 2113 
L 5691 0 
L 5113 0 
L 5113 2094 
Q 5113 2597 4934 2840 
Q 4756 3084 4391 3084 
Q 3944 3084 3684 2787 
Q 3425 2491 3425 1978 
L 3425 0 
L 2847 0 
L 2847 2094 
Q 2847 2600 2669 2842 
Q 2491 3084 2119 3084 
Q 1678 3084 1418 2786 
Q 1159 2488 1159 1978 
L 1159 0 
L 581 0 
L 581 3500 
L 1159 3500 
L 1159 2956 
Q 1356 3278 1631 3431 
Q 1906 3584 2284 3584 
Q 2666 3584 2933 3390 
Q 3200 3197 3328 2828 
z
" transform="scale(0.015625)"/>
       <path id="DejaVuSans-4d" d="M 628 4666 
L 1569 4666 
L 2759 1491 
L 3956 4666 
L 4897 4666 
L 4897 0 
L 4281 0 
L 4281 4097 
L 3078 897 
L 2444 897 
L 1241 4097 
L 1241 0 
L 628 0 
L 628 4666 
z
" transform="scale(0.015625)"/>
      </defs>
      <use xlink:href="#DejaVuSans-43"/>
      <use xlink:href="#DejaVuSans-6f" x="69.824219"/>
      <use xlink:href="#DejaVuSans-6e" x="131.005859"/>
      <use xlink:href="#DejaVuSans-63" x="194.384766"/>
      <use xlink:href="#DejaVuSans-65" x="249.365234"/>
      <use xlink:href="#DejaVuSans-6e" x="310.888672"/>
      <use xlink:href="#DejaVuSans-74" x="374.267578"/>
      <use xlink:href="#DejaVuSans-72" x="413.476562"/>
      <use xlink:href="#DejaVuSans-61" x="454.589844"/>
      <use xlink:href="#DejaVuSans-74" x="515.869141"/>
      <use xlink:href="#DejaVuSans-69" x="555.078125"/>
      <use xlink:href="#DejaVuSans-6f" x="582.861328"/>
      <use xlink:href="#DejaVuSans-6e" x="644.042969"/>
      <use xlink:href="#DejaVuSans-20" x="707.421875"/>
      <use xlink:href="#DejaVuSans-2f" x="739.208984"/>
      <use xlink:href="#DejaVuSans-20" x="772.900391"/>
      <use xlink:href="#DejaVuSans-6d" x="804.6875"/>
      <use xlink:href="#DejaVuSans-4d" x="902.099609"/>
     </g>
    </g>
   </g>
   <g id="matplotlib.axis_2">
    <g id="ytick_1">
     <g id="line2d_4">
      <defs>
       <path id="m1537ea7be9" d="M 0 0 
L -3.5 0 
" style="stroke: #000000; stroke-width: 0.8"/>
      </defs>
      <g>
       <use xlink:href="#m1537ea7be9" x="40.925" y="124.017638" style="stroke: #000000; stroke-width: 0.8"/>
      </g>
     </g>
     <g id="text_5">
      <!-- 30 -->
      <g transform="translate(21.2 127.816856) scale(0.1 -0.1)">
       <use xlink:href="#DejaVuSans-33"/>
       <use xlink:href="#DejaVuSans-30" x="63.623047"/>
      </g>
     </g>
    </g>
    <g id="ytick_2">
     <g id="line2d_5">
      <g>
       <use xlink:href="#m1537ea7be9" x="40.925" y="101.080038" style="stroke: #000000; stroke-width: 0.8"/>
      </g>
     </g>
     <g id="text_6">
      <!-- 40 -->
      <g transform="translate(21.2 104.879256) scale(0.1 -0.1)">
       <defs>
        <path id="DejaVuSans-34" d="M 2419 4116 
L 825 1625 
L 2419 1625 
L 2419 4116 
z
M 2253 4666 
L 3047 4666 
L 3047 1625 
L 3713 1625 
L 3713 1100 
L 3047 1100 
L 3047 0 
L 2419 0 
L 2419 1100 
L 313 1100 
L 313 1709 
L 2253 4666 
z
" transform="scale(0.015625)"/>
       </defs>
       <use xlink:href="#DejaVuSans-34"/>
       <use xlink:href="#DejaVuSans-30" x="63.623047"/>
      </g>
     </g>
    </g>
    <g id="ytick_3">
     <g id="line2d_6">
      <g>
       <use xlink:href="#m1537ea7be9" x="40.925" y="78.142437" style="stroke: #000000; stroke-width: 0.8"/>
      </g>
     </g>
     <g id="text_7">
      <!-- 50 -->
      <g transform="translate(21.2 81.941656) scale(0.1 -0.1)">
       <defs>
        <path id="DejaVuSans-35" d="M 691 4666 
L 3169 4666 
L 3169 4134 
L 1269 4134 
L 1269 2991 
Q 1406 3038 1543 3061 
Q 1681 3084 1819 3084 
Q 2600 3084 3056 2656 
Q 3513 2228 3513 1497 
Q 3513 744 3044 326 
Q 2575 -91 1722 -91 
Q 1428 -91 1123 -41 
Q 819 9 494 109 
L 494 744 
Q 775 591 1075 516 
Q 1375 441 1709 441 
Q 2250 441 2565 725 
Q 2881 1009 2881 1497 
Q 2881 1984 2565 2268 
Q 2250 2553 1709 2553 
Q 1456 2553 1204 2497 
Q 953 2441 691 2322 
L 691 4666 
z
" transform="scale(0.015625)"/>
       </defs>
       <use xlink:href="#DejaVuSans-35"/>
       <use xlink:href="#DejaVuSans-30" x="63.623047"/>
      </g>
     </g>
    </g>
    <g id="ytick_4">
     <g id="line2d_7">
      <g>
       <use xlink:href="#m1537ea7be9" x="40.925" y="55.204837" style="stroke: #000000; stroke-width: 0.8"/>
      </g>
     </g>
     <g id="text_8">
      <!-- 60 -->
      <g transform="translate(21.2 59.004056) scale(0.1 -0.1)">
       <defs>
        <path id="DejaVuSans-36" d="M 2113 2584 
Q 1688 2584 1439 2293 
Q 1191 2003 1191 1497 
Q 1191 994 1439 701 
Q 1688 409 2113 409 
Q 2538 409 2786 701 
Q 3034 994 3034 1497 
Q 3034 2003 2786 2293 
Q 2538 2584 2113 2584 
z
M 3366 4563 
L 3366 3988 
Q 3128 4100 2886 4159 
Q 2644 4219 2406 4219 
Q 1781 4219 1451 3797 
Q 1122 3375 1075 2522 
Q 1259 2794 1537 2939 
Q 1816 3084 2150 3084 
Q 2853 3084 3261 2657 
Q 3669 2231 3669 1497 
Q 3669 778 3244 343 
Q 2819 -91 2113 -91 
Q 1303 -91 875 529 
Q 447 1150 447 2328 
Q 447 3434 972 4092 
Q 1497 4750 2381 4750 
Q 2619 4750 2861 4703 
Q 3103 4656 3366 4563 
z
" transform="scale(0.015625)"/>
       </defs>
       <use xlink:href="#DejaVuSans-36"/>
       <use xlink:href="#DejaVuSans-30" x="63.623047"/>
      </g>
     </g>
    </g>
    <g id="ytick_5">
     <g id="line2d_8">
      <g>
       <use xlink:href="#m1537ea7be9" x="40.925" y="32.267237" style="stroke: #000000; stroke-width: 0.8"/>
      </g>
     </g>
     <g id="text_9">
      <!-- 70 -->
      <g transform="translate(21.2 36.066456) scale(0.1 -0.1)">
       <defs>
        <path id="DejaVuSans-37" d="M 525 4666 
L 3525 4666 
L 3525 4397 
L 1831 0 
L 1172 0 
L 2766 4134 
L 525 4134 
L 525 4666 
z
" transform="scale(0.015625)"/>
       </defs>
       <use xlink:href="#DejaVuSans-37"/>
       <use xlink:href="#DejaVuSans-30" x="63.623047"/>
      </g>
     </g>
    </g>
    <g id="text_10">
     <!-- Surface tension / $\mathrm{mN \ m^{-1}}$ -->
     <g transform="translate(15.120312 142.542437) rotate(-90) scale(0.1 -0.1)">
      <defs>
       <path id="DejaVuSans-53" d="M 3425 4513 
L 3425 3897 
Q 3066 4069 2747 4153 
Q 2428 4238 2131 4238 
Q 1616 4238 1336 4038 
Q 1056 3838 1056 3469 
Q 1056 3159 1242 3001 
Q 1428 2844 1947 2747 
L 2328 2669 
Q 3034 2534 3370 2195 
Q 3706 1856 3706 1288 
Q 3706 609 3251 259 
Q 2797 -91 1919 -91 
Q 1588 -91 1214 -16 
Q 841 59 441 206 
L 441 856 
Q 825 641 1194 531 
Q 1563 422 1919 422 
Q 2459 422 2753 634 
Q 3047 847 3047 1241 
Q 3047 1584 2836 1778 
Q 2625 1972 2144 2069 
L 1759 2144 
Q 1053 2284 737 2584 
Q 422 2884 422 3419 
Q 422 4038 858 4394 
Q 1294 4750 2059 4750 
Q 2388 4750 2728 4690 
Q 3069 4631 3425 4513 
z
" transform="scale(0.015625)"/>
       <path id="DejaVuSans-75" d="M 544 1381 
L 544 3500 
L 1119 3500 
L 1119 1403 
Q 1119 906 1312 657 
Q 1506 409 1894 409 
Q 2359 409 2629 706 
Q 2900 1003 2900 1516 
L 2900 3500 
L 3475 3500 
L 3475 0 
L 2900 0 
L 2900 538 
Q 2691 219 2414 64 
Q 2138 -91 1772 -91 
Q 1169 -91 856 284 
Q 544 659 544 1381 
z
M 1991 3584 
L 1991 3584 
z
" transform="scale(0.015625)"/>
       <path id="DejaVuSans-66" d="M 2375 4863 
L 2375 4384 
L 1825 4384 
Q 1516 4384 1395 4259 
Q 1275 4134 1275 3809 
L 1275 3500 
L 2222 3500 
L 2222 3053 
L 1275 3053 
L 1275 0 
L 697 0 
L 697 3053 
L 147 3053 
L 147 3500 
L 697 3500 
L 697 3744 
Q 697 4328 969 4595 
Q 1241 4863 1831 4863 
L 2375 4863 
z
" transform="scale(0.015625)"/>
       <path id="DejaVuSans-73" d="M 2834 3397 
L 2834 2853 
Q 2591 2978 2328 3040 
Q 2066 3103 1784 3103 
Q 1356 3103 1142 2972 
Q 928 2841 928 2578 
Q 928 2378 1081 2264 
Q 1234 2150 1697 2047 
L 1894 2003 
Q 2506 1872 2764 1633 
Q 3022 1394 3022 966 
Q 3022 478 2636 193 
Q 2250 -91 1575 -91 
Q 1294 -91 989 -36 
Q 684 19 347 128 
L 347 722 
Q 666 556 975 473 
Q 1284 391 1588 391 
Q 1994 391 2212 530 
Q 2431 669 2431 922 
Q 2431 1156 2273 1281 
Q 2116 1406 1581 1522 
L 1381 1569 
Q 847 1681 609 1914 
Q 372 2147 372 2553 
Q 372 3047 722 3315 
Q 1072 3584 1716 3584 
Q 2034 3584 2315 3537 
Q 2597 3491 2834 3397 
z
" transform="scale(0.015625)"/>
       <path id="DejaVuSans-4e" d="M 628 4666 
L 1478 4666 
L 3547 763 
L 3547 4666 
L 4159 4666 
L 4159 0 
L 3309 0 
L 1241 3903 
L 1241 0 
L 628 0 
L 628 4666 
z
" transform="scale(0.015625)"/>
      </defs>
      <use xlink:href="#DejaVuSans-53" transform="translate(0 0.684375)"/>
      <use xlink:href="#DejaVuSans-75" transform="translate(63.476562 0.684375)"/>
      <use xlink:href="#DejaVuSans-72" transform="translate(126.855469 0.684375)"/>
      <use xlink:href="#DejaVuSans-66" transform="translate(167.96875 0.684375)"/>
      <use xlink:href="#DejaVuSans-61" transform="translate(203.173828 0.684375)"/>
      <use xlink:href="#DejaVuSans-63" transform="translate(264.453125 0.684375)"/>
      <use xlink:href="#DejaVuSans-65" transform="translate(319.433594 0.684375)"/>
      <use xlink:href="#DejaVuSans-20" transform="translate(380.957031 0.684375)"/>
      <use xlink:href="#DejaVuSans-74" transform="translate(412.744141 0.684375)"/>
      <use xlink:href="#DejaVuSans-65" transform="translate(451.953125 0.684375)"/>
      <use xlink:href="#DejaVuSans-6e" transform="translate(513.476562 0.684375)"/>
      <use xlink:href="#DejaVuSans-73" transform="translate(576.855469 0.684375)"/>
      <use xlink:href="#DejaVuSans-69" transform="translate(628.955078 0.684375)"/>
      <use xlink:href="#DejaVuSans-6f" transform="translate(656.738281 0.684375)"/>
      <use xlink:href="#DejaVuSans-6e" transform="translate(717.919922 0.684375)"/>
      <use xlink:href="#DejaVuSans-20" transform="translate(781.298828 0.684375)"/>
      <use xlink:href="#DejaVuSans-2f" transform="translate(813.085938 0.684375)"/>
      <use xlink:href="#DejaVuSans-20" transform="translate(846.777344 0.684375)"/>
      <use xlink:href="#DejaVuSans-6d" transform="translate(878.564453 0.684375)"/>
      <use xlink:href="#DejaVuSans-4e" transform="translate(975.976562 0.684375)"/>
      <use xlink:href="#DejaVuSans-6d" transform="translate(1083.251628 0.684375)"/>
      <use xlink:href="#DejaVuSans-2212" transform="translate(1181.620769 38.965625) scale(0.7)"/>
      <use xlink:href="#DejaVuSans-31" transform="translate(1240.273113 38.965625) scale(0.7)"/>
     </g>
    </g>
   </g>
   <g id="line2d_9">
    <path d="M 74.970634 27.180442 
L 76.258765 27.37555 
L 76.500286 27.34769 
L 76.661302 27.394275 
L 76.822321 27.404635 
L 77.144356 27.481442 
L 77.224859 27.399647 
L 77.385876 27.499853 
L 77.546894 27.51037 
L 78.351971 27.574928 
L 78.593492 27.609717 
L 78.915527 27.687225 
L 79.076546 27.699265 
L 79.5596 27.74025 
L 79.801133 27.783475 
L 80.042654 27.762878 
L 80.284173 27.906483 
L 80.84773 28.01206 
L 81.008748 27.95158 
L 81.169766 28.007387 
L 81.411287 28.06757 
L 81.572305 28.01934 
L 81.652821 28.154458 
L 81.733322 28.095833 
L 87.4494 29.33352 
L 87.610418 29.390395 
L 88.093472 29.47149 
L 88.898548 29.749548 
L 89.059567 29.718957 
L 89.462106 29.936238 
L 89.542621 29.870823 
L 89.784141 30.00251 
L 90.025662 30.05382 
L 90.508716 30.249977 
L 90.669734 30.242278 
L 90.911254 30.424837 
L 90.991755 30.332053 
L 91.152774 30.46003 
L 91.71633 30.631618 
L 95.339202 32.092395 
L 95.580721 32.25301 
L 95.74174 32.23593 
L 96.063775 32.418945 
L 96.144291 32.392888 
L 96.385811 32.611445 
L 97.029869 32.89491 
L 97.351906 33.129375 
L 97.512924 33.161225 
L 97.754444 33.252295 
L 97.995978 33.425545 
L 98.318001 33.590133 
L 98.640036 33.764887 
L 99.123091 33.985405 
L 99.525629 34.262342 
L 99.928167 34.5145 
L 100.089185 34.549553 
L 100.330704 34.715172 
L 100.894261 35.15878 
L 100.97477 35.099683 
L 101.135788 35.251005 
L 104.275613 37.52877 
L 104.597642 37.851452 
L 105.000187 38.130945 
L 105.402724 38.49799 
L 105.72476 38.759335 
L 107.012884 39.903957 
L 107.173902 40.093675 
L 107.41543 40.316782 
L 107.65695 40.580175 
L 107.978986 40.869835 
L 108.784062 41.672053 
L 109.106099 41.93688 
L 109.347618 42.27169 
L 110.55524 43.694003 
L 110.635749 43.665775 
L 111.038293 44.195343 
L 111.118796 44.19214 
L 111.360323 44.586835 
L 112.487442 45.933355 
L 113.775573 47.563174 
L 113.936591 47.826584 
L 117.23742 52.618574 
L 117.881484 53.659482 
L 117.961993 53.680692 
L 118.284029 54.26437 
L 118.445047 54.569754 
L 118.686575 55.012635 
L 118.767084 55.029802 
L 119.089113 55.625957 
L 119.652669 56.589674 
L 120.296735 57.763968 
L 123.758588 64.221284 
L 124.080617 64.940376 
L 129.394157 76.596321 
L 130.038221 78.148598 
L 130.843305 80.219574 
L 131.084825 80.7159 
L 132.131436 83.334224 
L 137.364467 97.256629 
L 138.008532 99.074415 
L 140.987331 107.529453 
L 141.389869 108.723976 
L 141.711905 109.57788 
L 141.953432 110.195744 
L 142.033942 110.179478 
L 142.27546 110.647576 
L 142.516988 110.943405 
L 142.597497 110.900058 
L 142.758516 110.932345 
L 143.161053 111.04655 
L 143.241563 110.942854 
L 143.322071 111.074996 
L 143.402581 111.016853 
L 144.529693 111.038911 
L 144.610202 111.08701 
L 144.77122 110.96521 
L 145.01274 111.012504 
L 145.737314 111.018358 
L 145.817824 111.064251 
L 145.978841 111.040311 
L 146.220362 111.016844 
L 146.461889 110.973908 
L 146.703416 111.060778 
L 147.025445 111.057864 
L 147.266971 111.007315 
L 147.347481 111.087045 
L 147.508492 111.078461 
L 147.991546 110.943519 
L 148.072048 111.039524 
L 148.233066 110.988984 
L 148.555103 111.031456 
L 148.635606 110.920471 
L 148.877132 111.094868 
L 148.95764 110.928294 
L 149.118658 110.995293 
L 149.360178 111.014823 
L 154.834737 111.05026 
L 154.915245 111.104309 
L 155.156773 110.993613 
L 155.398301 111.076904 
L 155.398301 111.076904 
" clip-path="url(#pd9fe465642)" style="fill: none; stroke: #000000; stroke-opacity: 0.3; stroke-width: 2; stroke-linecap: square"/>
   </g>
   <g id="patch_3">
    <path d="M 40.925 135.486438 
L 40.925 20.798438 
" style="fill: none; stroke: #000000; stroke-width: 0.8; stroke-linejoin: miter; stroke-linecap: square"/>
   </g>
   <g id="patch_4">
    <path d="M 40.925 135.486437 
L 164.896861 135.486437 
" style="fill: none; stroke: #000000; stroke-width: 0.8; stroke-linejoin: miter; stroke-linecap: square"/>
   </g>
   <g id="text_11">
    <!-- SDBS -->
    <g transform="translate(89.369524 14.798437) scale(0.1 -0.1)">
     <defs>
      <path id="DejaVuSans-44" d="M 1259 4147 
L 1259 519 
L 2022 519 
Q 2988 519 3436 956 
Q 3884 1394 3884 2338 
Q 3884 3275 3436 3711 
Q 2988 4147 2022 4147 
L 1259 4147 
z
M 628 4666 
L 1925 4666 
Q 3281 4666 3915 4102 
Q 4550 3538 4550 2338 
Q 4550 1131 3912 565 
Q 3275 0 1925 0 
L 628 0 
L 628 4666 
z
" transform="scale(0.015625)"/>
      <path id="DejaVuSans-42" d="M 1259 2228 
L 1259 519 
L 2272 519 
Q 2781 519 3026 730 
Q 3272 941 3272 1375 
Q 3272 1813 3026 2020 
Q 2781 2228 2272 2228 
L 1259 2228 
z
M 1259 4147 
L 1259 2741 
L 2194 2741 
Q 2656 2741 2882 2914 
Q 3109 3088 3109 3444 
Q 3109 3797 2882 3972 
Q 2656 4147 2194 4147 
L 1259 4147 
z
M 628 4666 
L 2241 4666 
Q 2963 4666 3353 4366 
Q 3744 4066 3744 3513 
Q 3744 3084 3544 2831 
Q 3344 2578 2956 2516 
Q 3422 2416 3680 2098 
Q 3938 1781 3938 1306 
Q 3938 681 3513 340 
Q 3088 0 2303 0 
L 628 0 
L 628 4666 
z
" transform="scale(0.015625)"/>
     </defs>
     <use xlink:href="#DejaVuSans-53"/>
     <use xlink:href="#DejaVuSans-44" x="63.476562"/>
     <use xlink:href="#DejaVuSans-42" x="140.478516"/>
     <use xlink:href="#DejaVuSans-53" x="207.332031"/>
    </g>
   </g>
   <g id="PathCollection_1">
    <defs>
     <path id="m85c3eeef44" d="M 0 2.236068 
C 0.593012 2.236068 1.161816 2.000462 1.581139 1.581139 
C 2.000462 1.161816 2.236068 0.593012 2.236068 0 
C 2.236068 -0.593012 2.000462 -1.161816 1.581139 -1.581139 
C 1.161816 -2.000462 0.593012 -2.236068 0 -2.236068 
C -0.593012 -2.236068 -1.161816 -2.000462 -1.581139 -1.581139 
C -2.000462 -1.161816 -2.236068 -0.593012 -2.236068 0 
C -2.236068 0.593012 -2.000462 1.161816 -1.581139 1.581139 
C -1.161816 2.000462 -0.593012 2.236068 0 2.236068 
z
" style="stroke: #000000"/>
    </defs>
    <g clip-path="url(#pd9fe465642)">
     <use xlink:href="#m85c3eeef44" x="92.843449" y="29.534085" style="stroke: #000000"/>
     <use xlink:href="#m85c3eeef44" x="101.779856" y="33.173222" style="stroke: #000000"/>
     <use xlink:href="#m85c3eeef44" x="110.716262" y="43.668805" style="stroke: #000000"/>
     <use xlink:href="#m85c3eeef44" x="119.652668" y="59.700041" style="stroke: #000000"/>
     <use xlink:href="#m85c3eeef44" x="128.589075" y="77.654189" style="stroke: #000000"/>
     <use xlink:href="#m85c3eeef44" x="137.525481" y="98.975346" style="stroke: #000000"/>
     <use xlink:href="#m85c3eeef44" x="146.461888" y="110.4465" style="stroke: #000000"/>
     <use xlink:href="#m85c3eeef44" x="155.398294" y="111.721135" style="stroke: #000000"/>
    </g>
   </g>
   <g id="PathCollection_2">
    <defs>
     <path id="m5875e59c40" d="M -2.5 2.5 
L 2.5 -2.5 
M -2.5 -2.5 
L 2.5 2.5 
" style="stroke: #ff7f0e; stroke-width: 1.5"/>
    </defs>
    <g clip-path="url(#pd9fe465642)">
     <use xlink:href="#m5875e59c40" x="140.665302" y="105.459611" style="fill: #ff7f0e; stroke: #ff7f0e; stroke-width: 1.5"/>
     <use xlink:href="#m5875e59c40" x="120.779782" y="60.322424" style="fill: #ff7f0e; stroke: #ff7f0e; stroke-width: 1.5"/>
     <use xlink:href="#m5875e59c40" x="141.148349" y="106.710222" style="fill: #ff7f0e; stroke: #ff7f0e; stroke-width: 1.5"/>
     <use xlink:href="#m5875e59c40" x="114.419638" y="41.796908" style="fill: #ff7f0e; stroke: #ff7f0e; stroke-width: 1.5"/>
    </g>
   </g>
  </g>
  <g id="axes_2">
   <g id="patch_5">
    <path d="M 217.325 135.486437 
L 341.296861 135.486437 
L 341.296861 20.798437 
L 217.325 20.798437 
z
" style="fill: #ffffff"/>
   </g>
   <g id="matplotlib.axis_3">
    <g id="xtick_4">
     <g id="line2d_10">
      <g>
       <use xlink:href="#m24cfaf56ed" x="217.325" y="135.486437" style="stroke: #000000; stroke-width: 0.8"/>
      </g>
     </g>
     <g id="text_12">
      <!-- $\mathdefault{10^{-3}}$ -->
      <g transform="translate(205.575 150.084875) scale(0.1 -0.1)">
       <use xlink:href="#DejaVuSans-31" transform="translate(0 0.765625)"/>
       <use xlink:href="#DejaVuSans-30" transform="translate(63.623047 0.765625)"/>
       <use xlink:href="#DejaVuSans-2212" transform="translate(128.203125 39.046875) scale(0.7)"/>
       <use xlink:href="#DejaVuSans-33" transform="translate(186.855469 39.046875) scale(0.7)"/>
      </g>
     </g>
    </g>
    <g id="xtick_5">
     <g id="line2d_11">
      <g>
       <use xlink:href="#m24cfaf56ed" x="276.697199" y="135.486437" style="stroke: #000000; stroke-width: 0.8"/>
      </g>
     </g>
     <g id="text_13">
      <!-- $\mathdefault{10^{-1}}$ -->
      <g transform="translate(264.947199 150.084875) scale(0.1 -0.1)">
       <use xlink:href="#DejaVuSans-31" transform="translate(0 0.684375)"/>
       <use xlink:href="#DejaVuSans-30" transform="translate(63.623047 0.684375)"/>
       <use xlink:href="#DejaVuSans-2212" transform="translate(128.203125 38.965625) scale(0.7)"/>
       <use xlink:href="#DejaVuSans-31" transform="translate(186.855469 38.965625) scale(0.7)"/>
      </g>
     </g>
    </g>
    <g id="xtick_6">
     <g id="line2d_12">
      <g>
       <use xlink:href="#m24cfaf56ed" x="336.069398" y="135.486437" style="stroke: #000000; stroke-width: 0.8"/>
      </g>
     </g>
     <g id="text_14">
      <!-- $\mathdefault{10^{1}}$ -->
      <g transform="translate(327.269398 150.084875) scale(0.1 -0.1)">
       <use xlink:href="#DejaVuSans-31" transform="translate(0 0.684375)"/>
       <use xlink:href="#DejaVuSans-30" transform="translate(63.623047 0.684375)"/>
       <use xlink:href="#DejaVuSans-31" transform="translate(128.203125 38.965625) scale(0.7)"/>
      </g>
     </g>
    </g>
    <g id="text_15">
     <!-- Concentration / mM -->
     <g transform="translate(229.892962 163.763) scale(0.1 -0.1)">
      <use xlink:href="#DejaVuSans-43"/>
      <use xlink:href="#DejaVuSans-6f" x="69.824219"/>
      <use xlink:href="#DejaVuSans-6e" x="131.005859"/>
      <use xlink:href="#DejaVuSans-63" x="194.384766"/>
      <use xlink:href="#DejaVuSans-65" x="249.365234"/>
      <use xlink:href="#DejaVuSans-6e" x="310.888672"/>
      <use xlink:href="#DejaVuSans-74" x="374.267578"/>
      <use xlink:href="#DejaVuSans-72" x="413.476562"/>
      <use xlink:href="#DejaVuSans-61" x="454.589844"/>
      <use xlink:href="#DejaVuSans-74" x="515.869141"/>
      <use xlink:href="#DejaVuSans-69" x="555.078125"/>
      <use xlink:href="#DejaVuSans-6f" x="582.861328"/>
      <use xlink:href="#DejaVuSans-6e" x="644.042969"/>
      <use xlink:href="#DejaVuSans-20" x="707.421875"/>
      <use xlink:href="#DejaVuSans-2f" x="739.208984"/>
      <use xlink:href="#DejaVuSans-20" x="772.900391"/>
      <use xlink:href="#DejaVuSans-6d" x="804.6875"/>
      <use xlink:href="#DejaVuSans-4d" x="902.099609"/>
     </g>
    </g>
   </g>
   <g id="matplotlib.axis_4">
    <g id="ytick_6">
     <g id="line2d_13">
      <g>
       <use xlink:href="#m1537ea7be9" x="217.325" y="124.017638" style="stroke: #000000; stroke-width: 0.8"/>
      </g>
     </g>
     <g id="text_16">
      <!-- 30 -->
      <g transform="translate(197.6 127.816856) scale(0.1 -0.1)">
       <use xlink:href="#DejaVuSans-33"/>
       <use xlink:href="#DejaVuSans-30" x="63.623047"/>
      </g>
     </g>
    </g>
    <g id="ytick_7">
     <g id="line2d_14">
      <g>
       <use xlink:href="#m1537ea7be9" x="217.325" y="101.080038" style="stroke: #000000; stroke-width: 0.8"/>
      </g>
     </g>
     <g id="text_17">
      <!-- 40 -->
      <g transform="translate(197.6 104.879256) scale(0.1 -0.1)">
       <use xlink:href="#DejaVuSans-34"/>
       <use xlink:href="#DejaVuSans-30" x="63.623047"/>
      </g>
     </g>
    </g>
    <g id="ytick_8">
     <g id="line2d_15">
      <g>
       <use xlink:href="#m1537ea7be9" x="217.325" y="78.142437" style="stroke: #000000; stroke-width: 0.8"/>
      </g>
     </g>
     <g id="text_18">
      <!-- 50 -->
      <g transform="translate(197.6 81.941656) scale(0.1 -0.1)">
       <use xlink:href="#DejaVuSans-35"/>
       <use xlink:href="#DejaVuSans-30" x="63.623047"/>
      </g>
     </g>
    </g>
    <g id="ytick_9">
     <g id="line2d_16">
      <g>
       <use xlink:href="#m1537ea7be9" x="217.325" y="55.204837" style="stroke: #000000; stroke-width: 0.8"/>
      </g>
     </g>
     <g id="text_19">
      <!-- 60 -->
      <g transform="translate(197.6 59.004056) scale(0.1 -0.1)">
       <use xlink:href="#DejaVuSans-36"/>
       <use xlink:href="#DejaVuSans-30" x="63.623047"/>
      </g>
     </g>
    </g>
    <g id="ytick_10">
     <g id="line2d_17">
      <g>
       <use xlink:href="#m1537ea7be9" x="217.325" y="32.267237" style="stroke: #000000; stroke-width: 0.8"/>
      </g>
     </g>
     <g id="text_20">
      <!-- 70 -->
      <g transform="translate(197.6 36.066456) scale(0.1 -0.1)">
       <use xlink:href="#DejaVuSans-37"/>
       <use xlink:href="#DejaVuSans-30" x="63.623047"/>
      </g>
     </g>
    </g>
    <g id="text_21">
     <!-- Surface tension / $\mathrm{mN \ m^{-1}}$ -->
     <g transform="translate(191.520313 142.542437) rotate(-90) scale(0.1 -0.1)">
      <use xlink:href="#DejaVuSans-53" transform="translate(0 0.684375)"/>
      <use xlink:href="#DejaVuSans-75" transform="translate(63.476562 0.684375)"/>
      <use xlink:href="#DejaVuSans-72" transform="translate(126.855469 0.684375)"/>
      <use xlink:href="#DejaVuSans-66" transform="translate(167.96875 0.684375)"/>
      <use xlink:href="#DejaVuSans-61" transform="translate(203.173828 0.684375)"/>
      <use xlink:href="#DejaVuSans-63" transform="translate(264.453125 0.684375)"/>
      <use xlink:href="#DejaVuSans-65" transform="translate(319.433594 0.684375)"/>
      <use xlink:href="#DejaVuSans-20" transform="translate(380.957031 0.684375)"/>
      <use xlink:href="#DejaVuSans-74" transform="translate(412.744141 0.684375)"/>
      <use xlink:href="#DejaVuSans-65" transform="translate(451.953125 0.684375)"/>
      <use xlink:href="#DejaVuSans-6e" transform="translate(513.476562 0.684375)"/>
      <use xlink:href="#DejaVuSans-73" transform="translate(576.855469 0.684375)"/>
      <use xlink:href="#DejaVuSans-69" transform="translate(628.955078 0.684375)"/>
      <use xlink:href="#DejaVuSans-6f" transform="translate(656.738281 0.684375)"/>
      <use xlink:href="#DejaVuSans-6e" transform="translate(717.919922 0.684375)"/>
      <use xlink:href="#DejaVuSans-20" transform="translate(781.298828 0.684375)"/>
      <use xlink:href="#DejaVuSans-2f" transform="translate(813.085938 0.684375)"/>
      <use xlink:href="#DejaVuSans-20" transform="translate(846.777344 0.684375)"/>
      <use xlink:href="#DejaVuSans-6d" transform="translate(878.564453 0.684375)"/>
      <use xlink:href="#DejaVuSans-4e" transform="translate(975.976562 0.684375)"/>
      <use xlink:href="#DejaVuSans-6d" transform="translate(1083.251628 0.684375)"/>
      <use xlink:href="#DejaVuSans-2212" transform="translate(1181.620769 38.965625) scale(0.7)"/>
      <use xlink:href="#DejaVuSans-31" transform="translate(1240.273113 38.965625) scale(0.7)"/>
     </g>
    </g>
   </g>
   <g id="line2d_18">
    <path d="M 235.582326 26.388463 
L 236.70944 26.490312 
L 237.031476 26.418318 
L 237.272994 26.4932 
L 237.434013 26.502457 
L 237.756049 26.552298 
L 237.836551 26.459477 
L 237.997569 26.555815 
L 238.158588 26.54108 
L 238.641627 26.59848 
L 238.802646 26.51931 
L 238.883162 26.6556 
L 239.04418 26.528427 
L 239.2857 26.60219 
L 239.366202 26.529057 
L 239.527221 26.623085 
L 239.84927 26.570725 
L 241.217903 26.726702 
L 241.378921 26.807308 
L 242.183996 26.714908 
L 242.264498 26.847155 
L 242.345015 26.771345 
L 243.311109 26.902175 
L 243.472127 26.890887 
L 243.713647 26.928915 
L 243.794163 26.983148 
L 243.955182 26.913952 
L 244.116186 26.969392 
L 244.196702 26.890975 
L 244.357721 27.007 
L 244.518738 26.958088 
L 244.760259 27.0238 
L 245.001777 26.98187 
L 245.082294 27.059815 
L 245.162796 26.98222 
L 245.404316 27.091858 
L 245.565335 27.003202 
L 245.64585 27.14273 
L 245.806855 27.075547 
L 246.450927 27.191643 
L 246.611945 27.208967 
L 248.061093 27.324835 
L 248.222112 27.364262 
L 248.705165 27.37513 
L 249.510241 27.51982 
L 249.67126 27.461073 
L 249.993296 27.568242 
L 250.073798 27.623333 
L 250.234816 27.608563 
L 250.798372 27.693508 
L 250.95939 27.684967 
L 251.120408 27.748912 
L 251.281412 27.71239 
L 251.522947 27.853422 
L 251.603449 27.73976 
L 251.764467 27.8414 
L 252.328022 27.911313 
L 253.213614 28.05091 
L 257.883082 28.953438 
L 257.963599 29.08817 
L 258.044101 29.029212 
L 258.205118 29.073295 
L 258.366137 29.096902 
L 258.607657 29.214538 
L 258.929693 29.28144 
L 259.171213 29.321008 
L 259.654268 29.446815 
L 259.895787 29.53008 
L 260.056805 29.59063 
L 260.378842 29.635482 
L 260.53986 29.723805 
L 260.700878 29.69983 
L 260.861882 29.791372 
L 261.0229 29.820982 
L 261.183919 29.961315 
L 261.344936 29.953755 
L 262.150013 30.233895 
L 262.633067 30.306485 
L 262.874585 30.455375 
L 263.518659 30.71651 
L 263.760178 30.70202 
L 264.001699 30.9102 
L 264.162718 30.907225 
L 264.64577 31.071725 
L 264.726286 31.16136 
L 264.80679 31.08275 
L 265.128826 31.309462 
L 265.450862 31.483027 
L 265.61188 31.496695 
L 266.014418 31.691663 
L 266.255937 31.785462 
L 267.061014 32.108775 
L 267.14153 32.28094 
L 267.222031 32.200353 
L 267.62457 32.4033 
L 267.785588 32.514688 
L 268.027108 32.642525 
L 268.268642 32.793917 
L 268.429661 32.873472 
L 268.832198 33.126242 
L 268.993217 33.099887 
L 269.234737 33.285912 
L 269.476257 33.382583 
L 269.556773 33.483435 
L 269.637274 33.384367 
L 270.120329 33.79028 
L 270.281347 33.855468 
L 273.50168 36.003715 
L 273.662684 36.147093 
L 273.743201 36.160795 
L 274.065223 36.507033 
L 274.22624 36.619243 
L 274.709295 36.99362 
L 275.031331 37.224095 
L 275.433869 37.626875 
L 275.594887 37.708372 
L 277.044029 39.055872 
L 277.366058 39.370085 
L 278.171141 40.133505 
L 278.412668 40.390195 
L 278.734697 40.77565 
L 278.976231 40.958227 
L 279.298261 41.436117 
L 279.378769 41.402727 
L 279.62029 41.723835 
L 281.955023 44.599225 
L 282.19655 44.87772 
L 282.43807 45.270228 
L 284.128745 47.656064 
L 284.450782 48.2506 
L 284.611801 48.440247 
L 288.717711 55.663232 
L 289.039749 56.40553 
L 289.522795 57.270643 
L 289.844824 58.027894 
L 290.730416 59.994876 
L 291.052445 60.674183 
L 291.69651 62.186909 
L 292.501594 64.100928 
L 293.306678 66.144044 
L 294.031252 68.044316 
L 294.675317 69.782906 
L 295.158364 71.053826 
L 295.802429 72.908056 
L 298.861744 82.424469 
L 299.505809 84.591336 
L 299.74733 85.431065 
L 300.552406 88.298904 
L 304.336295 102.742791 
L 304.738833 104.499371 
L 305.221881 106.629218 
L 305.382898 107.14048 
L 305.704935 108.135696 
L 305.946455 108.56253 
L 306.107473 108.552389 
L 306.429509 108.694148 
L 306.590519 108.666918 
L 306.832046 108.644684 
L 307.073574 108.59816 
L 307.315095 108.695443 
L 307.71764 108.665141 
L 308.039669 108.631926 
L 308.200687 108.687358 
L 308.442213 108.592473 
L 308.522724 108.684199 
L 308.603231 108.577108 
L 308.683733 108.669228 
L 308.844752 108.613219 
L 309.166787 108.660058 
L 309.24729 108.558925 
L 309.327799 108.635724 
L 309.488817 108.724099 
L 309.569326 108.556178 
L 309.730344 108.621059 
L 309.971864 108.645288 
L 312.467615 108.686124 
L 312.548125 108.709915 
L 312.709143 108.667215 
L 316.009978 108.70862 
L 316.009978 108.70862 
" clip-path="url(#pd335efad62)" style="fill: none; stroke: #000000; stroke-opacity: 0.3; stroke-width: 2; stroke-linecap: square"/>
   </g>
   <g id="patch_6">
    <path d="M 217.325 135.486438 
L 217.325 20.798438 
" style="fill: none; stroke: #000000; stroke-width: 0.8; stroke-linejoin: miter; stroke-linecap: square"/>
   </g>
   <g id="patch_7">
    <path d="M 217.325 135.486437 
L 341.296861 135.486437 
" style="fill: none; stroke: #000000; stroke-width: 0.8; stroke-linejoin: miter; stroke-linecap: square"/>
   </g>
   <g id="text_22">
    <!-- CTAB -->
    <g transform="translate(266.302337 14.798437) scale(0.1 -0.1)">
     <defs>
      <path id="DejaVuSans-54" d="M -19 4666 
L 3928 4666 
L 3928 4134 
L 2272 4134 
L 2272 0 
L 1638 0 
L 1638 4134 
L -19 4134 
L -19 4666 
z
" transform="scale(0.015625)"/>
      <path id="DejaVuSans-41" d="M 2188 4044 
L 1331 1722 
L 3047 1722 
L 2188 4044 
z
M 1831 4666 
L 2547 4666 
L 4325 0 
L 3669 0 
L 3244 1197 
L 1141 1197 
L 716 0 
L 50 0 
L 1831 4666 
z
" transform="scale(0.015625)"/>
     </defs>
     <use xlink:href="#DejaVuSans-43"/>
     <use xlink:href="#DejaVuSans-54" x="69.824219"/>
     <use xlink:href="#DejaVuSans-41" x="123.158203"/>
     <use xlink:href="#DejaVuSans-42" x="191.566406"/>
    </g>
   </g>
   <g id="PathCollection_3">
    <g clip-path="url(#pd335efad62)">
     <use xlink:href="#m85c3eeef44" x="253.455135" y="26.395485" style="stroke: #000000"/>
     <use xlink:href="#m85c3eeef44" x="262.391541" y="29.161122" style="stroke: #000000"/>
     <use xlink:href="#m85c3eeef44" x="271.327948" y="29.541364" style="stroke: #000000"/>
     <use xlink:href="#m85c3eeef44" x="280.264354" y="39.113871" style="stroke: #000000"/>
     <use xlink:href="#m85c3eeef44" x="289.200761" y="56.677934" style="stroke: #000000"/>
     <use xlink:href="#m85c3eeef44" x="298.137167" y="83.513801" style="stroke: #000000"/>
     <use xlink:href="#m85c3eeef44" x="307.073573" y="107.512236" style="stroke: #000000"/>
     <use xlink:href="#m85c3eeef44" x="316.00998" y="109.69386" style="stroke: #000000"/>
    </g>
   </g>
   <g id="PathCollection_4">
    <g clip-path="url(#pd335efad62)">
     <use xlink:href="#m5875e59c40" x="302.967655" y="94.79202" style="fill: #ff7f0e; stroke: #ff7f0e; stroke-width: 1.5"/>
     <use xlink:href="#m5875e59c40" x="304.658325" y="107.065342" style="fill: #ff7f0e; stroke: #ff7f0e; stroke-width: 1.5"/>
     <use xlink:href="#m5875e59c40" x="291.69651" y="65.06614" style="fill: #ff7f0e; stroke: #ff7f0e; stroke-width: 1.5"/>
     <use xlink:href="#m5875e59c40" x="304.658325" y="101.29242" style="fill: #ff7f0e; stroke: #ff7f0e; stroke-width: 1.5"/>
    </g>
   </g>
  </g>
  <g id="axes_3">
   <g id="patch_8">
    <path d="M 393.725 135.486437 
L 517.696861 135.486437 
L 517.696861 20.798437 
L 393.725 20.798437 
z
" style="fill: #ffffff"/>
   </g>
   <g id="matplotlib.axis_5">
    <g id="xtick_7">
     <g id="line2d_19">
      <g>
       <use xlink:href="#m24cfaf56ed" x="393.725" y="135.486437" style="stroke: #000000; stroke-width: 0.8"/>
      </g>
     </g>
     <g id="text_23">
      <!-- $\mathdefault{10^{-3}}$ -->
      <g transform="translate(381.975 150.084875) scale(0.1 -0.1)">
       <use xlink:href="#DejaVuSans-31" transform="translate(0 0.765625)"/>
       <use xlink:href="#DejaVuSans-30" transform="translate(63.623047 0.765625)"/>
       <use xlink:href="#DejaVuSans-2212" transform="translate(128.203125 39.046875) scale(0.7)"/>
       <use xlink:href="#DejaVuSans-33" transform="translate(186.855469 39.046875) scale(0.7)"/>
      </g>
     </g>
    </g>
    <g id="xtick_8">
     <g id="line2d_20">
      <g>
       <use xlink:href="#m24cfaf56ed" x="453.097199" y="135.486437" style="stroke: #000000; stroke-width: 0.8"/>
      </g>
     </g>
     <g id="text_24">
      <!-- $\mathdefault{10^{-1}}$ -->
      <g transform="translate(441.347199 150.084875) scale(0.1 -0.1)">
       <use xlink:href="#DejaVuSans-31" transform="translate(0 0.684375)"/>
       <use xlink:href="#DejaVuSans-30" transform="translate(63.623047 0.684375)"/>
       <use xlink:href="#DejaVuSans-2212" transform="translate(128.203125 38.965625) scale(0.7)"/>
       <use xlink:href="#DejaVuSans-31" transform="translate(186.855469 38.965625) scale(0.7)"/>
      </g>
     </g>
    </g>
    <g id="xtick_9">
     <g id="line2d_21">
      <g>
       <use xlink:href="#m24cfaf56ed" x="512.469398" y="135.486437" style="stroke: #000000; stroke-width: 0.8"/>
      </g>
     </g>
     <g id="text_25">
      <!-- $\mathdefault{10^{1}}$ -->
      <g transform="translate(503.669398 150.084875) scale(0.1 -0.1)">
       <use xlink:href="#DejaVuSans-31" transform="translate(0 0.684375)"/>
       <use xlink:href="#DejaVuSans-30" transform="translate(63.623047 0.684375)"/>
       <use xlink:href="#DejaVuSans-31" transform="translate(128.203125 38.965625) scale(0.7)"/>
      </g>
     </g>
    </g>
    <g id="text_26">
     <!-- Concentration / mM -->
     <g transform="translate(406.292962 163.763) scale(0.1 -0.1)">
      <use xlink:href="#DejaVuSans-43"/>
      <use xlink:href="#DejaVuSans-6f" x="69.824219"/>
      <use xlink:href="#DejaVuSans-6e" x="131.005859"/>
      <use xlink:href="#DejaVuSans-63" x="194.384766"/>
      <use xlink:href="#DejaVuSans-65" x="249.365234"/>
      <use xlink:href="#DejaVuSans-6e" x="310.888672"/>
      <use xlink:href="#DejaVuSans-74" x="374.267578"/>
      <use xlink:href="#DejaVuSans-72" x="413.476562"/>
      <use xlink:href="#DejaVuSans-61" x="454.589844"/>
      <use xlink:href="#DejaVuSans-74" x="515.869141"/>
      <use xlink:href="#DejaVuSans-69" x="555.078125"/>
      <use xlink:href="#DejaVuSans-6f" x="582.861328"/>
      <use xlink:href="#DejaVuSans-6e" x="644.042969"/>
      <use xlink:href="#DejaVuSans-20" x="707.421875"/>
      <use xlink:href="#DejaVuSans-2f" x="739.208984"/>
      <use xlink:href="#DejaVuSans-20" x="772.900391"/>
      <use xlink:href="#DejaVuSans-6d" x="804.6875"/>
      <use xlink:href="#DejaVuSans-4d" x="902.099609"/>
     </g>
    </g>
   </g>
   <g id="matplotlib.axis_6">
    <g id="ytick_11">
     <g id="line2d_22">
      <g>
       <use xlink:href="#m1537ea7be9" x="393.725" y="124.017638" style="stroke: #000000; stroke-width: 0.8"/>
      </g>
     </g>
     <g id="text_27">
      <!-- 30 -->
      <g transform="translate(374 127.816856) scale(0.1 -0.1)">
       <use xlink:href="#DejaVuSans-33"/>
       <use xlink:href="#DejaVuSans-30" x="63.623047"/>
      </g>
     </g>
    </g>
    <g id="ytick_12">
     <g id="line2d_23">
      <g>
       <use xlink:href="#m1537ea7be9" x="393.725" y="101.080038" style="stroke: #000000; stroke-width: 0.8"/>
      </g>
     </g>
     <g id="text_28">
      <!-- 40 -->
      <g transform="translate(374 104.879256) scale(0.1 -0.1)">
       <use xlink:href="#DejaVuSans-34"/>
       <use xlink:href="#DejaVuSans-30" x="63.623047"/>
      </g>
     </g>
    </g>
    <g id="ytick_13">
     <g id="line2d_24">
      <g>
       <use xlink:href="#m1537ea7be9" x="393.725" y="78.142437" style="stroke: #000000; stroke-width: 0.8"/>
      </g>
     </g>
     <g id="text_29">
      <!-- 50 -->
      <g transform="translate(374 81.941656) scale(0.1 -0.1)">
       <use xlink:href="#DejaVuSans-35"/>
       <use xlink:href="#DejaVuSans-30" x="63.623047"/>
      </g>
     </g>
    </g>
    <g id="ytick_14">
     <g id="line2d_25">
      <g>
       <use xlink:href="#m1537ea7be9" x="393.725" y="55.204837" style="stroke: #000000; stroke-width: 0.8"/>
      </g>
     </g>
     <g id="text_30">
      <!-- 60 -->
      <g transform="translate(374 59.004056) scale(0.1 -0.1)">
       <use xlink:href="#DejaVuSans-36"/>
       <use xlink:href="#DejaVuSans-30" x="63.623047"/>
      </g>
     </g>
    </g>
    <g id="ytick_15">
     <g id="line2d_26">
      <g>
       <use xlink:href="#m1537ea7be9" x="393.725" y="32.267237" style="stroke: #000000; stroke-width: 0.8"/>
      </g>
     </g>
     <g id="text_31">
      <!-- 70 -->
      <g transform="translate(374 36.066456) scale(0.1 -0.1)">
       <use xlink:href="#DejaVuSans-37"/>
       <use xlink:href="#DejaVuSans-30" x="63.623047"/>
      </g>
     </g>
    </g>
    <g id="text_32">
     <!-- Surface tension / $\mathrm{mN \ m^{-1}}$ -->
     <g transform="translate(367.920313 142.542437) rotate(-90) scale(0.1 -0.1)">
      <use xlink:href="#DejaVuSans-53" transform="translate(0 0.684375)"/>
      <use xlink:href="#DejaVuSans-75" transform="translate(63.476562 0.684375)"/>
      <use xlink:href="#DejaVuSans-72" transform="translate(126.855469 0.684375)"/>
      <use xlink:href="#DejaVuSans-66" transform="translate(167.96875 0.684375)"/>
      <use xlink:href="#DejaVuSans-61" transform="translate(203.173828 0.684375)"/>
      <use xlink:href="#DejaVuSans-63" transform="translate(264.453125 0.684375)"/>
      <use xlink:href="#DejaVuSans-65" transform="translate(319.433594 0.684375)"/>
      <use xlink:href="#DejaVuSans-20" transform="translate(380.957031 0.684375)"/>
      <use xlink:href="#DejaVuSans-74" transform="translate(412.744141 0.684375)"/>
      <use xlink:href="#DejaVuSans-65" transform="translate(451.953125 0.684375)"/>
      <use xlink:href="#DejaVuSans-6e" transform="translate(513.476562 0.684375)"/>
      <use xlink:href="#DejaVuSans-73" transform="translate(576.855469 0.684375)"/>
      <use xlink:href="#DejaVuSans-69" transform="translate(628.955078 0.684375)"/>
      <use xlink:href="#DejaVuSans-6f" transform="translate(656.738281 0.684375)"/>
      <use xlink:href="#DejaVuSans-6e" transform="translate(717.919922 0.684375)"/>
      <use xlink:href="#DejaVuSans-20" transform="translate(781.298828 0.684375)"/>
      <use xlink:href="#DejaVuSans-2f" transform="translate(813.085938 0.684375)"/>
      <use xlink:href="#DejaVuSans-20" transform="translate(846.777344 0.684375)"/>
      <use xlink:href="#DejaVuSans-6d" transform="translate(878.564453 0.684375)"/>
      <use xlink:href="#DejaVuSans-4e" transform="translate(975.976562 0.684375)"/>
      <use xlink:href="#DejaVuSans-6d" transform="translate(1083.251628 0.684375)"/>
      <use xlink:href="#DejaVuSans-2212" transform="translate(1181.620769 38.965625) scale(0.7)"/>
      <use xlink:href="#DejaVuSans-31" transform="translate(1240.273113 38.965625) scale(0.7)"/>
     </g>
    </g>
   </g>
   <g id="line2d_27">
    <path d="M 391.887823 27.479238 
L 393.820011 27.811405 
L 393.891582 27.70805 
L 394.034706 27.836815 
L 394.177833 27.833875 
L 394.60721 27.94395 
L 394.750335 27.847612 
L 394.821891 28.02403 
L 394.965016 27.870345 
L 395.179712 27.984655 
L 395.251267 27.900532 
L 395.394394 28.035317 
L 395.537519 28.036805 
L 395.966909 28.083022 
L 396.110035 28.107172 
L 397.469722 28.417272 
L 397.541291 28.336283 
L 397.612847 28.42968 
L 397.684417 28.354517 
L 397.755973 28.360765 
L 397.827542 28.531792 
L 397.899099 28.451047 
L 398.757851 28.691515 
L 398.900978 28.694437 
L 399.115673 28.766765 
L 399.187229 28.840563 
L 399.258799 28.714632 
L 399.330354 28.775095 
L 399.473479 28.851063 
L 399.54505 28.76036 
L 399.688175 28.929725 
L 399.831286 28.888915 
L 400.045983 28.98191 
L 400.260664 28.957095 
L 400.47536 29.09503 
L 400.76161 29.034462 
L 400.833166 29.23027 
L 400.904736 29.093998 
L 400.976292 29.15915 
L 401.334113 29.296122 
L 401.405669 29.32736 
L 401.477239 29.230498 
L 401.620364 29.471595 
L 401.691919 29.422612 
L 402.192867 29.553495 
L 402.335992 29.594918 
L 402.407547 29.492035 
L 402.479118 29.56543 
L 402.550673 29.558098 
L 402.693799 29.628832 
L 402.836926 29.67197 
L 405.842576 30.636937 
L 406.057258 30.856527 
L 406.128828 30.722705 
L 406.271953 30.865995 
L 406.701331 30.999012 
L 407.202262 31.193788 
L 407.273832 31.15492 
L 407.488514 31.29835 
L 407.774765 31.50093 
L 407.846321 31.423055 
L 407.917891 31.562023 
L 407.989445 31.4744 
L 408.490393 31.728727 
L 408.633519 31.8272 
L 408.8482 31.951327 
L 408.991325 31.973553 
L 409.206021 32.159053 
L 409.349147 32.071063 
L 409.635398 32.291982 
L 409.921649 32.364992 
L 410.207901 32.660865 
L 410.351026 32.61001 
L 410.637277 32.805678 
L 410.708847 32.756275 
L 410.923528 33.000925 
L 411.424475 33.191255 
L 411.639157 33.361198 
L 411.710726 33.325305 
L 411.782282 33.516632 
L 411.853851 33.449958 
L 411.996977 33.53674 
L 412.140104 33.609942 
L 412.354785 33.80099 
L 412.569481 33.853595 
L 412.712606 34.046042 
L 412.784162 33.973977 
L 413.213537 34.318115 
L 413.428233 34.418338 
L 413.786041 34.684495 
L 413.857611 34.621058 
L 414.072292 34.856292 
L 414.215418 34.86681 
L 414.358543 35.02928 
L 414.501669 35.099543 
L 414.644794 35.309892 
L 414.78792 35.339957 
L 415.503547 35.896668 
L 415.932924 36.101522 
L 416.147606 36.357268 
L 416.863234 36.911248 
L 416.934804 36.88652 
L 417.149484 37.218337 
L 417.292611 37.246373 
L 418.151379 38.02283 
L 418.43763 38.336588 
L 418.509186 38.28953 
L 418.938562 38.74873 
L 419.081687 38.893333 
L 419.511065 39.271402 
L 419.797316 39.647617 
L 419.868886 39.59265 
L 419.940441 39.83072 
L 420.012012 39.756608 
L 420.369818 40.139367 
L 420.512944 40.33164 
L 420.72764 40.551842 
L 420.942321 40.826943 
L 421.085446 40.980312 
L 421.514822 41.38773 
L 421.872644 41.805997 
L 424.878282 45.71338 
L 425.092964 45.995165 
L 425.450784 46.492638 
L 426.309538 47.8684 
L 426.452664 47.948261 
L 426.667345 48.388185 
L 426.738915 48.450721 
L 427.025167 48.977121 
L 427.311417 49.463376 
L 427.454543 49.6415 
L 427.740794 50.109686 
L 427.955475 50.615174 
L 428.098601 50.735364 
L 429.744552 53.733753 
L 430.03079 54.361101 
L 430.10236 54.360734 
L 430.38861 55.017351 
L 430.531736 55.35273 
L 430.746432 55.848566 
L 430.817987 55.851069 
L 431.104253 56.508736 
L 431.533616 57.40366 
L 435.254895 66.29807 
L 435.541132 67.151195 
L 438.618341 76.12677 
L 438.976161 77.343335 
L 441.480852 85.960563 
L 441.767105 87.029813 
L 442.625857 90.243294 
L 443.556166 93.919633 
L 444.200239 96.499675 
L 444.772742 98.95076 
L 445.130563 100.491854 
L 446.275553 105.564386 
L 446.633374 107.109374 
L 450.640891 126.410058 
L 451.070268 127.316086 
L 451.428074 127.468944 
L 451.499645 127.238928 
L 451.64277 127.401127 
L 451.857451 127.469189 
L 451.929021 127.51615 
L 452.000592 127.395256 
L 452.072148 127.489524 
L 452.286829 127.361857 
L 452.501524 127.484108 
L 452.573079 127.352643 
L 452.64465 127.522463 
L 452.716206 127.439378 
L 452.930901 127.48185 
L 453.002457 127.289442 
L 453.145582 127.4521 
L 453.217146 127.357788 
L 453.288708 127.428191 
L 453.360278 127.394573 
L 453.503403 127.450403 
L 453.64653 127.467763 
L 453.789647 127.534271 
L 453.932781 127.375236 
L 454.075906 127.501319 
L 454.219025 127.42144 
L 454.43372 127.533794 
L 454.576839 127.387871 
L 454.863097 127.506341 
L 454.934659 127.394648 
L 455.006223 127.471516 
L 455.220911 127.443136 
L 455.435599 127.38154 
L 455.650281 127.497526 
L 455.793413 127.499687 
L 456.151227 127.435309 
L 456.222791 127.527573 
L 456.294352 127.420753 
L 456.437472 127.49193 
L 456.652166 127.373582 
L 456.723729 127.476482 
L 456.795292 127.351331 
L 456.866855 127.465321 
L 457.009973 127.407554 
L 457.296232 127.464823 
L 457.367788 127.323615 
L 457.439351 127.427841 
L 457.582484 127.544281 
L 457.654046 127.328143 
L 457.725609 127.466131 
L 457.797172 127.415761 
L 457.94029 127.426506 
L 458.298104 127.422591 
L 458.369666 127.323051 
L 458.5128 127.436494 
L 458.727488 127.436748 
L 458.799044 127.371902 
L 458.870607 127.454139 
L 459.013739 127.439338 
L 459.371553 127.425448 
L 459.514679 127.422954 
L 459.944056 127.429101 
L 460.087181 127.465063 
L 460.80281 127.405791 
L 460.945934 127.381619 
L 461.017497 127.455491 
L 461.08906 127.377664 
L 461.589994 127.453242 
L 461.733126 127.389953 
L 461.804689 127.541814 
L 461.947814 127.414156 
L 462.090932 127.491891 
L 462.162503 127.395041 
L 462.234066 127.516701 
L 462.305629 127.379357 
L 462.377191 127.442471 
L 462.448754 127.515993 
L 462.591873 127.421348 
L 462.87813 127.486912 
L 462.949694 127.549164 
L 463.164382 127.405244 
L 463.379071 127.523981 
L 463.379071 127.523981 
" clip-path="url(#pda5b91460e)" style="fill: none; stroke: #000000; stroke-opacity: 0.3; stroke-width: 2; stroke-linecap: square"/>
   </g>
   <g id="patch_9">
    <path d="M 393.725 135.486438 
L 393.725 20.798438 
" style="fill: none; stroke: #000000; stroke-width: 0.8; stroke-linejoin: miter; stroke-linecap: square"/>
   </g>
   <g id="patch_10">
    <path d="M 393.725 135.486437 
L 517.696861 135.486437 
" style="fill: none; stroke: #000000; stroke-width: 0.8; stroke-linejoin: miter; stroke-linecap: square"/>
   </g>
   <g id="text_33">
    <!-- C$_{12}$E$_{3}$ -->
    <g transform="translate(442.01093 14.798437) scale(0.1 -0.1)">
     <defs>
      <path id="DejaVuSans-32" d="M 1228 531 
L 3431 531 
L 3431 0 
L 469 0 
L 469 531 
Q 828 903 1448 1529 
Q 2069 2156 2228 2338 
Q 2531 2678 2651 2914 
Q 2772 3150 2772 3378 
Q 2772 3750 2511 3984 
Q 2250 4219 1831 4219 
Q 1534 4219 1204 4116 
Q 875 4013 500 3803 
L 500 4441 
Q 881 4594 1212 4672 
Q 1544 4750 1819 4750 
Q 2544 4750 2975 4387 
Q 3406 4025 3406 3419 
Q 3406 3131 3298 2873 
Q 3191 2616 2906 2266 
Q 2828 2175 2409 1742 
Q 1991 1309 1228 531 
z
" transform="scale(0.015625)"/>
      <path id="DejaVuSans-45" d="M 628 4666 
L 3578 4666 
L 3578 4134 
L 1259 4134 
L 1259 2753 
L 3481 2753 
L 3481 2222 
L 1259 2222 
L 1259 531 
L 3634 531 
L 3634 0 
L 628 0 
L 628 4666 
z
" transform="scale(0.015625)"/>
     </defs>
     <use xlink:href="#DejaVuSans-43" transform="translate(0 0.78125)"/>
     <use xlink:href="#DejaVuSans-31" transform="translate(70.78125 -15.625) scale(0.7)"/>
     <use xlink:href="#DejaVuSans-32" transform="translate(115.317383 -15.625) scale(0.7)"/>
     <use xlink:href="#DejaVuSans-45" transform="translate(162.587891 0.78125)"/>
     <use xlink:href="#DejaVuSans-33" transform="translate(226.728516 -15.625) scale(0.7)"/>
    </g>
   </g>
   <g id="PathCollection_5">
    <g clip-path="url(#pda5b91460e)">
     <use xlink:href="#m85c3eeef44" x="409.760629" y="27.215505" style="stroke: #000000"/>
     <use xlink:href="#m85c3eeef44" x="418.697036" y="28.614808" style="stroke: #000000"/>
     <use xlink:href="#m85c3eeef44" x="427.633442" y="46.638312" style="stroke: #000000"/>
     <use xlink:href="#m85c3eeef44" x="436.569849" y="74.726326" style="stroke: #000000"/>
     <use xlink:href="#m85c3eeef44" x="445.506255" y="103.116243" style="stroke: #000000"/>
     <use xlink:href="#m85c3eeef44" x="454.442662" y="125.445275" style="stroke: #000000"/>
     <use xlink:href="#m85c3eeef44" x="463.379068" y="129.438017" style="stroke: #000000"/>
    </g>
   </g>
   <g id="PathCollection_6"/>
  </g>
  <g id="axes_4">
   <g id="patch_11">
    <path d="M 40.925 310.086437 
L 164.896861 310.086437 
L 164.896861 195.398437 
L 40.925 195.398437 
z
" style="fill: #ffffff"/>
   </g>
   <g id="matplotlib.axis_7">
    <g id="xtick_10">
     <g id="line2d_28">
      <g>
       <use xlink:href="#m24cfaf56ed" x="40.925" y="310.086437" style="stroke: #000000; stroke-width: 0.8"/>
      </g>
     </g>
     <g id="text_34">
      <!-- $\mathdefault{10^{-3}}$ -->
      <g transform="translate(29.175 324.684875) scale(0.1 -0.1)">
       <use xlink:href="#DejaVuSans-31" transform="translate(0 0.765625)"/>
       <use xlink:href="#DejaVuSans-30" transform="translate(63.623047 0.765625)"/>
       <use xlink:href="#DejaVuSans-2212" transform="translate(128.203125 39.046875) scale(0.7)"/>
       <use xlink:href="#DejaVuSans-33" transform="translate(186.855469 39.046875) scale(0.7)"/>
      </g>
     </g>
    </g>
    <g id="xtick_11">
     <g id="line2d_29">
      <g>
       <use xlink:href="#m24cfaf56ed" x="100.297199" y="310.086437" style="stroke: #000000; stroke-width: 0.8"/>
      </g>
     </g>
     <g id="text_35">
      <!-- $\mathdefault{10^{-1}}$ -->
      <g transform="translate(88.547199 324.684875) scale(0.1 -0.1)">
       <use xlink:href="#DejaVuSans-31" transform="translate(0 0.684375)"/>
       <use xlink:href="#DejaVuSans-30" transform="translate(63.623047 0.684375)"/>
       <use xlink:href="#DejaVuSans-2212" transform="translate(128.203125 38.965625) scale(0.7)"/>
       <use xlink:href="#DejaVuSans-31" transform="translate(186.855469 38.965625) scale(0.7)"/>
      </g>
     </g>
    </g>
    <g id="xtick_12">
     <g id="line2d_30">
      <g>
       <use xlink:href="#m24cfaf56ed" x="159.669398" y="310.086437" style="stroke: #000000; stroke-width: 0.8"/>
      </g>
     </g>
     <g id="text_36">
      <!-- $\mathdefault{10^{1}}$ -->
      <g transform="translate(150.869398 324.684875) scale(0.1 -0.1)">
       <use xlink:href="#DejaVuSans-31" transform="translate(0 0.684375)"/>
       <use xlink:href="#DejaVuSans-30" transform="translate(63.623047 0.684375)"/>
       <use xlink:href="#DejaVuSans-31" transform="translate(128.203125 38.965625) scale(0.7)"/>
      </g>
     </g>
    </g>
    <g id="text_37">
     <!-- Concentration / mM -->
     <g transform="translate(53.492962 338.363) scale(0.1 -0.1)">
      <use xlink:href="#DejaVuSans-43"/>
      <use xlink:href="#DejaVuSans-6f" x="69.824219"/>
      <use xlink:href="#DejaVuSans-6e" x="131.005859"/>
      <use xlink:href="#DejaVuSans-63" x="194.384766"/>
      <use xlink:href="#DejaVuSans-65" x="249.365234"/>
      <use xlink:href="#DejaVuSans-6e" x="310.888672"/>
      <use xlink:href="#DejaVuSans-74" x="374.267578"/>
      <use xlink:href="#DejaVuSans-72" x="413.476562"/>
      <use xlink:href="#DejaVuSans-61" x="454.589844"/>
      <use xlink:href="#DejaVuSans-74" x="515.869141"/>
      <use xlink:href="#DejaVuSans-69" x="555.078125"/>
      <use xlink:href="#DejaVuSans-6f" x="582.861328"/>
      <use xlink:href="#DejaVuSans-6e" x="644.042969"/>
      <use xlink:href="#DejaVuSans-20" x="707.421875"/>
      <use xlink:href="#DejaVuSans-2f" x="739.208984"/>
      <use xlink:href="#DejaVuSans-20" x="772.900391"/>
      <use xlink:href="#DejaVuSans-6d" x="804.6875"/>
      <use xlink:href="#DejaVuSans-4d" x="902.099609"/>
     </g>
    </g>
   </g>
   <g id="matplotlib.axis_8">
    <g id="ytick_16">
     <g id="line2d_31">
      <g>
       <use xlink:href="#m1537ea7be9" x="40.925" y="298.617638" style="stroke: #000000; stroke-width: 0.8"/>
      </g>
     </g>
     <g id="text_38">
      <!-- 30 -->
      <g transform="translate(21.2 302.416856) scale(0.1 -0.1)">
       <use xlink:href="#DejaVuSans-33"/>
       <use xlink:href="#DejaVuSans-30" x="63.623047"/>
      </g>
     </g>
    </g>
    <g id="ytick_17">
     <g id="line2d_32">
      <g>
       <use xlink:href="#m1537ea7be9" x="40.925" y="275.680037" style="stroke: #000000; stroke-width: 0.8"/>
      </g>
     </g>
     <g id="text_39">
      <!-- 40 -->
      <g transform="translate(21.2 279.479256) scale(0.1 -0.1)">
       <use xlink:href="#DejaVuSans-34"/>
       <use xlink:href="#DejaVuSans-30" x="63.623047"/>
      </g>
     </g>
    </g>
    <g id="ytick_18">
     <g id="line2d_33">
      <g>
       <use xlink:href="#m1537ea7be9" x="40.925" y="252.742437" style="stroke: #000000; stroke-width: 0.8"/>
      </g>
     </g>
     <g id="text_40">
      <!-- 50 -->
      <g transform="translate(21.2 256.541656) scale(0.1 -0.1)">
       <use xlink:href="#DejaVuSans-35"/>
       <use xlink:href="#DejaVuSans-30" x="63.623047"/>
      </g>
     </g>
    </g>
    <g id="ytick_19">
     <g id="line2d_34">
      <g>
       <use xlink:href="#m1537ea7be9" x="40.925" y="229.804837" style="stroke: #000000; stroke-width: 0.8"/>
      </g>
     </g>
     <g id="text_41">
      <!-- 60 -->
      <g transform="translate(21.2 233.604056) scale(0.1 -0.1)">
       <use xlink:href="#DejaVuSans-36"/>
       <use xlink:href="#DejaVuSans-30" x="63.623047"/>
      </g>
     </g>
    </g>
    <g id="ytick_20">
     <g id="line2d_35">
      <g>
       <use xlink:href="#m1537ea7be9" x="40.925" y="206.867237" style="stroke: #000000; stroke-width: 0.8"/>
      </g>
     </g>
     <g id="text_42">
      <!-- 70 -->
      <g transform="translate(21.2 210.666456) scale(0.1 -0.1)">
       <use xlink:href="#DejaVuSans-37"/>
       <use xlink:href="#DejaVuSans-30" x="63.623047"/>
      </g>
     </g>
    </g>
    <g id="text_43">
     <!-- Surface tension / $\mathrm{mN \ m^{-1}}$ -->
     <g transform="translate(15.120312 317.142437) rotate(-90) scale(0.1 -0.1)">
      <use xlink:href="#DejaVuSans-53" transform="translate(0 0.684375)"/>
      <use xlink:href="#DejaVuSans-75" transform="translate(63.476562 0.684375)"/>
      <use xlink:href="#DejaVuSans-72" transform="translate(126.855469 0.684375)"/>
      <use xlink:href="#DejaVuSans-66" transform="translate(167.96875 0.684375)"/>
      <use xlink:href="#DejaVuSans-61" transform="translate(203.173828 0.684375)"/>
      <use xlink:href="#DejaVuSans-63" transform="translate(264.453125 0.684375)"/>
      <use xlink:href="#DejaVuSans-65" transform="translate(319.433594 0.684375)"/>
      <use xlink:href="#DejaVuSans-20" transform="translate(380.957031 0.684375)"/>
      <use xlink:href="#DejaVuSans-74" transform="translate(412.744141 0.684375)"/>
      <use xlink:href="#DejaVuSans-65" transform="translate(451.953125 0.684375)"/>
      <use xlink:href="#DejaVuSans-6e" transform="translate(513.476562 0.684375)"/>
      <use xlink:href="#DejaVuSans-73" transform="translate(576.855469 0.684375)"/>
      <use xlink:href="#DejaVuSans-69" transform="translate(628.955078 0.684375)"/>
      <use xlink:href="#DejaVuSans-6f" transform="translate(656.738281 0.684375)"/>
      <use xlink:href="#DejaVuSans-6e" transform="translate(717.919922 0.684375)"/>
      <use xlink:href="#DejaVuSans-20" transform="translate(781.298828 0.684375)"/>
      <use xlink:href="#DejaVuSans-2f" transform="translate(813.085938 0.684375)"/>
      <use xlink:href="#DejaVuSans-20" transform="translate(846.777344 0.684375)"/>
      <use xlink:href="#DejaVuSans-6d" transform="translate(878.564453 0.684375)"/>
      <use xlink:href="#DejaVuSans-4e" transform="translate(975.976562 0.684375)"/>
      <use xlink:href="#DejaVuSans-6d" transform="translate(1083.251628 0.684375)"/>
      <use xlink:href="#DejaVuSans-2212" transform="translate(1181.620769 38.965625) scale(0.7)"/>
      <use xlink:href="#DejaVuSans-31" transform="translate(1240.273113 38.965625) scale(0.7)"/>
     </g>
    </g>
   </g>
   <g id="line2d_36">
    <path d="M 91.224104 201.259765 
L 92.592735 201.367547 
L 92.753753 201.362472 
L 93.156291 201.427047 
L 94.122401 201.502367 
L 94.84696 201.52363 
L 95.41053 201.579507 
L 95.813068 201.604742 
L 96.135104 201.628437 
L 96.618159 201.720557 
L 96.779163 201.727697 
L 97.584253 201.764622 
L 97.906275 201.858615 
L 98.147809 201.858195 
L 98.550347 201.915665 
L 98.791868 201.91276 
L 99.194405 201.971962 
L 99.355424 202.010042 
L 99.677461 202.042312 
L 100.724064 202.186512 
L 100.885081 202.200617 
L 101.207111 202.19171 
L 101.368128 202.221635 
L 101.931685 202.353987 
L 102.092703 202.374532 
L 102.334223 202.412542 
L 102.656259 202.4519 
L 106.60116 203.136657 
L 107.164716 203.303992 
L 107.325734 203.323207 
L 108.291835 203.488477 
L 108.694373 203.623 
L 109.016402 203.674432 
L 109.257929 203.774025 
L 109.418947 203.773412 
L 109.579958 203.843447 
L 109.740977 203.860475 
L 110.063012 203.9653 
L 110.70707 204.1711 
L 110.868089 204.14114 
L 111.270635 204.286687 
L 111.673172 204.44676 
L 115.537564 205.768167 
L 115.8596 205.906907 
L 116.020618 205.94903 
L 116.262138 206.034832 
L 118.274843 206.93708 
L 118.596872 207.144962 
L 120.368063 208.0904 
L 120.529075 208.156147 
L 120.931612 208.40533 
L 121.253648 208.585562 
L 121.897714 208.991562 
L 123.668891 210.190855 
L 124.07143 210.49357 
L 124.957022 211.136625 
L 127.935822 213.71889 
L 128.418875 214.242962 
L 128.660403 214.42295 
L 129.223959 215.034312 
L 129.626497 215.43823 
L 130.270562 216.15706 
L 131.397675 217.44884 
L 134.859527 222.051034 
L 135.181557 222.552925 
L 138.160356 227.516634 
L 140.656114 232.362629 
L 141.300179 233.755419 
L 142.185765 235.675659 
L 143.071358 237.72665 
L 144.278979 240.656622 
L 144.681525 241.688947 
L 145.647618 244.17981 
L 150.478104 258.623277 
L 154.100975 271.463377 
L 156.11368 279.01972 
L 156.355208 279.341125 
L 156.596727 279.43125 
L 156.838255 279.417924 
L 158.689941 279.44308 
L 158.931461 279.451042 
L 159.172988 279.391254 
L 159.414515 279.450981 
L 159.495017 279.389556 
L 159.656035 279.429692 
L 161.105183 279.437602 
L 161.588231 279.470896 
L 161.749249 279.409139 
L 162.071282 279.460912 
L 162.2323 279.443745 
L 162.634842 279.430392 
L 162.876361 279.444174 
L 163.439921 279.433122 
L 164.486528 279.40962 
L 164.808557 279.435065 
L 164.969579 279.422141 
L 165.13059 279.476059 
L 165.211103 279.375075 
L 165.291608 279.441619 
L 165.774658 279.39723 
L 165.935678 279.42082 
L 166.096691 279.426271 
L 171.651755 279.464955 
L 171.651755 279.464955 
" clip-path="url(#pc8bd50bd9d)" style="fill: none; stroke: #000000; stroke-opacity: 0.3; stroke-width: 2; stroke-linecap: square"/>
   </g>
   <g id="patch_12">
    <path d="M 40.925 310.086437 
L 40.925 195.398437 
" style="fill: none; stroke: #000000; stroke-width: 0.8; stroke-linejoin: miter; stroke-linecap: square"/>
   </g>
   <g id="patch_13">
    <path d="M 40.925 310.086437 
L 164.896861 310.086437 
" style="fill: none; stroke: #000000; stroke-width: 0.8; stroke-linejoin: miter; stroke-linecap: square"/>
   </g>
   <g id="text_44">
    <!-- SDS -->
    <g transform="translate(92.712493 189.398437) scale(0.1 -0.1)">
     <use xlink:href="#DejaVuSans-53"/>
     <use xlink:href="#DejaVuSans-44" x="63.476562"/>
     <use xlink:href="#DejaVuSans-53" x="140.478516"/>
    </g>
   </g>
   <g id="PathCollection_7">
    <g clip-path="url(#pc8bd50bd9d)">
     <use xlink:href="#m85c3eeef44" x="109.096908" y="204.253007" style="stroke: #000000"/>
     <use xlink:href="#m85c3eeef44" x="118.033314" y="205.795566" style="stroke: #000000"/>
     <use xlink:href="#m85c3eeef44" x="126.969721" y="212.557201" style="stroke: #000000"/>
     <use xlink:href="#m85c3eeef44" x="135.906127" y="226.138985" style="stroke: #000000"/>
     <use xlink:href="#m85c3eeef44" x="144.842533" y="241.53225" style="stroke: #000000"/>
     <use xlink:href="#m85c3eeef44" x="153.77894" y="272.320452" style="stroke: #000000"/>
     <use xlink:href="#m85c3eeef44" x="162.715346" y="279.243657" style="stroke: #000000"/>
     <use xlink:href="#m85c3eeef44" x="171.651753" y="279.591003" style="stroke: #000000"/>
    </g>
   </g>
   <g id="PathCollection_8">
    <g clip-path="url(#pc8bd50bd9d)">
     <use xlink:href="#m5875e59c40" x="155.308597" y="274.642998" style="fill: #ff7f0e; stroke: #ff7f0e; stroke-width: 1.5"/>
     <use xlink:href="#m5875e59c40" x="138.079846" y="225.518486" style="fill: #ff7f0e; stroke: #ff7f0e; stroke-width: 1.5"/>
    </g>
   </g>
  </g>
  <g id="axes_5">
   <g id="patch_14">
    <path d="M 217.325 310.086437 
L 341.296861 310.086437 
L 341.296861 195.398437 
L 217.325 195.398437 
z
" style="fill: #ffffff"/>
   </g>
   <g id="matplotlib.axis_9">
    <g id="xtick_13">
     <g id="line2d_37">
      <g>
       <use xlink:href="#m24cfaf56ed" x="217.325" y="310.086437" style="stroke: #000000; stroke-width: 0.8"/>
      </g>
     </g>
     <g id="text_45">
      <!-- $\mathdefault{10^{-3}}$ -->
      <g transform="translate(205.575 324.684875) scale(0.1 -0.1)">
       <use xlink:href="#DejaVuSans-31" transform="translate(0 0.765625)"/>
       <use xlink:href="#DejaVuSans-30" transform="translate(63.623047 0.765625)"/>
       <use xlink:href="#DejaVuSans-2212" transform="translate(128.203125 39.046875) scale(0.7)"/>
       <use xlink:href="#DejaVuSans-33" transform="translate(186.855469 39.046875) scale(0.7)"/>
      </g>
     </g>
    </g>
    <g id="xtick_14">
     <g id="line2d_38">
      <g>
       <use xlink:href="#m24cfaf56ed" x="276.697199" y="310.086437" style="stroke: #000000; stroke-width: 0.8"/>
      </g>
     </g>
     <g id="text_46">
      <!-- $\mathdefault{10^{-1}}$ -->
      <g transform="translate(264.947199 324.684875) scale(0.1 -0.1)">
       <use xlink:href="#DejaVuSans-31" transform="translate(0 0.684375)"/>
       <use xlink:href="#DejaVuSans-30" transform="translate(63.623047 0.684375)"/>
       <use xlink:href="#DejaVuSans-2212" transform="translate(128.203125 38.965625) scale(0.7)"/>
       <use xlink:href="#DejaVuSans-31" transform="translate(186.855469 38.965625) scale(0.7)"/>
      </g>
     </g>
    </g>
    <g id="xtick_15">
     <g id="line2d_39">
      <g>
       <use xlink:href="#m24cfaf56ed" x="336.069398" y="310.086437" style="stroke: #000000; stroke-width: 0.8"/>
      </g>
     </g>
     <g id="text_47">
      <!-- $\mathdefault{10^{1}}$ -->
      <g transform="translate(327.269398 324.684875) scale(0.1 -0.1)">
       <use xlink:href="#DejaVuSans-31" transform="translate(0 0.684375)"/>
       <use xlink:href="#DejaVuSans-30" transform="translate(63.623047 0.684375)"/>
       <use xlink:href="#DejaVuSans-31" transform="translate(128.203125 38.965625) scale(0.7)"/>
      </g>
     </g>
    </g>
    <g id="text_48">
     <!-- Concentration / mM -->
     <g transform="translate(229.892962 338.363) scale(0.1 -0.1)">
      <use xlink:href="#DejaVuSans-43"/>
      <use xlink:href="#DejaVuSans-6f" x="69.824219"/>
      <use xlink:href="#DejaVuSans-6e" x="131.005859"/>
      <use xlink:href="#DejaVuSans-63" x="194.384766"/>
      <use xlink:href="#DejaVuSans-65" x="249.365234"/>
      <use xlink:href="#DejaVuSans-6e" x="310.888672"/>
      <use xlink:href="#DejaVuSans-74" x="374.267578"/>
      <use xlink:href="#DejaVuSans-72" x="413.476562"/>
      <use xlink:href="#DejaVuSans-61" x="454.589844"/>
      <use xlink:href="#DejaVuSans-74" x="515.869141"/>
      <use xlink:href="#DejaVuSans-69" x="555.078125"/>
      <use xlink:href="#DejaVuSans-6f" x="582.861328"/>
      <use xlink:href="#DejaVuSans-6e" x="644.042969"/>
      <use xlink:href="#DejaVuSans-20" x="707.421875"/>
      <use xlink:href="#DejaVuSans-2f" x="739.208984"/>
      <use xlink:href="#DejaVuSans-20" x="772.900391"/>
      <use xlink:href="#DejaVuSans-6d" x="804.6875"/>
      <use xlink:href="#DejaVuSans-4d" x="902.099609"/>
     </g>
    </g>
   </g>
   <g id="matplotlib.axis_10">
    <g id="ytick_21">
     <g id="line2d_40">
      <g>
       <use xlink:href="#m1537ea7be9" x="217.325" y="298.617638" style="stroke: #000000; stroke-width: 0.8"/>
      </g>
     </g>
     <g id="text_49">
      <!-- 30 -->
      <g transform="translate(197.6 302.416856) scale(0.1 -0.1)">
       <use xlink:href="#DejaVuSans-33"/>
       <use xlink:href="#DejaVuSans-30" x="63.623047"/>
      </g>
     </g>
    </g>
    <g id="ytick_22">
     <g id="line2d_41">
      <g>
       <use xlink:href="#m1537ea7be9" x="217.325" y="275.680037" style="stroke: #000000; stroke-width: 0.8"/>
      </g>
     </g>
     <g id="text_50">
      <!-- 40 -->
      <g transform="translate(197.6 279.479256) scale(0.1 -0.1)">
       <use xlink:href="#DejaVuSans-34"/>
       <use xlink:href="#DejaVuSans-30" x="63.623047"/>
      </g>
     </g>
    </g>
    <g id="ytick_23">
     <g id="line2d_42">
      <g>
       <use xlink:href="#m1537ea7be9" x="217.325" y="252.742437" style="stroke: #000000; stroke-width: 0.8"/>
      </g>
     </g>
     <g id="text_51">
      <!-- 50 -->
      <g transform="translate(197.6 256.541656) scale(0.1 -0.1)">
       <use xlink:href="#DejaVuSans-35"/>
       <use xlink:href="#DejaVuSans-30" x="63.623047"/>
      </g>
     </g>
    </g>
    <g id="ytick_24">
     <g id="line2d_43">
      <g>
       <use xlink:href="#m1537ea7be9" x="217.325" y="229.804837" style="stroke: #000000; stroke-width: 0.8"/>
      </g>
     </g>
     <g id="text_52">
      <!-- 60 -->
      <g transform="translate(197.6 233.604056) scale(0.1 -0.1)">
       <use xlink:href="#DejaVuSans-36"/>
       <use xlink:href="#DejaVuSans-30" x="63.623047"/>
      </g>
     </g>
    </g>
    <g id="ytick_25">
     <g id="line2d_44">
      <g>
       <use xlink:href="#m1537ea7be9" x="217.325" y="206.867237" style="stroke: #000000; stroke-width: 0.8"/>
      </g>
     </g>
     <g id="text_53">
      <!-- 70 -->
      <g transform="translate(197.6 210.666456) scale(0.1 -0.1)">
       <use xlink:href="#DejaVuSans-37"/>
       <use xlink:href="#DejaVuSans-30" x="63.623047"/>
      </g>
     </g>
    </g>
    <g id="text_54">
     <!-- Surface tension / $\mathrm{mN \ m^{-1}}$ -->
     <g transform="translate(191.520313 317.142437) rotate(-90) scale(0.1 -0.1)">
      <use xlink:href="#DejaVuSans-53" transform="translate(0 0.684375)"/>
      <use xlink:href="#DejaVuSans-75" transform="translate(63.476562 0.684375)"/>
      <use xlink:href="#DejaVuSans-72" transform="translate(126.855469 0.684375)"/>
      <use xlink:href="#DejaVuSans-66" transform="translate(167.96875 0.684375)"/>
      <use xlink:href="#DejaVuSans-61" transform="translate(203.173828 0.684375)"/>
      <use xlink:href="#DejaVuSans-63" transform="translate(264.453125 0.684375)"/>
      <use xlink:href="#DejaVuSans-65" transform="translate(319.433594 0.684375)"/>
      <use xlink:href="#DejaVuSans-20" transform="translate(380.957031 0.684375)"/>
      <use xlink:href="#DejaVuSans-74" transform="translate(412.744141 0.684375)"/>
      <use xlink:href="#DejaVuSans-65" transform="translate(451.953125 0.684375)"/>
      <use xlink:href="#DejaVuSans-6e" transform="translate(513.476562 0.684375)"/>
      <use xlink:href="#DejaVuSans-73" transform="translate(576.855469 0.684375)"/>
      <use xlink:href="#DejaVuSans-69" transform="translate(628.955078 0.684375)"/>
      <use xlink:href="#DejaVuSans-6f" transform="translate(656.738281 0.684375)"/>
      <use xlink:href="#DejaVuSans-6e" transform="translate(717.919922 0.684375)"/>
      <use xlink:href="#DejaVuSans-20" transform="translate(781.298828 0.684375)"/>
      <use xlink:href="#DejaVuSans-2f" transform="translate(813.085938 0.684375)"/>
      <use xlink:href="#DejaVuSans-20" transform="translate(846.777344 0.684375)"/>
      <use xlink:href="#DejaVuSans-6d" transform="translate(878.564453 0.684375)"/>
      <use xlink:href="#DejaVuSans-4e" transform="translate(975.976562 0.684375)"/>
      <use xlink:href="#DejaVuSans-6d" transform="translate(1083.251628 0.684375)"/>
      <use xlink:href="#DejaVuSans-2212" transform="translate(1181.620769 38.965625) scale(0.7)"/>
      <use xlink:href="#DejaVuSans-31" transform="translate(1240.273113 38.965625) scale(0.7)"/>
     </g>
    </g>
   </g>
   <g id="line2d_45">
    <path d="M 223.403344 201.03223 
L 227.106718 201.250612 
L 227.18722 201.194647 
L 227.348238 201.276145 
L 227.670287 201.236402 
L 228.555866 201.35164 
L 228.7974 201.4019 
L 228.958404 201.393447 
L 229.602477 201.4082 
L 229.843996 201.44313 
L 230.005014 201.392135 
L 230.166032 201.447225 
L 232.903312 201.728677 
L 233.064316 201.74301 
L 233.386351 201.696775 
L 233.466867 201.806727 
L 233.627872 201.76303 
L 234.191427 201.782507 
L 234.432961 201.894962 
L 235.399055 201.932447 
L 235.560075 201.97303 
L 235.801609 202.004477 
L 236.365165 202.099817 
L 236.526182 202.078712 
L 237.331259 202.220935 
L 237.492277 202.180055 
L 237.894814 202.320317 
L 238.055834 202.318095 
L 238.941425 202.460457 
L 239.102429 202.433647 
L 239.343964 202.559385 
L 239.424466 202.467195 
L 239.585483 202.55746 
L 240.229543 202.643735 
L 240.632095 202.70635 
L 240.793112 202.732775 
L 241.276153 202.86469 
L 241.356654 202.805172 
L 241.517672 202.83039 
L 242.483767 203.069737 
L 242.644784 203.072607 
L 242.966821 203.111737 
L 243.288857 203.20678 
L 247.314266 204.20701 
L 248.038841 204.417605 
L 248.199859 204.426057 
L 248.360876 204.501377 
L 248.521895 204.498857 
L 248.682899 204.584257 
L 248.843917 204.623667 
L 249.004935 204.734495 
L 249.165953 204.74272 
L 249.97103 205.03315 
L 250.454084 205.12303 
L 250.695603 205.263397 
L 251.50068 205.548612 
L 251.581196 205.518267 
L 251.822716 205.71404 
L 251.983734 205.720777 
L 252.708323 205.999482 
L 253.030346 206.179592 
L 253.432883 206.310475 
L 253.835436 206.506492 
L 254.157472 206.635572 
L 254.882032 206.935925 
L 254.962548 207.08135 
L 255.043049 207.016845 
L 257.538794 208.282445 
L 257.699812 208.42563 
L 258.987943 209.28327 
L 259.068458 209.23182 
L 259.39048 209.489227 
L 262.047257 211.319867 
L 262.771832 211.890525 
L 262.932851 211.998517 
L 263.254886 212.265427 
L 263.415905 212.354642 
L 264.865039 213.61067 
L 265.267577 213.972395 
L 265.428594 214.143422 
L 266.314187 214.97056 
L 266.394703 214.953515 
L 266.636224 215.21717 
L 267.119278 215.796945 
L 267.19978 215.780722 
L 267.441299 216.063312 
L 271.949764 221.304562 
L 272.271799 221.806139 
L 272.513319 222.094136 
L 275.975173 227.108945 
L 276.297209 227.672891 
L 277.343813 229.285796 
L 277.665841 229.900265 
L 278.792954 231.853772 
L 280.886174 235.714255 
L 281.288706 236.509516 
L 287.165801 249.199982 
L 287.64885 250.351351 
L 287.890376 250.894201 
L 290.708164 257.869806 
L 291.27172 259.337382 
L 291.996288 261.231407 
L 292.64036 263.008567 
L 293.525945 265.363621 
L 294.25052 267.408321 
L 294.492047 268.07179 
L 295.136111 269.873555 
L 296.987798 275.090681 
L 297.148816 275.497285 
L 297.470853 276.307973 
L 298.114911 277.164571 
L 298.195427 277.142775 
L 298.436948 277.30661 
L 298.597965 277.31669 
L 298.758976 277.342485 
L 299.000503 277.345066 
L 299.483558 277.324075 
L 301.335244 277.301106 
L 301.496255 277.328852 
L 301.657272 277.35764 
L 301.818291 277.342012 
L 301.979303 277.296504 
L 302.059818 277.395772 
L 302.14032 277.323121 
L 302.462356 277.306137 
L 302.542865 277.385132 
L 302.703884 277.330419 
L 302.864894 277.319621 
L 303.830996 277.380871 
L 303.830996 277.380871 
" clip-path="url(#p393e84f4fc)" style="fill: none; stroke: #000000; stroke-opacity: 0.3; stroke-width: 2; stroke-linecap: square"/>
   </g>
   <g id="patch_15">
    <path d="M 217.325 310.086437 
L 217.325 195.398437 
" style="fill: none; stroke: #000000; stroke-width: 0.8; stroke-linejoin: miter; stroke-linecap: square"/>
   </g>
   <g id="patch_16">
    <path d="M 217.325 310.086437 
L 341.296861 310.086437 
" style="fill: none; stroke: #000000; stroke-width: 0.8; stroke-linejoin: miter; stroke-linecap: square"/>
   </g>
   <g id="text_55">
    <!-- 16-BAC -->
    <g transform="translate(261.071087 189.398437) scale(0.1 -0.1)">
     <defs>
      <path id="DejaVuSans-2d" d="M 313 2009 
L 1997 2009 
L 1997 1497 
L 313 1497 
L 313 2009 
z
" transform="scale(0.015625)"/>
     </defs>
     <use xlink:href="#DejaVuSans-31"/>
     <use xlink:href="#DejaVuSans-36" x="63.623047"/>
     <use xlink:href="#DejaVuSans-2d" x="127.246094"/>
     <use xlink:href="#DejaVuSans-42" x="159.705078"/>
     <use xlink:href="#DejaVuSans-41" x="228.308594"/>
     <use xlink:href="#DejaVuSans-43" x="294.966797"/>
    </g>
   </g>
   <g id="PathCollection_9">
    <g clip-path="url(#p393e84f4fc)">
     <use xlink:href="#m85c3eeef44" x="241.27615" y="201.603298" style="stroke: #000000"/>
     <use xlink:href="#m85c3eeef44" x="250.212556" y="203.04049" style="stroke: #000000"/>
     <use xlink:href="#m85c3eeef44" x="259.148962" y="206.926349" style="stroke: #000000"/>
     <use xlink:href="#m85c3eeef44" x="268.085369" y="217.16651" style="stroke: #000000"/>
     <use xlink:href="#m85c3eeef44" x="277.021775" y="231.375053" style="stroke: #000000"/>
     <use xlink:href="#m85c3eeef44" x="285.958182" y="249.582187" style="stroke: #000000"/>
     <use xlink:href="#m85c3eeef44" x="294.894588" y="269.270031" style="stroke: #000000"/>
     <use xlink:href="#m85c3eeef44" x="303.830994" y="277.412175" style="stroke: #000000"/>
    </g>
   </g>
   <g id="PathCollection_10">
    <g clip-path="url(#p393e84f4fc)">
     <use xlink:href="#m5875e59c40" x="296.987797" y="273.767928" style="fill: #ff7f0e; stroke: #ff7f0e; stroke-width: 1.5"/>
     <use xlink:href="#m5875e59c40" x="271.547217" y="216.514333" style="fill: #ff7f0e; stroke: #ff7f0e; stroke-width: 1.5"/>
     <use xlink:href="#m5875e59c40" x="295.297121" y="270.035751" style="fill: #ff7f0e; stroke: #ff7f0e; stroke-width: 1.5"/>
    </g>
   </g>
  </g>
  <g id="axes_6">
   <g id="patch_17">
    <path d="M 393.725 310.086437 
L 517.696861 310.086437 
L 517.696861 195.398437 
L 393.725 195.398437 
z
" style="fill: #ffffff"/>
   </g>
   <g id="matplotlib.axis_11">
    <g id="xtick_16">
     <g id="line2d_46">
      <g>
       <use xlink:href="#m24cfaf56ed" x="393.725" y="310.086437" style="stroke: #000000; stroke-width: 0.8"/>
      </g>
     </g>
     <g id="text_56">
      <!-- $\mathdefault{10^{-3}}$ -->
      <g transform="translate(381.975 324.684875) scale(0.1 -0.1)">
       <use xlink:href="#DejaVuSans-31" transform="translate(0 0.765625)"/>
       <use xlink:href="#DejaVuSans-30" transform="translate(63.623047 0.765625)"/>
       <use xlink:href="#DejaVuSans-2212" transform="translate(128.203125 39.046875) scale(0.7)"/>
       <use xlink:href="#DejaVuSans-33" transform="translate(186.855469 39.046875) scale(0.7)"/>
      </g>
     </g>
    </g>
    <g id="xtick_17">
     <g id="line2d_47">
      <g>
       <use xlink:href="#m24cfaf56ed" x="453.097199" y="310.086437" style="stroke: #000000; stroke-width: 0.8"/>
      </g>
     </g>
     <g id="text_57">
      <!-- $\mathdefault{10^{-1}}$ -->
      <g transform="translate(441.347199 324.684875) scale(0.1 -0.1)">
       <use xlink:href="#DejaVuSans-31" transform="translate(0 0.684375)"/>
       <use xlink:href="#DejaVuSans-30" transform="translate(63.623047 0.684375)"/>
       <use xlink:href="#DejaVuSans-2212" transform="translate(128.203125 38.965625) scale(0.7)"/>
       <use xlink:href="#DejaVuSans-31" transform="translate(186.855469 38.965625) scale(0.7)"/>
      </g>
     </g>
    </g>
    <g id="xtick_18">
     <g id="line2d_48">
      <g>
       <use xlink:href="#m24cfaf56ed" x="512.469398" y="310.086437" style="stroke: #000000; stroke-width: 0.8"/>
      </g>
     </g>
     <g id="text_58">
      <!-- $\mathdefault{10^{1}}$ -->
      <g transform="translate(503.669398 324.684875) scale(0.1 -0.1)">
       <use xlink:href="#DejaVuSans-31" transform="translate(0 0.684375)"/>
       <use xlink:href="#DejaVuSans-30" transform="translate(63.623047 0.684375)"/>
       <use xlink:href="#DejaVuSans-31" transform="translate(128.203125 38.965625) scale(0.7)"/>
      </g>
     </g>
    </g>
    <g id="text_59">
     <!-- Concentration / mM -->
     <g transform="translate(406.292962 338.363) scale(0.1 -0.1)">
      <use xlink:href="#DejaVuSans-43"/>
      <use xlink:href="#DejaVuSans-6f" x="69.824219"/>
      <use xlink:href="#DejaVuSans-6e" x="131.005859"/>
      <use xlink:href="#DejaVuSans-63" x="194.384766"/>
      <use xlink:href="#DejaVuSans-65" x="249.365234"/>
      <use xlink:href="#DejaVuSans-6e" x="310.888672"/>
      <use xlink:href="#DejaVuSans-74" x="374.267578"/>
      <use xlink:href="#DejaVuSans-72" x="413.476562"/>
      <use xlink:href="#DejaVuSans-61" x="454.589844"/>
      <use xlink:href="#DejaVuSans-74" x="515.869141"/>
      <use xlink:href="#DejaVuSans-69" x="555.078125"/>
      <use xlink:href="#DejaVuSans-6f" x="582.861328"/>
      <use xlink:href="#DejaVuSans-6e" x="644.042969"/>
      <use xlink:href="#DejaVuSans-20" x="707.421875"/>
      <use xlink:href="#DejaVuSans-2f" x="739.208984"/>
      <use xlink:href="#DejaVuSans-20" x="772.900391"/>
      <use xlink:href="#DejaVuSans-6d" x="804.6875"/>
      <use xlink:href="#DejaVuSans-4d" x="902.099609"/>
     </g>
    </g>
   </g>
   <g id="matplotlib.axis_12">
    <g id="ytick_26">
     <g id="line2d_49">
      <g>
       <use xlink:href="#m1537ea7be9" x="393.725" y="298.617638" style="stroke: #000000; stroke-width: 0.8"/>
      </g>
     </g>
     <g id="text_60">
      <!-- 30 -->
      <g transform="translate(374 302.416856) scale(0.1 -0.1)">
       <use xlink:href="#DejaVuSans-33"/>
       <use xlink:href="#DejaVuSans-30" x="63.623047"/>
      </g>
     </g>
    </g>
    <g id="ytick_27">
     <g id="line2d_50">
      <g>
       <use xlink:href="#m1537ea7be9" x="393.725" y="275.680037" style="stroke: #000000; stroke-width: 0.8"/>
      </g>
     </g>
     <g id="text_61">
      <!-- 40 -->
      <g transform="translate(374 279.479256) scale(0.1 -0.1)">
       <use xlink:href="#DejaVuSans-34"/>
       <use xlink:href="#DejaVuSans-30" x="63.623047"/>
      </g>
     </g>
    </g>
    <g id="ytick_28">
     <g id="line2d_51">
      <g>
       <use xlink:href="#m1537ea7be9" x="393.725" y="252.742437" style="stroke: #000000; stroke-width: 0.8"/>
      </g>
     </g>
     <g id="text_62">
      <!-- 50 -->
      <g transform="translate(374 256.541656) scale(0.1 -0.1)">
       <use xlink:href="#DejaVuSans-35"/>
       <use xlink:href="#DejaVuSans-30" x="63.623047"/>
      </g>
     </g>
    </g>
    <g id="ytick_29">
     <g id="line2d_52">
      <g>
       <use xlink:href="#m1537ea7be9" x="393.725" y="229.804837" style="stroke: #000000; stroke-width: 0.8"/>
      </g>
     </g>
     <g id="text_63">
      <!-- 60 -->
      <g transform="translate(374 233.604056) scale(0.1 -0.1)">
       <use xlink:href="#DejaVuSans-36"/>
       <use xlink:href="#DejaVuSans-30" x="63.623047"/>
      </g>
     </g>
    </g>
    <g id="ytick_30">
     <g id="line2d_53">
      <g>
       <use xlink:href="#m1537ea7be9" x="393.725" y="206.867237" style="stroke: #000000; stroke-width: 0.8"/>
      </g>
     </g>
     <g id="text_64">
      <!-- 70 -->
      <g transform="translate(374 210.666456) scale(0.1 -0.1)">
       <use xlink:href="#DejaVuSans-37"/>
       <use xlink:href="#DejaVuSans-30" x="63.623047"/>
      </g>
     </g>
    </g>
    <g id="text_65">
     <!-- Surface tension / $\mathrm{mN \ m^{-1}}$ -->
     <g transform="translate(367.920313 317.142437) rotate(-90) scale(0.1 -0.1)">
      <use xlink:href="#DejaVuSans-53" transform="translate(0 0.684375)"/>
      <use xlink:href="#DejaVuSans-75" transform="translate(63.476562 0.684375)"/>
      <use xlink:href="#DejaVuSans-72" transform="translate(126.855469 0.684375)"/>
      <use xlink:href="#DejaVuSans-66" transform="translate(167.96875 0.684375)"/>
      <use xlink:href="#DejaVuSans-61" transform="translate(203.173828 0.684375)"/>
      <use xlink:href="#DejaVuSans-63" transform="translate(264.453125 0.684375)"/>
      <use xlink:href="#DejaVuSans-65" transform="translate(319.433594 0.684375)"/>
      <use xlink:href="#DejaVuSans-20" transform="translate(380.957031 0.684375)"/>
      <use xlink:href="#DejaVuSans-74" transform="translate(412.744141 0.684375)"/>
      <use xlink:href="#DejaVuSans-65" transform="translate(451.953125 0.684375)"/>
      <use xlink:href="#DejaVuSans-6e" transform="translate(513.476562 0.684375)"/>
      <use xlink:href="#DejaVuSans-73" transform="translate(576.855469 0.684375)"/>
      <use xlink:href="#DejaVuSans-69" transform="translate(628.955078 0.684375)"/>
      <use xlink:href="#DejaVuSans-6f" transform="translate(656.738281 0.684375)"/>
      <use xlink:href="#DejaVuSans-6e" transform="translate(717.919922 0.684375)"/>
      <use xlink:href="#DejaVuSans-20" transform="translate(781.298828 0.684375)"/>
      <use xlink:href="#DejaVuSans-2f" transform="translate(813.085938 0.684375)"/>
      <use xlink:href="#DejaVuSans-20" transform="translate(846.777344 0.684375)"/>
      <use xlink:href="#DejaVuSans-6d" transform="translate(878.564453 0.684375)"/>
      <use xlink:href="#DejaVuSans-4e" transform="translate(975.976562 0.684375)"/>
      <use xlink:href="#DejaVuSans-6d" transform="translate(1083.251628 0.684375)"/>
      <use xlink:href="#DejaVuSans-2212" transform="translate(1181.620769 38.965625) scale(0.7)"/>
      <use xlink:href="#DejaVuSans-31" transform="translate(1240.273113 38.965625) scale(0.7)"/>
     </g>
    </g>
   </g>
   <g id="line2d_54">
    <path d="M 389.606745 201.639305 
L 390.572839 201.819187 
L 390.81436 201.783435 
L 390.975378 201.824437 
L 391.055894 201.72775 
L 391.136396 201.79586 
L 391.297414 201.85592 
L 391.458432 201.858142 
L 391.699952 201.959397 
L 391.780468 201.949142 
L 391.86097 201.824472 
L 392.021988 201.958242 
L 392.183006 201.952922 
L 392.666046 202.054125 
L 392.827064 201.943332 
L 392.907581 202.146472 
L 393.068598 201.965575 
L 393.310118 202.091592 
L 393.39062 201.982672 
L 393.551638 202.124895 
L 393.712657 202.126225 
L 393.954191 202.076332 
L 394.034692 202.198342 
L 394.115209 202.136497 
L 394.598249 202.232082 
L 394.678765 202.146962 
L 394.839782 202.386467 
L 395.081303 202.238715 
L 395.322824 202.502247 
L 396.208415 202.382197 
L 396.288931 202.584847 
L 396.449935 202.506605 
L 396.93299 202.641162 
L 397.013491 202.556375 
L 397.255025 202.677317 
L 397.577048 202.702447 
L 397.657564 202.658662 
L 397.818583 202.863955 
L 397.899084 202.715362 
L 397.9796 202.770067 
L 398.140604 202.854505 
L 398.22112 202.750117 
L 398.382138 202.933325 
L 398.543157 202.871935 
L 398.70416 203.046567 
L 398.945695 202.97837 
L 399.026197 202.930717 
L 399.106712 203.05096 
L 399.187214 202.9461 
L 399.348233 203.034772 
L 399.509251 203.092382 
L 399.589753 203.002765 
L 399.670269 203.20713 
L 399.750771 203.05831 
L 399.831272 203.11991 
L 400.475345 203.340847 
L 400.636363 203.385262 
L 401.199919 203.502302 
L 401.360937 203.542255 
L 401.441439 203.413017 
L 401.682959 203.613637 
L 401.843977 203.521832 
L 402.246529 203.729767 
L 402.48805 203.686157 
L 402.568566 203.81865 
L 402.649068 203.666172 
L 402.971104 203.943092 
L 403.132121 203.880635 
L 403.615162 203.992145 
L 403.695679 203.986142 
L 403.856695 204.132162 
L 404.017715 204.171135 
L 404.098216 204.2628 
L 404.178717 204.150625 
L 404.420253 204.304345 
L 404.58127 204.314705 
L 405.466848 204.557727 
L 405.547364 204.74818 
L 405.627867 204.581212 
L 405.788884 204.746797 
L 406.191424 204.845655 
L 410.136317 206.475867 
L 410.216832 206.530415 
L 410.37785 206.460047 
L 410.619384 206.621537 
L 411.827 207.247722 
L 411.907515 207.190602 
L 411.988018 207.401075 
L 412.068519 207.324967 
L 412.229537 207.422495 
L 412.310053 207.39215 
L 412.712591 207.693097 
L 412.873609 207.736725 
L 413.034627 207.952727 
L 413.195631 207.954617 
L 413.598184 208.23208 
L 413.759187 208.224065 
L 414.081224 208.511205 
L 414.40326 208.646252 
L 414.564278 208.796507 
L 414.725297 208.798677 
L 414.886315 208.97205 
L 415.047317 209.047247 
L 415.208336 209.275675 
L 415.288853 209.222807 
L 415.530372 209.476172 
L 415.610874 209.367427 
L 415.771893 209.540782 
L 417.784597 210.956987 
L 418.026117 211.335092 
L 418.187135 211.358542 
L 420.119337 213.052262 
L 420.441375 213.373912 
L 420.763411 213.72694 
L 421.085432 213.963907 
L 421.165948 214.239952 
L 421.246449 214.14043 
L 421.648988 214.5745 
L 421.810008 214.80067 
L 422.051541 215.05029 
L 422.29306 215.355175 
L 422.373563 215.38594 
L 422.776115 215.93985 
L 422.937119 215.99543 
L 423.500675 216.656352 
L 423.581192 216.839595 
L 423.661694 216.720017 
L 424.144747 217.506467 
L 424.305765 217.661342 
L 426.318456 220.402892 
L 426.55999 220.827609 
L 428.170157 223.301785 
L 428.411677 223.680152 
L 428.492193 223.756654 
L 428.733713 224.285049 
L 428.814215 224.366109 
L 429.05575 224.79506 
L 429.458288 225.59908 
L 429.53879 225.633651 
L 430.34388 227.16666 
L 431.551494 229.535539 
L 431.873531 230.277215 
L 432.517589 231.695275 
L 432.598105 231.703981 
L 432.839625 232.301169 
L 433.483697 233.918606 
L 433.644716 234.213306 
L 437.428604 244.349822 
L 437.831141 245.568671 
L 438.394699 247.241234 
L 438.716721 248.371147 
L 441.292996 257.304399 
L 441.695534 258.856062 
L 442.420109 261.665617 
L 444.674319 271.103945 
L 445.720944 275.918807 
L 446.687038 280.524799 
L 448.377692 289.204737 
L 449.021764 292.635919 
L 450.068374 298.489616 
L 450.953967 301.813479 
L 451.034469 301.785461 
L 451.195488 301.951611 
L 451.437007 302.016623 
L 451.598026 301.984379 
L 451.839545 301.979676 
L 451.920062 301.932606 
L 452.08108 302.103406 
L 452.322599 301.987472 
L 452.805654 302.030168 
L 453.047174 301.979602 
L 453.449719 302.107483 
L 453.610737 301.861052 
L 453.852258 302.058072 
L 454.013275 301.953063 
L 454.254802 301.965313 
L 455.784453 302.019664 
L 455.864961 301.913863 
L 456.025979 302.02396 
L 456.106481 301.948102 
L 456.186997 302.099241 
L 456.267501 302.047847 
L 456.348009 302.000156 
L 456.509027 302.040769 
L 456.589535 302.066835 
L 456.670045 301.798083 
L 456.831056 301.970869 
L 456.992074 302.035834 
L 457.31411 302.056221 
L 457.475129 301.960868 
L 457.555631 301.904763 
L 457.63614 302.028864 
L 457.716649 301.949301 
L 457.797157 302.056729 
L 457.877667 301.898489 
L 457.958176 302.099162 
L 458.038678 302.002575 
L 458.280205 302.049212 
L 458.360714 301.830664 
L 458.521732 302.020337 
L 458.602233 301.903052 
L 458.843767 302.060496 
L 459.085288 302.041001 
L 459.246306 302.111832 
L 459.407324 301.927876 
L 459.568335 302.077777 
L 459.729353 301.984283 
L 459.970874 302.106031 
L 460.131892 301.947279 
L 460.29291 302.013766 
L 461.259011 302.034394 
L 461.500531 302.073384 
L 461.822567 302.014488 
L 461.903069 301.994709 
L 461.983585 302.099722 
L 462.064087 301.983968 
L 462.225105 302.067259 
L 462.466632 301.923934 
L 462.547142 302.047336 
L 462.627644 301.903949 
L 462.708159 302.036564 
L 462.86917 301.958466 
L 463.030189 302.003231 
L 463.352225 301.988343 
L 463.513236 302.125779 
L 463.593745 301.870043 
L 463.674254 302.033077 
L 463.754763 301.973127 
L 463.915781 301.9807 
L 464.076798 302.003625 
L 464.23781 302.002487 
L 464.559839 302.00079 
L 464.801366 302.003183 
L 464.881875 301.926472 
L 465.042894 302.078779 
L 465.28442 301.97748 
L 465.60645 301.921751 
L 465.76746 301.99526 
L 465.847976 301.922998 
L 466.008995 301.985797 
L 466.572552 302.104845 
L 466.653053 301.94248 
L 466.814071 302.044041 
L 466.975088 301.992985 
L 467.055598 302.085017 
L 467.216617 301.908569 
L 467.538644 301.957294 
L 467.619154 301.890181 
L 467.780171 302.117576 
L 467.860674 302.043424 
L 468.021692 302.019204 
L 468.18271 301.947957 
L 468.263219 302.120783 
L 468.42423 301.973101 
L 468.585248 302.061812 
L 468.665757 301.949843 
L 468.746267 302.093212 
L 468.826775 301.932606 
L 468.907284 302.007606 
L 468.987793 302.090088 
L 469.148812 301.977904 
L 469.470841 302.063016 
L 469.55135 302.129621 
L 469.79287 301.960413 
L 470.034397 302.087949 
L 470.034397 302.087949 
" clip-path="url(#p9fd5e8170d)" style="fill: none; stroke: #000000; stroke-opacity: 0.3; stroke-width: 2; stroke-linecap: square"/>
   </g>
   <g id="patch_18">
    <path d="M 393.725 310.086437 
L 393.725 195.398437 
" style="fill: none; stroke: #000000; stroke-width: 0.8; stroke-linejoin: miter; stroke-linecap: square"/>
   </g>
   <g id="patch_19">
    <path d="M 393.725 310.086437 
L 517.696861 310.086437 
" style="fill: none; stroke: #000000; stroke-width: 0.8; stroke-linejoin: miter; stroke-linecap: square"/>
   </g>
   <g id="text_66">
    <!-- C$_{12}$E$_{4}$ -->
    <g transform="translate(442.01093 189.398437) scale(0.1 -0.1)">
     <use xlink:href="#DejaVuSans-43" transform="translate(0 0.78125)"/>
     <use xlink:href="#DejaVuSans-31" transform="translate(70.78125 -15.625) scale(0.7)"/>
     <use xlink:href="#DejaVuSans-32" transform="translate(115.317383 -15.625) scale(0.7)"/>
     <use xlink:href="#DejaVuSans-45" transform="translate(162.587891 0.78125)"/>
     <use xlink:href="#DejaVuSans-34" transform="translate(226.728516 -15.625) scale(0.7)"/>
    </g>
   </g>
   <g id="PathCollection_11">
    <g clip-path="url(#p9fd5e8170d)">
     <use xlink:href="#m85c3eeef44" x="407.479549" y="200.463815" style="stroke: #000000"/>
     <use xlink:href="#m85c3eeef44" x="416.415955" y="202.890737" style="stroke: #000000"/>
     <use xlink:href="#m85c3eeef44" x="425.352362" y="206.571766" style="stroke: #000000"/>
     <use xlink:href="#m85c3eeef44" x="434.288768" y="232.560702" style="stroke: #000000"/>
     <use xlink:href="#m85c3eeef44" x="443.225174" y="273.346137" style="stroke: #000000"/>
     <use xlink:href="#m85c3eeef44" x="452.161581" y="300.467291" style="stroke: #000000"/>
     <use xlink:href="#m85c3eeef44" x="461.097987" y="302.225191" style="stroke: #000000"/>
     <use xlink:href="#m85c3eeef44" x="470.034394" y="302.613755" style="stroke: #000000"/>
    </g>
   </g>
   <g id="PathCollection_12"/>
  </g>
 </g>
 <defs>
  <clipPath id="pd9fe465642">
   <rect x="40.925" y="20.798437" width="123.971861" height="114.688"/>
  </clipPath>
  <clipPath id="pd335efad62">
   <rect x="217.325" y="20.798437" width="123.971861" height="114.688"/>
  </clipPath>
  <clipPath id="pda5b91460e">
   <rect x="393.725" y="20.798437" width="123.971861" height="114.688"/>
  </clipPath>
  <clipPath id="pc8bd50bd9d">
   <rect x="40.925" y="195.398437" width="123.971861" height="114.688"/>
  </clipPath>
  <clipPath id="p393e84f4fc">
   <rect x="217.325" y="195.398437" width="123.971861" height="114.688"/>
  </clipPath>
  <clipPath id="p9fd5e8170d">
   <rect x="393.725" y="195.398437" width="123.971861" height="114.688"/>
  </clipPath>
 </defs>
</svg>
