<?xml version="1.0" encoding="utf-8" standalone="no"?>
<!DOCTYPE svg PUBLIC "-//W3C//DTD SVG 1.1//EN"
  "http://www.w3.org/Graphics/SVG/1.1/DTD/svg11.dtd">
<svg xmlns:xlink="http://www.w3.org/1999/xlink" width="207.027791pt" height="208.515312pt" viewBox="0 0 207.027791 208.515312" xmlns="http://www.w3.org/2000/svg" version="1.1">
 <metadata>
  <rdf:RDF xmlns:dc="http://purl.org/dc/elements/1.1/" xmlns:cc="http://creativecommons.org/ns#" xmlns:rdf="http://www.w3.org/1999/02/22-rdf-syntax-ns#">
   <cc:Work>
    <dc:type rdf:resource="http://purl.org/dc/dcmitype/StillImage"/>
    <dc:date>2025-07-09T13:20:06.111019</dc:date>
    <dc:format>image/svg+xml</dc:format>
    <dc:creator>
     <cc:Agent>
      <dc:title>Matplotlib v3.7.1, https://matplotlib.org/</dc:title>
     </cc:Agent>
    </dc:creator>
   </cc:Work>
  </rdf:RDF>
 </metadata>
 <defs>
  <style type="text/css">*{stroke-linejoin: round; stroke-linecap: butt}</style>
 </defs>
 <g id="figure_1">
  <g id="patch_1">
   <path d="M 0 208.515312 
L 207.027791 208.515312 
L 207.027791 0 
L 0 0 
z
" style="fill: #ffffff"/>
  </g>
  <g id="axes_1">
   <g id="patch_2">
    <path d="M 45.442188 166.12 
L 198.849278 166.12 
L 198.849278 7.2 
L 45.442188 7.2 
z
" style="fill: #ffffff"/>
   </g>
   <g id="matplotlib.axis_1">
    <g id="xtick_1">
     <g id="line2d_1">
      <defs>
       <path id="m194a5f4d85" d="M 0 0 
L 0 3.5 
" style="stroke: #000000; stroke-width: 0.8"/>
      </defs>
      <g>
       <use xlink:href="#m194a5f4d85" x="52.415237" y="166.12" style="stroke: #000000; stroke-width: 0.8"/>
      </g>
     </g>
     <g id="text_1">
      <!-- 0.0 -->
      <g transform="translate(44.463675 180.718437) scale(0.1 -0.1)">
       <defs>
        <path id="DejaVuSans-30" d="M 2034 4250 
Q 1547 4250 1301 3770 
Q 1056 3291 1056 2328 
Q 1056 1369 1301 889 
Q 1547 409 2034 409 
Q 2525 409 2770 889 
Q 3016 1369 3016 2328 
Q 3016 3291 2770 3770 
Q 2525 4250 2034 4250 
z
M 2034 4750 
Q 2819 4750 3233 4129 
Q 3647 3509 3647 2328 
Q 3647 1150 3233 529 
Q 2819 -91 2034 -91 
Q 1250 -91 836 529 
Q 422 1150 422 2328 
Q 422 3509 836 4129 
Q 1250 4750 2034 4750 
z
" transform="scale(0.015625)"/>
        <path id="DejaVuSans-2e" d="M 684 794 
L 1344 794 
L 1344 0 
L 684 0 
L 684 794 
z
" transform="scale(0.015625)"/>
       </defs>
       <use xlink:href="#DejaVuSans-30"/>
       <use xlink:href="#DejaVuSans-2e" x="63.623047"/>
       <use xlink:href="#DejaVuSans-30" x="95.410156"/>
      </g>
     </g>
    </g>
    <g id="xtick_2">
     <g id="line2d_2">
      <g>
       <use xlink:href="#m194a5f4d85" x="122.145733" y="166.12" style="stroke: #000000; stroke-width: 0.8"/>
      </g>
     </g>
     <g id="text_2">
      <!-- 0.5 -->
      <g transform="translate(114.19417 180.718437) scale(0.1 -0.1)">
       <defs>
        <path id="DejaVuSans-35" d="M 691 4666 
L 3169 4666 
L 3169 4134 
L 1269 4134 
L 1269 2991 
Q 1406 3038 1543 3061 
Q 1681 3084 1819 3084 
Q 2600 3084 3056 2656 
Q 3513 2228 3513 1497 
Q 3513 744 3044 326 
Q 2575 -91 1722 -91 
Q 1428 -91 1123 -41 
Q 819 9 494 109 
L 494 744 
Q 775 591 1075 516 
Q 1375 441 1709 441 
Q 2250 441 2565 725 
Q 2881 1009 2881 1497 
Q 2881 1984 2565 2268 
Q 2250 2553 1709 2553 
Q 1456 2553 1204 2497 
Q 953 2441 691 2322 
L 691 4666 
z
" transform="scale(0.015625)"/>
       </defs>
       <use xlink:href="#DejaVuSans-30"/>
       <use xlink:href="#DejaVuSans-2e" x="63.623047"/>
       <use xlink:href="#DejaVuSans-35" x="95.410156"/>
      </g>
     </g>
    </g>
    <g id="xtick_3">
     <g id="line2d_3">
      <g>
       <use xlink:href="#m194a5f4d85" x="191.876229" y="166.12" style="stroke: #000000; stroke-width: 0.8"/>
      </g>
     </g>
     <g id="text_3">
      <!-- 1.0 -->
      <g transform="translate(183.924666 180.718437) scale(0.1 -0.1)">
       <defs>
        <path id="DejaVuSans-31" d="M 794 531 
L 1825 531 
L 1825 4091 
L 703 3866 
L 703 4441 
L 1819 4666 
L 2450 4666 
L 2450 531 
L 3481 531 
L 3481 0 
L 794 0 
L 794 531 
z
" transform="scale(0.015625)"/>
       </defs>
       <use xlink:href="#DejaVuSans-31"/>
       <use xlink:href="#DejaVuSans-2e" x="63.623047"/>
       <use xlink:href="#DejaVuSans-30" x="95.410156"/>
      </g>
     </g>
    </g>
    <g id="text_4">
     <!-- $\mathrm{\alpha}$ -->
     <g transform="translate(117.195733 198.195781) scale(0.15 -0.15)">
      <defs>
       <path id="DejaVuSans-3b1" d="M 2644 1628 
L 2506 2350 
Q 2366 3091 1809 3091 
Q 1391 3091 1200 2747 
Q 959 2316 959 1747 
Q 959 1059 1194 731 
Q 1431 397 1809 397 
Q 2228 397 2453 1063 
L 2644 1628 
z
M 2966 2584 
L 3275 3500 
L 3788 3500 
L 3147 1603 
L 3272 919 
Q 3300 766 3409 638 
Q 3538 488 3638 488 
L 3913 488 
L 3913 0 
L 3569 0 
Q 3275 0 3013 263 
Q 2884 394 2831 669 
Q 2688 322 2394 50 
Q 2256 -78 1809 -78 
Q 1075 -78 719 397 
Q 353 888 353 1747 
Q 353 2666 750 3097 
Q 1191 3578 1809 3578 
Q 2781 3578 2966 2584 
z
" transform="scale(0.015625)"/>
      </defs>
      <use xlink:href="#DejaVuSans-3b1" transform="translate(0 0.09375)"/>
     </g>
    </g>
   </g>
   <g id="matplotlib.axis_2">
    <g id="ytick_1">
     <g id="line2d_4">
      <defs>
       <path id="mbc9fd8b8b9" d="M 0 0 
L -3.5 0 
" style="stroke: #000000; stroke-width: 0.8"/>
      </defs>
      <g>
       <use xlink:href="#mbc9fd8b8b9" x="45.442188" y="140.878269" style="stroke: #000000; stroke-width: 0.8"/>
      </g>
     </g>
     <g id="text_5">
      <!-- 10 -->
      <g transform="translate(25.717188 144.677487) scale(0.1 -0.1)">
       <use xlink:href="#DejaVuSans-31"/>
       <use xlink:href="#DejaVuSans-30" x="63.623047"/>
      </g>
     </g>
    </g>
    <g id="ytick_2">
     <g id="line2d_5">
      <g>
       <use xlink:href="#mbc9fd8b8b9" x="45.442188" y="110.390155" style="stroke: #000000; stroke-width: 0.8"/>
      </g>
     </g>
     <g id="text_6">
      <!-- 20 -->
      <g transform="translate(25.717188 114.189374) scale(0.1 -0.1)">
       <defs>
        <path id="DejaVuSans-32" d="M 1228 531 
L 3431 531 
L 3431 0 
L 469 0 
L 469 531 
Q 828 903 1448 1529 
Q 2069 2156 2228 2338 
Q 2531 2678 2651 2914 
Q 2772 3150 2772 3378 
Q 2772 3750 2511 3984 
Q 2250 4219 1831 4219 
Q 1534 4219 1204 4116 
Q 875 4013 500 3803 
L 500 4441 
Q 881 4594 1212 4672 
Q 1544 4750 1819 4750 
Q 2544 4750 2975 4387 
Q 3406 4025 3406 3419 
Q 3406 3131 3298 2873 
Q 3191 2616 2906 2266 
Q 2828 2175 2409 1742 
Q 1991 1309 1228 531 
z
" transform="scale(0.015625)"/>
       </defs>
       <use xlink:href="#DejaVuSans-32"/>
       <use xlink:href="#DejaVuSans-30" x="63.623047"/>
      </g>
     </g>
    </g>
    <g id="ytick_3">
     <g id="line2d_6">
      <g>
       <use xlink:href="#mbc9fd8b8b9" x="45.442188" y="79.902042" style="stroke: #000000; stroke-width: 0.8"/>
      </g>
     </g>
     <g id="text_7">
      <!-- 30 -->
      <g transform="translate(25.717188 83.701261) scale(0.1 -0.1)">
       <defs>
        <path id="DejaVuSans-33" d="M 2597 2516 
Q 3050 2419 3304 2112 
Q 3559 1806 3559 1356 
Q 3559 666 3084 287 
Q 2609 -91 1734 -91 
Q 1441 -91 1130 -33 
Q 819 25 488 141 
L 488 750 
Q 750 597 1062 519 
Q 1375 441 1716 441 
Q 2309 441 2620 675 
Q 2931 909 2931 1356 
Q 2931 1769 2642 2001 
Q 2353 2234 1838 2234 
L 1294 2234 
L 1294 2753 
L 1863 2753 
Q 2328 2753 2575 2939 
Q 2822 3125 2822 3475 
Q 2822 3834 2567 4026 
Q 2313 4219 1838 4219 
Q 1578 4219 1281 4162 
Q 984 4106 628 3988 
L 628 4550 
Q 988 4650 1302 4700 
Q 1616 4750 1894 4750 
Q 2613 4750 3031 4423 
Q 3450 4097 3450 3541 
Q 3450 3153 3228 2886 
Q 3006 2619 2597 2516 
z
" transform="scale(0.015625)"/>
       </defs>
       <use xlink:href="#DejaVuSans-33"/>
       <use xlink:href="#DejaVuSans-30" x="63.623047"/>
      </g>
     </g>
    </g>
    <g id="ytick_4">
     <g id="line2d_7">
      <g>
       <use xlink:href="#mbc9fd8b8b9" x="45.442188" y="49.413929" style="stroke: #000000; stroke-width: 0.8"/>
      </g>
     </g>
     <g id="text_8">
      <!-- 40 -->
      <g transform="translate(25.717188 53.213148) scale(0.1 -0.1)">
       <defs>
        <path id="DejaVuSans-34" d="M 2419 4116 
L 825 1625 
L 2419 1625 
L 2419 4116 
z
M 2253 4666 
L 3047 4666 
L 3047 1625 
L 3713 1625 
L 3713 1100 
L 3047 1100 
L 3047 0 
L 2419 0 
L 2419 1100 
L 313 1100 
L 313 1709 
L 2253 4666 
z
" transform="scale(0.015625)"/>
       </defs>
       <use xlink:href="#DejaVuSans-34"/>
       <use xlink:href="#DejaVuSans-30" x="63.623047"/>
      </g>
     </g>
    </g>
    <g id="ytick_5">
     <g id="line2d_8">
      <g>
       <use xlink:href="#mbc9fd8b8b9" x="45.442188" y="18.925816" style="stroke: #000000; stroke-width: 0.8"/>
      </g>
     </g>
     <g id="text_9">
      <!-- 50 -->
      <g transform="translate(25.717188 22.725034) scale(0.1 -0.1)">
       <use xlink:href="#DejaVuSans-35"/>
       <use xlink:href="#DejaVuSans-30" x="63.623047"/>
      </g>
     </g>
    </g>
    <g id="text_10">
     <!-- C$_{\mathrm{20}}$ / mM -->
     <g transform="translate(18.597656 119.96) rotate(-90) scale(0.15 -0.15)">
      <defs>
       <path id="DejaVuSans-43" d="M 4122 4306 
L 4122 3641 
Q 3803 3938 3442 4084 
Q 3081 4231 2675 4231 
Q 1875 4231 1450 3742 
Q 1025 3253 1025 2328 
Q 1025 1406 1450 917 
Q 1875 428 2675 428 
Q 3081 428 3442 575 
Q 3803 722 4122 1019 
L 4122 359 
Q 3791 134 3420 21 
Q 3050 -91 2638 -91 
Q 1578 -91 968 557 
Q 359 1206 359 2328 
Q 359 3453 968 4101 
Q 1578 4750 2638 4750 
Q 3056 4750 3426 4639 
Q 3797 4528 4122 4306 
z
" transform="scale(0.015625)"/>
       <path id="DejaVuSans-20" transform="scale(0.015625)"/>
       <path id="DejaVuSans-2f" d="M 1625 4666 
L 2156 4666 
L 531 -594 
L 0 -594 
L 1625 4666 
z
" transform="scale(0.015625)"/>
       <path id="DejaVuSans-6d" d="M 3328 2828 
Q 3544 3216 3844 3400 
Q 4144 3584 4550 3584 
Q 5097 3584 5394 3201 
Q 5691 2819 5691 2113 
L 5691 0 
L 5113 0 
L 5113 2094 
Q 5113 2597 4934 2840 
Q 4756 3084 4391 3084 
Q 3944 3084 3684 2787 
Q 3425 2491 3425 1978 
L 3425 0 
L 2847 0 
L 2847 2094 
Q 2847 2600 2669 2842 
Q 2491 3084 2119 3084 
Q 1678 3084 1418 2786 
Q 1159 2488 1159 1978 
L 1159 0 
L 581 0 
L 581 3500 
L 1159 3500 
L 1159 2956 
Q 1356 3278 1631 3431 
Q 1906 3584 2284 3584 
Q 2666 3584 2933 3390 
Q 3200 3197 3328 2828 
z
" transform="scale(0.015625)"/>
       <path id="DejaVuSans-4d" d="M 628 4666 
L 1569 4666 
L 2759 1491 
L 3956 4666 
L 4897 4666 
L 4897 0 
L 4281 0 
L 4281 4097 
L 3078 897 
L 2444 897 
L 1241 4097 
L 1241 0 
L 628 0 
L 628 4666 
z
" transform="scale(0.015625)"/>
      </defs>
      <use xlink:href="#DejaVuSans-43" transform="translate(0 0.78125)"/>
      <use xlink:href="#DejaVuSans-32" transform="translate(70.78125 -15.625) scale(0.7)"/>
      <use xlink:href="#DejaVuSans-30" transform="translate(115.317383 -15.625) scale(0.7)"/>
      <use xlink:href="#DejaVuSans-20" transform="translate(162.587891 0.78125)"/>
      <use xlink:href="#DejaVuSans-2f" transform="translate(194.375 0.78125)"/>
      <use xlink:href="#DejaVuSans-20" transform="translate(228.066406 0.78125)"/>
      <use xlink:href="#DejaVuSans-6d" transform="translate(259.853516 0.78125)"/>
      <use xlink:href="#DejaVuSans-4d" transform="translate(357.265625 0.78125)"/>
     </g>
    </g>
   </g>
   <g id="line2d_9">
    <path d="M 52.554698 158.887007 
L 68.715979 157.689901 
L 82.508797 156.451176 
L 94.351115 155.171799 
L 104.660898 153.840391 
L 113.577467 152.471992 
L 121.379465 151.057273 
L 128.206213 149.602106 
L 134.336355 148.071207 
L 139.769889 146.485541 
L 144.506816 144.878574 
L 148.825779 143.181497 
L 152.726778 141.408281 
L 156.209813 139.582482 
L 159.414205 137.649624 
L 162.339954 135.620714 
L 164.987061 133.515209 
L 167.494846 131.227472 
L 169.723988 128.898518 
L 171.813809 126.404085 
L 173.764308 123.742423 
L 175.575486 120.916634 
L 177.386665 117.669311 
L 179.058521 114.20645 
L 180.591057 110.540204 
L 182.123592 106.277102 
L 183.516806 101.734357 
L 184.770698 96.931494 
L 186.024591 91.21128 
L 187.139162 85.041875 
L 188.114412 78.410033 
L 188.95034 71.334471 
L 189.786268 62.210111 
L 190.482875 51.998982 
L 191.040161 40.901485 
L 191.597446 25.186448 
L 191.736768 20.125817 
L 191.736768 20.125817 
" clip-path="url(#p85d737a28a)" style="fill: none; stroke: #000000; stroke-opacity: 0.5; stroke-width: 1.5; stroke-linecap: square"/>
   </g>
   <g id="line2d_10">
    <path d="M 52.554698 158.884874 
L 66.208194 157.647331 
L 78.050513 156.356523 
L 88.499617 154.997593 
L 97.694829 153.58057 
L 105.775469 152.1161 
L 113.020182 150.581744 
L 119.568287 148.968139 
L 125.419786 147.298415 
L 130.713999 145.557685 
L 135.450926 143.771981 
L 139.769889 141.913981 
L 143.810209 139.934113 
L 147.432565 137.918234 
L 150.776279 135.813486 
L 153.980671 133.531913 
L 156.90642 131.177081 
L 159.692848 128.644687 
L 162.339954 125.924487 
L 164.708418 123.179252 
L 166.93756 120.274246 
L 169.166702 116.996499 
L 171.256523 113.517221 
L 173.207023 109.842619 
L 175.157522 105.669524 
L 176.9687 101.253532 
L 178.640557 96.615452 
L 180.312414 91.320285 
L 181.844949 85.761569 
L 183.377484 79.373218 
L 184.91002 71.954493 
L 186.303234 64.089729 
L 187.696447 54.873642 
L 188.95034 45.111802 
L 190.204233 33.564294 
L 191.318804 21.369642 
L 191.736768 16.221086 
L 191.736768 16.221086 
" clip-path="url(#p85d737a28a)" style="fill: none; stroke-dasharray: 5.55,2.4; stroke-dashoffset: 0; stroke: #000000; stroke-width: 1.5"/>
   </g>
   <g id="patch_3">
    <path d="M 45.442188 166.12 
L 45.442188 7.2 
" style="fill: none; stroke: #000000; stroke-width: 0.8; stroke-linejoin: miter; stroke-linecap: square"/>
   </g>
   <g id="patch_4">
    <path d="M 45.442188 166.12 
L 198.849278 166.12 
" style="fill: none; stroke: #000000; stroke-width: 0.8; stroke-linejoin: miter; stroke-linecap: square"/>
   </g>
   <g id="PathCollection_1">
    <defs>
     <path id="m184123921c" d="M 0 3 
C 0.795609 3 1.55874 2.683901 2.12132 2.12132 
C 2.683901 1.55874 3 0.795609 3 0 
C 3 -0.795609 2.683901 -1.55874 2.12132 -2.12132 
C 1.55874 -2.683901 0.795609 -3 0 -3 
C -0.795609 -3 -1.55874 -2.683901 -2.12132 -2.12132 
C -2.683901 -1.55874 -3 -0.795609 -3 0 
C -3 0.795609 -2.683901 1.55874 -2.12132 2.12132 
C -1.55874 2.683901 -0.795609 3 0 3 
z
" style="stroke: #000000"/>
    </defs>
    <g clip-path="url(#p85d737a28a)">
     <use xlink:href="#m184123921c" x="52.415237" y="158.896364" style="stroke: #000000"/>
     <use xlink:href="#m184123921c" x="72.637081" y="156.848625" style="stroke: #000000"/>
     <use xlink:href="#m184123921c" x="95.787606" y="155.039512" style="stroke: #000000"/>
     <use xlink:href="#m184123921c" x="122.703577" y="151.529741" style="stroke: #000000"/>
     <use xlink:href="#m184123921c" x="154.361222" y="144.61004" style="stroke: #000000"/>
     <use xlink:href="#m184123921c" x="191.876229" y="14.423636" style="stroke: #000000"/>
    </g>
   </g>
  </g>
 </g>
 <defs>
  <clipPath id="p85d737a28a">
   <rect x="45.442188" y="7.2" width="153.407091" height="158.92"/>
  </clipPath>
 </defs>
</svg>
