<?xml version="1.0" encoding="utf-8" standalone="no"?>
<!DOCTYPE svg PUBLIC "-//W3C//DTD SVG 1.1//EN"
  "http://www.w3.org/Graphics/SVG/1.1/DTD/svg11.dtd">
<svg xmlns:xlink="http://www.w3.org/1999/xlink" width="528.517908pt" height="168.362687pt" viewBox="0 0 528.517908 168.362687" xmlns="http://www.w3.org/2000/svg" version="1.1">
 <metadata>
  <rdf:RDF xmlns:dc="http://purl.org/dc/elements/1.1/" xmlns:cc="http://creativecommons.org/ns#" xmlns:rdf="http://www.w3.org/1999/02/22-rdf-syntax-ns#">
   <cc:Work>
    <dc:type rdf:resource="http://purl.org/dc/dcmitype/StillImage"/>
    <dc:date>2025-07-10T14:37:38.942310</dc:date>
    <dc:format>image/svg+xml</dc:format>
    <dc:creator>
     <cc:Agent>
      <dc:title>Matplotlib v3.7.1, https://matplotlib.org/</dc:title>
     </cc:Agent>
    </dc:creator>
   </cc:Work>
  </rdf:RDF>
 </metadata>
 <defs>
  <style type="text/css">*{stroke-linejoin: round; stroke-linecap: butt}</style>
 </defs>
 <g id="figure_1">
  <g id="patch_1">
   <path d="M 0 168.362687 
L 528.517908 168.362687 
L 528.517908 0 
L 0 0 
z
" style="fill: #ffffff"/>
  </g>
  <g id="axes_1">
   <g id="patch_2">
    <path d="M 40.925 130.806437 
L 159.717908 130.806437 
L 159.717908 20.798438 
L 40.925 20.798438 
z
" style="fill: #ffffff"/>
   </g>
   <g id="matplotlib.axis_1">
    <g id="xtick_1">
     <g id="line2d_1">
      <defs>
       <path id="mc3276f57fd" d="M 0 0 
L 0 3.5 
" style="stroke: #000000; stroke-width: 0.8"/>
      </defs>
      <g>
       <use xlink:href="#mc3276f57fd" x="40.925" y="130.806437" style="stroke: #000000; stroke-width: 0.8"/>
      </g>
     </g>
     <g id="text_1">
      <!-- $\mathdefault{10^{-2}}$ -->
      <g transform="translate(29.175 145.404875) scale(0.1 -0.1)">
       <defs>
        <path id="DejaVuSans-31" d="M 794 531 
L 1825 531 
L 1825 4091 
L 703 3866 
L 703 4441 
L 1819 4666 
L 2450 4666 
L 2450 531 
L 3481 531 
L 3481 0 
L 794 0 
L 794 531 
z
" transform="scale(0.015625)"/>
        <path id="DejaVuSans-30" d="M 2034 4250 
Q 1547 4250 1301 3770 
Q 1056 3291 1056 2328 
Q 1056 1369 1301 889 
Q 1547 409 2034 409 
Q 2525 409 2770 889 
Q 3016 1369 3016 2328 
Q 3016 3291 2770 3770 
Q 2525 4250 2034 4250 
z
M 2034 4750 
Q 2819 4750 3233 4129 
Q 3647 3509 3647 2328 
Q 3647 1150 3233 529 
Q 2819 -91 2034 -91 
Q 1250 -91 836 529 
Q 422 1150 422 2328 
Q 422 3509 836 4129 
Q 1250 4750 2034 4750 
z
" transform="scale(0.015625)"/>
        <path id="DejaVuSans-2212" d="M 678 2272 
L 4684 2272 
L 4684 1741 
L 678 1741 
L 678 2272 
z
" transform="scale(0.015625)"/>
        <path id="DejaVuSans-32" d="M 1228 531 
L 3431 531 
L 3431 0 
L 469 0 
L 469 531 
Q 828 903 1448 1529 
Q 2069 2156 2228 2338 
Q 2531 2678 2651 2914 
Q 2772 3150 2772 3378 
Q 2772 3750 2511 3984 
Q 2250 4219 1831 4219 
Q 1534 4219 1204 4116 
Q 875 4013 500 3803 
L 500 4441 
Q 881 4594 1212 4672 
Q 1544 4750 1819 4750 
Q 2544 4750 2975 4387 
Q 3406 4025 3406 3419 
Q 3406 3131 3298 2873 
Q 3191 2616 2906 2266 
Q 2828 2175 2409 1742 
Q 1991 1309 1228 531 
z
" transform="scale(0.015625)"/>
       </defs>
       <use xlink:href="#DejaVuSans-31" transform="translate(0 0.765625)"/>
       <use xlink:href="#DejaVuSans-30" transform="translate(63.623047 0.765625)"/>
       <use xlink:href="#DejaVuSans-2212" transform="translate(128.203125 39.046875) scale(0.7)"/>
       <use xlink:href="#DejaVuSans-32" transform="translate(186.855469 39.046875) scale(0.7)"/>
      </g>
     </g>
    </g>
    <g id="xtick_2">
     <g id="line2d_2">
      <g>
       <use xlink:href="#mc3276f57fd" x="100.321454" y="130.806437" style="stroke: #000000; stroke-width: 0.8"/>
      </g>
     </g>
     <g id="text_2">
      <!-- $\mathdefault{10^{0}}$ -->
      <g transform="translate(91.521454 145.404875) scale(0.1 -0.1)">
       <use xlink:href="#DejaVuSans-31" transform="translate(0 0.765625)"/>
       <use xlink:href="#DejaVuSans-30" transform="translate(63.623047 0.765625)"/>
       <use xlink:href="#DejaVuSans-30" transform="translate(128.203125 39.046875) scale(0.7)"/>
      </g>
     </g>
    </g>
    <g id="xtick_3">
     <g id="line2d_3">
      <g>
       <use xlink:href="#mc3276f57fd" x="159.717908" y="130.806437" style="stroke: #000000; stroke-width: 0.8"/>
      </g>
     </g>
     <g id="text_3">
      <!-- $\mathdefault{10^{2}}$ -->
      <g transform="translate(150.917908 145.404875) scale(0.1 -0.1)">
       <use xlink:href="#DejaVuSans-31" transform="translate(0 0.765625)"/>
       <use xlink:href="#DejaVuSans-30" transform="translate(63.623047 0.765625)"/>
       <use xlink:href="#DejaVuSans-32" transform="translate(128.203125 39.046875) scale(0.7)"/>
      </g>
     </g>
    </g>
    <g id="text_4">
     <!-- Concentration / mM -->
     <g transform="translate(50.903485 159.083) scale(0.1 -0.1)">
      <defs>
       <path id="DejaVuSans-43" d="M 4122 4306 
L 4122 3641 
Q 3803 3938 3442 4084 
Q 3081 4231 2675 4231 
Q 1875 4231 1450 3742 
Q 1025 3253 1025 2328 
Q 1025 1406 1450 917 
Q 1875 428 2675 428 
Q 3081 428 3442 575 
Q 3803 722 4122 1019 
L 4122 359 
Q 3791 134 3420 21 
Q 3050 -91 2638 -91 
Q 1578 -91 968 557 
Q 359 1206 359 2328 
Q 359 3453 968 4101 
Q 1578 4750 2638 4750 
Q 3056 4750 3426 4639 
Q 3797 4528 4122 4306 
z
" transform="scale(0.015625)"/>
       <path id="DejaVuSans-6f" d="M 1959 3097 
Q 1497 3097 1228 2736 
Q 959 2375 959 1747 
Q 959 1119 1226 758 
Q 1494 397 1959 397 
Q 2419 397 2687 759 
Q 2956 1122 2956 1747 
Q 2956 2369 2687 2733 
Q 2419 3097 1959 3097 
z
M 1959 3584 
Q 2709 3584 3137 3096 
Q 3566 2609 3566 1747 
Q 3566 888 3137 398 
Q 2709 -91 1959 -91 
Q 1206 -91 779 398 
Q 353 888 353 1747 
Q 353 2609 779 3096 
Q 1206 3584 1959 3584 
z
" transform="scale(0.015625)"/>
       <path id="DejaVuSans-6e" d="M 3513 2113 
L 3513 0 
L 2938 0 
L 2938 2094 
Q 2938 2591 2744 2837 
Q 2550 3084 2163 3084 
Q 1697 3084 1428 2787 
Q 1159 2491 1159 1978 
L 1159 0 
L 581 0 
L 581 3500 
L 1159 3500 
L 1159 2956 
Q 1366 3272 1645 3428 
Q 1925 3584 2291 3584 
Q 2894 3584 3203 3211 
Q 3513 2838 3513 2113 
z
" transform="scale(0.015625)"/>
       <path id="DejaVuSans-63" d="M 3122 3366 
L 3122 2828 
Q 2878 2963 2633 3030 
Q 2388 3097 2138 3097 
Q 1578 3097 1268 2742 
Q 959 2388 959 1747 
Q 959 1106 1268 751 
Q 1578 397 2138 397 
Q 2388 397 2633 464 
Q 2878 531 3122 666 
L 3122 134 
Q 2881 22 2623 -34 
Q 2366 -91 2075 -91 
Q 1284 -91 818 406 
Q 353 903 353 1747 
Q 353 2603 823 3093 
Q 1294 3584 2113 3584 
Q 2378 3584 2631 3529 
Q 2884 3475 3122 3366 
z
" transform="scale(0.015625)"/>
       <path id="DejaVuSans-65" d="M 3597 1894 
L 3597 1613 
L 953 1613 
Q 991 1019 1311 708 
Q 1631 397 2203 397 
Q 2534 397 2845 478 
Q 3156 559 3463 722 
L 3463 178 
Q 3153 47 2828 -22 
Q 2503 -91 2169 -91 
Q 1331 -91 842 396 
Q 353 884 353 1716 
Q 353 2575 817 3079 
Q 1281 3584 2069 3584 
Q 2775 3584 3186 3129 
Q 3597 2675 3597 1894 
z
M 3022 2063 
Q 3016 2534 2758 2815 
Q 2500 3097 2075 3097 
Q 1594 3097 1305 2825 
Q 1016 2553 972 2059 
L 3022 2063 
z
" transform="scale(0.015625)"/>
       <path id="DejaVuSans-74" d="M 1172 4494 
L 1172 3500 
L 2356 3500 
L 2356 3053 
L 1172 3053 
L 1172 1153 
Q 1172 725 1289 603 
Q 1406 481 1766 481 
L 2356 481 
L 2356 0 
L 1766 0 
Q 1100 0 847 248 
Q 594 497 594 1153 
L 594 3053 
L 172 3053 
L 172 3500 
L 594 3500 
L 594 4494 
L 1172 4494 
z
" transform="scale(0.015625)"/>
       <path id="DejaVuSans-72" d="M 2631 2963 
Q 2534 3019 2420 3045 
Q 2306 3072 2169 3072 
Q 1681 3072 1420 2755 
Q 1159 2438 1159 1844 
L 1159 0 
L 581 0 
L 581 3500 
L 1159 3500 
L 1159 2956 
Q 1341 3275 1631 3429 
Q 1922 3584 2338 3584 
Q 2397 3584 2469 3576 
Q 2541 3569 2628 3553 
L 2631 2963 
z
" transform="scale(0.015625)"/>
       <path id="DejaVuSans-61" d="M 2194 1759 
Q 1497 1759 1228 1600 
Q 959 1441 959 1056 
Q 959 750 1161 570 
Q 1363 391 1709 391 
Q 2188 391 2477 730 
Q 2766 1069 2766 1631 
L 2766 1759 
L 2194 1759 
z
M 3341 1997 
L 3341 0 
L 2766 0 
L 2766 531 
Q 2569 213 2275 61 
Q 1981 -91 1556 -91 
Q 1019 -91 701 211 
Q 384 513 384 1019 
Q 384 1609 779 1909 
Q 1175 2209 1959 2209 
L 2766 2209 
L 2766 2266 
Q 2766 2663 2505 2880 
Q 2244 3097 1772 3097 
Q 1472 3097 1187 3025 
Q 903 2953 641 2809 
L 641 3341 
Q 956 3463 1253 3523 
Q 1550 3584 1831 3584 
Q 2591 3584 2966 3190 
Q 3341 2797 3341 1997 
z
" transform="scale(0.015625)"/>
       <path id="DejaVuSans-69" d="M 603 3500 
L 1178 3500 
L 1178 0 
L 603 0 
L 603 3500 
z
M 603 4863 
L 1178 4863 
L 1178 4134 
L 603 4134 
L 603 4863 
z
" transform="scale(0.015625)"/>
       <path id="DejaVuSans-20" transform="scale(0.015625)"/>
       <path id="DejaVuSans-2f" d="M 1625 4666 
L 2156 4666 
L 531 -594 
L 0 -594 
L 1625 4666 
z
" transform="scale(0.015625)"/>
       <path id="DejaVuSans-6d" d="M 3328 2828 
Q 3544 3216 3844 3400 
Q 4144 3584 4550 3584 
Q 5097 3584 5394 3201 
Q 5691 2819 5691 2113 
L 5691 0 
L 5113 0 
L 5113 2094 
Q 5113 2597 4934 2840 
Q 4756 3084 4391 3084 
Q 3944 3084 3684 2787 
Q 3425 2491 3425 1978 
L 3425 0 
L 2847 0 
L 2847 2094 
Q 2847 2600 2669 2842 
Q 2491 3084 2119 3084 
Q 1678 3084 1418 2786 
Q 1159 2488 1159 1978 
L 1159 0 
L 581 0 
L 581 3500 
L 1159 3500 
L 1159 2956 
Q 1356 3278 1631 3431 
Q 1906 3584 2284 3584 
Q 2666 3584 2933 3390 
Q 3200 3197 3328 2828 
z
" transform="scale(0.015625)"/>
       <path id="DejaVuSans-4d" d="M 628 4666 
L 1569 4666 
L 2759 1491 
L 3956 4666 
L 4897 4666 
L 4897 0 
L 4281 0 
L 4281 4097 
L 3078 897 
L 2444 897 
L 1241 4097 
L 1241 0 
L 628 0 
L 628 4666 
z
" transform="scale(0.015625)"/>
      </defs>
      <use xlink:href="#DejaVuSans-43"/>
      <use xlink:href="#DejaVuSans-6f" x="69.824219"/>
      <use xlink:href="#DejaVuSans-6e" x="131.005859"/>
      <use xlink:href="#DejaVuSans-63" x="194.384766"/>
      <use xlink:href="#DejaVuSans-65" x="249.365234"/>
      <use xlink:href="#DejaVuSans-6e" x="310.888672"/>
      <use xlink:href="#DejaVuSans-74" x="374.267578"/>
      <use xlink:href="#DejaVuSans-72" x="413.476562"/>
      <use xlink:href="#DejaVuSans-61" x="454.589844"/>
      <use xlink:href="#DejaVuSans-74" x="515.869141"/>
      <use xlink:href="#DejaVuSans-69" x="555.078125"/>
      <use xlink:href="#DejaVuSans-6f" x="582.861328"/>
      <use xlink:href="#DejaVuSans-6e" x="644.042969"/>
      <use xlink:href="#DejaVuSans-20" x="707.421875"/>
      <use xlink:href="#DejaVuSans-2f" x="739.208984"/>
      <use xlink:href="#DejaVuSans-20" x="772.900391"/>
      <use xlink:href="#DejaVuSans-6d" x="804.6875"/>
      <use xlink:href="#DejaVuSans-4d" x="902.099609"/>
     </g>
    </g>
   </g>
   <g id="matplotlib.axis_2">
    <g id="ytick_1">
     <g id="line2d_4">
      <defs>
       <path id="m4fedfcc32d" d="M 0 0 
L -3.5 0 
" style="stroke: #000000; stroke-width: 0.8"/>
      </defs>
      <g>
       <use xlink:href="#m4fedfcc32d" x="40.925" y="119.805637" style="stroke: #000000; stroke-width: 0.8"/>
      </g>
     </g>
     <g id="text_5">
      <!-- 30 -->
      <g transform="translate(21.2 123.604856) scale(0.1 -0.1)">
       <defs>
        <path id="DejaVuSans-33" d="M 2597 2516 
Q 3050 2419 3304 2112 
Q 3559 1806 3559 1356 
Q 3559 666 3084 287 
Q 2609 -91 1734 -91 
Q 1441 -91 1130 -33 
Q 819 25 488 141 
L 488 750 
Q 750 597 1062 519 
Q 1375 441 1716 441 
Q 2309 441 2620 675 
Q 2931 909 2931 1356 
Q 2931 1769 2642 2001 
Q 2353 2234 1838 2234 
L 1294 2234 
L 1294 2753 
L 1863 2753 
Q 2328 2753 2575 2939 
Q 2822 3125 2822 3475 
Q 2822 3834 2567 4026 
Q 2313 4219 1838 4219 
Q 1578 4219 1281 4162 
Q 984 4106 628 3988 
L 628 4550 
Q 988 4650 1302 4700 
Q 1616 4750 1894 4750 
Q 2613 4750 3031 4423 
Q 3450 4097 3450 3541 
Q 3450 3153 3228 2886 
Q 3006 2619 2597 2516 
z
" transform="scale(0.015625)"/>
       </defs>
       <use xlink:href="#DejaVuSans-33"/>
       <use xlink:href="#DejaVuSans-30" x="63.623047"/>
      </g>
     </g>
    </g>
    <g id="ytick_2">
     <g id="line2d_5">
      <g>
       <use xlink:href="#m4fedfcc32d" x="40.925" y="97.804037" style="stroke: #000000; stroke-width: 0.8"/>
      </g>
     </g>
     <g id="text_6">
      <!-- 40 -->
      <g transform="translate(21.2 101.603256) scale(0.1 -0.1)">
       <defs>
        <path id="DejaVuSans-34" d="M 2419 4116 
L 825 1625 
L 2419 1625 
L 2419 4116 
z
M 2253 4666 
L 3047 4666 
L 3047 1625 
L 3713 1625 
L 3713 1100 
L 3047 1100 
L 3047 0 
L 2419 0 
L 2419 1100 
L 313 1100 
L 313 1709 
L 2253 4666 
z
" transform="scale(0.015625)"/>
       </defs>
       <use xlink:href="#DejaVuSans-34"/>
       <use xlink:href="#DejaVuSans-30" x="63.623047"/>
      </g>
     </g>
    </g>
    <g id="ytick_3">
     <g id="line2d_6">
      <g>
       <use xlink:href="#m4fedfcc32d" x="40.925" y="75.802437" style="stroke: #000000; stroke-width: 0.8"/>
      </g>
     </g>
     <g id="text_7">
      <!-- 50 -->
      <g transform="translate(21.2 79.601656) scale(0.1 -0.1)">
       <defs>
        <path id="DejaVuSans-35" d="M 691 4666 
L 3169 4666 
L 3169 4134 
L 1269 4134 
L 1269 2991 
Q 1406 3038 1543 3061 
Q 1681 3084 1819 3084 
Q 2600 3084 3056 2656 
Q 3513 2228 3513 1497 
Q 3513 744 3044 326 
Q 2575 -91 1722 -91 
Q 1428 -91 1123 -41 
Q 819 9 494 109 
L 494 744 
Q 775 591 1075 516 
Q 1375 441 1709 441 
Q 2250 441 2565 725 
Q 2881 1009 2881 1497 
Q 2881 1984 2565 2268 
Q 2250 2553 1709 2553 
Q 1456 2553 1204 2497 
Q 953 2441 691 2322 
L 691 4666 
z
" transform="scale(0.015625)"/>
       </defs>
       <use xlink:href="#DejaVuSans-35"/>
       <use xlink:href="#DejaVuSans-30" x="63.623047"/>
      </g>
     </g>
    </g>
    <g id="ytick_4">
     <g id="line2d_7">
      <g>
       <use xlink:href="#m4fedfcc32d" x="40.925" y="53.800837" style="stroke: #000000; stroke-width: 0.8"/>
      </g>
     </g>
     <g id="text_8">
      <!-- 60 -->
      <g transform="translate(21.2 57.600056) scale(0.1 -0.1)">
       <defs>
        <path id="DejaVuSans-36" d="M 2113 2584 
Q 1688 2584 1439 2293 
Q 1191 2003 1191 1497 
Q 1191 994 1439 701 
Q 1688 409 2113 409 
Q 2538 409 2786 701 
Q 3034 994 3034 1497 
Q 3034 2003 2786 2293 
Q 2538 2584 2113 2584 
z
M 3366 4563 
L 3366 3988 
Q 3128 4100 2886 4159 
Q 2644 4219 2406 4219 
Q 1781 4219 1451 3797 
Q 1122 3375 1075 2522 
Q 1259 2794 1537 2939 
Q 1816 3084 2150 3084 
Q 2853 3084 3261 2657 
Q 3669 2231 3669 1497 
Q 3669 778 3244 343 
Q 2819 -91 2113 -91 
Q 1303 -91 875 529 
Q 447 1150 447 2328 
Q 447 3434 972 4092 
Q 1497 4750 2381 4750 
Q 2619 4750 2861 4703 
Q 3103 4656 3366 4563 
z
" transform="scale(0.015625)"/>
       </defs>
       <use xlink:href="#DejaVuSans-36"/>
       <use xlink:href="#DejaVuSans-30" x="63.623047"/>
      </g>
     </g>
    </g>
    <g id="ytick_5">
     <g id="line2d_8">
      <g>
       <use xlink:href="#m4fedfcc32d" x="40.925" y="31.799237" style="stroke: #000000; stroke-width: 0.8"/>
      </g>
     </g>
     <g id="text_9">
      <!-- 70 -->
      <g transform="translate(21.2 35.598456) scale(0.1 -0.1)">
       <defs>
        <path id="DejaVuSans-37" d="M 525 4666 
L 3525 4666 
L 3525 4397 
L 1831 0 
L 1172 0 
L 2766 4134 
L 525 4134 
L 525 4666 
z
" transform="scale(0.015625)"/>
       </defs>
       <use xlink:href="#DejaVuSans-37"/>
       <use xlink:href="#DejaVuSans-30" x="63.623047"/>
      </g>
     </g>
    </g>
    <g id="text_10">
     <!-- Surface tension / $\mathrm{mN \ m^{-1}}$ -->
     <g transform="translate(15.120312 140.202438) rotate(-90) scale(0.1 -0.1)">
      <defs>
       <path id="DejaVuSans-53" d="M 3425 4513 
L 3425 3897 
Q 3066 4069 2747 4153 
Q 2428 4238 2131 4238 
Q 1616 4238 1336 4038 
Q 1056 3838 1056 3469 
Q 1056 3159 1242 3001 
Q 1428 2844 1947 2747 
L 2328 2669 
Q 3034 2534 3370 2195 
Q 3706 1856 3706 1288 
Q 3706 609 3251 259 
Q 2797 -91 1919 -91 
Q 1588 -91 1214 -16 
Q 841 59 441 206 
L 441 856 
Q 825 641 1194 531 
Q 1563 422 1919 422 
Q 2459 422 2753 634 
Q 3047 847 3047 1241 
Q 3047 1584 2836 1778 
Q 2625 1972 2144 2069 
L 1759 2144 
Q 1053 2284 737 2584 
Q 422 2884 422 3419 
Q 422 4038 858 4394 
Q 1294 4750 2059 4750 
Q 2388 4750 2728 4690 
Q 3069 4631 3425 4513 
z
" transform="scale(0.015625)"/>
       <path id="DejaVuSans-75" d="M 544 1381 
L 544 3500 
L 1119 3500 
L 1119 1403 
Q 1119 906 1312 657 
Q 1506 409 1894 409 
Q 2359 409 2629 706 
Q 2900 1003 2900 1516 
L 2900 3500 
L 3475 3500 
L 3475 0 
L 2900 0 
L 2900 538 
Q 2691 219 2414 64 
Q 2138 -91 1772 -91 
Q 1169 -91 856 284 
Q 544 659 544 1381 
z
M 1991 3584 
L 1991 3584 
z
" transform="scale(0.015625)"/>
       <path id="DejaVuSans-66" d="M 2375 4863 
L 2375 4384 
L 1825 4384 
Q 1516 4384 1395 4259 
Q 1275 4134 1275 3809 
L 1275 3500 
L 2222 3500 
L 2222 3053 
L 1275 3053 
L 1275 0 
L 697 0 
L 697 3053 
L 147 3053 
L 147 3500 
L 697 3500 
L 697 3744 
Q 697 4328 969 4595 
Q 1241 4863 1831 4863 
L 2375 4863 
z
" transform="scale(0.015625)"/>
       <path id="DejaVuSans-73" d="M 2834 3397 
L 2834 2853 
Q 2591 2978 2328 3040 
Q 2066 3103 1784 3103 
Q 1356 3103 1142 2972 
Q 928 2841 928 2578 
Q 928 2378 1081 2264 
Q 1234 2150 1697 2047 
L 1894 2003 
Q 2506 1872 2764 1633 
Q 3022 1394 3022 966 
Q 3022 478 2636 193 
Q 2250 -91 1575 -91 
Q 1294 -91 989 -36 
Q 684 19 347 128 
L 347 722 
Q 666 556 975 473 
Q 1284 391 1588 391 
Q 1994 391 2212 530 
Q 2431 669 2431 922 
Q 2431 1156 2273 1281 
Q 2116 1406 1581 1522 
L 1381 1569 
Q 847 1681 609 1914 
Q 372 2147 372 2553 
Q 372 3047 722 3315 
Q 1072 3584 1716 3584 
Q 2034 3584 2315 3537 
Q 2597 3491 2834 3397 
z
" transform="scale(0.015625)"/>
       <path id="DejaVuSans-4e" d="M 628 4666 
L 1478 4666 
L 3547 763 
L 3547 4666 
L 4159 4666 
L 4159 0 
L 3309 0 
L 1241 3903 
L 1241 0 
L 628 0 
L 628 4666 
z
" transform="scale(0.015625)"/>
      </defs>
      <use xlink:href="#DejaVuSans-53" transform="translate(0 0.684375)"/>
      <use xlink:href="#DejaVuSans-75" transform="translate(63.476562 0.684375)"/>
      <use xlink:href="#DejaVuSans-72" transform="translate(126.855469 0.684375)"/>
      <use xlink:href="#DejaVuSans-66" transform="translate(167.96875 0.684375)"/>
      <use xlink:href="#DejaVuSans-61" transform="translate(203.173828 0.684375)"/>
      <use xlink:href="#DejaVuSans-63" transform="translate(264.453125 0.684375)"/>
      <use xlink:href="#DejaVuSans-65" transform="translate(319.433594 0.684375)"/>
      <use xlink:href="#DejaVuSans-20" transform="translate(380.957031 0.684375)"/>
      <use xlink:href="#DejaVuSans-74" transform="translate(412.744141 0.684375)"/>
      <use xlink:href="#DejaVuSans-65" transform="translate(451.953125 0.684375)"/>
      <use xlink:href="#DejaVuSans-6e" transform="translate(513.476562 0.684375)"/>
      <use xlink:href="#DejaVuSans-73" transform="translate(576.855469 0.684375)"/>
      <use xlink:href="#DejaVuSans-69" transform="translate(628.955078 0.684375)"/>
      <use xlink:href="#DejaVuSans-6f" transform="translate(656.738281 0.684375)"/>
      <use xlink:href="#DejaVuSans-6e" transform="translate(717.919922 0.684375)"/>
      <use xlink:href="#DejaVuSans-20" transform="translate(781.298828 0.684375)"/>
      <use xlink:href="#DejaVuSans-2f" transform="translate(813.085938 0.684375)"/>
      <use xlink:href="#DejaVuSans-20" transform="translate(846.777344 0.684375)"/>
      <use xlink:href="#DejaVuSans-6d" transform="translate(878.564453 0.684375)"/>
      <use xlink:href="#DejaVuSans-4e" transform="translate(975.976562 0.684375)"/>
      <use xlink:href="#DejaVuSans-6d" transform="translate(1083.251628 0.684375)"/>
      <use xlink:href="#DejaVuSans-2212" transform="translate(1181.620769 38.965625) scale(0.7)"/>
      <use xlink:href="#DejaVuSans-31" transform="translate(1240.273113 38.965625) scale(0.7)"/>
     </g>
    </g>
   </g>
   <g id="line2d_9">
    <path d="M 56.410674 26.98904 
L 57.377164 27.186291 
L 57.618782 27.150453 
L 57.779865 27.194851 
L 57.940949 27.166601 
L 58.102034 27.22332 
L 58.182582 27.155354 
L 58.504736 27.34433 
L 58.585285 27.33587 
L 58.665819 27.194012 
L 58.826903 27.343826 
L 58.987988 27.330767 
L 59.310155 27.426312 
L 59.632309 27.338421 
L 59.712859 27.55459 
L 59.873942 27.362861 
L 60.115561 27.490132 
L 60.196096 27.379513 
L 60.357179 27.525584 
L 60.518264 27.541933 
L 60.759895 27.495655 
L 60.840431 27.610789 
L 60.920981 27.54618 
L 61.404217 27.650572 
L 61.484767 27.563839 
L 61.64585 27.821049 
L 61.887468 27.66719 
L 62.129088 27.951089 
L 62.612339 27.854889 
L 62.692874 27.913674 
L 62.773422 27.81279 
L 62.853958 27.930762 
L 63.015042 27.828754 
L 63.095577 28.04415 
L 63.25666 27.95918 
L 63.659377 28.113862 
L 64.464782 28.133401 
L 64.625866 28.366439 
L 64.7064 28.20229 
L 64.786951 28.267957 
L 64.94802 28.354035 
L 65.02857 28.249207 
L 65.189653 28.441002 
L 65.350737 28.373943 
L 65.511806 28.569314 
L 65.67289 28.439492 
L 65.914523 28.576615 
L 65.995058 28.461464 
L 66.156141 28.564362 
L 66.317225 28.621148 
L 66.397761 28.531394 
L 66.478309 28.739791 
L 66.558844 28.596507 
L 66.639393 28.667528 
L 66.800464 28.748469 
L 67.122631 28.842437 
L 67.203181 28.721511 
L 67.36425 29.010094 
L 67.605883 28.907449 
L 67.686417 28.903823 
L 67.766965 29.085832 
L 67.8475 29.008197 
L 68.169668 29.123449 
L 68.250203 28.995021 
L 68.491823 29.211693 
L 68.652906 29.117692 
L 68.975087 29.384755 
L 69.297242 29.300423 
L 69.377791 29.445084 
L 69.458325 29.285014 
L 69.780493 29.578817 
L 69.941577 29.510414 
L 70.344278 29.721799 
L 70.505364 29.641177 
L 70.666447 29.796177 
L 70.827524 29.84249 
L 70.908065 29.943306 
L 70.988608 29.823303 
L 71.230233 29.992656 
L 71.39131 30.011272 
L 72.277264 30.289699 
L 72.357806 30.485993 
L 72.438348 30.316674 
L 72.599425 30.489502 
L 73.002135 30.602018 
L 73.646462 30.838396 
L 73.726997 30.794602 
L 73.968624 30.955126 
L 74.290792 31.198353 
L 74.371327 31.09653 
L 74.451868 31.247015 
L 74.612951 31.203792 
L 74.774035 31.366632 
L 74.854577 31.286748 
L 75.096197 31.435689 
L 75.257281 31.559401 
L 75.498905 31.6884 
L 75.579441 31.628357 
L 75.901609 31.934062 
L 76.062693 31.814194 
L 76.384852 32.079713 
L 76.70702 32.15018 
L 77.02918 32.495029 
L 77.190272 32.424814 
L 77.43189 32.60726 
L 78.640006 33.304092 
L 78.720547 33.253584 
L 78.80109 33.476752 
L 78.881632 33.401182 
L 79.042716 33.507017 
L 79.203793 33.582402 
L 79.445418 33.808424 
L 79.687044 33.87065 
L 79.848121 34.103588 
L 79.928663 34.023687 
L 80.411914 34.419985 
L 80.572991 34.42022 
L 80.895159 34.731715 
L 81.217319 34.896033 
L 81.378403 35.057043 
L 81.539487 35.072889 
L 81.700564 35.255016 
L 81.861647 35.348865 
L 82.022731 35.595064 
L 82.103273 35.550229 
L 82.344892 35.816352 
L 82.425434 35.713186 
L 82.586518 35.904512 
L 84.519503 37.545416 
L 84.600037 37.504862 
L 84.841663 37.922981 
L 85.002747 37.949151 
L 86.210869 39.097154 
L 86.291411 39.312702 
L 86.371953 39.245777 
L 86.855197 39.840417 
L 86.935739 39.861248 
L 87.338442 40.369961 
L 87.418984 40.355408 
L 87.821687 40.952834 
L 87.902229 40.89405 
L 87.982771 41.196213 
L 88.063312 41.095833 
L 88.466015 41.585914 
L 88.627099 41.829679 
L 88.788182 42.028323 
L 90.560083 44.186972 
L 90.801703 44.636128 
L 91.204405 45.183902 
L 91.929275 46.287356 
L 92.009817 46.556065 
L 92.09036 46.478824 
L 92.412527 47.088757 
L 93.540107 48.903034 
L 93.781726 49.279483 
L 94.184435 49.954192 
L 95.231466 51.862017 
L 95.312008 51.943387 
L 95.553634 52.539051 
L 95.634169 52.636585 
L 95.956336 53.351882 
L 96.278497 54.01986 
L 96.359039 54.066105 
L 97.083909 55.639925 
L 97.80878 57.246435 
L 99.902848 62.328128 
L 100.144466 63.016769 
L 100.225009 63.048729 
L 100.547176 63.998416 
L 101.110963 65.531689 
L 101.755292 67.430316 
L 102.963407 71.037528 
L 103.043948 71.189986 
L 103.366109 72.308749 
L 105.782338 80.625686 
L 108.762361 92.608318 
L 112.225629 109.29909 
L 112.547789 111.027726 
L 114.239155 118.89233 
L 114.561316 119.073252 
L 114.7224 119.087076 
L 115.04456 119.130366 
L 115.447263 119.037813 
L 115.527805 119.129154 
L 115.608354 119.056521 
L 116.172133 119.0471 
L 116.252683 118.979877 
L 116.413766 119.1591 
L 116.494302 119.066916 
L 116.574843 119.146363 
L 116.735926 119.063114 
L 116.816469 119.239122 
L 116.897004 119.149666 
L 116.977546 119.019928 
L 117.13863 119.11066 
L 117.380256 119.036533 
L 117.621881 119.167287 
L 117.8635 118.993545 
L 117.944042 119.13515 
L 118.024584 119.061381 
L 118.26621 119.10149 
L 118.427286 119.062749 
L 118.58837 119.052711 
L 118.829988 119.113681 
L 118.910531 119.198844 
L 119.071615 119.023033 
L 119.232698 119.086077 
L 119.393782 119.079144 
L 119.635402 119.126971 
L 119.71595 119.055934 
L 119.877027 119.06266 
L 120.279729 119.205059 
L 120.440813 118.936875 
L 120.682439 119.143119 
L 120.843523 119.030486 
L 121.085142 119.054968 
L 122.293264 119.067591 
L 122.373799 119.160228 
L 122.45434 119.025559 
L 122.615425 119.103425 
L 122.695966 118.993528 
L 122.857043 119.104894 
L 122.937585 119.030268 
L 123.018127 119.188634 
L 123.098669 119.133707 
L 123.17921 119.088763 
L 123.340287 119.118897 
L 123.420836 119.153485 
L 123.501378 118.871041 
L 123.662455 119.048149 
L 123.742997 119.023126 
L 123.984622 119.173254 
L 124.065164 119.03198 
L 124.145707 119.141739 
L 124.306783 119.040893 
L 124.387325 118.984329 
L 124.467867 119.113761 
L 124.548408 119.034385 
L 124.628952 119.1439 
L 124.709493 118.985966 
L 124.790028 119.179234 
L 124.87057 119.087302 
L 125.112196 119.135222 
L 125.192737 118.910337 
L 125.353821 119.107924 
L 125.434356 118.988442 
L 125.675982 119.145478 
L 125.917608 119.124974 
L 126.078692 119.202823 
L 126.239768 119.003469 
L 126.400852 119.159276 
L 126.561936 119.074822 
L 126.803562 119.189537 
L 126.964638 119.038313 
L 127.286806 119.167341 
L 127.367349 119.036248 
L 127.447884 119.112078 
L 127.608968 119.09037 
L 128.092212 119.118893 
L 128.333836 119.160472 
L 128.575463 119.114101 
L 128.736547 119.075372 
L 128.817082 119.191568 
L 128.897624 119.067407 
L 129.058708 119.160766 
L 129.300326 119.002101 
L 129.380875 119.130811 
L 129.46141 118.982042 
L 129.541953 119.125582 
L 129.703036 119.035618 
L 129.86412 119.087537 
L 130.186284 119.075938 
L 130.347364 119.210813 
L 130.427902 118.949179 
L 130.508448 119.115561 
L 130.588991 119.057411 
L 130.75007 119.065057 
L 130.911154 119.080525 
L 130.991692 119.007448 
L 131.152773 119.060365 
L 131.233315 118.946217 
L 131.394399 119.085242 
L 131.636021 119.091528 
L 131.716562 119.007414 
L 131.877644 119.161471 
L 132.199807 119.032039 
L 132.602513 119.086639 
L 132.683051 118.999449 
L 132.84414 119.063445 
L 133.00522 119.06901 
L 133.085758 119.022022 
L 133.246842 119.122284 
L 133.407922 119.192919 
L 133.488467 119.022097 
L 133.649549 119.130324 
L 133.810628 119.069572 
L 133.891173 119.175873 
L 134.052254 118.994472 
L 134.374418 119.039748 
L 134.454956 118.967699 
L 134.61604 119.201186 
L 134.696582 119.134437 
L 134.857662 119.105154 
L 135.018747 119.024842 
L 135.099288 119.206327 
L 135.260369 119.062018 
L 135.421453 119.153959 
L 135.501991 119.034351 
L 135.582533 119.180795 
L 135.663072 119.009479 
L 135.743617 119.091515 
L 135.824155 119.184299 
L 135.985239 119.066559 
L 136.307403 119.149049 
L 136.387943 119.220045 
L 136.629568 119.047062 
L 136.87119 119.176439 
L 136.87119 119.176439 
" clip-path="url(#pe95795e330)" style="fill: none; stroke: #000000; stroke-opacity: 0.3; stroke-width: 2; stroke-linecap: square"/>
   </g>
   <g id="patch_3">
    <path d="M 40.925 130.806437 
L 40.925 20.798437 
" style="fill: none; stroke: #000000; stroke-width: 0.8; stroke-linejoin: miter; stroke-linecap: square"/>
   </g>
   <g id="patch_4">
    <path d="M 40.925 130.806437 
L 159.717908 130.806437 
" style="fill: none; stroke: #000000; stroke-width: 0.8; stroke-linejoin: miter; stroke-linecap: square"/>
   </g>
   <g id="text_11">
    <!-- TTAB, replicate 1 -->
    <g transform="translate(58.067548 14.798438) scale(0.1 -0.1)">
     <defs>
      <path id="DejaVuSans-54" d="M -19 4666 
L 3928 4666 
L 3928 4134 
L 2272 4134 
L 2272 0 
L 1638 0 
L 1638 4134 
L -19 4134 
L -19 4666 
z
" transform="scale(0.015625)"/>
      <path id="DejaVuSans-41" d="M 2188 4044 
L 1331 1722 
L 3047 1722 
L 2188 4044 
z
M 1831 4666 
L 2547 4666 
L 4325 0 
L 3669 0 
L 3244 1197 
L 1141 1197 
L 716 0 
L 50 0 
L 1831 4666 
z
" transform="scale(0.015625)"/>
      <path id="DejaVuSans-42" d="M 1259 2228 
L 1259 519 
L 2272 519 
Q 2781 519 3026 730 
Q 3272 941 3272 1375 
Q 3272 1813 3026 2020 
Q 2781 2228 2272 2228 
L 1259 2228 
z
M 1259 4147 
L 1259 2741 
L 2194 2741 
Q 2656 2741 2882 2914 
Q 3109 3088 3109 3444 
Q 3109 3797 2882 3972 
Q 2656 4147 2194 4147 
L 1259 4147 
z
M 628 4666 
L 2241 4666 
Q 2963 4666 3353 4366 
Q 3744 4066 3744 3513 
Q 3744 3084 3544 2831 
Q 3344 2578 2956 2516 
Q 3422 2416 3680 2098 
Q 3938 1781 3938 1306 
Q 3938 681 3513 340 
Q 3088 0 2303 0 
L 628 0 
L 628 4666 
z
" transform="scale(0.015625)"/>
      <path id="DejaVuSans-2c" d="M 750 794 
L 1409 794 
L 1409 256 
L 897 -744 
L 494 -744 
L 750 256 
L 750 794 
z
" transform="scale(0.015625)"/>
      <path id="DejaVuSans-70" d="M 1159 525 
L 1159 -1331 
L 581 -1331 
L 581 3500 
L 1159 3500 
L 1159 2969 
Q 1341 3281 1617 3432 
Q 1894 3584 2278 3584 
Q 2916 3584 3314 3078 
Q 3713 2572 3713 1747 
Q 3713 922 3314 415 
Q 2916 -91 2278 -91 
Q 1894 -91 1617 61 
Q 1341 213 1159 525 
z
M 3116 1747 
Q 3116 2381 2855 2742 
Q 2594 3103 2138 3103 
Q 1681 3103 1420 2742 
Q 1159 2381 1159 1747 
Q 1159 1113 1420 752 
Q 1681 391 2138 391 
Q 2594 391 2855 752 
Q 3116 1113 3116 1747 
z
" transform="scale(0.015625)"/>
      <path id="DejaVuSans-6c" d="M 603 4863 
L 1178 4863 
L 1178 0 
L 603 0 
L 603 4863 
z
" transform="scale(0.015625)"/>
     </defs>
     <use xlink:href="#DejaVuSans-54"/>
     <use xlink:href="#DejaVuSans-54" x="59.333984"/>
     <use xlink:href="#DejaVuSans-41" x="112.667969"/>
     <use xlink:href="#DejaVuSans-42" x="181.076172"/>
     <use xlink:href="#DejaVuSans-2c" x="249.679688"/>
     <use xlink:href="#DejaVuSans-20" x="281.466797"/>
     <use xlink:href="#DejaVuSans-72" x="313.253906"/>
     <use xlink:href="#DejaVuSans-65" x="352.117188"/>
     <use xlink:href="#DejaVuSans-70" x="413.640625"/>
     <use xlink:href="#DejaVuSans-6c" x="477.117188"/>
     <use xlink:href="#DejaVuSans-69" x="504.900391"/>
     <use xlink:href="#DejaVuSans-63" x="532.683594"/>
     <use xlink:href="#DejaVuSans-61" x="587.664062"/>
     <use xlink:href="#DejaVuSans-74" x="648.943359"/>
     <use xlink:href="#DejaVuSans-65" x="688.152344"/>
     <use xlink:href="#DejaVuSans-20" x="749.675781"/>
     <use xlink:href="#DejaVuSans-31" x="781.462891"/>
    </g>
   </g>
   <g id="PathCollection_1">
    <defs>
     <path id="m53480f578e" d="M 0 2.236068 
C 0.593012 2.236068 1.161816 2.000462 1.581139 1.581139 
C 2.000462 1.161816 2.236068 0.593012 2.236068 0 
C 2.236068 -0.593012 2.000462 -1.161816 1.581139 -1.581139 
C 1.161816 -2.000462 0.593012 -2.236068 0 -2.236068 
C -0.593012 -2.236068 -1.161816 -2.000462 -1.581139 -1.581139 
C -2.000462 -1.161816 -2.236068 -0.593012 -2.236068 0 
C -2.236068 0.593012 -2.000462 1.161816 -1.581139 1.581139 
C -1.161816 2.000462 -0.593012 2.236068 0 2.236068 
z
" style="stroke: #000000"/>
    </defs>
    <g clip-path="url(#pe95795e330)">
     <use xlink:href="#m53480f578e" x="74.29079" y="31.665755" style="stroke: #000000"/>
     <use xlink:href="#m53480f578e" x="83.230847" y="37.426817" style="stroke: #000000"/>
     <use xlink:href="#m53480f578e" x="92.170904" y="51.595035" style="stroke: #000000"/>
     <use xlink:href="#m53480f578e" x="101.110961" y="72.133526" style="stroke: #000000"/>
     <use xlink:href="#m53480f578e" x="110.051018" y="96.507379" style="stroke: #000000"/>
     <use xlink:href="#m53480f578e" x="118.991076" y="122.389875" style="stroke: #000000"/>
     <use xlink:href="#m53480f578e" x="127.931133" y="114.419048" style="stroke: #000000"/>
     <use xlink:href="#m53480f578e" x="136.87119" y="112.640496" style="stroke: #000000"/>
    </g>
   </g>
  </g>
  <g id="axes_2">
   <g id="patch_5">
    <path d="M 217.325 130.806437 
L 336.117908 130.806437 
L 336.117908 20.798438 
L 217.325 20.798438 
z
" style="fill: #ffffff"/>
   </g>
   <g id="matplotlib.axis_3">
    <g id="xtick_4">
     <g id="line2d_10">
      <g>
       <use xlink:href="#mc3276f57fd" x="217.325" y="130.806437" style="stroke: #000000; stroke-width: 0.8"/>
      </g>
     </g>
     <g id="text_12">
      <!-- $\mathdefault{10^{-2}}$ -->
      <g transform="translate(205.575 145.404875) scale(0.1 -0.1)">
       <use xlink:href="#DejaVuSans-31" transform="translate(0 0.765625)"/>
       <use xlink:href="#DejaVuSans-30" transform="translate(63.623047 0.765625)"/>
       <use xlink:href="#DejaVuSans-2212" transform="translate(128.203125 39.046875) scale(0.7)"/>
       <use xlink:href="#DejaVuSans-32" transform="translate(186.855469 39.046875) scale(0.7)"/>
      </g>
     </g>
    </g>
    <g id="xtick_5">
     <g id="line2d_11">
      <g>
       <use xlink:href="#mc3276f57fd" x="276.721454" y="130.806437" style="stroke: #000000; stroke-width: 0.8"/>
      </g>
     </g>
     <g id="text_13">
      <!-- $\mathdefault{10^{0}}$ -->
      <g transform="translate(267.921454 145.404875) scale(0.1 -0.1)">
       <use xlink:href="#DejaVuSans-31" transform="translate(0 0.765625)"/>
       <use xlink:href="#DejaVuSans-30" transform="translate(63.623047 0.765625)"/>
       <use xlink:href="#DejaVuSans-30" transform="translate(128.203125 39.046875) scale(0.7)"/>
      </g>
     </g>
    </g>
    <g id="xtick_6">
     <g id="line2d_12">
      <g>
       <use xlink:href="#mc3276f57fd" x="336.117908" y="130.806437" style="stroke: #000000; stroke-width: 0.8"/>
      </g>
     </g>
     <g id="text_14">
      <!-- $\mathdefault{10^{2}}$ -->
      <g transform="translate(327.317908 145.404875) scale(0.1 -0.1)">
       <use xlink:href="#DejaVuSans-31" transform="translate(0 0.765625)"/>
       <use xlink:href="#DejaVuSans-30" transform="translate(63.623047 0.765625)"/>
       <use xlink:href="#DejaVuSans-32" transform="translate(128.203125 39.046875) scale(0.7)"/>
      </g>
     </g>
    </g>
    <g id="text_15">
     <!-- Concentration / mM -->
     <g transform="translate(227.303485 159.083) scale(0.1 -0.1)">
      <use xlink:href="#DejaVuSans-43"/>
      <use xlink:href="#DejaVuSans-6f" x="69.824219"/>
      <use xlink:href="#DejaVuSans-6e" x="131.005859"/>
      <use xlink:href="#DejaVuSans-63" x="194.384766"/>
      <use xlink:href="#DejaVuSans-65" x="249.365234"/>
      <use xlink:href="#DejaVuSans-6e" x="310.888672"/>
      <use xlink:href="#DejaVuSans-74" x="374.267578"/>
      <use xlink:href="#DejaVuSans-72" x="413.476562"/>
      <use xlink:href="#DejaVuSans-61" x="454.589844"/>
      <use xlink:href="#DejaVuSans-74" x="515.869141"/>
      <use xlink:href="#DejaVuSans-69" x="555.078125"/>
      <use xlink:href="#DejaVuSans-6f" x="582.861328"/>
      <use xlink:href="#DejaVuSans-6e" x="644.042969"/>
      <use xlink:href="#DejaVuSans-20" x="707.421875"/>
      <use xlink:href="#DejaVuSans-2f" x="739.208984"/>
      <use xlink:href="#DejaVuSans-20" x="772.900391"/>
      <use xlink:href="#DejaVuSans-6d" x="804.6875"/>
      <use xlink:href="#DejaVuSans-4d" x="902.099609"/>
     </g>
    </g>
   </g>
   <g id="matplotlib.axis_4">
    <g id="ytick_6">
     <g id="line2d_13">
      <g>
       <use xlink:href="#m4fedfcc32d" x="217.325" y="119.805637" style="stroke: #000000; stroke-width: 0.8"/>
      </g>
     </g>
     <g id="text_16">
      <!-- 30 -->
      <g transform="translate(197.6 123.604856) scale(0.1 -0.1)">
       <use xlink:href="#DejaVuSans-33"/>
       <use xlink:href="#DejaVuSans-30" x="63.623047"/>
      </g>
     </g>
    </g>
    <g id="ytick_7">
     <g id="line2d_14">
      <g>
       <use xlink:href="#m4fedfcc32d" x="217.325" y="97.804037" style="stroke: #000000; stroke-width: 0.8"/>
      </g>
     </g>
     <g id="text_17">
      <!-- 40 -->
      <g transform="translate(197.6 101.603256) scale(0.1 -0.1)">
       <use xlink:href="#DejaVuSans-34"/>
       <use xlink:href="#DejaVuSans-30" x="63.623047"/>
      </g>
     </g>
    </g>
    <g id="ytick_8">
     <g id="line2d_15">
      <g>
       <use xlink:href="#m4fedfcc32d" x="217.325" y="75.802437" style="stroke: #000000; stroke-width: 0.8"/>
      </g>
     </g>
     <g id="text_18">
      <!-- 50 -->
      <g transform="translate(197.6 79.601656) scale(0.1 -0.1)">
       <use xlink:href="#DejaVuSans-35"/>
       <use xlink:href="#DejaVuSans-30" x="63.623047"/>
      </g>
     </g>
    </g>
    <g id="ytick_9">
     <g id="line2d_16">
      <g>
       <use xlink:href="#m4fedfcc32d" x="217.325" y="53.800837" style="stroke: #000000; stroke-width: 0.8"/>
      </g>
     </g>
     <g id="text_19">
      <!-- 60 -->
      <g transform="translate(197.6 57.600056) scale(0.1 -0.1)">
       <use xlink:href="#DejaVuSans-36"/>
       <use xlink:href="#DejaVuSans-30" x="63.623047"/>
      </g>
     </g>
    </g>
    <g id="ytick_10">
     <g id="line2d_17">
      <g>
       <use xlink:href="#m4fedfcc32d" x="217.325" y="31.799237" style="stroke: #000000; stroke-width: 0.8"/>
      </g>
     </g>
     <g id="text_20">
      <!-- 70 -->
      <g transform="translate(197.6 35.598456) scale(0.1 -0.1)">
       <use xlink:href="#DejaVuSans-37"/>
       <use xlink:href="#DejaVuSans-30" x="63.623047"/>
      </g>
     </g>
    </g>
    <g id="text_21">
     <!-- Surface tension / $\mathrm{mN \ m^{-1}}$ -->
     <g transform="translate(191.520312 140.202438) rotate(-90) scale(0.1 -0.1)">
      <use xlink:href="#DejaVuSans-53" transform="translate(0 0.684375)"/>
      <use xlink:href="#DejaVuSans-75" transform="translate(63.476562 0.684375)"/>
      <use xlink:href="#DejaVuSans-72" transform="translate(126.855469 0.684375)"/>
      <use xlink:href="#DejaVuSans-66" transform="translate(167.96875 0.684375)"/>
      <use xlink:href="#DejaVuSans-61" transform="translate(203.173828 0.684375)"/>
      <use xlink:href="#DejaVuSans-63" transform="translate(264.453125 0.684375)"/>
      <use xlink:href="#DejaVuSans-65" transform="translate(319.433594 0.684375)"/>
      <use xlink:href="#DejaVuSans-20" transform="translate(380.957031 0.684375)"/>
      <use xlink:href="#DejaVuSans-74" transform="translate(412.744141 0.684375)"/>
      <use xlink:href="#DejaVuSans-65" transform="translate(451.953125 0.684375)"/>
      <use xlink:href="#DejaVuSans-6e" transform="translate(513.476562 0.684375)"/>
      <use xlink:href="#DejaVuSans-73" transform="translate(576.855469 0.684375)"/>
      <use xlink:href="#DejaVuSans-69" transform="translate(628.955078 0.684375)"/>
      <use xlink:href="#DejaVuSans-6f" transform="translate(656.738281 0.684375)"/>
      <use xlink:href="#DejaVuSans-6e" transform="translate(717.919922 0.684375)"/>
      <use xlink:href="#DejaVuSans-20" transform="translate(781.298828 0.684375)"/>
      <use xlink:href="#DejaVuSans-2f" transform="translate(813.085938 0.684375)"/>
      <use xlink:href="#DejaVuSans-20" transform="translate(846.777344 0.684375)"/>
      <use xlink:href="#DejaVuSans-6d" transform="translate(878.564453 0.684375)"/>
      <use xlink:href="#DejaVuSans-4e" transform="translate(975.976562 0.684375)"/>
      <use xlink:href="#DejaVuSans-6d" transform="translate(1083.251628 0.684375)"/>
      <use xlink:href="#DejaVuSans-2212" transform="translate(1181.620769 38.965625) scale(0.7)"/>
      <use xlink:href="#DejaVuSans-31" transform="translate(1240.273113 38.965625) scale(0.7)"/>
     </g>
    </g>
   </g>
   <g id="line2d_18">
    <path d="M 232.810674 28.015631 
L 234.179865 28.318146 
L 234.340949 28.305389 
L 234.502034 28.383897 
L 234.582582 28.318549 
L 234.904736 28.531428 
L 234.985285 28.527147 
L 235.065819 28.405148 
L 235.226903 28.563992 
L 235.387988 28.572923 
L 235.871225 28.719279 
L 236.032309 28.625378 
L 236.112859 28.83725 
L 236.273942 28.673487 
L 236.515561 28.81845 
L 236.596096 28.732288 
L 236.757179 28.8889 
L 236.918264 28.918225 
L 237.159895 28.888699 
L 237.320981 28.972981 
L 238.448554 29.324444 
L 238.609636 29.471622 
L 239.012339 29.446074 
L 239.092874 29.518673 
L 239.173422 29.432478 
L 239.253958 29.54271 
L 239.334506 29.478169 
L 239.415042 29.486646 
L 239.495577 29.689352 
L 239.576125 29.6069 
L 240.139912 29.847123 
L 240.220446 29.775866 
L 240.542615 29.975937 
L 240.623164 29.912504 
L 240.784234 29.995745 
L 240.864782 29.964976 
L 241.025866 30.190159 
L 241.1064 30.055939 
L 241.186951 30.128504 
L 241.34802 30.235061 
L 241.42857 30.142437 
L 241.589653 30.349961 
L 241.750737 30.313384 
L 241.911806 30.515436 
L 242.07289 30.426991 
L 242.314523 30.585534 
L 242.395058 30.499439 
L 242.636677 30.714768 
L 242.797761 30.617645 
L 242.878309 30.833126 
L 242.958844 30.704428 
L 243.039393 30.781828 
L 243.442095 30.986767 
L 243.522631 31.028094 
L 243.603181 30.934882 
L 243.76425 31.232848 
L 244.005883 31.166611 
L 244.086417 31.169817 
L 244.166965 31.364265 
L 244.2475 31.314176 
L 245.294538 31.729626 
L 245.455623 31.828982 
L 245.697242 31.840984 
L 245.777791 31.987844 
L 245.858325 31.85594 
L 246.180493 32.19473 
L 246.341577 32.162551 
L 246.824814 32.378166 
L 246.985898 32.511245 
L 247.630233 32.869371 
L 247.79131 32.917899 
L 250.61025 34.541783 
L 250.851868 34.787092 
L 251.012951 34.787478 
L 251.174035 34.969773 
L 251.254577 34.91866 
L 251.818365 35.427961 
L 252.221066 35.625094 
L 252.301609 35.792852 
L 252.462693 35.722603 
L 252.784852 36.045094 
L 253.10702 36.207162 
L 253.42918 36.621169 
L 253.590272 36.605625 
L 253.912434 36.906747 
L 253.992975 36.861727 
L 254.234601 37.216044 
L 254.556761 37.440555 
L 255.040006 37.831666 
L 255.120547 37.808686 
L 255.20109 38.045099 
L 255.281632 37.993298 
L 255.442716 38.135743 
L 255.603793 38.260814 
L 255.845418 38.5475 
L 256.087044 38.669853 
L 256.328663 38.893995 
L 256.811914 39.41424 
L 256.972991 39.45832 
L 257.295159 39.854853 
L 257.617319 40.092692 
L 257.778403 40.303942 
L 257.939487 40.369273 
L 258.100564 40.598635 
L 258.261647 40.735105 
L 258.422731 41.010074 
L 258.503273 40.99448 
L 258.986518 41.484477 
L 262.369243 45.418133 
L 262.691411 45.895792 
L 262.771953 45.870386 
L 263.416281 46.790757 
L 263.899526 47.392279 
L 264.221687 47.936184 
L 264.302229 47.911215 
L 264.382771 48.210784 
L 264.463312 48.14359 
L 264.866015 48.733127 
L 265.027099 49.020863 
L 265.268717 49.365326 
L 265.510343 49.754104 
L 265.671427 49.997558 
L 266.154672 50.627171 
L 266.718458 51.496127 
L 266.799 51.699849 
L 266.879542 51.618496 
L 267.443328 52.629997 
L 268.409817 54.403459 
L 268.49036 54.365196 
L 268.812527 55.018234 
L 270.987138 58.756544 
L 271.309298 59.506596 
L 271.470381 59.803656 
L 272.195253 61.228644 
L 272.275794 61.285523 
L 272.678497 62.170156 
L 272.759039 62.220933 
L 273.564451 63.888569 
L 274.772566 66.391429 
L 275.094726 67.156547 
L 275.739055 68.599134 
L 275.819597 68.599386 
L 276.061223 69.196208 
L 276.705551 70.79629 
L 276.866633 71.079468 
L 278.396911 74.66652 
L 279.282864 76.78975 
L 279.766109 78.072376 
L 281.215849 81.651564 
L 281.618559 82.718828 
L 281.860177 83.44136 
L 284.356949 90.207088 
L 284.518033 90.659409 
L 284.759659 91.434649 
L 284.840194 91.514608 
L 285.242903 92.67166 
L 286.209392 95.33866 
L 286.531559 96.455526 
L 286.934262 97.49835 
L 287.578591 99.515695 
L 288.625629 102.587269 
L 288.867247 103.352873 
L 289.753202 106.008124 
L 290.558614 108.518814 
L 291.283484 110.796659 
L 291.766729 112.273222 
L 292.08889 113.234189 
L 292.572133 114.569137 
L 292.652683 114.677473 
L 292.894302 115.240875 
L 293.216469 115.839287 
L 293.377546 115.764078 
L 293.53863 115.924127 
L 293.619171 115.885386 
L 293.860797 115.990805 
L 294.182958 116.029702 
L 294.2635 115.907841 
L 294.344042 116.048053 
L 294.424584 115.978098 
L 294.66621 116.013319 
L 294.827286 115.984212 
L 295.068913 115.986797 
L 295.149453 115.929839 
L 295.310531 116.104437 
L 295.552157 115.991699 
L 296.196485 116.044499 
L 296.438112 115.985069 
L 296.679729 116.110371 
L 296.840813 115.870001 
L 297.082439 116.059216 
L 297.243523 115.953037 
L 297.404599 115.991682 
L 297.726768 115.97629 
L 297.968393 116.005518 
L 298.210012 116.030776 
L 298.290554 115.923406 
L 298.371096 116.050227 
L 298.451638 115.979697 
L 298.693264 115.982714 
L 298.773799 116.075637 
L 298.85434 115.940527 
L 299.015425 116.017583 
L 299.095966 115.916825 
L 299.257043 116.029908 
L 299.337585 115.947888 
L 299.418127 116.102536 
L 299.498669 116.041885 
L 299.740287 116.047071 
L 299.820836 116.065473 
L 299.901378 115.808422 
L 300.062455 115.980238 
L 300.142997 115.951035 
L 300.384622 116.095184 
L 300.465164 115.964267 
L 300.545707 116.058104 
L 300.706783 115.962307 
L 300.787325 115.911651 
L 300.867867 116.036589 
L 300.948408 115.959709 
L 301.028952 116.052053 
L 301.109493 115.904991 
L 301.190028 116.098323 
L 301.27057 116.009949 
L 301.512196 116.045489 
L 301.592737 115.837067 
L 301.753821 116.019089 
L 301.834356 115.913611 
L 301.914898 115.990075 
L 301.99544 115.952265 
L 302.156524 116.022786 
L 302.317608 116.037604 
L 303.123013 116.056564 
L 303.203562 116.104345 
L 303.364638 115.961094 
L 303.686806 116.080438 
L 303.767349 115.953331 
L 303.928431 116.066497 
L 304.170051 115.939117 
L 304.411676 116.060038 
L 304.572752 116.071923 
L 304.733836 116.067857 
L 305.136547 115.995056 
L 305.217082 116.101378 
L 305.297624 115.990155 
L 305.458708 116.074092 
L 305.700326 115.927052 
L 305.780875 116.054294 
L 305.86141 115.903456 
L 305.941953 116.037768 
L 306.103036 115.961724 
L 306.26412 116.010214 
L 306.586284 115.994884 
L 306.747364 116.120396 
L 306.827902 115.880048 
L 306.908448 116.041532 
L 306.988991 115.977788 
L 307.15007 115.984838 
L 307.311154 116.006215 
L 307.391692 115.928236 
L 307.552773 115.980452 
L 307.633315 115.870656 
L 307.794399 116.009647 
L 308.036021 116.00467 
L 308.116562 115.928752 
L 308.277644 116.07844 
L 308.519269 115.986017 
L 308.841434 115.922629 
L 309.002513 115.998115 
L 309.083051 115.928118 
L 309.24414 115.992584 
L 309.807922 116.103044 
L 309.888467 115.941232 
L 310.049549 116.048859 
L 310.210628 116.004469 
L 310.291173 116.089502 
L 310.452254 115.914685 
L 310.774418 115.954166 
L 310.854956 115.893753 
L 311.01604 116.120778 
L 311.096582 116.049178 
L 311.257662 116.020474 
L 311.418747 115.946683 
L 311.499288 116.12377 
L 311.660369 115.974598 
L 311.821453 116.066556 
L 311.901991 115.95271 
L 311.982533 116.090324 
L 312.063072 115.934396 
L 312.143617 116.004641 
L 312.224155 116.093879 
L 312.385239 115.987167 
L 312.707403 116.059988 
L 312.787943 116.128919 
L 313.029568 115.964837 
L 313.27119 116.086707 
L 313.27119 116.086707 
" clip-path="url(#p6b643f66d2)" style="fill: none; stroke: #000000; stroke-opacity: 0.3; stroke-width: 2; stroke-linecap: square"/>
   </g>
   <g id="patch_6">
    <path d="M 217.325 130.806437 
L 217.325 20.798437 
" style="fill: none; stroke: #000000; stroke-width: 0.8; stroke-linejoin: miter; stroke-linecap: square"/>
   </g>
   <g id="patch_7">
    <path d="M 217.325 130.806437 
L 336.117908 130.806437 
" style="fill: none; stroke: #000000; stroke-width: 0.8; stroke-linejoin: miter; stroke-linecap: square"/>
   </g>
   <g id="text_22">
    <!-- TTAB, replicate 2 -->
    <g transform="translate(234.467548 14.798438) scale(0.1 -0.1)">
     <use xlink:href="#DejaVuSans-54"/>
     <use xlink:href="#DejaVuSans-54" x="59.333984"/>
     <use xlink:href="#DejaVuSans-41" x="112.667969"/>
     <use xlink:href="#DejaVuSans-42" x="181.076172"/>
     <use xlink:href="#DejaVuSans-2c" x="249.679688"/>
     <use xlink:href="#DejaVuSans-20" x="281.466797"/>
     <use xlink:href="#DejaVuSans-72" x="313.253906"/>
     <use xlink:href="#DejaVuSans-65" x="352.117188"/>
     <use xlink:href="#DejaVuSans-70" x="413.640625"/>
     <use xlink:href="#DejaVuSans-6c" x="477.117188"/>
     <use xlink:href="#DejaVuSans-69" x="504.900391"/>
     <use xlink:href="#DejaVuSans-63" x="532.683594"/>
     <use xlink:href="#DejaVuSans-61" x="587.664062"/>
     <use xlink:href="#DejaVuSans-74" x="648.943359"/>
     <use xlink:href="#DejaVuSans-65" x="688.152344"/>
     <use xlink:href="#DejaVuSans-20" x="749.675781"/>
     <use xlink:href="#DejaVuSans-32" x="781.462891"/>
    </g>
   </g>
   <g id="PathCollection_2">
    <g clip-path="url(#p6b643f66d2)">
     <use xlink:href="#m53480f578e" x="250.69079" y="33.353914" style="stroke: #000000"/>
     <use xlink:href="#m53480f578e" x="259.630847" y="42.501631" style="stroke: #000000"/>
     <use xlink:href="#m53480f578e" x="268.570904" y="56.538895" style="stroke: #000000"/>
     <use xlink:href="#m53480f578e" x="277.510961" y="79.405497" style="stroke: #000000"/>
     <use xlink:href="#m53480f578e" x="286.451018" y="103.134172" style="stroke: #000000"/>
     <use xlink:href="#m53480f578e" x="295.391076" y="122.053948" style="stroke: #000000"/>
     <use xlink:href="#m53480f578e" x="304.331133" y="114.500586" style="stroke: #000000"/>
     <use xlink:href="#m53480f578e" x="313.27119" y="111.360268" style="stroke: #000000"/>
    </g>
   </g>
  </g>
  <g id="axes_3">
   <g id="patch_8">
    <path d="M 393.725 130.806437 
L 512.517908 130.806437 
L 512.517908 20.798438 
L 393.725 20.798438 
z
" style="fill: #ffffff"/>
   </g>
   <g id="matplotlib.axis_5">
    <g id="xtick_7">
     <g id="line2d_19">
      <g>
       <use xlink:href="#mc3276f57fd" x="393.725" y="130.806437" style="stroke: #000000; stroke-width: 0.8"/>
      </g>
     </g>
     <g id="text_23">
      <!-- $\mathdefault{10^{-2}}$ -->
      <g transform="translate(381.975 145.404875) scale(0.1 -0.1)">
       <use xlink:href="#DejaVuSans-31" transform="translate(0 0.765625)"/>
       <use xlink:href="#DejaVuSans-30" transform="translate(63.623047 0.765625)"/>
       <use xlink:href="#DejaVuSans-2212" transform="translate(128.203125 39.046875) scale(0.7)"/>
       <use xlink:href="#DejaVuSans-32" transform="translate(186.855469 39.046875) scale(0.7)"/>
      </g>
     </g>
    </g>
    <g id="xtick_8">
     <g id="line2d_20">
      <g>
       <use xlink:href="#mc3276f57fd" x="453.121454" y="130.806437" style="stroke: #000000; stroke-width: 0.8"/>
      </g>
     </g>
     <g id="text_24">
      <!-- $\mathdefault{10^{0}}$ -->
      <g transform="translate(444.321454 145.404875) scale(0.1 -0.1)">
       <use xlink:href="#DejaVuSans-31" transform="translate(0 0.765625)"/>
       <use xlink:href="#DejaVuSans-30" transform="translate(63.623047 0.765625)"/>
       <use xlink:href="#DejaVuSans-30" transform="translate(128.203125 39.046875) scale(0.7)"/>
      </g>
     </g>
    </g>
    <g id="xtick_9">
     <g id="line2d_21">
      <g>
       <use xlink:href="#mc3276f57fd" x="512.517908" y="130.806437" style="stroke: #000000; stroke-width: 0.8"/>
      </g>
     </g>
     <g id="text_25">
      <!-- $\mathdefault{10^{2}}$ -->
      <g transform="translate(503.717908 145.404875) scale(0.1 -0.1)">
       <use xlink:href="#DejaVuSans-31" transform="translate(0 0.765625)"/>
       <use xlink:href="#DejaVuSans-30" transform="translate(63.623047 0.765625)"/>
       <use xlink:href="#DejaVuSans-32" transform="translate(128.203125 39.046875) scale(0.7)"/>
      </g>
     </g>
    </g>
    <g id="text_26">
     <!-- Concentration / mM -->
     <g transform="translate(403.703485 159.083) scale(0.1 -0.1)">
      <use xlink:href="#DejaVuSans-43"/>
      <use xlink:href="#DejaVuSans-6f" x="69.824219"/>
      <use xlink:href="#DejaVuSans-6e" x="131.005859"/>
      <use xlink:href="#DejaVuSans-63" x="194.384766"/>
      <use xlink:href="#DejaVuSans-65" x="249.365234"/>
      <use xlink:href="#DejaVuSans-6e" x="310.888672"/>
      <use xlink:href="#DejaVuSans-74" x="374.267578"/>
      <use xlink:href="#DejaVuSans-72" x="413.476562"/>
      <use xlink:href="#DejaVuSans-61" x="454.589844"/>
      <use xlink:href="#DejaVuSans-74" x="515.869141"/>
      <use xlink:href="#DejaVuSans-69" x="555.078125"/>
      <use xlink:href="#DejaVuSans-6f" x="582.861328"/>
      <use xlink:href="#DejaVuSans-6e" x="644.042969"/>
      <use xlink:href="#DejaVuSans-20" x="707.421875"/>
      <use xlink:href="#DejaVuSans-2f" x="739.208984"/>
      <use xlink:href="#DejaVuSans-20" x="772.900391"/>
      <use xlink:href="#DejaVuSans-6d" x="804.6875"/>
      <use xlink:href="#DejaVuSans-4d" x="902.099609"/>
     </g>
    </g>
   </g>
   <g id="matplotlib.axis_6">
    <g id="ytick_11">
     <g id="line2d_22">
      <g>
       <use xlink:href="#m4fedfcc32d" x="393.725" y="119.805637" style="stroke: #000000; stroke-width: 0.8"/>
      </g>
     </g>
     <g id="text_27">
      <!-- 30 -->
      <g transform="translate(374 123.604856) scale(0.1 -0.1)">
       <use xlink:href="#DejaVuSans-33"/>
       <use xlink:href="#DejaVuSans-30" x="63.623047"/>
      </g>
     </g>
    </g>
    <g id="ytick_12">
     <g id="line2d_23">
      <g>
       <use xlink:href="#m4fedfcc32d" x="393.725" y="97.804037" style="stroke: #000000; stroke-width: 0.8"/>
      </g>
     </g>
     <g id="text_28">
      <!-- 40 -->
      <g transform="translate(374 101.603256) scale(0.1 -0.1)">
       <use xlink:href="#DejaVuSans-34"/>
       <use xlink:href="#DejaVuSans-30" x="63.623047"/>
      </g>
     </g>
    </g>
    <g id="ytick_13">
     <g id="line2d_24">
      <g>
       <use xlink:href="#m4fedfcc32d" x="393.725" y="75.802437" style="stroke: #000000; stroke-width: 0.8"/>
      </g>
     </g>
     <g id="text_29">
      <!-- 50 -->
      <g transform="translate(374 79.601656) scale(0.1 -0.1)">
       <use xlink:href="#DejaVuSans-35"/>
       <use xlink:href="#DejaVuSans-30" x="63.623047"/>
      </g>
     </g>
    </g>
    <g id="ytick_14">
     <g id="line2d_25">
      <g>
       <use xlink:href="#m4fedfcc32d" x="393.725" y="53.800837" style="stroke: #000000; stroke-width: 0.8"/>
      </g>
     </g>
     <g id="text_30">
      <!-- 60 -->
      <g transform="translate(374 57.600056) scale(0.1 -0.1)">
       <use xlink:href="#DejaVuSans-36"/>
       <use xlink:href="#DejaVuSans-30" x="63.623047"/>
      </g>
     </g>
    </g>
    <g id="ytick_15">
     <g id="line2d_26">
      <g>
       <use xlink:href="#m4fedfcc32d" x="393.725" y="31.799237" style="stroke: #000000; stroke-width: 0.8"/>
      </g>
     </g>
     <g id="text_31">
      <!-- 70 -->
      <g transform="translate(374 35.598456) scale(0.1 -0.1)">
       <use xlink:href="#DejaVuSans-37"/>
       <use xlink:href="#DejaVuSans-30" x="63.623047"/>
      </g>
     </g>
    </g>
    <g id="text_32">
     <!-- Surface tension / $\mathrm{mN \ m^{-1}}$ -->
     <g transform="translate(367.920312 140.202438) rotate(-90) scale(0.1 -0.1)">
      <use xlink:href="#DejaVuSans-53" transform="translate(0 0.684375)"/>
      <use xlink:href="#DejaVuSans-75" transform="translate(63.476562 0.684375)"/>
      <use xlink:href="#DejaVuSans-72" transform="translate(126.855469 0.684375)"/>
      <use xlink:href="#DejaVuSans-66" transform="translate(167.96875 0.684375)"/>
      <use xlink:href="#DejaVuSans-61" transform="translate(203.173828 0.684375)"/>
      <use xlink:href="#DejaVuSans-63" transform="translate(264.453125 0.684375)"/>
      <use xlink:href="#DejaVuSans-65" transform="translate(319.433594 0.684375)"/>
      <use xlink:href="#DejaVuSans-20" transform="translate(380.957031 0.684375)"/>
      <use xlink:href="#DejaVuSans-74" transform="translate(412.744141 0.684375)"/>
      <use xlink:href="#DejaVuSans-65" transform="translate(451.953125 0.684375)"/>
      <use xlink:href="#DejaVuSans-6e" transform="translate(513.476562 0.684375)"/>
      <use xlink:href="#DejaVuSans-73" transform="translate(576.855469 0.684375)"/>
      <use xlink:href="#DejaVuSans-69" transform="translate(628.955078 0.684375)"/>
      <use xlink:href="#DejaVuSans-6f" transform="translate(656.738281 0.684375)"/>
      <use xlink:href="#DejaVuSans-6e" transform="translate(717.919922 0.684375)"/>
      <use xlink:href="#DejaVuSans-20" transform="translate(781.298828 0.684375)"/>
      <use xlink:href="#DejaVuSans-2f" transform="translate(813.085938 0.684375)"/>
      <use xlink:href="#DejaVuSans-20" transform="translate(846.777344 0.684375)"/>
      <use xlink:href="#DejaVuSans-6d" transform="translate(878.564453 0.684375)"/>
      <use xlink:href="#DejaVuSans-4e" transform="translate(975.976562 0.684375)"/>
      <use xlink:href="#DejaVuSans-6d" transform="translate(1083.251628 0.684375)"/>
      <use xlink:href="#DejaVuSans-2212" transform="translate(1181.620769 38.965625) scale(0.7)"/>
      <use xlink:href="#DejaVuSans-31" transform="translate(1240.273113 38.965625) scale(0.7)"/>
     </g>
    </g>
   </g>
   <g id="line2d_27">
    <path d="M 409.210674 27.129286 
L 409.532841 27.185283 
L 409.613378 27.13877 
L 409.77446 27.310775 
L 409.935545 27.2346 
L 410.096629 27.304917 
L 410.338248 27.376676 
L 410.499331 27.393664 
L 410.740949 27.324355 
L 410.902034 27.405179 
L 410.982582 27.305353 
L 411.224201 27.525349 
L 411.385285 27.521824 
L 411.465819 27.356449 
L 411.546369 27.572484 
L 411.626903 27.531392 
L 411.707438 27.445884 
L 412.029606 27.636488 
L 412.432309 27.519809 
L 412.512859 27.778312 
L 412.673942 27.529646 
L 412.835012 27.618628 
L 412.915561 27.68609 
L 412.996096 27.558954 
L 413.157179 27.738479 
L 413.237728 27.660861 
L 413.398812 27.73012 
L 413.559895 27.687014 
L 413.640431 27.831859 
L 413.720981 27.749373 
L 414.204217 27.873723 
L 414.284767 27.760099 
L 414.44585 28.06577 
L 414.687468 27.880689 
L 414.929088 28.220553 
L 415.412339 28.085981 
L 415.492874 28.158093 
L 415.573422 28.037117 
L 415.653958 28.175466 
L 415.815042 28.057713 
L 415.895577 28.322611 
L 416.05666 28.218069 
L 416.539912 28.38106 
L 416.620446 28.278481 
L 416.86208 28.431166 
L 416.942615 28.481473 
L 417.023164 28.376175 
L 417.184234 28.450318 
L 417.264782 28.396738 
L 417.425866 28.667226 
L 417.5064 28.468078 
L 417.586951 28.547979 
L 417.74802 28.654116 
L 417.82857 28.519459 
L 417.989653 28.753052 
L 418.150737 28.668955 
L 418.311806 28.893264 
L 418.47289 28.740916 
L 418.714523 28.90112 
L 418.795058 28.758423 
L 418.875606 28.922908 
L 418.956141 28.881733 
L 419.117225 28.943924 
L 419.197761 28.828622 
L 419.278309 29.089961 
L 419.358844 28.90295 
L 419.439393 28.986057 
L 419.600464 29.091875 
L 419.842095 29.160915 
L 419.922631 29.191466 
L 420.003181 29.042441 
L 420.16425 29.395716 
L 420.405883 29.246406 
L 420.486417 29.244056 
L 420.566965 29.470195 
L 420.6475 29.374818 
L 420.969668 29.511002 
L 421.050203 29.342539 
L 421.291823 29.597617 
L 421.452906 29.476641 
L 421.775087 29.79799 
L 422.097242 29.682554 
L 422.177791 29.851017 
L 422.258325 29.654202 
L 422.499958 29.880006 
L 422.580493 30.011658 
L 422.661028 29.939327 
L 422.822111 29.97869 
L 422.983195 30.070325 
L 423.305364 30.065574 
L 423.466447 30.243656 
L 423.546982 30.196773 
L 423.708065 30.411817 
L 423.788608 30.266787 
L 424.030233 30.457558 
L 424.19131 30.482955 
L 424.59402 30.624125 
L 424.755097 30.772243 
L 424.916181 30.714198 
L 424.996723 30.875695 
L 425.077264 30.77649 
L 425.157806 31.012919 
L 425.238348 30.804825 
L 425.399425 31.016696 
L 425.721592 31.029571 
L 425.963211 31.221803 
L 426.60754 31.466138 
L 426.929707 31.632335 
L 427.01025 31.637338 
L 427.090792 31.794302 
L 427.171327 31.67242 
L 427.251868 31.855034 
L 427.33241 31.73102 
L 427.412951 31.794739 
L 427.574035 31.989354 
L 427.654577 31.872374 
L 427.815654 32.131262 
L 427.896197 32.048944 
L 428.057281 32.189207 
L 428.298905 32.333012 
L 428.379441 32.25907 
L 428.701609 32.6152 
L 428.862693 32.461189 
L 429.184852 32.756268 
L 429.50702 32.837848 
L 429.74864 33.162957 
L 429.82918 33.229832 
L 429.990272 33.140783 
L 430.23189 33.34312 
L 430.312434 33.407376 
L 430.392975 33.308087 
L 430.634601 33.670461 
L 430.87622 33.721876 
L 431.117846 33.866084 
L 431.278929 33.988722 
L 431.440006 34.118846 
L 431.520547 34.052793 
L 431.60109 34.315006 
L 431.681632 34.22223 
L 431.842716 34.340252 
L 431.923257 34.301879 
L 432.245418 34.680871 
L 432.487044 34.725891 
L 432.648121 35.001028 
L 432.728663 34.904325 
L 433.211914 35.344786 
L 433.372991 35.328823 
L 433.695159 35.69771 
L 434.017319 35.847188 
L 434.178403 36.047729 
L 434.339487 36.043717 
L 434.500564 36.258812 
L 434.661647 36.365872 
L 434.822731 36.645391 
L 434.903273 36.575209 
L 435.144892 36.88694 
L 435.225434 36.752804 
L 435.386518 36.979749 
L 436.272464 37.681516 
L 436.514091 38.026215 
L 437.319503 38.775671 
L 437.400037 38.714755 
L 437.641663 39.197702 
L 437.722206 39.132959 
L 438.36654 39.885101 
L 438.447083 39.760784 
L 438.769243 40.28155 
L 438.930327 40.461528 
L 439.010869 40.470257 
L 439.091411 40.721928 
L 439.171953 40.637948 
L 439.574656 41.187451 
L 440.138442 41.877116 
L 440.218984 41.845928 
L 440.621687 42.524279 
L 440.702229 42.439141 
L 440.782771 42.798862 
L 440.863312 42.662998 
L 441.266015 43.207095 
L 441.427099 43.483022 
L 441.588182 43.695162 
L 442.313046 44.703725 
L 442.47413 45.021323 
L 442.554672 44.951753 
L 442.715755 45.281814 
L 443.199 45.997019 
L 443.279542 45.844813 
L 443.762787 46.816129 
L 443.923869 47.005943 
L 445.93739 50.383499 
L 446.179015 50.909577 
L 447.628763 53.645325 
L 447.950923 54.385574 
L 448.112008 54.491669 
L 448.353634 55.156818 
L 448.434169 55.255654 
L 448.675794 55.771299 
L 449.078497 56.76494 
L 449.159039 56.804001 
L 449.964451 58.686538 
L 450.689314 60.468856 
L 451.092023 61.461288 
L 451.172566 61.581953 
L 451.494726 62.492067 
L 451.97797 63.731545 
L 452.300139 64.627752 
L 454.635825 71.540752 
L 455.843948 75.286137 
L 456.166109 76.492195 
L 459.226666 88.004268 
L 459.709918 90.105584 
L 460.273704 92.389027 
L 462.367774 101.928809 
L 462.689934 103.684806 
L 463.173185 105.850941 
L 463.575888 108.102852 
L 463.978591 110.24087 
L 465.428331 116.968113 
L 465.589415 117.181248 
L 465.669957 117.089844 
L 465.750499 117.19129 
L 465.831041 117.114205 
L 466.07266 117.128167 
L 466.314285 117.080272 
L 466.475362 117.165914 
L 466.555912 117.061346 
L 466.636446 117.132468 
L 466.716988 117.072782 
L 466.797529 117.224304 
L 466.878072 117.157265 
L 467.602935 117.15711 
L 468.005645 117.119803 
L 468.086186 117.040645 
L 468.166729 117.136811 
L 468.247263 117.057901 
L 468.327805 117.164004 
L 468.48889 117.08945 
L 468.730514 117.122321 
L 468.811056 117.024212 
L 468.891599 117.146392 
L 468.972133 117.071011 
L 469.052683 116.978894 
L 469.213766 117.197026 
L 469.294302 117.078665 
L 469.374843 117.179838 
L 469.535926 117.091594 
L 469.616469 117.30459 
L 469.777546 117.029734 
L 469.858087 117.130286 
L 470.099713 117.128779 
L 470.260797 117.125044 
L 470.421881 117.206771 
L 470.6635 116.991383 
L 470.744042 117.173245 
L 470.824584 117.080734 
L 471.06621 117.128783 
L 471.146743 117.021606 
L 471.227286 117.083029 
L 471.38837 117.066512 
L 471.629988 117.145922 
L 471.710531 117.247686 
L 471.871615 117.028597 
L 472.032698 117.110995 
L 472.193782 117.103508 
L 472.354859 117.1593 
L 472.999195 117.158839 
L 473.079729 117.243209 
L 473.240813 116.932796 
L 473.482439 117.176653 
L 473.643523 117.042907 
L 473.804599 117.101859 
L 474.126768 117.072924 
L 474.287844 117.172225 
L 474.52947 117.088518 
L 474.610012 117.148028 
L 474.690554 116.99999 
L 474.771096 117.178214 
L 474.932179 117.060687 
L 475.415425 117.135972 
L 475.495966 116.991949 
L 475.576509 117.180094 
L 475.657043 117.134075 
L 475.737585 117.037686 
L 475.818127 117.235005 
L 475.898669 117.170224 
L 475.97921 117.10888 
L 476.059752 117.23477 
L 476.301378 116.848031 
L 476.462455 117.070171 
L 476.542997 117.040519 
L 476.784622 117.218945 
L 476.865164 117.050477 
L 476.945707 117.178432 
L 477.106783 117.051421 
L 477.187325 116.987459 
L 477.267867 117.144466 
L 477.348408 117.044308 
L 477.428952 117.181823 
L 477.509493 116.975788 
L 477.590028 117.222084 
L 477.67057 117.111167 
L 477.912196 117.165599 
L 477.992737 116.896437 
L 478.153821 117.138628 
L 478.234356 116.987719 
L 478.475982 117.187618 
L 478.637066 117.069101 
L 478.878692 117.252265 
L 478.959226 116.981458 
L 479.039768 117.017833 
L 479.200852 117.198781 
L 479.361936 117.09373 
L 479.603562 117.236582 
L 479.764638 117.044686 
L 479.925723 117.120231 
L 480.972752 117.197958 
L 481.133836 117.193715 
L 481.375463 117.151 
L 481.536547 117.098795 
L 481.617082 117.242604 
L 481.697624 117.086538 
L 481.778166 117.242844 
L 481.858708 117.193527 
L 482.100326 117.012063 
L 482.180875 117.160958 
L 482.26141 116.980073 
L 482.341953 117.157727 
L 482.422493 117.001693 
L 482.503036 117.054766 
L 482.66412 117.110541 
L 482.8252 117.143656 
L 482.905738 116.934911 
L 483.147364 117.261854 
L 483.227902 116.936749 
L 483.308448 117.150853 
L 483.388991 117.068883 
L 483.55007 117.084204 
L 483.711154 117.106483 
L 483.791692 117.010938 
L 483.952773 117.084653 
L 484.033315 116.93768 
L 484.194399 117.115405 
L 484.436021 117.110953 
L 484.516562 117.01602 
L 484.677644 117.203476 
L 484.999807 117.045513 
L 485.160891 117.089223 
L 485.241434 117.012474 
L 485.402513 117.108191 
L 485.483051 117.00552 
L 485.64414 117.091645 
L 486.207922 117.251547 
L 486.288467 117.038857 
L 486.449549 117.157747 
L 486.610628 117.096886 
L 486.691173 117.218991 
L 486.852254 116.996695 
L 487.174418 117.052143 
L 487.254956 116.963656 
L 487.41604 117.257821 
L 487.496582 117.169787 
L 487.657662 117.132065 
L 487.818747 117.025063 
L 487.899288 117.251513 
L 488.060369 117.079681 
L 488.221453 117.190446 
L 488.301991 117.055333 
L 488.382533 117.221223 
L 488.463072 117.021324 
L 488.543617 117.112749 
L 488.624155 117.228618 
L 488.785239 117.085207 
L 489.107403 117.187337 
L 489.187943 117.276541 
L 489.349025 117.041912 
L 489.67119 117.220577 
L 489.67119 117.220577 
" clip-path="url(#pcd2373f753)" style="fill: none; stroke: #000000; stroke-opacity: 0.3; stroke-width: 2; stroke-linecap: square"/>
   </g>
   <g id="patch_9">
    <path d="M 393.725 130.806437 
L 393.725 20.798437 
" style="fill: none; stroke: #000000; stroke-width: 0.8; stroke-linejoin: miter; stroke-linecap: square"/>
   </g>
   <g id="patch_10">
    <path d="M 393.725 130.806437 
L 512.517908 130.806437 
" style="fill: none; stroke: #000000; stroke-width: 0.8; stroke-linejoin: miter; stroke-linecap: square"/>
   </g>
   <g id="text_33">
    <!-- TTAB, replicate 3 -->
    <g transform="translate(410.867548 14.798438) scale(0.1 -0.1)">
     <use xlink:href="#DejaVuSans-54"/>
     <use xlink:href="#DejaVuSans-54" x="59.333984"/>
     <use xlink:href="#DejaVuSans-41" x="112.667969"/>
     <use xlink:href="#DejaVuSans-42" x="181.076172"/>
     <use xlink:href="#DejaVuSans-2c" x="249.679688"/>
     <use xlink:href="#DejaVuSans-20" x="281.466797"/>
     <use xlink:href="#DejaVuSans-72" x="313.253906"/>
     <use xlink:href="#DejaVuSans-65" x="352.117188"/>
     <use xlink:href="#DejaVuSans-70" x="413.640625"/>
     <use xlink:href="#DejaVuSans-6c" x="477.117188"/>
     <use xlink:href="#DejaVuSans-69" x="504.900391"/>
     <use xlink:href="#DejaVuSans-63" x="532.683594"/>
     <use xlink:href="#DejaVuSans-61" x="587.664062"/>
     <use xlink:href="#DejaVuSans-74" x="648.943359"/>
     <use xlink:href="#DejaVuSans-65" x="688.152344"/>
     <use xlink:href="#DejaVuSans-20" x="749.675781"/>
     <use xlink:href="#DejaVuSans-33" x="781.462891"/>
    </g>
   </g>
   <g id="PathCollection_3">
    <g clip-path="url(#pcd2373f753)">
     <use xlink:href="#m53480f578e" x="427.09079" y="28.845779" style="stroke: #000000"/>
     <use xlink:href="#m53480f578e" x="436.030847" y="35.782635" style="stroke: #000000"/>
     <use xlink:href="#m53480f578e" x="444.970904" y="51.206316" style="stroke: #000000"/>
     <use xlink:href="#m53480f578e" x="453.910961" y="73.688568" style="stroke: #000000"/>
     <use xlink:href="#m53480f578e" x="462.851018" y="106.334105" style="stroke: #000000"/>
     <use xlink:href="#m53480f578e" x="471.791076" y="120.532282" style="stroke: #000000"/>
     <use xlink:href="#m53480f578e" x="480.731133" y="112.191758" style="stroke: #000000"/>
     <use xlink:href="#m53480f578e" x="489.67119" y="110.633562" style="stroke: #000000"/>
    </g>
   </g>
  </g>
 </g>
 <defs>
  <clipPath id="pe95795e330">
   <rect x="40.925" y="20.798438" width="118.792908" height="110.008"/>
  </clipPath>
  <clipPath id="p6b643f66d2">
   <rect x="217.325" y="20.798438" width="118.792908" height="110.008"/>
  </clipPath>
  <clipPath id="pcd2373f753">
   <rect x="393.725" y="20.798438" width="118.792908" height="110.008"/>
  </clipPath>
 </defs>
</svg>
