<?xml version="1.0" encoding="utf-8" standalone="no"?>
<!DOCTYPE svg PUBLIC "-//W3C//DTD SVG 1.1//EN"
  "http://www.w3.org/Graphics/SVG/1.1/DTD/svg11.dtd">
<svg xmlns:xlink="http://www.w3.org/1999/xlink" width="327.125pt" height="183.35625pt" viewBox="0 0 327.125 183.35625" xmlns="http://www.w3.org/2000/svg" version="1.1">
 <metadata>
  <rdf:RDF xmlns:dc="http://purl.org/dc/elements/1.1/" xmlns:cc="http://creativecommons.org/ns#" xmlns:rdf="http://www.w3.org/1999/02/22-rdf-syntax-ns#">
   <cc:Work>
    <dc:type rdf:resource="http://purl.org/dc/dcmitype/StillImage"/>
    <dc:date>2025-06-27T16:07:33.507644</dc:date>
    <dc:format>image/svg+xml</dc:format>
    <dc:creator>
     <cc:Agent>
      <dc:title>Matplotlib v3.7.1, https://matplotlib.org/</dc:title>
     </cc:Agent>
    </dc:creator>
   </cc:Work>
  </rdf:RDF>
 </metadata>
 <defs>
  <style type="text/css">*{stroke-linejoin: round; stroke-linecap: butt}</style>
 </defs>
 <g id="figure_1">
  <g id="patch_1">
   <path d="M 0 183.35625 
L 327.125 183.35625 
L 327.125 0 
L 0 0 
z
" style="fill: #ffffff"/>
  </g>
  <g id="axes_1">
   <g id="patch_2">
    <path d="M 40.925 145.8 
L 319.925 145.8 
L 319.925 7.2 
L 40.925 7.2 
z
" style="fill: #ffffff"/>
   </g>
   <g id="matplotlib.axis_1">
    <g id="xtick_1">
     <g id="line2d_1">
      <defs>
       <path id="m5870301180" d="M 0 0 
L 0 3.5 
" style="stroke: #000000; stroke-width: 0.8"/>
      </defs>
      <g>
       <use xlink:href="#m5870301180" x="81.397207" y="145.8" style="stroke: #000000; stroke-width: 0.8"/>
      </g>
     </g>
     <g id="text_1">
      <!-- $\mathdefault{10^{-1}}$ -->
      <g transform="translate(69.647207 160.398438) scale(0.1 -0.1)">
       <defs>
        <path id="DejaVuSans-31" d="M 794 531 
L 1825 531 
L 1825 4091 
L 703 3866 
L 703 4441 
L 1819 4666 
L 2450 4666 
L 2450 531 
L 3481 531 
L 3481 0 
L 794 0 
L 794 531 
z
" transform="scale(0.015625)"/>
        <path id="DejaVuSans-30" d="M 2034 4250 
Q 1547 4250 1301 3770 
Q 1056 3291 1056 2328 
Q 1056 1369 1301 889 
Q 1547 409 2034 409 
Q 2525 409 2770 889 
Q 3016 1369 3016 2328 
Q 3016 3291 2770 3770 
Q 2525 4250 2034 4250 
z
M 2034 4750 
Q 2819 4750 3233 4129 
Q 3647 3509 3647 2328 
Q 3647 1150 3233 529 
Q 2819 -91 2034 -91 
Q 1250 -91 836 529 
Q 422 1150 422 2328 
Q 422 3509 836 4129 
Q 1250 4750 2034 4750 
z
" transform="scale(0.015625)"/>
        <path id="DejaVuSans-2212" d="M 678 2272 
L 4684 2272 
L 4684 1741 
L 678 1741 
L 678 2272 
z
" transform="scale(0.015625)"/>
       </defs>
       <use xlink:href="#DejaVuSans-31" transform="translate(0 0.684375)"/>
       <use xlink:href="#DejaVuSans-30" transform="translate(63.623047 0.684375)"/>
       <use xlink:href="#DejaVuSans-2212" transform="translate(128.203125 38.965625) scale(0.7)"/>
       <use xlink:href="#DejaVuSans-31" transform="translate(186.855469 38.965625) scale(0.7)"/>
      </g>
     </g>
    </g>
    <g id="xtick_2">
     <g id="line2d_2">
      <g>
       <use xlink:href="#m5870301180" x="145.266715" y="145.8" style="stroke: #000000; stroke-width: 0.8"/>
      </g>
     </g>
     <g id="text_2">
      <!-- $\mathdefault{10^{0}}$ -->
      <g transform="translate(136.466715 160.398438) scale(0.1 -0.1)">
       <use xlink:href="#DejaVuSans-31" transform="translate(0 0.765625)"/>
       <use xlink:href="#DejaVuSans-30" transform="translate(63.623047 0.765625)"/>
       <use xlink:href="#DejaVuSans-30" transform="translate(128.203125 39.046875) scale(0.7)"/>
      </g>
     </g>
    </g>
    <g id="xtick_3">
     <g id="line2d_3">
      <g>
       <use xlink:href="#m5870301180" x="209.136223" y="145.8" style="stroke: #000000; stroke-width: 0.8"/>
      </g>
     </g>
     <g id="text_3">
      <!-- $\mathdefault{10^{1}}$ -->
      <g transform="translate(200.336223 160.398438) scale(0.1 -0.1)">
       <use xlink:href="#DejaVuSans-31" transform="translate(0 0.684375)"/>
       <use xlink:href="#DejaVuSans-30" transform="translate(63.623047 0.684375)"/>
       <use xlink:href="#DejaVuSans-31" transform="translate(128.203125 38.965625) scale(0.7)"/>
      </g>
     </g>
    </g>
    <g id="xtick_4">
     <g id="line2d_4">
      <g>
       <use xlink:href="#m5870301180" x="273.00573" y="145.8" style="stroke: #000000; stroke-width: 0.8"/>
      </g>
     </g>
     <g id="text_4">
      <!-- $\mathdefault{10^{2}}$ -->
      <g transform="translate(264.20573 160.398438) scale(0.1 -0.1)">
       <defs>
        <path id="DejaVuSans-32" d="M 1228 531 
L 3431 531 
L 3431 0 
L 469 0 
L 469 531 
Q 828 903 1448 1529 
Q 2069 2156 2228 2338 
Q 2531 2678 2651 2914 
Q 2772 3150 2772 3378 
Q 2772 3750 2511 3984 
Q 2250 4219 1831 4219 
Q 1534 4219 1204 4116 
Q 875 4013 500 3803 
L 500 4441 
Q 881 4594 1212 4672 
Q 1544 4750 1819 4750 
Q 2544 4750 2975 4387 
Q 3406 4025 3406 3419 
Q 3406 3131 3298 2873 
Q 3191 2616 2906 2266 
Q 2828 2175 2409 1742 
Q 1991 1309 1228 531 
z
" transform="scale(0.015625)"/>
       </defs>
       <use xlink:href="#DejaVuSans-31" transform="translate(0 0.765625)"/>
       <use xlink:href="#DejaVuSans-30" transform="translate(63.623047 0.765625)"/>
       <use xlink:href="#DejaVuSans-32" transform="translate(128.203125 39.046875) scale(0.7)"/>
      </g>
     </g>
    </g>
    <g id="xtick_5">
     <g id="line2d_5">
      <defs>
       <path id="mff52f7cdf5" d="M 0 0 
L 0 2 
" style="stroke: #000000; stroke-width: 0.6"/>
      </defs>
      <g>
       <use xlink:href="#mff52f7cdf5" x="48.001199" y="145.8" style="stroke: #000000; stroke-width: 0.6"/>
      </g>
     </g>
    </g>
    <g id="xtick_6">
     <g id="line2d_6">
      <g>
       <use xlink:href="#mff52f7cdf5" x="55.980975" y="145.8" style="stroke: #000000; stroke-width: 0.6"/>
      </g>
     </g>
    </g>
    <g id="xtick_7">
     <g id="line2d_7">
      <g>
       <use xlink:href="#mff52f7cdf5" x="62.17057" y="145.8" style="stroke: #000000; stroke-width: 0.6"/>
      </g>
     </g>
    </g>
    <g id="xtick_8">
     <g id="line2d_8">
      <g>
       <use xlink:href="#mff52f7cdf5" x="67.227837" y="145.8" style="stroke: #000000; stroke-width: 0.6"/>
      </g>
     </g>
    </g>
    <g id="xtick_9">
     <g id="line2d_9">
      <g>
       <use xlink:href="#mff52f7cdf5" x="71.503695" y="145.8" style="stroke: #000000; stroke-width: 0.6"/>
      </g>
     </g>
    </g>
    <g id="xtick_10">
     <g id="line2d_10">
      <g>
       <use xlink:href="#mff52f7cdf5" x="75.207612" y="145.8" style="stroke: #000000; stroke-width: 0.6"/>
      </g>
     </g>
    </g>
    <g id="xtick_11">
     <g id="line2d_11">
      <g>
       <use xlink:href="#mff52f7cdf5" x="78.474699" y="145.8" style="stroke: #000000; stroke-width: 0.6"/>
      </g>
     </g>
    </g>
    <g id="xtick_12">
     <g id="line2d_12">
      <g>
       <use xlink:href="#mff52f7cdf5" x="100.623845" y="145.8" style="stroke: #000000; stroke-width: 0.6"/>
      </g>
     </g>
    </g>
    <g id="xtick_13">
     <g id="line2d_13">
      <g>
       <use xlink:href="#mff52f7cdf5" x="111.870707" y="145.8" style="stroke: #000000; stroke-width: 0.6"/>
      </g>
     </g>
    </g>
    <g id="xtick_14">
     <g id="line2d_14">
      <g>
       <use xlink:href="#mff52f7cdf5" x="119.850482" y="145.8" style="stroke: #000000; stroke-width: 0.6"/>
      </g>
     </g>
    </g>
    <g id="xtick_15">
     <g id="line2d_15">
      <g>
       <use xlink:href="#mff52f7cdf5" x="126.040077" y="145.8" style="stroke: #000000; stroke-width: 0.6"/>
      </g>
     </g>
    </g>
    <g id="xtick_16">
     <g id="line2d_16">
      <g>
       <use xlink:href="#mff52f7cdf5" x="131.097344" y="145.8" style="stroke: #000000; stroke-width: 0.6"/>
      </g>
     </g>
    </g>
    <g id="xtick_17">
     <g id="line2d_17">
      <g>
       <use xlink:href="#mff52f7cdf5" x="135.373203" y="145.8" style="stroke: #000000; stroke-width: 0.6"/>
      </g>
     </g>
    </g>
    <g id="xtick_18">
     <g id="line2d_18">
      <g>
       <use xlink:href="#mff52f7cdf5" x="139.07712" y="145.8" style="stroke: #000000; stroke-width: 0.6"/>
      </g>
     </g>
    </g>
    <g id="xtick_19">
     <g id="line2d_19">
      <g>
       <use xlink:href="#mff52f7cdf5" x="142.344206" y="145.8" style="stroke: #000000; stroke-width: 0.6"/>
      </g>
     </g>
    </g>
    <g id="xtick_20">
     <g id="line2d_20">
      <g>
       <use xlink:href="#mff52f7cdf5" x="164.493353" y="145.8" style="stroke: #000000; stroke-width: 0.6"/>
      </g>
     </g>
    </g>
    <g id="xtick_21">
     <g id="line2d_21">
      <g>
       <use xlink:href="#mff52f7cdf5" x="175.740215" y="145.8" style="stroke: #000000; stroke-width: 0.6"/>
      </g>
     </g>
    </g>
    <g id="xtick_22">
     <g id="line2d_22">
      <g>
       <use xlink:href="#mff52f7cdf5" x="183.71999" y="145.8" style="stroke: #000000; stroke-width: 0.6"/>
      </g>
     </g>
    </g>
    <g id="xtick_23">
     <g id="line2d_23">
      <g>
       <use xlink:href="#mff52f7cdf5" x="189.909585" y="145.8" style="stroke: #000000; stroke-width: 0.6"/>
      </g>
     </g>
    </g>
    <g id="xtick_24">
     <g id="line2d_24">
      <g>
       <use xlink:href="#mff52f7cdf5" x="194.966852" y="145.8" style="stroke: #000000; stroke-width: 0.6"/>
      </g>
     </g>
    </g>
    <g id="xtick_25">
     <g id="line2d_25">
      <g>
       <use xlink:href="#mff52f7cdf5" x="199.242711" y="145.8" style="stroke: #000000; stroke-width: 0.6"/>
      </g>
     </g>
    </g>
    <g id="xtick_26">
     <g id="line2d_26">
      <g>
       <use xlink:href="#mff52f7cdf5" x="202.946628" y="145.8" style="stroke: #000000; stroke-width: 0.6"/>
      </g>
     </g>
    </g>
    <g id="xtick_27">
     <g id="line2d_27">
      <g>
       <use xlink:href="#mff52f7cdf5" x="206.213714" y="145.8" style="stroke: #000000; stroke-width: 0.6"/>
      </g>
     </g>
    </g>
    <g id="xtick_28">
     <g id="line2d_28">
      <g>
       <use xlink:href="#mff52f7cdf5" x="228.36286" y="145.8" style="stroke: #000000; stroke-width: 0.6"/>
      </g>
     </g>
    </g>
    <g id="xtick_29">
     <g id="line2d_29">
      <g>
       <use xlink:href="#mff52f7cdf5" x="239.609722" y="145.8" style="stroke: #000000; stroke-width: 0.6"/>
      </g>
     </g>
    </g>
    <g id="xtick_30">
     <g id="line2d_30">
      <g>
       <use xlink:href="#mff52f7cdf5" x="247.589498" y="145.8" style="stroke: #000000; stroke-width: 0.6"/>
      </g>
     </g>
    </g>
    <g id="xtick_31">
     <g id="line2d_31">
      <g>
       <use xlink:href="#mff52f7cdf5" x="253.779093" y="145.8" style="stroke: #000000; stroke-width: 0.6"/>
      </g>
     </g>
    </g>
    <g id="xtick_32">
     <g id="line2d_32">
      <g>
       <use xlink:href="#mff52f7cdf5" x="258.83636" y="145.8" style="stroke: #000000; stroke-width: 0.6"/>
      </g>
     </g>
    </g>
    <g id="xtick_33">
     <g id="line2d_33">
      <g>
       <use xlink:href="#mff52f7cdf5" x="263.112218" y="145.8" style="stroke: #000000; stroke-width: 0.6"/>
      </g>
     </g>
    </g>
    <g id="xtick_34">
     <g id="line2d_34">
      <g>
       <use xlink:href="#mff52f7cdf5" x="266.816135" y="145.8" style="stroke: #000000; stroke-width: 0.6"/>
      </g>
     </g>
    </g>
    <g id="xtick_35">
     <g id="line2d_35">
      <g>
       <use xlink:href="#mff52f7cdf5" x="270.083222" y="145.8" style="stroke: #000000; stroke-width: 0.6"/>
      </g>
     </g>
    </g>
    <g id="xtick_36">
     <g id="line2d_36">
      <g>
       <use xlink:href="#mff52f7cdf5" x="292.232368" y="145.8" style="stroke: #000000; stroke-width: 0.6"/>
      </g>
     </g>
    </g>
    <g id="xtick_37">
     <g id="line2d_37">
      <g>
       <use xlink:href="#mff52f7cdf5" x="303.47923" y="145.8" style="stroke: #000000; stroke-width: 0.6"/>
      </g>
     </g>
    </g>
    <g id="xtick_38">
     <g id="line2d_38">
      <g>
       <use xlink:href="#mff52f7cdf5" x="311.459005" y="145.8" style="stroke: #000000; stroke-width: 0.6"/>
      </g>
     </g>
    </g>
    <g id="xtick_39">
     <g id="line2d_39">
      <g>
       <use xlink:href="#mff52f7cdf5" x="317.6486" y="145.8" style="stroke: #000000; stroke-width: 0.6"/>
      </g>
     </g>
    </g>
    <g id="text_5">
     <!-- Concentration / mM -->
     <g transform="translate(131.007031 174.076563) scale(0.1 -0.1)">
      <defs>
       <path id="DejaVuSans-43" d="M 4122 4306 
L 4122 3641 
Q 3803 3938 3442 4084 
Q 3081 4231 2675 4231 
Q 1875 4231 1450 3742 
Q 1025 3253 1025 2328 
Q 1025 1406 1450 917 
Q 1875 428 2675 428 
Q 3081 428 3442 575 
Q 3803 722 4122 1019 
L 4122 359 
Q 3791 134 3420 21 
Q 3050 -91 2638 -91 
Q 1578 -91 968 557 
Q 359 1206 359 2328 
Q 359 3453 968 4101 
Q 1578 4750 2638 4750 
Q 3056 4750 3426 4639 
Q 3797 4528 4122 4306 
z
" transform="scale(0.015625)"/>
       <path id="DejaVuSans-6f" d="M 1959 3097 
Q 1497 3097 1228 2736 
Q 959 2375 959 1747 
Q 959 1119 1226 758 
Q 1494 397 1959 397 
Q 2419 397 2687 759 
Q 2956 1122 2956 1747 
Q 2956 2369 2687 2733 
Q 2419 3097 1959 3097 
z
M 1959 3584 
Q 2709 3584 3137 3096 
Q 3566 2609 3566 1747 
Q 3566 888 3137 398 
Q 2709 -91 1959 -91 
Q 1206 -91 779 398 
Q 353 888 353 1747 
Q 353 2609 779 3096 
Q 1206 3584 1959 3584 
z
" transform="scale(0.015625)"/>
       <path id="DejaVuSans-6e" d="M 3513 2113 
L 3513 0 
L 2938 0 
L 2938 2094 
Q 2938 2591 2744 2837 
Q 2550 3084 2163 3084 
Q 1697 3084 1428 2787 
Q 1159 2491 1159 1978 
L 1159 0 
L 581 0 
L 581 3500 
L 1159 3500 
L 1159 2956 
Q 1366 3272 1645 3428 
Q 1925 3584 2291 3584 
Q 2894 3584 3203 3211 
Q 3513 2838 3513 2113 
z
" transform="scale(0.015625)"/>
       <path id="DejaVuSans-63" d="M 3122 3366 
L 3122 2828 
Q 2878 2963 2633 3030 
Q 2388 3097 2138 3097 
Q 1578 3097 1268 2742 
Q 959 2388 959 1747 
Q 959 1106 1268 751 
Q 1578 397 2138 397 
Q 2388 397 2633 464 
Q 2878 531 3122 666 
L 3122 134 
Q 2881 22 2623 -34 
Q 2366 -91 2075 -91 
Q 1284 -91 818 406 
Q 353 903 353 1747 
Q 353 2603 823 3093 
Q 1294 3584 2113 3584 
Q 2378 3584 2631 3529 
Q 2884 3475 3122 3366 
z
" transform="scale(0.015625)"/>
       <path id="DejaVuSans-65" d="M 3597 1894 
L 3597 1613 
L 953 1613 
Q 991 1019 1311 708 
Q 1631 397 2203 397 
Q 2534 397 2845 478 
Q 3156 559 3463 722 
L 3463 178 
Q 3153 47 2828 -22 
Q 2503 -91 2169 -91 
Q 1331 -91 842 396 
Q 353 884 353 1716 
Q 353 2575 817 3079 
Q 1281 3584 2069 3584 
Q 2775 3584 3186 3129 
Q 3597 2675 3597 1894 
z
M 3022 2063 
Q 3016 2534 2758 2815 
Q 2500 3097 2075 3097 
Q 1594 3097 1305 2825 
Q 1016 2553 972 2059 
L 3022 2063 
z
" transform="scale(0.015625)"/>
       <path id="DejaVuSans-74" d="M 1172 4494 
L 1172 3500 
L 2356 3500 
L 2356 3053 
L 1172 3053 
L 1172 1153 
Q 1172 725 1289 603 
Q 1406 481 1766 481 
L 2356 481 
L 2356 0 
L 1766 0 
Q 1100 0 847 248 
Q 594 497 594 1153 
L 594 3053 
L 172 3053 
L 172 3500 
L 594 3500 
L 594 4494 
L 1172 4494 
z
" transform="scale(0.015625)"/>
       <path id="DejaVuSans-72" d="M 2631 2963 
Q 2534 3019 2420 3045 
Q 2306 3072 2169 3072 
Q 1681 3072 1420 2755 
Q 1159 2438 1159 1844 
L 1159 0 
L 581 0 
L 581 3500 
L 1159 3500 
L 1159 2956 
Q 1341 3275 1631 3429 
Q 1922 3584 2338 3584 
Q 2397 3584 2469 3576 
Q 2541 3569 2628 3553 
L 2631 2963 
z
" transform="scale(0.015625)"/>
       <path id="DejaVuSans-61" d="M 2194 1759 
Q 1497 1759 1228 1600 
Q 959 1441 959 1056 
Q 959 750 1161 570 
Q 1363 391 1709 391 
Q 2188 391 2477 730 
Q 2766 1069 2766 1631 
L 2766 1759 
L 2194 1759 
z
M 3341 1997 
L 3341 0 
L 2766 0 
L 2766 531 
Q 2569 213 2275 61 
Q 1981 -91 1556 -91 
Q 1019 -91 701 211 
Q 384 513 384 1019 
Q 384 1609 779 1909 
Q 1175 2209 1959 2209 
L 2766 2209 
L 2766 2266 
Q 2766 2663 2505 2880 
Q 2244 3097 1772 3097 
Q 1472 3097 1187 3025 
Q 903 2953 641 2809 
L 641 3341 
Q 956 3463 1253 3523 
Q 1550 3584 1831 3584 
Q 2591 3584 2966 3190 
Q 3341 2797 3341 1997 
z
" transform="scale(0.015625)"/>
       <path id="DejaVuSans-69" d="M 603 3500 
L 1178 3500 
L 1178 0 
L 603 0 
L 603 3500 
z
M 603 4863 
L 1178 4863 
L 1178 4134 
L 603 4134 
L 603 4863 
z
" transform="scale(0.015625)"/>
       <path id="DejaVuSans-20" transform="scale(0.015625)"/>
       <path id="DejaVuSans-2f" d="M 1625 4666 
L 2156 4666 
L 531 -594 
L 0 -594 
L 1625 4666 
z
" transform="scale(0.015625)"/>
       <path id="DejaVuSans-6d" d="M 3328 2828 
Q 3544 3216 3844 3400 
Q 4144 3584 4550 3584 
Q 5097 3584 5394 3201 
Q 5691 2819 5691 2113 
L 5691 0 
L 5113 0 
L 5113 2094 
Q 5113 2597 4934 2840 
Q 4756 3084 4391 3084 
Q 3944 3084 3684 2787 
Q 3425 2491 3425 1978 
L 3425 0 
L 2847 0 
L 2847 2094 
Q 2847 2600 2669 2842 
Q 2491 3084 2119 3084 
Q 1678 3084 1418 2786 
Q 1159 2488 1159 1978 
L 1159 0 
L 581 0 
L 581 3500 
L 1159 3500 
L 1159 2956 
Q 1356 3278 1631 3431 
Q 1906 3584 2284 3584 
Q 2666 3584 2933 3390 
Q 3200 3197 3328 2828 
z
" transform="scale(0.015625)"/>
       <path id="DejaVuSans-4d" d="M 628 4666 
L 1569 4666 
L 2759 1491 
L 3956 4666 
L 4897 4666 
L 4897 0 
L 4281 0 
L 4281 4097 
L 3078 897 
L 2444 897 
L 1241 4097 
L 1241 0 
L 628 0 
L 628 4666 
z
" transform="scale(0.015625)"/>
      </defs>
      <use xlink:href="#DejaVuSans-43"/>
      <use xlink:href="#DejaVuSans-6f" x="69.824219"/>
      <use xlink:href="#DejaVuSans-6e" x="131.005859"/>
      <use xlink:href="#DejaVuSans-63" x="194.384766"/>
      <use xlink:href="#DejaVuSans-65" x="249.365234"/>
      <use xlink:href="#DejaVuSans-6e" x="310.888672"/>
      <use xlink:href="#DejaVuSans-74" x="374.267578"/>
      <use xlink:href="#DejaVuSans-72" x="413.476562"/>
      <use xlink:href="#DejaVuSans-61" x="454.589844"/>
      <use xlink:href="#DejaVuSans-74" x="515.869141"/>
      <use xlink:href="#DejaVuSans-69" x="555.078125"/>
      <use xlink:href="#DejaVuSans-6f" x="582.861328"/>
      <use xlink:href="#DejaVuSans-6e" x="644.042969"/>
      <use xlink:href="#DejaVuSans-20" x="707.421875"/>
      <use xlink:href="#DejaVuSans-2f" x="739.208984"/>
      <use xlink:href="#DejaVuSans-20" x="772.900391"/>
      <use xlink:href="#DejaVuSans-6d" x="804.6875"/>
      <use xlink:href="#DejaVuSans-4d" x="902.099609"/>
     </g>
    </g>
   </g>
   <g id="matplotlib.axis_2">
    <g id="ytick_1">
     <g id="line2d_40">
      <defs>
       <path id="m8af192d67d" d="M 0 0 
L -3.5 0 
" style="stroke: #000000; stroke-width: 0.8"/>
      </defs>
      <g>
       <use xlink:href="#m8af192d67d" x="40.925" y="131.94" style="stroke: #000000; stroke-width: 0.8"/>
      </g>
     </g>
     <g id="text_6">
      <!-- 30 -->
      <g transform="translate(21.2 135.739219) scale(0.1 -0.1)">
       <defs>
        <path id="DejaVuSans-33" d="M 2597 2516 
Q 3050 2419 3304 2112 
Q 3559 1806 3559 1356 
Q 3559 666 3084 287 
Q 2609 -91 1734 -91 
Q 1441 -91 1130 -33 
Q 819 25 488 141 
L 488 750 
Q 750 597 1062 519 
Q 1375 441 1716 441 
Q 2309 441 2620 675 
Q 2931 909 2931 1356 
Q 2931 1769 2642 2001 
Q 2353 2234 1838 2234 
L 1294 2234 
L 1294 2753 
L 1863 2753 
Q 2328 2753 2575 2939 
Q 2822 3125 2822 3475 
Q 2822 3834 2567 4026 
Q 2313 4219 1838 4219 
Q 1578 4219 1281 4162 
Q 984 4106 628 3988 
L 628 4550 
Q 988 4650 1302 4700 
Q 1616 4750 1894 4750 
Q 2613 4750 3031 4423 
Q 3450 4097 3450 3541 
Q 3450 3153 3228 2886 
Q 3006 2619 2597 2516 
z
" transform="scale(0.015625)"/>
       </defs>
       <use xlink:href="#DejaVuSans-33"/>
       <use xlink:href="#DejaVuSans-30" x="63.623047"/>
      </g>
     </g>
    </g>
    <g id="ytick_2">
     <g id="line2d_41">
      <g>
       <use xlink:href="#m8af192d67d" x="40.925" y="104.22" style="stroke: #000000; stroke-width: 0.8"/>
      </g>
     </g>
     <g id="text_7">
      <!-- 40 -->
      <g transform="translate(21.2 108.019219) scale(0.1 -0.1)">
       <defs>
        <path id="DejaVuSans-34" d="M 2419 4116 
L 825 1625 
L 2419 1625 
L 2419 4116 
z
M 2253 4666 
L 3047 4666 
L 3047 1625 
L 3713 1625 
L 3713 1100 
L 3047 1100 
L 3047 0 
L 2419 0 
L 2419 1100 
L 313 1100 
L 313 1709 
L 2253 4666 
z
" transform="scale(0.015625)"/>
       </defs>
       <use xlink:href="#DejaVuSans-34"/>
       <use xlink:href="#DejaVuSans-30" x="63.623047"/>
      </g>
     </g>
    </g>
    <g id="ytick_3">
     <g id="line2d_42">
      <g>
       <use xlink:href="#m8af192d67d" x="40.925" y="76.5" style="stroke: #000000; stroke-width: 0.8"/>
      </g>
     </g>
     <g id="text_8">
      <!-- 50 -->
      <g transform="translate(21.2 80.299219) scale(0.1 -0.1)">
       <defs>
        <path id="DejaVuSans-35" d="M 691 4666 
L 3169 4666 
L 3169 4134 
L 1269 4134 
L 1269 2991 
Q 1406 3038 1543 3061 
Q 1681 3084 1819 3084 
Q 2600 3084 3056 2656 
Q 3513 2228 3513 1497 
Q 3513 744 3044 326 
Q 2575 -91 1722 -91 
Q 1428 -91 1123 -41 
Q 819 9 494 109 
L 494 744 
Q 775 591 1075 516 
Q 1375 441 1709 441 
Q 2250 441 2565 725 
Q 2881 1009 2881 1497 
Q 2881 1984 2565 2268 
Q 2250 2553 1709 2553 
Q 1456 2553 1204 2497 
Q 953 2441 691 2322 
L 691 4666 
z
" transform="scale(0.015625)"/>
       </defs>
       <use xlink:href="#DejaVuSans-35"/>
       <use xlink:href="#DejaVuSans-30" x="63.623047"/>
      </g>
     </g>
    </g>
    <g id="ytick_4">
     <g id="line2d_43">
      <g>
       <use xlink:href="#m8af192d67d" x="40.925" y="48.78" style="stroke: #000000; stroke-width: 0.8"/>
      </g>
     </g>
     <g id="text_9">
      <!-- 60 -->
      <g transform="translate(21.2 52.579219) scale(0.1 -0.1)">
       <defs>
        <path id="DejaVuSans-36" d="M 2113 2584 
Q 1688 2584 1439 2293 
Q 1191 2003 1191 1497 
Q 1191 994 1439 701 
Q 1688 409 2113 409 
Q 2538 409 2786 701 
Q 3034 994 3034 1497 
Q 3034 2003 2786 2293 
Q 2538 2584 2113 2584 
z
M 3366 4563 
L 3366 3988 
Q 3128 4100 2886 4159 
Q 2644 4219 2406 4219 
Q 1781 4219 1451 3797 
Q 1122 3375 1075 2522 
Q 1259 2794 1537 2939 
Q 1816 3084 2150 3084 
Q 2853 3084 3261 2657 
Q 3669 2231 3669 1497 
Q 3669 778 3244 343 
Q 2819 -91 2113 -91 
Q 1303 -91 875 529 
Q 447 1150 447 2328 
Q 447 3434 972 4092 
Q 1497 4750 2381 4750 
Q 2619 4750 2861 4703 
Q 3103 4656 3366 4563 
z
" transform="scale(0.015625)"/>
       </defs>
       <use xlink:href="#DejaVuSans-36"/>
       <use xlink:href="#DejaVuSans-30" x="63.623047"/>
      </g>
     </g>
    </g>
    <g id="ytick_5">
     <g id="line2d_44">
      <g>
       <use xlink:href="#m8af192d67d" x="40.925" y="21.06" style="stroke: #000000; stroke-width: 0.8"/>
      </g>
     </g>
     <g id="text_10">
      <!-- 70 -->
      <g transform="translate(21.2 24.859219) scale(0.1 -0.1)">
       <defs>
        <path id="DejaVuSans-37" d="M 525 4666 
L 3525 4666 
L 3525 4397 
L 1831 0 
L 1172 0 
L 2766 4134 
L 525 4134 
L 525 4666 
z
" transform="scale(0.015625)"/>
       </defs>
       <use xlink:href="#DejaVuSans-37"/>
       <use xlink:href="#DejaVuSans-30" x="63.623047"/>
      </g>
     </g>
    </g>
    <g id="text_11">
     <!-- Surface tension / $\mathrm{mN \ m^{-1}}$ -->
     <g transform="translate(15.120312 140.9) rotate(-90) scale(0.1 -0.1)">
      <defs>
       <path id="DejaVuSans-53" d="M 3425 4513 
L 3425 3897 
Q 3066 4069 2747 4153 
Q 2428 4238 2131 4238 
Q 1616 4238 1336 4038 
Q 1056 3838 1056 3469 
Q 1056 3159 1242 3001 
Q 1428 2844 1947 2747 
L 2328 2669 
Q 3034 2534 3370 2195 
Q 3706 1856 3706 1288 
Q 3706 609 3251 259 
Q 2797 -91 1919 -91 
Q 1588 -91 1214 -16 
Q 841 59 441 206 
L 441 856 
Q 825 641 1194 531 
Q 1563 422 1919 422 
Q 2459 422 2753 634 
Q 3047 847 3047 1241 
Q 3047 1584 2836 1778 
Q 2625 1972 2144 2069 
L 1759 2144 
Q 1053 2284 737 2584 
Q 422 2884 422 3419 
Q 422 4038 858 4394 
Q 1294 4750 2059 4750 
Q 2388 4750 2728 4690 
Q 3069 4631 3425 4513 
z
" transform="scale(0.015625)"/>
       <path id="DejaVuSans-75" d="M 544 1381 
L 544 3500 
L 1119 3500 
L 1119 1403 
Q 1119 906 1312 657 
Q 1506 409 1894 409 
Q 2359 409 2629 706 
Q 2900 1003 2900 1516 
L 2900 3500 
L 3475 3500 
L 3475 0 
L 2900 0 
L 2900 538 
Q 2691 219 2414 64 
Q 2138 -91 1772 -91 
Q 1169 -91 856 284 
Q 544 659 544 1381 
z
M 1991 3584 
L 1991 3584 
z
" transform="scale(0.015625)"/>
       <path id="DejaVuSans-66" d="M 2375 4863 
L 2375 4384 
L 1825 4384 
Q 1516 4384 1395 4259 
Q 1275 4134 1275 3809 
L 1275 3500 
L 2222 3500 
L 2222 3053 
L 1275 3053 
L 1275 0 
L 697 0 
L 697 3053 
L 147 3053 
L 147 3500 
L 697 3500 
L 697 3744 
Q 697 4328 969 4595 
Q 1241 4863 1831 4863 
L 2375 4863 
z
" transform="scale(0.015625)"/>
       <path id="DejaVuSans-73" d="M 2834 3397 
L 2834 2853 
Q 2591 2978 2328 3040 
Q 2066 3103 1784 3103 
Q 1356 3103 1142 2972 
Q 928 2841 928 2578 
Q 928 2378 1081 2264 
Q 1234 2150 1697 2047 
L 1894 2003 
Q 2506 1872 2764 1633 
Q 3022 1394 3022 966 
Q 3022 478 2636 193 
Q 2250 -91 1575 -91 
Q 1294 -91 989 -36 
Q 684 19 347 128 
L 347 722 
Q 666 556 975 473 
Q 1284 391 1588 391 
Q 1994 391 2212 530 
Q 2431 669 2431 922 
Q 2431 1156 2273 1281 
Q 2116 1406 1581 1522 
L 1381 1569 
Q 847 1681 609 1914 
Q 372 2147 372 2553 
Q 372 3047 722 3315 
Q 1072 3584 1716 3584 
Q 2034 3584 2315 3537 
Q 2597 3491 2834 3397 
z
" transform="scale(0.015625)"/>
       <path id="DejaVuSans-4e" d="M 628 4666 
L 1478 4666 
L 3547 763 
L 3547 4666 
L 4159 4666 
L 4159 0 
L 3309 0 
L 1241 3903 
L 1241 0 
L 628 0 
L 628 4666 
z
" transform="scale(0.015625)"/>
      </defs>
      <use xlink:href="#DejaVuSans-53" transform="translate(0 0.684375)"/>
      <use xlink:href="#DejaVuSans-75" transform="translate(63.476562 0.684375)"/>
      <use xlink:href="#DejaVuSans-72" transform="translate(126.855469 0.684375)"/>
      <use xlink:href="#DejaVuSans-66" transform="translate(167.96875 0.684375)"/>
      <use xlink:href="#DejaVuSans-61" transform="translate(203.173828 0.684375)"/>
      <use xlink:href="#DejaVuSans-63" transform="translate(264.453125 0.684375)"/>
      <use xlink:href="#DejaVuSans-65" transform="translate(319.433594 0.684375)"/>
      <use xlink:href="#DejaVuSans-20" transform="translate(380.957031 0.684375)"/>
      <use xlink:href="#DejaVuSans-74" transform="translate(412.744141 0.684375)"/>
      <use xlink:href="#DejaVuSans-65" transform="translate(451.953125 0.684375)"/>
      <use xlink:href="#DejaVuSans-6e" transform="translate(513.476562 0.684375)"/>
      <use xlink:href="#DejaVuSans-73" transform="translate(576.855469 0.684375)"/>
      <use xlink:href="#DejaVuSans-69" transform="translate(628.955078 0.684375)"/>
      <use xlink:href="#DejaVuSans-6f" transform="translate(656.738281 0.684375)"/>
      <use xlink:href="#DejaVuSans-6e" transform="translate(717.919922 0.684375)"/>
      <use xlink:href="#DejaVuSans-20" transform="translate(781.298828 0.684375)"/>
      <use xlink:href="#DejaVuSans-2f" transform="translate(813.085938 0.684375)"/>
      <use xlink:href="#DejaVuSans-20" transform="translate(846.777344 0.684375)"/>
      <use xlink:href="#DejaVuSans-6d" transform="translate(878.564453 0.684375)"/>
      <use xlink:href="#DejaVuSans-4e" transform="translate(975.976562 0.684375)"/>
      <use xlink:href="#DejaVuSans-6d" transform="translate(1083.251628 0.684375)"/>
      <use xlink:href="#DejaVuSans-2212" transform="translate(1181.620769 38.965625) scale(0.7)"/>
      <use xlink:href="#DejaVuSans-31" transform="translate(1240.273113 38.965625) scale(0.7)"/>
     </g>
    </g>
   </g>
   <g id="patch_3">
    <path d="M 40.925 145.8 
L 40.925 7.2 
" style="fill: none; stroke: #000000; stroke-width: 0.8; stroke-linejoin: miter; stroke-linecap: square"/>
   </g>
   <g id="patch_4">
    <path d="M 40.925 145.8 
L 319.925 145.8 
" style="fill: none; stroke: #000000; stroke-width: 0.8; stroke-linejoin: miter; stroke-linecap: square"/>
   </g>
   <g id="legend_1">
    <g id="text_12">
     <!-- Molar fraction of SOS -->
     <g transform="translate(48.125 53.037187) scale(0.06 -0.06)">
      <defs>
       <path id="DejaVuSans-Bold-4d" d="M 588 4666 
L 2119 4666 
L 3181 2169 
L 4250 4666 
L 5778 4666 
L 5778 0 
L 4641 0 
L 4641 3413 
L 3566 897 
L 2803 897 
L 1728 3413 
L 1728 0 
L 588 0 
L 588 4666 
z
" transform="scale(0.015625)"/>
       <path id="DejaVuSans-Bold-6f" d="M 2203 2784 
Q 1831 2784 1636 2517 
Q 1441 2250 1441 1747 
Q 1441 1244 1636 976 
Q 1831 709 2203 709 
Q 2569 709 2762 976 
Q 2956 1244 2956 1747 
Q 2956 2250 2762 2517 
Q 2569 2784 2203 2784 
z
M 2203 3584 
Q 3106 3584 3614 3096 
Q 4122 2609 4122 1747 
Q 4122 884 3614 396 
Q 3106 -91 2203 -91 
Q 1297 -91 786 396 
Q 275 884 275 1747 
Q 275 2609 786 3096 
Q 1297 3584 2203 3584 
z
" transform="scale(0.015625)"/>
       <path id="DejaVuSans-Bold-6c" d="M 538 4863 
L 1656 4863 
L 1656 0 
L 538 0 
L 538 4863 
z
" transform="scale(0.015625)"/>
       <path id="DejaVuSans-Bold-61" d="M 2106 1575 
Q 1756 1575 1579 1456 
Q 1403 1338 1403 1106 
Q 1403 894 1545 773 
Q 1688 653 1941 653 
Q 2256 653 2472 879 
Q 2688 1106 2688 1447 
L 2688 1575 
L 2106 1575 
z
M 3816 1997 
L 3816 0 
L 2688 0 
L 2688 519 
Q 2463 200 2181 54 
Q 1900 -91 1497 -91 
Q 953 -91 614 226 
Q 275 544 275 1050 
Q 275 1666 698 1953 
Q 1122 2241 2028 2241 
L 2688 2241 
L 2688 2328 
Q 2688 2594 2478 2717 
Q 2269 2841 1825 2841 
Q 1466 2841 1156 2769 
Q 847 2697 581 2553 
L 581 3406 
Q 941 3494 1303 3539 
Q 1666 3584 2028 3584 
Q 2975 3584 3395 3211 
Q 3816 2838 3816 1997 
z
" transform="scale(0.015625)"/>
       <path id="DejaVuSans-Bold-72" d="M 3138 2547 
Q 2991 2616 2845 2648 
Q 2700 2681 2553 2681 
Q 2122 2681 1889 2404 
Q 1656 2128 1656 1613 
L 1656 0 
L 538 0 
L 538 3500 
L 1656 3500 
L 1656 2925 
Q 1872 3269 2151 3426 
Q 2431 3584 2822 3584 
Q 2878 3584 2943 3579 
Q 3009 3575 3134 3559 
L 3138 2547 
z
" transform="scale(0.015625)"/>
       <path id="DejaVuSans-Bold-20" transform="scale(0.015625)"/>
       <path id="DejaVuSans-Bold-66" d="M 2841 4863 
L 2841 4128 
L 2222 4128 
Q 1984 4128 1890 4042 
Q 1797 3956 1797 3744 
L 1797 3500 
L 2753 3500 
L 2753 2700 
L 1797 2700 
L 1797 0 
L 678 0 
L 678 2700 
L 122 2700 
L 122 3500 
L 678 3500 
L 678 3744 
Q 678 4316 997 4589 
Q 1316 4863 1984 4863 
L 2841 4863 
z
" transform="scale(0.015625)"/>
       <path id="DejaVuSans-Bold-63" d="M 3366 3391 
L 3366 2478 
Q 3138 2634 2908 2709 
Q 2678 2784 2431 2784 
Q 1963 2784 1702 2511 
Q 1441 2238 1441 1747 
Q 1441 1256 1702 982 
Q 1963 709 2431 709 
Q 2694 709 2930 787 
Q 3166 866 3366 1019 
L 3366 103 
Q 3103 6 2833 -42 
Q 2563 -91 2291 -91 
Q 1344 -91 809 395 
Q 275 881 275 1747 
Q 275 2613 809 3098 
Q 1344 3584 2291 3584 
Q 2566 3584 2833 3536 
Q 3100 3488 3366 3391 
z
" transform="scale(0.015625)"/>
       <path id="DejaVuSans-Bold-74" d="M 1759 4494 
L 1759 3500 
L 2913 3500 
L 2913 2700 
L 1759 2700 
L 1759 1216 
Q 1759 972 1856 886 
Q 1953 800 2241 800 
L 2816 800 
L 2816 0 
L 1856 0 
Q 1194 0 917 276 
Q 641 553 641 1216 
L 641 2700 
L 84 2700 
L 84 3500 
L 641 3500 
L 641 4494 
L 1759 4494 
z
" transform="scale(0.015625)"/>
       <path id="DejaVuSans-Bold-69" d="M 538 3500 
L 1656 3500 
L 1656 0 
L 538 0 
L 538 3500 
z
M 538 4863 
L 1656 4863 
L 1656 3950 
L 538 3950 
L 538 4863 
z
" transform="scale(0.015625)"/>
       <path id="DejaVuSans-Bold-6e" d="M 4056 2131 
L 4056 0 
L 2931 0 
L 2931 347 
L 2931 1631 
Q 2931 2084 2911 2256 
Q 2891 2428 2841 2509 
Q 2775 2619 2662 2680 
Q 2550 2741 2406 2741 
Q 2056 2741 1856 2470 
Q 1656 2200 1656 1722 
L 1656 0 
L 538 0 
L 538 3500 
L 1656 3500 
L 1656 2988 
Q 1909 3294 2193 3439 
Q 2478 3584 2822 3584 
Q 3428 3584 3742 3212 
Q 4056 2841 4056 2131 
z
" transform="scale(0.015625)"/>
       <path id="DejaVuSans-Bold-53" d="M 3834 4519 
L 3834 3531 
Q 3450 3703 3084 3790 
Q 2719 3878 2394 3878 
Q 1963 3878 1756 3759 
Q 1550 3641 1550 3391 
Q 1550 3203 1689 3098 
Q 1828 2994 2194 2919 
L 2706 2816 
Q 3484 2659 3812 2340 
Q 4141 2022 4141 1434 
Q 4141 663 3683 286 
Q 3225 -91 2284 -91 
Q 1841 -91 1394 -6 
Q 947 78 500 244 
L 500 1259 
Q 947 1022 1364 901 
Q 1781 781 2169 781 
Q 2563 781 2772 912 
Q 2981 1044 2981 1288 
Q 2981 1506 2839 1625 
Q 2697 1744 2272 1838 
L 1806 1941 
Q 1106 2091 782 2419 
Q 459 2747 459 3303 
Q 459 4000 909 4375 
Q 1359 4750 2203 4750 
Q 2588 4750 2994 4692 
Q 3400 4634 3834 4519 
z
" transform="scale(0.015625)"/>
       <path id="DejaVuSans-Bold-4f" d="M 2719 3878 
Q 2169 3878 1866 3472 
Q 1563 3066 1563 2328 
Q 1563 1594 1866 1187 
Q 2169 781 2719 781 
Q 3272 781 3575 1187 
Q 3878 1594 3878 2328 
Q 3878 3066 3575 3472 
Q 3272 3878 2719 3878 
z
M 2719 4750 
Q 3844 4750 4481 4106 
Q 5119 3463 5119 2328 
Q 5119 1197 4481 553 
Q 3844 -91 2719 -91 
Q 1597 -91 958 553 
Q 319 1197 319 2328 
Q 319 3463 958 4106 
Q 1597 4750 2719 4750 
z
" transform="scale(0.015625)"/>
      </defs>
      <use xlink:href="#DejaVuSans-Bold-4d"/>
      <use xlink:href="#DejaVuSans-Bold-6f" x="99.511719"/>
      <use xlink:href="#DejaVuSans-Bold-6c" x="168.212891"/>
      <use xlink:href="#DejaVuSans-Bold-61" x="202.490234"/>
      <use xlink:href="#DejaVuSans-Bold-72" x="269.970703"/>
      <use xlink:href="#DejaVuSans-Bold-20" x="319.287109"/>
      <use xlink:href="#DejaVuSans-Bold-66" x="354.101562"/>
      <use xlink:href="#DejaVuSans-Bold-72" x="397.607422"/>
      <use xlink:href="#DejaVuSans-Bold-61" x="446.923828"/>
      <use xlink:href="#DejaVuSans-Bold-63" x="514.404297"/>
      <use xlink:href="#DejaVuSans-Bold-74" x="573.681641"/>
      <use xlink:href="#DejaVuSans-Bold-69" x="621.484375"/>
      <use xlink:href="#DejaVuSans-Bold-6f" x="655.761719"/>
      <use xlink:href="#DejaVuSans-Bold-6e" x="724.462891"/>
      <use xlink:href="#DejaVuSans-Bold-20" x="795.654297"/>
      <use xlink:href="#DejaVuSans-Bold-6f" x="830.46875"/>
      <use xlink:href="#DejaVuSans-Bold-66" x="899.169922"/>
      <use xlink:href="#DejaVuSans-Bold-20" x="942.675781"/>
      <use xlink:href="#DejaVuSans-Bold-53" x="977.490234"/>
      <use xlink:href="#DejaVuSans-Bold-4f" x="1049.511719"/>
      <use xlink:href="#DejaVuSans-Bold-53" x="1134.521484"/>
     </g>
    </g>
    <g id="PathCollection_1">
     <defs>
      <path id="m3ae894507c" d="M 0 1.936492 
C 0.513564 1.936492 1.006162 1.732451 1.369306 1.369306 
C 1.732451 1.006162 1.936492 0.513564 1.936492 0 
C 1.936492 -0.513564 1.732451 -1.006162 1.369306 -1.369306 
C 1.006162 -1.732451 0.513564 -1.936492 0 -1.936492 
C -0.513564 -1.936492 -1.006162 -1.732451 -1.369306 -1.369306 
C -1.732451 -1.006162 -1.936492 -0.513564 -1.936492 0 
C -1.936492 0.513564 -1.732451 1.006162 -1.369306 1.369306 
C -1.006162 1.732451 -0.513564 1.936492 0 1.936492 
z
" style="stroke: #3b4cc0"/>
     </defs>
     <g>
      <use xlink:href="#m3ae894507c" x="72.214688" y="62.26375" style="fill: #3b4cc0; stroke: #3b4cc0"/>
     </g>
    </g>
    <g id="text_13">
     <!-- 0.00 -->
     <g transform="translate(86.614688 64.36375) scale(0.08 -0.08)">
      <defs>
       <path id="DejaVuSans-2e" d="M 684 794 
L 1344 794 
L 1344 0 
L 684 0 
L 684 794 
z
" transform="scale(0.015625)"/>
      </defs>
      <use xlink:href="#DejaVuSans-30"/>
      <use xlink:href="#DejaVuSans-2e" x="63.623047"/>
      <use xlink:href="#DejaVuSans-30" x="95.410156"/>
      <use xlink:href="#DejaVuSans-30" x="159.033203"/>
     </g>
    </g>
    <g id="PathCollection_2">
     <defs>
      <path id="m602f228476" d="M 0 1.936492 
C 0.513564 1.936492 1.006162 1.732451 1.369306 1.369306 
C 1.732451 1.006162 1.936492 0.513564 1.936492 0 
C 1.936492 -0.513564 1.732451 -1.006162 1.369306 -1.369306 
C 1.006162 -1.732451 0.513564 -1.936492 0 -1.936492 
C -0.513564 -1.936492 -1.006162 -1.732451 -1.369306 -1.369306 
C -1.732451 -1.006162 -1.936492 -0.513564 -1.936492 0 
C -1.936492 0.513564 -1.732451 1.006162 -1.369306 1.369306 
C -1.006162 1.732451 -0.513564 1.936492 0 1.936492 
z
" style="stroke: #688aef"/>
     </defs>
     <g>
      <use xlink:href="#m602f228476" x="72.214688" y="74.00625" style="fill: #688aef; stroke: #688aef"/>
     </g>
    </g>
    <g id="text_14">
     <!-- 0.14 -->
     <g transform="translate(86.614688 76.10625) scale(0.08 -0.08)">
      <use xlink:href="#DejaVuSans-30"/>
      <use xlink:href="#DejaVuSans-2e" x="63.623047"/>
      <use xlink:href="#DejaVuSans-31" x="95.410156"/>
      <use xlink:href="#DejaVuSans-34" x="159.033203"/>
     </g>
    </g>
    <g id="PathCollection_3">
     <defs>
      <path id="m5961437439" d="M 0 1.936492 
C 0.513564 1.936492 1.006162 1.732451 1.369306 1.369306 
C 1.732451 1.006162 1.936492 0.513564 1.936492 0 
C 1.936492 -0.513564 1.732451 -1.006162 1.369306 -1.369306 
C 1.006162 -1.732451 0.513564 -1.936492 0 -1.936492 
C -0.513564 -1.936492 -1.006162 -1.732451 -1.369306 -1.369306 
C -1.732451 -1.006162 -1.936492 -0.513564 -1.936492 0 
C -1.936492 0.513564 -1.732451 1.006162 -1.369306 1.369306 
C -1.006162 1.732451 -0.513564 1.936492 0 1.936492 
z
" style="stroke: #a2c1ff"/>
     </defs>
     <g>
      <use xlink:href="#m5961437439" x="72.214688" y="85.74875" style="fill: #a2c1ff; stroke: #a2c1ff"/>
     </g>
    </g>
    <g id="text_15">
     <!-- 0.31 -->
     <g transform="translate(86.614688 87.84875) scale(0.08 -0.08)">
      <use xlink:href="#DejaVuSans-30"/>
      <use xlink:href="#DejaVuSans-2e" x="63.623047"/>
      <use xlink:href="#DejaVuSans-33" x="95.410156"/>
      <use xlink:href="#DejaVuSans-31" x="159.033203"/>
     </g>
    </g>
    <g id="PathCollection_4">
     <defs>
      <path id="mb3a515a88d" d="M 0 1.936492 
C 0.513564 1.936492 1.006162 1.732451 1.369306 1.369306 
C 1.732451 1.006162 1.936492 0.513564 1.936492 0 
C 1.936492 -0.513564 1.732451 -1.006162 1.369306 -1.369306 
C 1.006162 -1.732451 0.513564 -1.936492 0 -1.936492 
C -0.513564 -1.936492 -1.006162 -1.732451 -1.369306 -1.369306 
C -1.732451 -1.006162 -1.936492 -0.513564 -1.936492 0 
C -1.936492 0.513564 -1.732451 1.006162 -1.369306 1.369306 
C -1.006162 1.732451 -0.513564 1.936492 0 1.936492 
z
" style="stroke: #dedcdb"/>
     </defs>
     <g>
      <use xlink:href="#mb3a515a88d" x="72.214688" y="97.49125" style="fill: #dedcdb; stroke: #dedcdb"/>
     </g>
    </g>
    <g id="text_16">
     <!-- 0.50 -->
     <g transform="translate(86.614688 99.59125) scale(0.08 -0.08)">
      <use xlink:href="#DejaVuSans-30"/>
      <use xlink:href="#DejaVuSans-2e" x="63.623047"/>
      <use xlink:href="#DejaVuSans-35" x="95.410156"/>
      <use xlink:href="#DejaVuSans-30" x="159.033203"/>
     </g>
    </g>
    <g id="PathCollection_5">
     <defs>
      <path id="md98e94ec8c" d="M 0 1.936492 
C 0.513564 1.936492 1.006162 1.732451 1.369306 1.369306 
C 1.732451 1.006162 1.936492 0.513564 1.936492 0 
C 1.936492 -0.513564 1.732451 -1.006162 1.369306 -1.369306 
C 1.006162 -1.732451 0.513564 -1.936492 0 -1.936492 
C -0.513564 -1.936492 -1.006162 -1.732451 -1.369306 -1.369306 
C -1.732451 -1.006162 -1.936492 -0.513564 -1.936492 0 
C -1.936492 0.513564 -1.732451 1.006162 -1.369306 1.369306 
C -1.006162 1.732451 -0.513564 1.936492 0 1.936492 
z
" style="stroke: #f5a081"/>
     </defs>
     <g>
      <use xlink:href="#md98e94ec8c" x="72.214688" y="109.23375" style="fill: #f5a081; stroke: #f5a081"/>
     </g>
    </g>
    <g id="text_17">
     <!-- 0.73 -->
     <g transform="translate(86.614688 111.33375) scale(0.08 -0.08)">
      <use xlink:href="#DejaVuSans-30"/>
      <use xlink:href="#DejaVuSans-2e" x="63.623047"/>
      <use xlink:href="#DejaVuSans-37" x="95.410156"/>
      <use xlink:href="#DejaVuSans-33" x="159.033203"/>
     </g>
    </g>
    <g id="PathCollection_6">
     <defs>
      <path id="mcd117fa2b0" d="M 0 1.936492 
C 0.513564 1.936492 1.006162 1.732451 1.369306 1.369306 
C 1.732451 1.006162 1.936492 0.513564 1.936492 0 
C 1.936492 -0.513564 1.732451 -1.006162 1.369306 -1.369306 
C 1.006162 -1.732451 0.513564 -1.936492 0 -1.936492 
C -0.513564 -1.936492 -1.006162 -1.732451 -1.369306 -1.369306 
C -1.732451 -1.006162 -1.936492 -0.513564 -1.936492 0 
C -1.936492 0.513564 -1.732451 1.006162 -1.369306 1.369306 
C -1.006162 1.732451 -0.513564 1.936492 0 1.936492 
z
" style="stroke: #b40426"/>
     </defs>
     <g>
      <use xlink:href="#mcd117fa2b0" x="72.214688" y="120.97625" style="fill: #b40426; stroke: #b40426"/>
     </g>
    </g>
    <g id="text_18">
     <!-- 1.00 -->
     <g transform="translate(86.614688 123.07625) scale(0.08 -0.08)">
      <use xlink:href="#DejaVuSans-31"/>
      <use xlink:href="#DejaVuSans-2e" x="63.623047"/>
      <use xlink:href="#DejaVuSans-30" x="95.410156"/>
      <use xlink:href="#DejaVuSans-30" x="159.033203"/>
     </g>
    </g>
   </g>
   <g id="PathCollection_7">
    <g clip-path="url(#p64ecbd46b4)">
     <use xlink:href="#m3ae894507c" x="100.32974" y="18.649973" style="fill: #3b4cc0; stroke: #3b4cc0"/>
     <use xlink:href="#m3ae894507c" x="119.556378" y="21.517533" style="fill: #3b4cc0; stroke: #3b4cc0"/>
     <use xlink:href="#m3ae894507c" x="138.783015" y="29.119665" style="fill: #3b4cc0; stroke: #3b4cc0"/>
     <use xlink:href="#m3ae894507c" x="158.009653" y="44.731942" style="fill: #3b4cc0; stroke: #3b4cc0"/>
     <use xlink:href="#m3ae894507c" x="177.236291" y="66.303935" style="fill: #3b4cc0; stroke: #3b4cc0"/>
     <use xlink:href="#m3ae894507c" x="196.462928" y="101.080618" style="fill: #3b4cc0; stroke: #3b4cc0"/>
     <use xlink:href="#m3ae894507c" x="215.689566" y="108.758536" style="fill: #3b4cc0; stroke: #3b4cc0"/>
     <use xlink:href="#m3ae894507c" x="234.916203" y="109.77102" style="fill: #3b4cc0; stroke: #3b4cc0"/>
    </g>
   </g>
   <g id="PathCollection_8">
    <defs>
     <path id="ma280cc39cc" d="M -1.936492 1.936492 
L 1.936492 -1.936492 
M -1.936492 -1.936492 
L 1.936492 1.936492 
" style="stroke: #3b4cc0; stroke-width: 1.5"/>
    </defs>
    <g clip-path="url(#p64ecbd46b4)">
     <use xlink:href="#ma280cc39cc" x="199.753979" y="105.4287" style="fill: #3b4cc0; stroke: #3b4cc0; stroke-width: 1.5"/>
     <use xlink:href="#ma280cc39cc" x="156.277528" y="36.325676" style="fill: #3b4cc0; stroke: #3b4cc0; stroke-width: 1.5"/>
    </g>
   </g>
   <g id="PathCollection_9">
    <g clip-path="url(#p64ecbd46b4)">
     <use xlink:href="#m602f228476" x="98.484752" y="12.899692" style="fill: #688aef; stroke: #688aef"/>
     <use xlink:href="#m602f228476" x="117.711389" y="17.261404" style="fill: #688aef; stroke: #688aef"/>
     <use xlink:href="#m602f228476" x="136.938027" y="24.847265" style="fill: #688aef; stroke: #688aef"/>
     <use xlink:href="#m602f228476" x="156.164664" y="41.124317" style="fill: #688aef; stroke: #688aef"/>
     <use xlink:href="#m602f228476" x="175.391302" y="60.073257" style="fill: #688aef; stroke: #688aef"/>
     <use xlink:href="#m602f228476" x="194.61794" y="90.398345" style="fill: #688aef; stroke: #688aef"/>
     <use xlink:href="#m602f228476" x="213.844577" y="108.992618" style="fill: #688aef; stroke: #688aef"/>
     <use xlink:href="#m602f228476" x="233.071215" y="109.556948" style="fill: #688aef; stroke: #688aef"/>
    </g>
   </g>
   <g id="PathCollection_10">
    <defs>
     <path id="mc258333c6f" d="M -1.936492 1.936492 
L 1.936492 -1.936492 
M -1.936492 -1.936492 
L 1.936492 1.936492 
" style="stroke: #688aef; stroke-width: 1.5"/>
    </defs>
    <g clip-path="url(#p64ecbd46b4)">
     <use xlink:href="#mc258333c6f" x="201.719673" y="104.861014" style="fill: #688aef; stroke: #688aef; stroke-width: 1.5"/>
     <use xlink:href="#mc258333c6f" x="178.855561" y="56.373484" style="fill: #688aef; stroke: #688aef; stroke-width: 1.5"/>
     <use xlink:href="#mc258333c6f" x="202.585734" y="108.273653" style="fill: #688aef; stroke: #688aef; stroke-width: 1.5"/>
     <use xlink:href="#mc258333c6f" x="159.109283" y="30.523954" style="fill: #688aef; stroke: #688aef; stroke-width: 1.5"/>
    </g>
   </g>
   <g id="PathCollection_11">
    <g clip-path="url(#p64ecbd46b4)">
     <use xlink:href="#m5961437439" x="96.545924" y="12.161261" style="fill: #a2c1ff; stroke: #a2c1ff"/>
     <use xlink:href="#m5961437439" x="115.772562" y="14.425408" style="fill: #a2c1ff; stroke: #a2c1ff"/>
     <use xlink:href="#m5961437439" x="134.999199" y="19.057405" style="fill: #a2c1ff; stroke: #a2c1ff"/>
     <use xlink:href="#m5961437439" x="154.225837" y="31.828526" style="fill: #a2c1ff; stroke: #a2c1ff"/>
     <use xlink:href="#m5961437439" x="173.452475" y="53.808962" style="fill: #a2c1ff; stroke: #a2c1ff"/>
     <use xlink:href="#m5961437439" x="192.679112" y="81.465977" style="fill: #a2c1ff; stroke: #a2c1ff"/>
     <use xlink:href="#m5961437439" x="211.90575" y="111.91027" style="fill: #a2c1ff; stroke: #a2c1ff"/>
     <use xlink:href="#m5961437439" x="231.132388" y="110.432829" style="fill: #a2c1ff; stroke: #a2c1ff"/>
    </g>
   </g>
   <g id="PathCollection_12">
    <defs>
     <path id="med866b7d23" d="M -1.936492 1.936492 
L 1.936492 -1.936492 
M -1.936492 -1.936492 
L 1.936492 1.936492 
" style="stroke: #a2c1ff; stroke-width: 1.5"/>
    </defs>
    <g clip-path="url(#p64ecbd46b4)">
     <use xlink:href="#med866b7d23" x="201.339758" y="96.069626" style="fill: #a2c1ff; stroke: #a2c1ff; stroke-width: 1.5"/>
     <use xlink:href="#med866b7d23" x="205.843297" y="107.714195" style="fill: #a2c1ff; stroke: #a2c1ff; stroke-width: 1.5"/>
     <use xlink:href="#med866b7d23" x="176.050667" y="47.231599" style="fill: #a2c1ff; stroke: #a2c1ff; stroke-width: 1.5"/>
     <use xlink:href="#med866b7d23" x="205.150438" y="108.009919" style="fill: #a2c1ff; stroke: #a2c1ff; stroke-width: 1.5"/>
    </g>
   </g>
   <g id="PathCollection_13">
    <g clip-path="url(#p64ecbd46b4)">
     <use xlink:href="#mb3a515a88d" x="94.325686" y="8.872889" style="fill: #dedcdb; stroke: #dedcdb"/>
     <use xlink:href="#mb3a515a88d" x="113.552323" y="11.116649" style="fill: #dedcdb; stroke: #dedcdb"/>
     <use xlink:href="#mb3a515a88d" x="132.778961" y="13.789487" style="fill: #dedcdb; stroke: #dedcdb"/>
     <use xlink:href="#mb3a515a88d" x="152.005598" y="21.252352" style="fill: #dedcdb; stroke: #dedcdb"/>
     <use xlink:href="#mb3a515a88d" x="171.232236" y="39.839893" style="fill: #dedcdb; stroke: #dedcdb"/>
     <use xlink:href="#mb3a515a88d" x="190.458874" y="68.353057" style="fill: #dedcdb; stroke: #dedcdb"/>
     <use xlink:href="#mb3a515a88d" x="209.685511" y="107.515152" style="fill: #dedcdb; stroke: #dedcdb"/>
     <use xlink:href="#mb3a515a88d" x="228.912149" y="111.005809" style="fill: #dedcdb; stroke: #dedcdb"/>
    </g>
   </g>
   <g id="PathCollection_14">
    <defs>
     <path id="m352f4f211c" d="M -1.936492 1.936492 
L 1.936492 -1.936492 
M -1.936492 -1.936492 
L 1.936492 1.936492 
" style="stroke: #dedcdb; stroke-width: 1.5"/>
    </defs>
    <g clip-path="url(#p64ecbd46b4)">
     <use xlink:href="#m352f4f211c" x="205.528404" y="97.603876" style="fill: #dedcdb; stroke: #dedcdb; stroke-width: 1.5"/>
     <use xlink:href="#m352f4f211c" x="207.953382" y="102.239131" style="fill: #dedcdb; stroke: #dedcdb; stroke-width: 1.5"/>
     <use xlink:href="#m352f4f211c" x="184.742855" y="55.920187" style="fill: #dedcdb; stroke: #dedcdb; stroke-width: 1.5"/>
     <use xlink:href="#m352f4f211c" x="184.916067" y="54.94848" style="fill: #dedcdb; stroke: #dedcdb; stroke-width: 1.5"/>
    </g>
   </g>
   <g id="PathCollection_15">
    <g clip-path="url(#p64ecbd46b4)">
     <use xlink:href="#md98e94ec8c" x="92.060086" y="11.936189" style="fill: #f5a081; stroke: #f5a081"/>
     <use xlink:href="#md98e94ec8c" x="111.286724" y="13.602629" style="fill: #f5a081; stroke: #f5a081"/>
     <use xlink:href="#md98e94ec8c" x="130.513361" y="17.044551" style="fill: #f5a081; stroke: #f5a081"/>
     <use xlink:href="#md98e94ec8c" x="149.739999" y="21.836183" style="fill: #f5a081; stroke: #f5a081"/>
     <use xlink:href="#md98e94ec8c" x="168.966637" y="34.409793" style="fill: #f5a081; stroke: #f5a081"/>
     <use xlink:href="#md98e94ec8c" x="188.193274" y="54.670988" style="fill: #f5a081; stroke: #f5a081"/>
     <use xlink:href="#md98e94ec8c" x="207.419912" y="77.916753" style="fill: #f5a081; stroke: #f5a081"/>
     <use xlink:href="#md98e94ec8c" x="226.646549" y="114.440837" style="fill: #f5a081; stroke: #f5a081"/>
    </g>
   </g>
   <g id="PathCollection_16">
    <defs>
     <path id="mc55f66117f" d="M -1.936492 1.936492 
L 1.936492 -1.936492 
M -1.936492 -1.936492 
L 1.936492 1.936492 
" style="stroke: #f5a081; stroke-width: 1.5"/>
    </defs>
    <g clip-path="url(#p64ecbd46b4)">
     <use xlink:href="#mc55f66117f" x="223.355509" y="116.049633" style="fill: #f5a081; stroke: #f5a081; stroke-width: 1.5"/>
     <use xlink:href="#mc55f66117f" x="220.584101" y="115.508209" style="fill: #f5a081; stroke: #f5a081; stroke-width: 1.5"/>
     <use xlink:href="#mc55f66117f" x="187.500418" y="44.320973" style="fill: #f5a081; stroke: #f5a081; stroke-width: 1.5"/>
     <use xlink:href="#mc55f66117f" x="187.500418" y="47.008072" style="fill: #f5a081; stroke: #f5a081; stroke-width: 1.5"/>
    </g>
   </g>
   <g id="PathCollection_17">
    <g clip-path="url(#p64ecbd46b4)">
     <use xlink:href="#mcd117fa2b0" x="172.656718" y="22.001348" style="fill: #b40426; stroke: #b40426"/>
     <use xlink:href="#mcd117fa2b0" x="191.883356" y="26.475552" style="fill: #b40426; stroke: #b40426"/>
     <use xlink:href="#mcd117fa2b0" x="211.109993" y="36.464639" style="fill: #b40426; stroke: #b40426"/>
     <use xlink:href="#mcd117fa2b0" x="230.336631" y="48.738522" style="fill: #b40426; stroke: #b40426"/>
     <use xlink:href="#mcd117fa2b0" x="249.563268" y="74.134745" style="fill: #b40426; stroke: #b40426"/>
     <use xlink:href="#mcd117fa2b0" x="268.789906" y="94.039448" style="fill: #b40426; stroke: #b40426"/>
     <use xlink:href="#mcd117fa2b0" x="288.016544" y="103.975505" style="fill: #b40426; stroke: #b40426"/>
     <use xlink:href="#mcd117fa2b0" x="307.243181" y="105.114097" style="fill: #b40426; stroke: #b40426"/>
    </g>
   </g>
   <g id="PathCollection_18">
    <defs>
     <path id="m63d90358c1" d="M -1.936492 1.936492 
L 1.936492 -1.936492 
M -1.936492 -1.936492 
L 1.936492 1.936492 
" style="stroke: #b40426; stroke-width: 1.5"/>
    </defs>
    <g clip-path="url(#p64ecbd46b4)">
     <use xlink:href="#m63d90358c1" x="277.796979" y="100.853538" style="fill: #b40426; stroke: #b40426; stroke-width: 1.5"/>
     <use xlink:href="#m63d90358c1" x="278.316617" y="102.497958" style="fill: #b40426; stroke: #b40426; stroke-width: 1.5"/>
     <use xlink:href="#m63d90358c1" x="273.120231" y="97.833954" style="fill: #b40426; stroke: #b40426; stroke-width: 1.5"/>
    </g>
   </g>
   <g id="line2d_45">
    <path d="M 61.876484 14.331018 
L 68.631784 14.603181 
L 68.804983 14.600199 
L 68.978214 14.713217 
L 69.324643 14.624435 
L 69.844274 14.694839 
L 70.017474 14.642919 
L 70.363902 14.72358 
L 71.05676 14.712498 
L 72.962108 14.86388 
L 73.481769 14.914278 
L 73.654968 14.851128 
L 74.174598 14.998238 
L 76.079947 14.982673 
L 76.253145 15.093069 
L 76.599574 15.057497 
L 77.985295 15.159793 
L 79.197783 15.205495 
L 79.544211 15.32029 
L 79.890642 15.286579 
L 80.929902 15.366035 
L 82.142388 15.427916 
L 82.315605 15.501492 
L 82.488819 15.448684 
L 83.008463 15.552101 
L 84.047736 15.595709 
L 84.913797 15.709743 
L 85.087011 15.650463 
L 85.43344 15.805272 
L 86.126286 15.767204 
L 86.299499 15.866095 
L 86.64593 15.850593 
L 87.165558 15.911988 
L 87.511986 15.90154 
L 88.378048 15.981377 
L 89.763763 16.15285 
L 89.936981 16.076821 
L 90.629842 16.245883 
L 91.322682 16.303048 
L 92.8816 16.465724 
L 93.574445 16.569945 
L 94.786948 16.664183 
L 95.826224 16.844729 
L 95.999438 16.808248 
L 96.172639 16.912278 
L 96.345853 16.837433 
L 96.69228 16.940935 
L 97.904771 17.084555 
L 103.620798 17.922678 
L 103.793998 18.008711 
L 104.140429 17.96286 
L 104.833288 18.13224 
L 105.699347 18.289882 
L 106.218991 18.422675 
L 106.565422 18.40878 
L 107.085066 18.531844 
L 114.013581 19.964731 
L 114.879643 20.190726 
L 115.22607 20.240277 
L 115.572484 20.353423 
L 115.918915 20.385569 
L 116.265345 20.507004 
L 116.611775 20.585254 
L 116.958189 20.736467 
L 117.304617 20.782191 
L 119.383181 21.339015 
L 121.634942 22.020383 
L 125.445639 23.215072 
L 126.658127 23.640774 
L 126.831342 23.643988 
L 127.350971 23.887875 
L 128.043833 24.127595 
L 129.083105 24.523816 
L 129.429533 24.692413 
L 129.602749 24.682642 
L 129.775948 24.8575 
L 130.122378 24.896646 
L 130.46881 25.057101 
L 131.508081 25.498939 
L 137.050895 27.980991 
L 138.090168 28.534219 
L 139.995502 29.542356 
L 140.688362 29.909095 
L 141.55442 30.412095 
L 146.924037 33.726516 
L 147.616894 34.202341 
L 147.963308 34.399467 
L 151.081146 36.66963 
L 151.773988 37.193547 
L 154.025766 38.949818 
L 154.718611 39.557705 
L 155.238253 39.946989 
L 155.584686 40.348222 
L 155.757899 40.386924 
L 156.104313 40.690809 
L 156.450743 41.010725 
L 159.741795 44.096476 
L 160.088209 44.364832 
L 160.607853 44.912784 
L 161.647127 45.928735 
L 162.339987 46.673242 
L 164.764962 49.220358 
L 165.457822 49.986268 
L 169.268503 54.430716 
L 174.811319 61.678856 
L 177.236295 65.176763 
L 178.102369 66.482282 
L 178.621999 67.244057 
L 186.416574 80.081635 
L 189.880839 86.457994 
L 190.573699 87.716647 
L 191.266543 89.14135 
L 192.132618 90.77738 
L 193.864735 94.293454 
L 194.38438 95.319218 
L 200.620036 108.571267 
L 200.966467 108.977407 
L 201.486111 109.223323 
L 202.005757 109.265029 
L 202.525384 109.285226 
L 202.6986 109.221483 
L 203.045031 109.258303 
L 204.950362 109.238582 
L 205.296792 109.29028 
L 206.682496 109.237927 
L 207.202139 109.310604 
L 207.375355 109.243869 
L 207.548554 109.296995 
L 208.068199 109.215075 
L 208.414628 109.240909 
L 208.587843 109.300495 
L 208.761043 109.216736 
L 208.934257 109.313226 
L 209.453903 109.240348 
L 209.627115 109.293199 
L 209.800323 109.182855 
L 210.146756 109.279716 
L 210.493183 109.26119 
L 211.186035 109.251546 
L 211.705672 109.325863 
L 212.052096 109.234839 
L 212.57174 109.27389 
L 214.13065 109.270506 
L 214.823503 109.302916 
L 215.689568 109.233052 
L 216.035989 109.288165 
L 217.075272 109.282571 
L 220.019892 109.256485 
L 220.193099 109.28604 
L 220.366315 109.197427 
L 220.885952 109.326423 
L 221.059175 109.20062 
L 221.405597 109.255279 
L 222.098446 109.266498 
L 222.791298 109.196856 
L 223.137722 109.267651 
L 224.523423 109.282793 
L 225.389497 109.229827 
L 226.082343 109.27887 
L 226.948411 109.28641 
L 229.546602 109.245836 
L 229.89303 109.268137 
L 230.239454 109.293431 
L 230.585884 109.275709 
L 230.932304 109.23467 
L 231.10552 109.325894 
L 231.451948 109.252614 
L 231.79837 109.299332 
L 231.971587 109.244472 
L 232.144799 109.317572 
L 232.491225 109.265198 
L 232.837646 109.261169 
L 234.742994 109.262438 
L 234.91621 109.317287 
L 234.91621 109.317287 
" clip-path="url(#p64ecbd46b4)" style="fill: none; stroke: #3b4cc0; stroke-opacity: 0.5; stroke-width: 1.5; stroke-linecap: square"/>
   </g>
   <g id="line2d_46">
    <path d="M 60.031466 14.002347 
L 62.110015 14.135139 
L 62.629674 14.094364 
L 62.976073 14.121942 
L 63.149304 14.04604 
L 63.668931 14.143345 
L 63.842162 14.076515 
L 64.534991 14.218021 
L 65.920711 14.195476 
L 66.26714 14.259218 
L 66.959969 14.18137 
L 67.1332 14.349312 
L 67.479628 14.18579 
L 67.999257 14.277787 
L 68.172457 14.189385 
L 68.518885 14.307564 
L 68.865316 14.299274 
L 69.904604 14.309891 
L 70.251037 14.314543 
L 70.770665 14.350094 
L 70.943893 14.282947 
L 71.290324 14.485679 
L 71.809954 14.347218 
L 72.329583 14.561475 
L 73.368873 14.463071 
L 73.542072 14.503274 
L 73.715302 14.424622 
L 73.888501 14.510867 
L 74.23493 14.427943 
L 74.40816 14.599416 
L 74.754561 14.521251 
L 75.793849 14.623949 
L 75.967047 14.54094 
L 76.486707 14.631478 
L 76.659906 14.666457 
L 76.833137 14.582878 
L 77.179536 14.634185 
L 77.352768 14.590661 
L 77.699196 14.771503 
L 77.872396 14.633275 
L 78.392025 14.750798 
L 78.565255 14.653853 
L 78.911685 14.80661 
L 79.258115 14.729798 
L 79.604544 14.883802 
L 80.124174 14.804051 
L 80.297374 14.761796 
L 80.470602 14.865593 
L 80.643804 14.765222 
L 80.817032 14.876887 
L 81.509876 14.798129 
L 81.683075 14.972437 
L 81.856291 14.835414 
L 82.549151 14.995637 
L 83.241995 14.897824 
L 83.588425 15.128281 
L 84.108069 15.01871 
L 84.281269 15.01742 
L 84.454483 15.151883 
L 84.800914 15.1047 
L 85.320557 15.159095 
L 85.493773 15.048064 
L 86.013402 15.208731 
L 86.359832 15.115169 
L 87.052692 15.31035 
L 87.745549 15.209704 
L 87.918766 15.321644 
L 88.09198 15.183733 
L 88.438396 15.304175 
L 92.768718 15.687283 
L 93.115149 15.681954 
L 93.461578 15.764878 
L 93.807993 15.716257 
L 93.981209 15.816882 
L 94.154423 15.750793 
L 94.327638 15.899404 
L 94.50085 15.754219 
L 94.674065 15.8927 
L 95.713339 15.929224 
L 97.099045 16.052732 
L 97.272259 16.000812 
L 97.618672 16.133647 
L 97.965103 16.153273 
L 107.491827 17.317381 
L 107.838258 17.384169 
L 108.011458 17.336627 
L 108.184673 17.505118 
L 108.357886 17.432811 
L 108.704315 17.488474 
L 109.050745 17.518674 
L 109.223961 17.636769 
L 109.397159 17.592272 
L 109.743588 17.656987 
L 110.090018 17.66625 
L 110.43645 17.833282 
L 110.609649 17.750041 
L 111.475724 17.957108 
L 118.231024 19.10694 
L 118.577438 19.219473 
L 119.097083 19.389846 
L 119.270297 19.351229 
L 119.616713 19.487638 
L 120.136357 19.63534 
L 120.656002 19.610364 
L 120.829217 19.797466 
L 121.695274 19.91298 
L 122.041706 19.982115 
L 122.56135 20.09636 
L 122.734565 20.227778 
L 122.90778 20.126138 
L 123.427424 20.391173 
L 124.120268 20.496747 
L 124.293484 20.646903 
L 124.466699 20.575484 
L 124.813126 20.745286 
L 124.986326 20.6903 
L 125.332758 20.863613 
L 131.222001 22.619715 
L 131.56843 22.800452 
L 131.914845 22.775496 
L 132.261274 22.96924 
L 133.993404 23.538414 
L 134.339821 23.687026 
L 134.686249 23.770013 
L 139.882651 25.921934 
L 140.055865 26.063503 
L 140.22908 26.039478 
L 141.441569 26.58541 
L 142.134427 26.837989 
L 142.307627 27.016865 
L 142.480843 27.032028 
L 143.1737 27.445823 
L 143.346902 27.564192 
L 143.693331 27.583882 
L 144.039759 27.878504 
L 145.079034 28.407327 
L 145.425465 28.562093 
L 145.598679 28.614457 
L 145.771892 28.789991 
L 145.945109 28.787686 
L 146.984381 29.501792 
L 147.157581 29.512557 
L 147.330797 29.713871 
L 147.677227 29.772918 
L 150.275418 31.289025 
L 150.621847 31.61334 
L 151.661122 32.168493 
L 151.834336 32.388735 
L 152.180765 32.515501 
L 152.353981 32.693699 
L 152.52718 32.671451 
L 152.87361 33.034405 
L 153.046825 33.065472 
L 153.739685 33.703359 
L 153.912898 33.645136 
L 154.086113 33.919858 
L 154.25933 33.892174 
L 154.432545 34.144266 
L 154.605744 34.169264 
L 155.471817 34.810006 
L 155.645018 34.869412 
L 155.991445 35.200432 
L 157.03072 36.06702 
L 157.377148 36.314671 
L 162.919979 41.002234 
L 163.439608 41.593741 
L 163.786038 41.820773 
L 164.47888 42.438779 
L 164.825313 42.795304 
L 164.998527 42.930634 
L 165.344956 43.334352 
L 170.021694 48.342212 
L 171.234199 49.796702 
L 171.580613 50.237197 
L 172.100258 50.872324 
L 173.139531 52.07893 
L 173.485961 52.594313 
L 178.509132 59.45282 
L 179.201976 60.476997 
L 180.934124 63.138136 
L 181.280536 63.768367 
L 181.800183 64.542239 
L 185.091233 70.091865 
L 185.610863 71.040341 
L 190.807261 80.939732 
L 192.019749 83.525486 
L 192.192965 83.780994 
L 192.712594 84.978422 
L 194.617943 89.162107 
L 195.3108 90.698696 
L 202.239317 107.377763 
L 202.932162 108.492552 
L 203.105378 108.618672 
L 203.451805 108.95979 
L 204.144653 109.122497 
L 204.317868 108.899949 
L 204.49108 109.064571 
L 205.18394 109.110664 
L 205.35714 109.153395 
L 205.530353 109.046753 
L 205.703569 109.134658 
L 206.049998 109.051036 
L 206.223212 109.003335 
L 206.396429 109.108571 
L 206.569644 109.042069 
L 206.742845 109.13249 
L 206.916055 108.996906 
L 207.089273 109.162584 
L 207.608918 109.039943 
L 207.782133 109.126568 
L 207.955348 108.943674 
L 208.128546 109.112769 
L 209.687471 109.118362 
L 209.860686 109.181481 
L 210.033901 108.999507 
L 211.419598 109.165788 
L 211.766021 109.047736 
L 212.458871 109.147061 
L 212.632087 109.048561 
L 212.978516 109.145602 
L 213.498153 109.026842 
L 214.01779 109.138052 
L 214.883857 109.105197 
L 215.230278 109.108698 
L 215.92313 109.065734 
L 216.096343 109.170515 
L 217.135626 108.998957 
L 217.308834 109.119251 
L 217.482048 109.007416 
L 218.348115 109.105726 
L 218.521331 108.965077 
L 219.040976 109.190596 
L 219.214181 108.972838 
L 219.38739 109.111891 
L 219.907033 109.06253 
L 220.773098 109.069435 
L 220.946314 108.967498 
L 221.292744 109.087115 
L 221.812375 109.089029 
L 221.985588 109.0165 
L 222.332009 109.147347 
L 222.851656 109.06308 
L 223.717715 109.074447 
L 224.757003 109.071465 
L 224.93021 109.031293 
L 225.27663 109.113202 
L 225.62306 109.178192 
L 225.796279 109.039393 
L 226.142696 109.115856 
L 226.48912 109.068314 
L 226.662337 109.156885 
L 227.008774 109.005936 
L 227.701615 109.047039 
L 227.874824 108.990053 
L 228.221253 109.184621 
L 228.914104 109.018107 
L 229.087318 109.028819 
L 229.260534 109.182454 
L 229.606958 109.059738 
L 229.780171 109.165884 
L 230.646238 109.082801 
L 230.819444 109.158894 
L 231.165876 109.068864 
L 231.858727 109.135271 
L 232.031941 109.202175 
L 232.378365 109.038706 
L 233.071223 109.159095 
L 233.071223 109.159095 
" clip-path="url(#p64ecbd46b4)" style="fill: none; stroke: #688aef; stroke-opacity: 0.5; stroke-width: 1.5; stroke-linecap: square"/>
   </g>
   <g id="line2d_47">
    <path d="M 58.092649 13.874693 
L 60.171195 13.99873 
L 60.690824 13.958019 
L 61.037254 13.98105 
L 61.383683 13.959499 
L 61.730114 14.001353 
L 61.903344 13.94165 
L 62.596173 14.073258 
L 63.981893 14.044158 
L 64.328321 14.10238 
L 65.02115 14.025145 
L 65.194381 14.180715 
L 65.540809 14.031109 
L 65.887209 14.070424 
L 66.06044 14.112785 
L 66.233637 14.031215 
L 66.580068 14.133616 
L 66.926499 14.130698 
L 67.965786 14.135118 
L 68.312216 14.143345 
L 68.831845 14.173841 
L 69.005077 14.103691 
L 69.351505 14.292591 
L 69.871132 14.16737 
L 70.390762 14.365343 
L 71.430051 14.26404 
L 71.60325 14.307607 
L 71.776483 14.228384 
L 71.94968 14.312577 
L 72.296111 14.230266 
L 72.469309 14.387337 
L 72.815741 14.318837 
L 73.855031 14.394253 
L 74.02823 14.327127 
L 74.547889 14.411616 
L 75.240718 14.409712 
L 75.41395 14.376467 
L 75.760377 14.524994 
L 75.933577 14.406456 
L 76.453206 14.506024 
L 76.626437 14.425066 
L 76.972866 14.555871 
L 77.319297 14.492467 
L 77.665696 14.625154 
L 78.012124 14.525269 
L 78.531784 14.606543 
L 78.704984 14.518692 
L 78.878213 14.615553 
L 79.571044 14.538719 
L 79.744274 14.692047 
L 79.917472 14.584126 
L 80.610331 14.711864 
L 81.303191 14.627523 
L 81.649605 14.83055 
L 82.342449 14.719541 
L 82.515665 14.848569 
L 82.862095 14.802147 
L 83.38174 14.848125 
L 83.554937 14.743481 
L 84.074583 14.886636 
L 84.594227 14.859566 
L 85.979947 14.986374 
L 86.153161 14.863965 
L 86.499576 14.959895 
L 88.058496 15.106646 
L 88.404923 15.035375 
L 88.751352 15.135387 
L 89.097766 15.146236 
L 89.270983 15.220405 
L 89.444197 15.120731 
L 89.790625 15.232185 
L 91.003117 15.250542 
L 92.388819 15.473343 
L 92.562035 15.335517 
L 92.908446 15.450904 
L 93.947736 15.501873 
L 94.640582 15.587588 
L 94.813796 15.511876 
L 95.160224 15.586531 
L 95.333425 15.544826 
L 95.679856 15.657802 
L 96.199498 15.691026 
L 96.719129 15.694791 
L 96.892343 15.790573 
L 97.238773 15.743814 
L 97.585204 15.847252 
L 97.758417 15.772935 
L 98.278047 15.853512 
L 98.797691 15.968497 
L 100.01018 16.110405 
L 100.35661 16.005423 
L 101.049454 16.146358 
L 101.915514 16.247448 
L 102.435158 16.365839 
L 102.781602 16.290084 
L 103.128032 16.382081 
L 104.686934 16.534203 
L 105.206579 16.595831 
L 106.072637 16.651494 
L 106.245853 16.808311 
L 106.419068 16.734058 
L 106.765498 16.788833 
L 107.11191 16.815227 
L 107.285127 16.916614 
L 107.458342 16.869769 
L 107.804771 16.928203 
L 108.151202 16.937403 
L 108.497617 17.084513 
L 108.670832 17.010133 
L 109.710103 17.213858 
L 110.229749 17.24482 
L 111.095807 17.409864 
L 111.269021 17.336479 
L 111.788667 17.492704 
L 112.135095 17.466183 
L 112.48151 17.574317 
L 112.82794 17.607562 
L 113.174368 17.750887 
L 113.5208 17.751331 
L 113.867215 17.850497 
L 114.040429 17.75425 
L 114.213644 17.887042 
L 114.560073 17.882136 
L 115.599347 18.086453 
L 117.331466 18.345186 
L 117.677894 18.463048 
L 118.197538 18.585985 
L 118.717167 18.558005 
L 118.890383 18.724932 
L 120.10287 18.86758 
L 121.142175 19.094463 
L 121.488589 19.211013 
L 122.181449 19.299182 
L 122.354664 19.432736 
L 122.527879 19.368592 
L 123.567154 19.660803 
L 123.913568 19.731017 
L 125.29927 20.041268 
L 125.645699 20.188907 
L 125.818916 20.11201 
L 125.992129 20.311633 
L 126.165344 20.209717 
L 127.031402 20.444087 
L 127.204618 20.596886 
L 127.551048 20.58352 
L 128.417109 20.871692 
L 128.763537 20.96206 
L 129.629596 21.245516 
L 129.976027 21.211107 
L 130.322456 21.382771 
L 131.534944 21.617014 
L 131.708143 21.794071 
L 132.054572 21.856142 
L 132.574216 21.977324 
L 133.959922 22.484448 
L 134.306352 22.578412 
L 135.865254 23.010712 
L 136.038467 23.217144 
L 136.384899 23.323078 
L 139.67595 24.450514 
L 140.022378 24.608135 
L 140.195593 24.620296 
L 140.542023 24.792742 
L 141.408083 25.242363 
L 141.754513 25.253657 
L 142.100941 25.507462 
L 143.140216 25.954038 
L 143.486644 26.086449 
L 144.006274 26.270041 
L 145.391978 27.060769 
L 145.738409 27.098689 
L 148.336599 28.377084 
L 148.68303 28.656987 
L 149.722302 29.122723 
L 150.068716 29.351171 
L 150.761579 29.752425 
L 154.918686 32.256577 
L 155.43833 32.641758 
L 157.343663 33.962134 
L 157.690095 34.156025 
L 158.382953 34.600845 
L 158.729367 34.938632 
L 160.115087 35.942919 
L 161.154361 36.819194 
L 161.327573 36.896048 
L 161.500788 37.13782 
L 161.847219 37.325599 
L 162.366849 37.644754 
L 162.886494 38.15247 
L 163.059708 38.265447 
L 163.406122 38.612264 
L 169.122165 43.906709 
L 169.81501 44.746946 
L 169.988224 44.817847 
L 170.507868 45.416979 
L 171.027497 45.928322 
L 171.720357 46.740855 
L 174.838179 50.298697 
L 176.223882 52.057401 
L 177.436371 53.559433 
L 178.475659 54.976966 
L 181.766697 59.574319 
L 182.28634 60.386037 
L 183.325615 61.905749 
L 184.364889 63.580186 
L 187.309508 68.431355 
L 188.175583 69.990838 
L 188.521996 70.571538 
L 193.371966 79.721547 
L 195.62373 84.380602 
L 195.970159 85.11095 
L 202.379047 99.886159 
L 202.898676 101.308704 
L 203.764752 103.606308 
L 204.284381 104.83751 
L 204.804026 106.320529 
L 204.977238 106.652627 
L 205.49687 108.072962 
L 206.53614 110.336981 
L 206.882572 110.755302 
L 207.229003 110.987737 
L 207.748645 111.088912 
L 207.921861 111.146204 
L 208.095062 110.982989 
L 209.480772 111.136391 
L 209.827202 111.026809 
L 210.520053 111.120127 
L 210.693258 111.024948 
L 211.039689 111.11576 
L 211.559326 111.014056 
L 212.252178 111.090022 
L 212.771816 111.112556 
L 213.637881 111.05979 
L 213.811089 111.140473 
L 213.984305 111.04689 
L 214.330733 111.112228 
L 214.85037 111.003937 
L 215.023584 111.094696 
L 215.196801 110.98448 
L 215.370016 111.093152 
L 215.543229 110.99406 
L 216.40929 111.083879 
L 216.582504 110.953539 
L 217.10214 111.149577 
L 217.275355 110.957981 
L 217.448562 111.088278 
L 217.968207 111.04763 
L 218.834266 111.051278 
L 219.007488 110.962739 
L 219.35391 111.067446 
L 220.912821 111.047831 
L 221.605678 111.005777 
L 221.952102 111.066822 
L 222.125317 110.999961 
L 222.471739 111.044383 
L 223.684233 111.142112 
L 223.857452 111.021628 
L 224.203873 111.085824 
L 224.550294 111.050252 
L 224.72351 111.128968 
L 225.069937 110.992453 
L 225.762789 111.031049 
L 225.935997 110.977162 
L 226.282427 111.15166 
L 226.97528 111.002128 
L 227.148496 111.010863 
L 227.321711 111.143677 
L 227.668132 111.045811 
L 228.014553 111.108866 
L 228.187768 111.027613 
L 228.360982 111.13287 
L 228.534196 111.004624 
L 228.880625 111.13656 
L 229.227048 111.043982 
L 231.13239 111.131548 
L 231.13239 111.131548 
" clip-path="url(#p64ecbd46b4)" style="fill: none; stroke: #a2c1ff; stroke-opacity: 0.5; stroke-width: 1.5; stroke-linecap: square"/>
   </g>
   <g id="line2d_48">
    <path d="M 55.87242 13.683361 
L 57.25811 13.731961 
L 58.470601 13.749789 
L 58.817029 13.774237 
L 58.990261 13.684926 
L 59.509887 13.787159 
L 59.683119 13.712271 
L 60.202748 13.854602 
L 60.549177 13.839777 
L 60.722377 13.726695 
L 60.895606 13.861454 
L 61.761665 13.811882 
L 62.108095 13.87776 
L 62.800924 13.768188 
L 62.974154 13.943976 
L 63.320584 13.763134 
L 63.666983 13.817169 
L 63.840212 13.855575 
L 64.013414 13.766348 
L 64.186643 13.892268 
L 65.745562 13.86359 
L 66.091991 13.862808 
L 66.611621 13.894467 
L 66.78485 13.813129 
L 67.13128 14.022628 
L 67.650908 13.866086 
L 68.170539 14.084678 
L 69.209828 13.95288 
L 69.383029 13.999872 
L 69.556258 13.909842 
L 69.729459 14.003425 
L 70.075884 13.896497 
L 70.249085 14.080131 
L 70.422316 13.963179 
L 71.634804 14.080216 
L 71.808003 13.983228 
L 72.327663 14.077636 
L 73.020492 14.051052 
L 73.193723 14.009981 
L 73.540152 14.181264 
L 73.713353 14.046019 
L 74.232979 14.148399 
L 74.406211 14.041683 
L 74.752639 14.180609 
L 75.099068 14.114794 
L 75.445471 14.259959 
L 75.791899 14.140617 
L 76.311558 14.214489 
L 76.484758 14.111791 
L 76.657957 14.21893 
L 76.831188 14.172234 
L 77.177618 14.20899 
L 77.350817 14.120547 
L 77.524048 14.294939 
L 77.697248 14.146433 
L 78.390105 14.291957 
L 79.082965 14.180228 
L 79.429366 14.402035 
L 80.122224 14.263004 
L 80.295454 14.40893 
L 80.641854 14.341571 
L 81.161514 14.391863 
L 81.334712 14.266472 
L 81.854358 14.415084 
L 82.200787 14.30528 
L 82.893646 14.493419 
L 83.586505 14.362551 
L 83.759707 14.471826 
L 83.932919 14.326514 
L 84.279351 14.437396 
L 89.302519 14.730453 
L 89.64895 14.666605 
L 89.822162 14.767337 
L 89.995377 14.68141 
L 90.168594 14.840025 
L 90.341795 14.671364 
L 90.515007 14.805764 
L 92.073924 14.843853 
L 92.420355 14.889428 
L 92.59357 14.79464 
L 92.939985 14.8797 
L 93.113199 14.817628 
L 93.459627 14.933586 
L 93.806059 14.936399 
L 94.672119 15.04669 
L 94.84533 14.941242 
L 96.05782 15.052569 
L 96.404251 15.117242 
L 96.923881 15.161464 
L 97.097095 15.087612 
L 97.789954 15.272769 
L 98.136367 15.13029 
L 98.829226 15.26727 
L 99.522072 15.249167 
L 100.041716 15.429375 
L 100.21493 15.45137 
L 100.561376 15.345542 
L 100.90779 15.446611 
L 101.427435 15.367346 
L 101.60065 15.504643 
L 102.12028 15.535118 
L 102.986352 15.576147 
L 103.332767 15.619163 
L 103.679197 15.667488 
L 103.852413 15.600468 
L 104.025626 15.76492 
L 104.198842 15.671168 
L 104.545271 15.713846 
L 104.718472 15.660276 
L 105.41133 15.833865 
L 106.104175 15.882507 
L 106.277391 15.951198 
L 106.450606 15.845919 
L 106.97025 15.933961 
L 108.182738 16.0746 
L 108.52915 16.119647 
L 109.222009 16.128825 
L 109.568426 16.207372 
L 109.914853 16.159406 
L 110.261284 16.251424 
L 110.607717 16.261428 
L 110.954145 16.420339 
L 111.127344 16.338261 
L 111.64699 16.467247 
L 111.820205 16.350315 
L 111.993419 16.492244 
L 112.339831 16.465745 
L 113.205906 16.604332 
L 115.11124 16.773966 
L 115.284453 16.896459 
L 115.630884 16.950938 
L 116.323728 16.981857 
L 116.496942 16.909106 
L 116.670157 17.087833 
L 117.536216 17.118816 
L 117.882645 17.141065 
L 118.402307 17.216227 
L 118.575519 17.32085 
L 118.748735 17.198103 
L 119.268364 17.418007 
L 119.961224 17.450576 
L 120.134423 17.589692 
L 120.30764 17.49097 
L 121.173711 17.68816 
L 123.59869 18.019031 
L 123.771905 18.216179 
L 123.945105 18.083577 
L 124.811177 18.256425 
L 124.984392 18.425741 
L 125.330823 18.366821 
L 126.196881 18.585604 
L 126.543297 18.65438 
L 127.409372 18.878598 
L 127.755782 18.794215 
L 128.102213 18.950377 
L 129.314702 19.069021 
L 129.487919 19.248066 
L 129.834348 19.273338 
L 130.180777 19.356516 
L 130.527191 19.394647 
L 132.432539 19.97981 
L 132.605754 19.860912 
L 132.778971 19.976172 
L 133.125384 19.975305 
L 133.471812 20.145341 
L 133.64503 20.06026 
L 133.818244 20.269547 
L 134.164671 20.341791 
L 135.723592 20.701784 
L 135.896806 20.818101 
L 136.243234 20.82102 
L 136.589665 20.922132 
L 137.282508 21.0913 
L 137.455723 21.098596 
L 137.628939 21.236359 
L 137.975367 21.213095 
L 138.148583 21.370061 
L 138.321782 21.341848 
L 138.668212 21.540752 
L 138.841426 21.525948 
L 139.187856 21.71047 
L 139.534271 21.665233 
L 139.8807 21.886131 
L 140.919974 22.205497 
L 141.266403 22.291297 
L 141.439619 22.311177 
L 141.612832 22.446508 
L 141.786048 22.407404 
L 143.171753 23.024374 
L 143.518181 23.017501 
L 145.077083 23.593443 
L 145.423515 23.720716 
L 146.982432 24.364503 
L 147.502059 24.478621 
L 147.675275 24.656968 
L 148.021708 24.693005 
L 148.194923 24.831719 
L 148.368134 24.755774 
L 148.714551 25.027937 
L 148.887766 25.018547 
L 149.580625 25.485129 
L 149.75384 25.376023 
L 149.927057 25.613417 
L 150.100271 25.537747 
L 150.273486 25.739548 
L 150.446699 25.713894 
L 151.312758 26.122973 
L 151.485972 26.126717 
L 151.832389 26.359098 
L 152.871675 26.944938 
L 153.044889 26.9505 
L 153.737733 27.360256 
L 154.084164 27.420085 
L 154.257379 27.625037 
L 154.603794 27.751316 
L 155.123439 28.07948 
L 155.469867 28.184674 
L 156.855572 28.955649 
L 157.375199 29.200508 
L 157.548415 29.24786 
L 157.894845 29.524379 
L 158.06806 29.655311 
L 158.241275 29.617772 
L 158.414489 29.903364 
L 158.760905 30.02979 
L 159.280549 30.463952 
L 159.453764 30.446039 
L 159.973406 30.679224 
L 160.319821 30.938866 
L 160.666253 31.170085 
L 160.839466 31.240658 
L 161.01268 31.501781 
L 161.359112 31.657837 
L 162.571599 32.422933 
L 162.918016 32.621519 
L 163.091229 32.856967 
L 163.43766 33.044493 
L 163.784088 33.314477 
L 166.209063 35.068929 
L 166.728694 35.471198 
L 166.901925 35.543104 
L 167.594769 36.245219 
L 167.767983 36.256131 
L 168.287629 36.73591 
L 168.634058 36.985296 
L 168.980472 37.242294 
L 169.326903 37.616922 
L 170.539391 38.635622 
L 170.712607 38.674102 
L 171.059021 39.098789 
L 174.350072 42.228107 
L 174.6965 42.563112 
L 175.908989 43.849449 
L 176.082205 44.182055 
L 176.255419 44.250344 
L 181.625017 50.597623 
L 182.144662 51.240628 
L 183.703566 53.276167 
L 184.396422 54.261358 
L 184.569637 54.44552 
L 184.916067 55.084507 
L 185.435713 55.750616 
L 189.592808 62.239497 
L 194.962408 72.026197 
L 198.426674 79.222618 
L 198.773102 80.099738 
L 199.119517 80.944025 
L 199.812376 82.472102 
L 205.181975 95.872087 
L 206.394481 99.314616 
L 207.087325 101.265582 
L 208.299811 104.845229 
L 208.646242 105.83136 
L 209.512302 108.207869 
L 210.55158 110.292368 
L 211.244425 110.690249 
L 212.803352 110.793148 
L 212.976561 110.667884 
L 213.149773 110.79134 
L 213.322988 110.684317 
L 214.189054 110.780374 
L 214.362269 110.630134 
L 214.881906 110.867919 
L 215.055121 110.642569 
L 215.22833 110.790959 
L 215.401535 110.723769 
L 215.574749 110.789193 
L 215.921179 110.761805 
L 217.999736 110.770159 
L 218.346166 110.75839 
L 219.212224 110.748619 
L 219.385439 110.681134 
L 219.731862 110.75618 
L 219.905075 110.680986 
L 220.251505 110.738542 
L 221.463994 110.84898 
L 221.63721 110.706396 
L 221.983637 110.786539 
L 222.330059 110.749846 
L 222.503275 110.828001 
L 222.849704 110.665928 
L 223.542551 110.716537 
L 223.715766 110.65769 
L 224.062186 110.860263 
L 224.755039 110.684369 
L 224.928255 110.701711 
L 225.101468 110.854045 
L 225.447899 110.725726 
L 225.621104 110.842837 
L 226.487172 110.749201 
L 226.660385 110.837592 
L 227.006815 110.728264 
L 227.699659 110.810416 
L 227.872875 110.873333 
L 228.219296 110.709304 
L 228.912156 110.835889 
L 228.912156 110.835889 
" clip-path="url(#p64ecbd46b4)" style="fill: none; stroke: #dedcdb; stroke-opacity: 0.5; stroke-width: 1.5; stroke-linecap: square"/>
   </g>
   <g id="line2d_49">
    <path d="M 53.606818 13.572225 
L 56.551424 13.630807 
L 56.897853 13.607628 
L 57.244284 13.641994 
L 57.590713 13.636855 
L 58.110342 13.695014 
L 59.49606 13.660965 
L 59.84249 13.702797 
L 60.535321 13.629728 
L 60.708549 13.763959 
L 61.054979 13.616679 
L 61.401377 13.660668 
L 62.094239 13.700851 
L 62.787099 13.642988 
L 67.117423 13.78811 
L 67.290653 13.718595 
L 67.463852 13.787243 
L 67.81028 13.714894 
L 67.983481 13.844831 
L 68.329912 13.781618 
L 69.369201 13.845825 
L 69.715629 13.818438 
L 70.928118 13.794011 
L 71.274546 13.928009 
L 71.447748 13.813277 
L 71.967376 13.897238 
L 72.140607 13.819389 
L 72.487036 13.930082 
L 72.833467 13.865493 
L 73.179863 13.983313 
L 73.699527 13.908383 
L 73.872724 13.868137 
L 74.045953 13.948206 
L 74.219153 13.865028 
L 74.565584 13.913395 
L 74.912014 13.939916 
L 75.085213 13.865049 
L 75.258444 14.004927 
L 75.431642 13.88937 
L 76.124501 14.006301 
L 76.81736 13.908045 
L 77.16376 14.091615 
L 77.68342 13.984243 
L 77.856619 13.973288 
L 78.02985 14.084277 
L 78.376249 14.030242 
L 78.89591 14.064185 
L 79.069108 13.973267 
L 79.761968 14.036925 
L 80.108398 14.043481 
L 81.494115 14.128879 
L 81.667314 14.007126 
L 82.186959 14.105764 
L 82.533391 14.116465 
L 83.053019 14.157599 
L 84.611938 14.192579 
L 84.785154 14.247946 
L 84.958367 14.158741 
L 85.304797 14.250442 
L 86.170855 14.255814 
L 87.902987 14.386491 
L 88.076188 14.259451 
L 88.422618 14.353076 
L 89.46189 14.36272 
L 90.154752 14.416692 
L 90.327965 14.345442 
L 90.674382 14.403135 
L 91.02081 14.423163 
L 92.060082 14.519199 
L 92.233298 14.439109 
L 92.406512 14.526369 
L 92.752943 14.471065 
L 93.099372 14.546608 
L 93.445785 14.51664 
L 93.619002 14.589519 
L 93.965431 14.525438 
L 94.485061 14.6249 
L 95.351133 14.611492 
L 95.524349 14.687627 
L 95.870766 14.582011 
L 96.563622 14.682488 
L 97.256466 14.659669 
L 97.776112 14.795887 
L 98.122559 14.728212 
L 99.161831 14.74181 
L 99.508261 14.832707 
L 99.854674 14.878875 
L 103.838572 15.119293 
L 104.011786 15.161823 
L 104.358216 15.127562 
L 105.397489 15.185319 
L 105.743918 15.216365 
L 106.609978 15.308616 
L 106.783194 15.230493 
L 107.302836 15.336469 
L 107.649252 15.298042 
L 107.99568 15.369482 
L 108.342112 15.376778 
L 108.68854 15.496755 
L 109.034955 15.46537 
L 109.381384 15.531608 
L 109.5546 15.43426 
L 109.727812 15.546898 
L 110.074227 15.524163 
L 111.45993 15.660445 
L 111.80636 15.627475 
L 112.152792 15.68648 
L 112.67242 15.782558 
L 112.845637 15.737913 
L 113.192064 15.814471 
L 113.711709 15.891622 
L 114.231337 15.827647 
L 114.577766 15.953228 
L 114.924197 15.942167 
L 118.388464 16.342173 
L 118.561678 16.276422 
L 119.081322 16.405662 
L 119.600952 16.447811 
L 121.333086 16.60171 
L 121.5063 16.762694 
L 121.852715 16.67205 
L 122.199144 16.749158 
L 123.584848 17.00235 
L 124.104491 17.001462 
L 124.624121 17.09016 
L 126.702685 17.394722 
L 126.875899 17.271446 
L 127.915171 17.551751 
L 128.261587 17.57603 
L 137.961528 19.3507 
L 138.307955 19.502315 
L 138.48117 19.469471 
L 139.000801 19.611379 
L 139.693659 19.752144 
L 148.527508 22.156157 
L 148.873938 22.265813 
L 149.566798 22.469348 
L 151.298917 23.127749 
L 152.33819 23.447369 
L 152.857836 23.678249 
L 153.204265 23.755125 
L 154.589966 24.294479 
L 158.573861 25.896048 
L 158.747078 26.086809 
L 159.093505 26.183966 
L 160.305996 26.727487 
L 160.652423 26.864763 
L 160.99884 27.063222 
L 162.384544 27.78509 
L 163.770247 28.4628 
L 164.46309 28.86913 
L 164.809534 29.06006 
L 165.155963 29.275734 
L 165.329181 29.420137 
L 165.502379 29.410536 
L 166.022025 29.75306 
L 166.541653 30.012914 
L 167.927358 30.819863 
L 168.273786 31.088641 
L 168.447003 31.108838 
L 168.793432 31.419661 
L 170.871979 32.804096 
L 173.643386 34.755146 
L 173.989831 35.036741 
L 176.241593 36.813928 
L 176.588007 37.083595 
L 182.47725 42.445843 
L 183.170109 43.10767 
L 187.846847 48.318864 
L 188.193279 48.724633 
L 188.539709 49.141632 
L 191.65753 53.111271 
L 192.350388 54.074763 
L 195.121796 58.045618 
L 198.412846 63.224306 
L 198.932476 64.196374 
L 199.278905 64.761646 
L 199.79855 65.552649 
L 200.31818 66.563683 
L 200.491395 66.76191 
L 200.837824 67.448227 
L 202.916372 71.263185 
L 204.128874 73.689911 
L 204.821719 75.059458 
L 206.034208 77.56454 
L 206.380636 78.253109 
L 208.632413 83.202736 
L 209.498467 85.109988 
L 210.01811 86.30676 
L 212.269881 91.76994 
L 212.616301 92.733739 
L 212.789517 92.991911 
L 213.482362 94.846788 
L 217.985909 107.2308 
L 220.23767 113.773917 
L 220.930524 114.975479 
L 221.796589 115.413521 
L 222.662648 115.29842 
L 222.835869 115.424402 
L 223.182292 115.324961 
L 223.528724 115.390935 
L 223.701932 115.311564 
L 223.875144 115.408837 
L 224.048359 115.294179 
L 224.567998 115.331613 
L 225.434064 115.383321 
L 225.607277 115.440084 
L 225.953699 115.310654 
L 226.646551 115.405569 
L 226.646551 115.405569 
" clip-path="url(#p64ecbd46b4)" style="fill: none; stroke: #f5a081; stroke-opacity: 0.5; stroke-width: 1.5; stroke-linecap: square"/>
   </g>
   <g id="line2d_50">
    <path d="M 134.203458 15.250119 
L 149.099765 16.616641 
L 149.792623 16.718874 
L 151.697957 16.93772 
L 151.871173 17.000024 
L 152.217602 16.977501 
L 153.083662 17.135481 
L 153.603303 17.201 
L 153.949735 17.233167 
L 154.469363 17.259053 
L 154.642579 17.338847 
L 154.815793 17.295344 
L 155.335438 17.434249 
L 156.374712 17.532442 
L 157.067555 17.664579 
L 158.280045 17.831527 
L 158.972904 17.958461 
L 159.492533 18.057395 
L 159.838964 18.072558 
L 160.705037 18.213789 
L 164.169302 18.857344 
L 164.515716 18.857449 
L 165.381792 19.100236 
L 165.555004 19.067879 
L 166.074636 19.21353 
L 166.594278 19.298907 
L 167.633553 19.545987 
L 167.979985 19.571598 
L 168.499612 19.757347 
L 168.672828 19.705469 
L 169.019255 19.834624 
L 170.058533 20.045434 
L 178.026321 22.066572 
L 178.545965 22.257163 
L 178.892396 22.27901 
L 179.585254 22.513168 
L 179.75847 22.512766 
L 180.278099 22.751958 
L 181.490589 23.069971 
L 182.356662 23.418945 
L 182.703077 23.494298 
L 183.222722 23.630072 
L 183.742364 23.8401 
L 184.435209 24.064953 
L 185.128071 24.29947 
L 186.340559 24.710284 
L 188.072677 25.307459 
L 190.844083 26.423073 
L 192.056569 26.918904 
L 192.74943 27.18764 
L 194.135135 27.82153 
L 195.520836 28.404726 
L 201.410079 31.282046 
L 201.756509 31.507639 
L 201.929709 31.520434 
L 202.102923 31.713839 
L 202.449352 31.802008 
L 202.795784 32.010111 
L 204.181488 32.830193 
L 204.701116 33.067418 
L 205.740408 33.709788 
L 206.086819 33.82564 
L 206.606463 34.165246 
L 207.645738 34.709401 
L 207.992166 34.966527 
L 210.070723 36.27083 
L 210.59036 36.589054 
L 210.936781 36.783812 
L 211.629634 37.281377 
L 216.306396 40.37507 
L 216.999246 40.943642 
L 217.865306 41.490324 
L 218.384951 41.929075 
L 219.25101 42.58167 
L 219.94386 43.11099 
L 220.29029 43.329297 
L 226.872373 48.63123 
L 231.029487 52.221705 
L 231.722341 52.887782 
L 239.170494 59.871796 
L 239.516923 60.25021 
L 248.523996 69.577666 
L 248.870418 70.001465 
L 249.043633 70.122414 
L 249.390061 70.558881 
L 253.547164 75.169833 
L 254.759661 76.581909 
L 257.011432 79.136141 
L 258.397134 80.771653 
L 259.782838 82.41406 
L 269.655978 94.37954 
L 270.522034 95.489179 
L 271.388102 96.575915 
L 271.734531 96.974483 
L 272.080954 97.400248 
L 274.852361 100.951418 
L 275.372001 101.564857 
L 276.411276 102.590536 
L 277.623768 103.042304 
L 279.009471 103.282849 
L 279.529113 103.402413 
L 280.048747 103.346739 
L 281.954092 103.409149 
L 282.127302 103.295538 
L 282.473729 103.395149 
L 282.820155 103.373439 
L 283.686222 103.403851 
L 287.496905 103.387535 
L 288.016542 103.347088 
L 288.362968 103.400372 
L 289.229035 103.423287 
L 290.095096 103.368903 
L 290.441523 103.418275 
L 290.961164 103.349806 
L 291.134375 103.411401 
L 291.307589 103.335478 
L 291.480801 103.405332 
L 291.827225 103.36645 
L 292.520078 103.404782 
L 292.693289 103.313345 
L 293.21293 103.444467 
L 293.386146 103.316666 
L 293.732571 103.376062 
L 294.425423 103.384669 
L 295.118275 103.313219 
L 295.464701 103.383633 
L 296.850404 103.398987 
L 297.716466 103.345439 
L 298.409318 103.391204 
L 299.621812 103.414732 
L 300.31466 103.403788 
L 301.180723 103.337265 
L 302.739643 103.431165 
L 303.259285 103.351159 
L 303.432495 103.442511 
L 303.778923 103.365022 
L 304.125346 103.415864 
L 304.298559 103.361015 
L 304.47177 103.4331 
L 304.644983 103.345682 
L 305.164625 103.376094 
L 307.243182 103.42832 
L 307.243182 103.42832 
" clip-path="url(#p64ecbd46b4)" style="fill: none; stroke: #b40426; stroke-opacity: 0.5; stroke-width: 1.5; stroke-linecap: square"/>
   </g>
  </g>
 </g>
 <defs>
  <clipPath id="p64ecbd46b4">
   <rect x="40.925" y="7.2" width="279" height="138.6"/>
  </clipPath>
 </defs>
</svg>
