<?xml version="1.0" encoding="utf-8" standalone="no"?>
<!DOCTYPE svg PUBLIC "-//W3C//DTD SVG 1.1//EN"
  "http://www.w3.org/Graphics/SVG/1.1/DTD/svg11.dtd">
<svg xmlns:xlink="http://www.w3.org/1999/xlink" width="329.98125pt" height="325.755469pt" viewBox="0 0 329.98125 325.755469" xmlns="http://www.w3.org/2000/svg" version="1.1">
 <metadata>
  <rdf:RDF xmlns:dc="http://purl.org/dc/elements/1.1/" xmlns:cc="http://creativecommons.org/ns#" xmlns:rdf="http://www.w3.org/1999/02/22-rdf-syntax-ns#">
   <cc:Work>
    <dc:type rdf:resource="http://purl.org/dc/dcmitype/StillImage"/>
    <dc:date>2025-06-19T15:58:38.778460</dc:date>
    <dc:format>image/svg+xml</dc:format>
    <dc:creator>
     <cc:Agent>
      <dc:title>Matplotlib v3.7.1, https://matplotlib.org/</dc:title>
     </cc:Agent>
    </dc:creator>
   </cc:Work>
  </rdf:RDF>
 </metadata>
 <defs>
  <style type="text/css">*{stroke-linejoin: round; stroke-linecap: butt}</style>
 </defs>
 <g id="figure_1">
  <g id="patch_1">
   <path d="M 0 325.755469 
L 329.98125 325.755469 
L 329.98125 0 
L 0 0 
z
" style="fill: #ffffff"/>
  </g>
  <g id="axes_1">
   <g id="patch_2">
    <path d="M 43.78125 136.999219 
L 322.78125 136.999219 
L 322.78125 10.999219 
L 43.78125 10.999219 
z
" style="fill: #ffffff"/>
   </g>
   <g id="matplotlib.axis_1">
    <g id="xtick_1">
     <g id="line2d_1">
      <defs>
       <path id="m9e874ad4a4" d="M 0 0 
L 0 3.5 
" style="stroke: #000000; stroke-width: 0.8"/>
      </defs>
      <g>
       <use xlink:href="#m9e874ad4a4" x="43.78125" y="136.999219" style="stroke: #000000; stroke-width: 0.8"/>
      </g>
     </g>
    </g>
    <g id="xtick_2">
     <g id="line2d_2">
      <g>
       <use xlink:href="#m9e874ad4a4" x="156.41199" y="136.999219" style="stroke: #000000; stroke-width: 0.8"/>
      </g>
     </g>
    </g>
    <g id="xtick_3">
     <g id="line2d_3">
      <g>
       <use xlink:href="#m9e874ad4a4" x="269.04273" y="136.999219" style="stroke: #000000; stroke-width: 0.8"/>
      </g>
     </g>
    </g>
    <g id="xtick_4">
     <g id="line2d_4">
      <defs>
       <path id="mb3d4d69536" d="M 0 0 
L 0 2 
" style="stroke: #000000; stroke-width: 0.6"/>
      </defs>
      <g>
       <use xlink:href="#mb3d4d69536" x="77.686481" y="136.999219" style="stroke: #000000; stroke-width: 0.6"/>
      </g>
     </g>
    </g>
    <g id="xtick_5">
     <g id="line2d_5">
      <g>
       <use xlink:href="#mb3d4d69536" x="97.51977" y="136.999219" style="stroke: #000000; stroke-width: 0.6"/>
      </g>
     </g>
    </g>
    <g id="xtick_6">
     <g id="line2d_6">
      <g>
       <use xlink:href="#mb3d4d69536" x="111.591712" y="136.999219" style="stroke: #000000; stroke-width: 0.6"/>
      </g>
     </g>
    </g>
    <g id="xtick_7">
     <g id="line2d_7">
      <g>
       <use xlink:href="#mb3d4d69536" x="122.506759" y="136.999219" style="stroke: #000000; stroke-width: 0.6"/>
      </g>
     </g>
    </g>
    <g id="xtick_8">
     <g id="line2d_8">
      <g>
       <use xlink:href="#mb3d4d69536" x="131.425001" y="136.999219" style="stroke: #000000; stroke-width: 0.6"/>
      </g>
     </g>
    </g>
    <g id="xtick_9">
     <g id="line2d_9">
      <g>
       <use xlink:href="#mb3d4d69536" x="138.965268" y="136.999219" style="stroke: #000000; stroke-width: 0.6"/>
      </g>
     </g>
    </g>
    <g id="xtick_10">
     <g id="line2d_10">
      <g>
       <use xlink:href="#mb3d4d69536" x="145.496944" y="136.999219" style="stroke: #000000; stroke-width: 0.6"/>
      </g>
     </g>
    </g>
    <g id="xtick_11">
     <g id="line2d_11">
      <g>
       <use xlink:href="#mb3d4d69536" x="151.25829" y="136.999219" style="stroke: #000000; stroke-width: 0.6"/>
      </g>
     </g>
    </g>
    <g id="xtick_12">
     <g id="line2d_12">
      <g>
       <use xlink:href="#mb3d4d69536" x="190.317221" y="136.999219" style="stroke: #000000; stroke-width: 0.6"/>
      </g>
     </g>
    </g>
    <g id="xtick_13">
     <g id="line2d_13">
      <g>
       <use xlink:href="#mb3d4d69536" x="210.15051" y="136.999219" style="stroke: #000000; stroke-width: 0.6"/>
      </g>
     </g>
    </g>
    <g id="xtick_14">
     <g id="line2d_14">
      <g>
       <use xlink:href="#mb3d4d69536" x="224.222452" y="136.999219" style="stroke: #000000; stroke-width: 0.6"/>
      </g>
     </g>
    </g>
    <g id="xtick_15">
     <g id="line2d_15">
      <g>
       <use xlink:href="#mb3d4d69536" x="235.137499" y="136.999219" style="stroke: #000000; stroke-width: 0.6"/>
      </g>
     </g>
    </g>
    <g id="xtick_16">
     <g id="line2d_16">
      <g>
       <use xlink:href="#mb3d4d69536" x="244.055741" y="136.999219" style="stroke: #000000; stroke-width: 0.6"/>
      </g>
     </g>
    </g>
    <g id="xtick_17">
     <g id="line2d_17">
      <g>
       <use xlink:href="#mb3d4d69536" x="251.596008" y="136.999219" style="stroke: #000000; stroke-width: 0.6"/>
      </g>
     </g>
    </g>
    <g id="xtick_18">
     <g id="line2d_18">
      <g>
       <use xlink:href="#mb3d4d69536" x="258.127684" y="136.999219" style="stroke: #000000; stroke-width: 0.6"/>
      </g>
     </g>
    </g>
    <g id="xtick_19">
     <g id="line2d_19">
      <g>
       <use xlink:href="#mb3d4d69536" x="263.88903" y="136.999219" style="stroke: #000000; stroke-width: 0.6"/>
      </g>
     </g>
    </g>
    <g id="xtick_20">
     <g id="line2d_20">
      <g>
       <use xlink:href="#mb3d4d69536" x="302.947961" y="136.999219" style="stroke: #000000; stroke-width: 0.6"/>
      </g>
     </g>
    </g>
    <g id="xtick_21">
     <g id="line2d_21">
      <g>
       <use xlink:href="#mb3d4d69536" x="322.78125" y="136.999219" style="stroke: #000000; stroke-width: 0.6"/>
      </g>
     </g>
    </g>
   </g>
   <g id="matplotlib.axis_2">
    <g id="ytick_1">
     <g id="line2d_22">
      <defs>
       <path id="md5d250f58d" d="M 0 0 
L -3.5 0 
" style="stroke: #000000; stroke-width: 0.8"/>
      </defs>
      <g>
       <use xlink:href="#md5d250f58d" x="43.78125" y="122.999219" style="stroke: #000000; stroke-width: 0.8"/>
      </g>
     </g>
     <g id="text_1">
      <!-- 40 -->
      <g transform="translate(24.05625 126.798438) scale(0.1 -0.1)">
       <defs>
        <path id="DejaVuSans-34" d="M 2419 4116 
L 825 1625 
L 2419 1625 
L 2419 4116 
z
M 2253 4666 
L 3047 4666 
L 3047 1625 
L 3713 1625 
L 3713 1100 
L 3047 1100 
L 3047 0 
L 2419 0 
L 2419 1100 
L 313 1100 
L 313 1709 
L 2253 4666 
z
" transform="scale(0.015625)"/>
        <path id="DejaVuSans-30" d="M 2034 4250 
Q 1547 4250 1301 3770 
Q 1056 3291 1056 2328 
Q 1056 1369 1301 889 
Q 1547 409 2034 409 
Q 2525 409 2770 889 
Q 3016 1369 3016 2328 
Q 3016 3291 2770 3770 
Q 2525 4250 2034 4250 
z
M 2034 4750 
Q 2819 4750 3233 4129 
Q 3647 3509 3647 2328 
Q 3647 1150 3233 529 
Q 2819 -91 2034 -91 
Q 1250 -91 836 529 
Q 422 1150 422 2328 
Q 422 3509 836 4129 
Q 1250 4750 2034 4750 
z
" transform="scale(0.015625)"/>
       </defs>
       <use xlink:href="#DejaVuSans-34"/>
       <use xlink:href="#DejaVuSans-30" x="63.623047"/>
      </g>
     </g>
    </g>
    <g id="ytick_2">
     <g id="line2d_23">
      <g>
       <use xlink:href="#md5d250f58d" x="43.78125" y="94.999219" style="stroke: #000000; stroke-width: 0.8"/>
      </g>
     </g>
     <g id="text_2">
      <!-- 50 -->
      <g transform="translate(24.05625 98.798438) scale(0.1 -0.1)">
       <defs>
        <path id="DejaVuSans-35" d="M 691 4666 
L 3169 4666 
L 3169 4134 
L 1269 4134 
L 1269 2991 
Q 1406 3038 1543 3061 
Q 1681 3084 1819 3084 
Q 2600 3084 3056 2656 
Q 3513 2228 3513 1497 
Q 3513 744 3044 326 
Q 2575 -91 1722 -91 
Q 1428 -91 1123 -41 
Q 819 9 494 109 
L 494 744 
Q 775 591 1075 516 
Q 1375 441 1709 441 
Q 2250 441 2565 725 
Q 2881 1009 2881 1497 
Q 2881 1984 2565 2268 
Q 2250 2553 1709 2553 
Q 1456 2553 1204 2497 
Q 953 2441 691 2322 
L 691 4666 
z
" transform="scale(0.015625)"/>
       </defs>
       <use xlink:href="#DejaVuSans-35"/>
       <use xlink:href="#DejaVuSans-30" x="63.623047"/>
      </g>
     </g>
    </g>
    <g id="ytick_3">
     <g id="line2d_24">
      <g>
       <use xlink:href="#md5d250f58d" x="43.78125" y="66.999219" style="stroke: #000000; stroke-width: 0.8"/>
      </g>
     </g>
     <g id="text_3">
      <!-- 60 -->
      <g transform="translate(24.05625 70.798438) scale(0.1 -0.1)">
       <defs>
        <path id="DejaVuSans-36" d="M 2113 2584 
Q 1688 2584 1439 2293 
Q 1191 2003 1191 1497 
Q 1191 994 1439 701 
Q 1688 409 2113 409 
Q 2538 409 2786 701 
Q 3034 994 3034 1497 
Q 3034 2003 2786 2293 
Q 2538 2584 2113 2584 
z
M 3366 4563 
L 3366 3988 
Q 3128 4100 2886 4159 
Q 2644 4219 2406 4219 
Q 1781 4219 1451 3797 
Q 1122 3375 1075 2522 
Q 1259 2794 1537 2939 
Q 1816 3084 2150 3084 
Q 2853 3084 3261 2657 
Q 3669 2231 3669 1497 
Q 3669 778 3244 343 
Q 2819 -91 2113 -91 
Q 1303 -91 875 529 
Q 447 1150 447 2328 
Q 447 3434 972 4092 
Q 1497 4750 2381 4750 
Q 2619 4750 2861 4703 
Q 3103 4656 3366 4563 
z
" transform="scale(0.015625)"/>
       </defs>
       <use xlink:href="#DejaVuSans-36"/>
       <use xlink:href="#DejaVuSans-30" x="63.623047"/>
      </g>
     </g>
    </g>
    <g id="ytick_4">
     <g id="line2d_25">
      <g>
       <use xlink:href="#md5d250f58d" x="43.78125" y="38.999219" style="stroke: #000000; stroke-width: 0.8"/>
      </g>
     </g>
     <g id="text_4">
      <!-- 70 -->
      <g transform="translate(24.05625 42.798438) scale(0.1 -0.1)">
       <defs>
        <path id="DejaVuSans-37" d="M 525 4666 
L 3525 4666 
L 3525 4397 
L 1831 0 
L 1172 0 
L 2766 4134 
L 525 4134 
L 525 4666 
z
" transform="scale(0.015625)"/>
       </defs>
       <use xlink:href="#DejaVuSans-37"/>
       <use xlink:href="#DejaVuSans-30" x="63.623047"/>
      </g>
     </g>
    </g>
    <g id="ytick_5">
     <g id="line2d_26">
      <g>
       <use xlink:href="#md5d250f58d" x="43.78125" y="10.999219" style="stroke: #000000; stroke-width: 0.8"/>
      </g>
     </g>
     <g id="text_5">
      <!-- 80 -->
      <g transform="translate(24.05625 14.798438) scale(0.1 -0.1)">
       <defs>
        <path id="DejaVuSans-38" d="M 2034 2216 
Q 1584 2216 1326 1975 
Q 1069 1734 1069 1313 
Q 1069 891 1326 650 
Q 1584 409 2034 409 
Q 2484 409 2743 651 
Q 3003 894 3003 1313 
Q 3003 1734 2745 1975 
Q 2488 2216 2034 2216 
z
M 1403 2484 
Q 997 2584 770 2862 
Q 544 3141 544 3541 
Q 544 4100 942 4425 
Q 1341 4750 2034 4750 
Q 2731 4750 3128 4425 
Q 3525 4100 3525 3541 
Q 3525 3141 3298 2862 
Q 3072 2584 2669 2484 
Q 3125 2378 3379 2068 
Q 3634 1759 3634 1313 
Q 3634 634 3220 271 
Q 2806 -91 2034 -91 
Q 1263 -91 848 271 
Q 434 634 434 1313 
Q 434 1759 690 2068 
Q 947 2378 1403 2484 
z
M 1172 3481 
Q 1172 3119 1398 2916 
Q 1625 2713 2034 2713 
Q 2441 2713 2670 2916 
Q 2900 3119 2900 3481 
Q 2900 3844 2670 4047 
Q 2441 4250 2034 4250 
Q 1625 4250 1398 4047 
Q 1172 3844 1172 3481 
z
" transform="scale(0.015625)"/>
       </defs>
       <use xlink:href="#DejaVuSans-38"/>
       <use xlink:href="#DejaVuSans-30" x="63.623047"/>
      </g>
     </g>
    </g>
    <g id="text_6">
     <!-- Surface tension / $\mathrm{mN \ m^{-1}}$ -->
     <g transform="translate(17.976562 138.399219) rotate(-90) scale(0.1 -0.1)">
      <defs>
       <path id="DejaVuSans-53" d="M 3425 4513 
L 3425 3897 
Q 3066 4069 2747 4153 
Q 2428 4238 2131 4238 
Q 1616 4238 1336 4038 
Q 1056 3838 1056 3469 
Q 1056 3159 1242 3001 
Q 1428 2844 1947 2747 
L 2328 2669 
Q 3034 2534 3370 2195 
Q 3706 1856 3706 1288 
Q 3706 609 3251 259 
Q 2797 -91 1919 -91 
Q 1588 -91 1214 -16 
Q 841 59 441 206 
L 441 856 
Q 825 641 1194 531 
Q 1563 422 1919 422 
Q 2459 422 2753 634 
Q 3047 847 3047 1241 
Q 3047 1584 2836 1778 
Q 2625 1972 2144 2069 
L 1759 2144 
Q 1053 2284 737 2584 
Q 422 2884 422 3419 
Q 422 4038 858 4394 
Q 1294 4750 2059 4750 
Q 2388 4750 2728 4690 
Q 3069 4631 3425 4513 
z
" transform="scale(0.015625)"/>
       <path id="DejaVuSans-75" d="M 544 1381 
L 544 3500 
L 1119 3500 
L 1119 1403 
Q 1119 906 1312 657 
Q 1506 409 1894 409 
Q 2359 409 2629 706 
Q 2900 1003 2900 1516 
L 2900 3500 
L 3475 3500 
L 3475 0 
L 2900 0 
L 2900 538 
Q 2691 219 2414 64 
Q 2138 -91 1772 -91 
Q 1169 -91 856 284 
Q 544 659 544 1381 
z
M 1991 3584 
L 1991 3584 
z
" transform="scale(0.015625)"/>
       <path id="DejaVuSans-72" d="M 2631 2963 
Q 2534 3019 2420 3045 
Q 2306 3072 2169 3072 
Q 1681 3072 1420 2755 
Q 1159 2438 1159 1844 
L 1159 0 
L 581 0 
L 581 3500 
L 1159 3500 
L 1159 2956 
Q 1341 3275 1631 3429 
Q 1922 3584 2338 3584 
Q 2397 3584 2469 3576 
Q 2541 3569 2628 3553 
L 2631 2963 
z
" transform="scale(0.015625)"/>
       <path id="DejaVuSans-66" d="M 2375 4863 
L 2375 4384 
L 1825 4384 
Q 1516 4384 1395 4259 
Q 1275 4134 1275 3809 
L 1275 3500 
L 2222 3500 
L 2222 3053 
L 1275 3053 
L 1275 0 
L 697 0 
L 697 3053 
L 147 3053 
L 147 3500 
L 697 3500 
L 697 3744 
Q 697 4328 969 4595 
Q 1241 4863 1831 4863 
L 2375 4863 
z
" transform="scale(0.015625)"/>
       <path id="DejaVuSans-61" d="M 2194 1759 
Q 1497 1759 1228 1600 
Q 959 1441 959 1056 
Q 959 750 1161 570 
Q 1363 391 1709 391 
Q 2188 391 2477 730 
Q 2766 1069 2766 1631 
L 2766 1759 
L 2194 1759 
z
M 3341 1997 
L 3341 0 
L 2766 0 
L 2766 531 
Q 2569 213 2275 61 
Q 1981 -91 1556 -91 
Q 1019 -91 701 211 
Q 384 513 384 1019 
Q 384 1609 779 1909 
Q 1175 2209 1959 2209 
L 2766 2209 
L 2766 2266 
Q 2766 2663 2505 2880 
Q 2244 3097 1772 3097 
Q 1472 3097 1187 3025 
Q 903 2953 641 2809 
L 641 3341 
Q 956 3463 1253 3523 
Q 1550 3584 1831 3584 
Q 2591 3584 2966 3190 
Q 3341 2797 3341 1997 
z
" transform="scale(0.015625)"/>
       <path id="DejaVuSans-63" d="M 3122 3366 
L 3122 2828 
Q 2878 2963 2633 3030 
Q 2388 3097 2138 3097 
Q 1578 3097 1268 2742 
Q 959 2388 959 1747 
Q 959 1106 1268 751 
Q 1578 397 2138 397 
Q 2388 397 2633 464 
Q 2878 531 3122 666 
L 3122 134 
Q 2881 22 2623 -34 
Q 2366 -91 2075 -91 
Q 1284 -91 818 406 
Q 353 903 353 1747 
Q 353 2603 823 3093 
Q 1294 3584 2113 3584 
Q 2378 3584 2631 3529 
Q 2884 3475 3122 3366 
z
" transform="scale(0.015625)"/>
       <path id="DejaVuSans-65" d="M 3597 1894 
L 3597 1613 
L 953 1613 
Q 991 1019 1311 708 
Q 1631 397 2203 397 
Q 2534 397 2845 478 
Q 3156 559 3463 722 
L 3463 178 
Q 3153 47 2828 -22 
Q 2503 -91 2169 -91 
Q 1331 -91 842 396 
Q 353 884 353 1716 
Q 353 2575 817 3079 
Q 1281 3584 2069 3584 
Q 2775 3584 3186 3129 
Q 3597 2675 3597 1894 
z
M 3022 2063 
Q 3016 2534 2758 2815 
Q 2500 3097 2075 3097 
Q 1594 3097 1305 2825 
Q 1016 2553 972 2059 
L 3022 2063 
z
" transform="scale(0.015625)"/>
       <path id="DejaVuSans-20" transform="scale(0.015625)"/>
       <path id="DejaVuSans-74" d="M 1172 4494 
L 1172 3500 
L 2356 3500 
L 2356 3053 
L 1172 3053 
L 1172 1153 
Q 1172 725 1289 603 
Q 1406 481 1766 481 
L 2356 481 
L 2356 0 
L 1766 0 
Q 1100 0 847 248 
Q 594 497 594 1153 
L 594 3053 
L 172 3053 
L 172 3500 
L 594 3500 
L 594 4494 
L 1172 4494 
z
" transform="scale(0.015625)"/>
       <path id="DejaVuSans-6e" d="M 3513 2113 
L 3513 0 
L 2938 0 
L 2938 2094 
Q 2938 2591 2744 2837 
Q 2550 3084 2163 3084 
Q 1697 3084 1428 2787 
Q 1159 2491 1159 1978 
L 1159 0 
L 581 0 
L 581 3500 
L 1159 3500 
L 1159 2956 
Q 1366 3272 1645 3428 
Q 1925 3584 2291 3584 
Q 2894 3584 3203 3211 
Q 3513 2838 3513 2113 
z
" transform="scale(0.015625)"/>
       <path id="DejaVuSans-73" d="M 2834 3397 
L 2834 2853 
Q 2591 2978 2328 3040 
Q 2066 3103 1784 3103 
Q 1356 3103 1142 2972 
Q 928 2841 928 2578 
Q 928 2378 1081 2264 
Q 1234 2150 1697 2047 
L 1894 2003 
Q 2506 1872 2764 1633 
Q 3022 1394 3022 966 
Q 3022 478 2636 193 
Q 2250 -91 1575 -91 
Q 1294 -91 989 -36 
Q 684 19 347 128 
L 347 722 
Q 666 556 975 473 
Q 1284 391 1588 391 
Q 1994 391 2212 530 
Q 2431 669 2431 922 
Q 2431 1156 2273 1281 
Q 2116 1406 1581 1522 
L 1381 1569 
Q 847 1681 609 1914 
Q 372 2147 372 2553 
Q 372 3047 722 3315 
Q 1072 3584 1716 3584 
Q 2034 3584 2315 3537 
Q 2597 3491 2834 3397 
z
" transform="scale(0.015625)"/>
       <path id="DejaVuSans-69" d="M 603 3500 
L 1178 3500 
L 1178 0 
L 603 0 
L 603 3500 
z
M 603 4863 
L 1178 4863 
L 1178 4134 
L 603 4134 
L 603 4863 
z
" transform="scale(0.015625)"/>
       <path id="DejaVuSans-6f" d="M 1959 3097 
Q 1497 3097 1228 2736 
Q 959 2375 959 1747 
Q 959 1119 1226 758 
Q 1494 397 1959 397 
Q 2419 397 2687 759 
Q 2956 1122 2956 1747 
Q 2956 2369 2687 2733 
Q 2419 3097 1959 3097 
z
M 1959 3584 
Q 2709 3584 3137 3096 
Q 3566 2609 3566 1747 
Q 3566 888 3137 398 
Q 2709 -91 1959 -91 
Q 1206 -91 779 398 
Q 353 888 353 1747 
Q 353 2609 779 3096 
Q 1206 3584 1959 3584 
z
" transform="scale(0.015625)"/>
       <path id="DejaVuSans-2f" d="M 1625 4666 
L 2156 4666 
L 531 -594 
L 0 -594 
L 1625 4666 
z
" transform="scale(0.015625)"/>
       <path id="DejaVuSans-6d" d="M 3328 2828 
Q 3544 3216 3844 3400 
Q 4144 3584 4550 3584 
Q 5097 3584 5394 3201 
Q 5691 2819 5691 2113 
L 5691 0 
L 5113 0 
L 5113 2094 
Q 5113 2597 4934 2840 
Q 4756 3084 4391 3084 
Q 3944 3084 3684 2787 
Q 3425 2491 3425 1978 
L 3425 0 
L 2847 0 
L 2847 2094 
Q 2847 2600 2669 2842 
Q 2491 3084 2119 3084 
Q 1678 3084 1418 2786 
Q 1159 2488 1159 1978 
L 1159 0 
L 581 0 
L 581 3500 
L 1159 3500 
L 1159 2956 
Q 1356 3278 1631 3431 
Q 1906 3584 2284 3584 
Q 2666 3584 2933 3390 
Q 3200 3197 3328 2828 
z
" transform="scale(0.015625)"/>
       <path id="DejaVuSans-4e" d="M 628 4666 
L 1478 4666 
L 3547 763 
L 3547 4666 
L 4159 4666 
L 4159 0 
L 3309 0 
L 1241 3903 
L 1241 0 
L 628 0 
L 628 4666 
z
" transform="scale(0.015625)"/>
       <path id="DejaVuSans-2212" d="M 678 2272 
L 4684 2272 
L 4684 1741 
L 678 1741 
L 678 2272 
z
" transform="scale(0.015625)"/>
       <path id="DejaVuSans-31" d="M 794 531 
L 1825 531 
L 1825 4091 
L 703 3866 
L 703 4441 
L 1819 4666 
L 2450 4666 
L 2450 531 
L 3481 531 
L 3481 0 
L 794 0 
L 794 531 
z
" transform="scale(0.015625)"/>
      </defs>
      <use xlink:href="#DejaVuSans-53" transform="translate(0 0.684375)"/>
      <use xlink:href="#DejaVuSans-75" transform="translate(63.476562 0.684375)"/>
      <use xlink:href="#DejaVuSans-72" transform="translate(126.855469 0.684375)"/>
      <use xlink:href="#DejaVuSans-66" transform="translate(167.96875 0.684375)"/>
      <use xlink:href="#DejaVuSans-61" transform="translate(203.173828 0.684375)"/>
      <use xlink:href="#DejaVuSans-63" transform="translate(264.453125 0.684375)"/>
      <use xlink:href="#DejaVuSans-65" transform="translate(319.433594 0.684375)"/>
      <use xlink:href="#DejaVuSans-20" transform="translate(380.957031 0.684375)"/>
      <use xlink:href="#DejaVuSans-74" transform="translate(412.744141 0.684375)"/>
      <use xlink:href="#DejaVuSans-65" transform="translate(451.953125 0.684375)"/>
      <use xlink:href="#DejaVuSans-6e" transform="translate(513.476562 0.684375)"/>
      <use xlink:href="#DejaVuSans-73" transform="translate(576.855469 0.684375)"/>
      <use xlink:href="#DejaVuSans-69" transform="translate(628.955078 0.684375)"/>
      <use xlink:href="#DejaVuSans-6f" transform="translate(656.738281 0.684375)"/>
      <use xlink:href="#DejaVuSans-6e" transform="translate(717.919922 0.684375)"/>
      <use xlink:href="#DejaVuSans-20" transform="translate(781.298828 0.684375)"/>
      <use xlink:href="#DejaVuSans-2f" transform="translate(813.085938 0.684375)"/>
      <use xlink:href="#DejaVuSans-20" transform="translate(846.777344 0.684375)"/>
      <use xlink:href="#DejaVuSans-6d" transform="translate(878.564453 0.684375)"/>
      <use xlink:href="#DejaVuSans-4e" transform="translate(975.976562 0.684375)"/>
      <use xlink:href="#DejaVuSans-6d" transform="translate(1083.251628 0.684375)"/>
      <use xlink:href="#DejaVuSans-2212" transform="translate(1181.620769 38.965625) scale(0.7)"/>
      <use xlink:href="#DejaVuSans-31" transform="translate(1240.273113 38.965625) scale(0.7)"/>
     </g>
    </g>
   </g>
   <g id="line2d_27">
    <path d="M 44.481987 33.135031 
L 69.529095 34.416342 
L 70.140008 34.475153 
L 72.889055 34.679376 
L 75.027223 34.815005 
L 76.249044 34.925897 
L 80.525372 35.284036 
L 81.441741 35.34086 
L 83.274449 35.492511 
L 85.718068 35.733841 
L 86.63441 35.817303 
L 88.161689 35.952527 
L 92.438044 36.379495 
L 94.881663 36.624393 
L 96.408915 36.804819 
L 100.074335 37.231189 
L 103.434322 37.658627 
L 104.656117 37.789108 
L 105.572483 37.949197 
L 108.016101 38.261749 
L 114.736052 39.256549 
L 116.263302 39.535883 
L 121.761453 40.471487 
L 122.983281 40.676779 
L 127.870517 41.636758 
L 132.146844 42.558179 
L 133.674126 42.883356 
L 148.94673 46.868643 
L 150.168527 47.272369 
L 156.583044 49.330713 
L 169.717512 54.354401 
L 177.048343 57.646631 
L 181.324673 59.80181 
L 181.935584 60.122885 
L 183.768295 61.05049 
L 184.99012 61.73011 
L 190.793726 65.007697 
L 201.790001 72.073375 
L 203.317279 73.145261 
L 204.539076 74.027107 
L 209.120859 77.390987 
L 210.342683 78.395517 
L 210.953593 78.860542 
L 211.869935 79.562871 
L 214.313554 81.530702 
L 218.589883 85.151506 
L 228.669821 94.389667 
L 230.502557 96.210088 
L 240.58249 106.798688 
L 241.804284 108.141554 
L 245.164271 111.990401 
L 249.135145 116.608974 
L 250.356942 118.124544 
L 259.520536 129.594948 
L 260.131421 130.053575 
L 260.742334 130.273276 
L 263.491405 130.339883 
L 266.240485 130.345747 
L 267.46228 130.333742 
L 269.295004 130.327718 
L 273.876786 130.350148 
L 274.793141 130.339221 
L 276.014964 130.336124 
L 279.06948 130.340471 
L 279.985836 130.337128 
L 282.124013 130.314484 
L 284.873091 130.345662 
L 286.400355 130.344113 
L 287.011255 130.318083 
L 287.927592 130.326372 
L 289.149406 130.328049 
L 294.64757 130.356236 
L 295.25847 130.351302 
L 298.312984 130.343921 
L 301.367516 130.35379 
L 302.283872 130.301976 
L 303.200226 130.355424 
L 303.811137 130.361801 
L 305.338402 130.276982 
L 305.949301 130.337939 
L 306.86567 130.315958 
L 307.782022 130.321352 
L 308.69838 130.370752 
L 309.309279 130.310916 
L 310.836545 130.348685 
L 320.611022 130.32384 
L 322.443728 130.316887 
L 323.665537 130.343654 
L 324.276451 130.327312 
L 324.887363 130.368381 
L 325.192808 130.291081 
L 326.10917 130.343248 
L 328.247334 130.287236 
L 329.16369 130.344423 
L 330.98125 130.33664 
L 330.98125 130.33664 
" clip-path="url(#p74e427ba06)" style="fill: none; stroke: #000000; stroke-opacity: 0.3; stroke-width: 2; stroke-linecap: square"/>
   </g>
   <g id="patch_3">
    <path d="M 43.78125 136.999219 
L 43.78125 10.999219 
" style="fill: none; stroke: #000000; stroke-width: 0.8; stroke-linejoin: miter; stroke-linecap: square"/>
   </g>
   <g id="patch_4">
    <path d="M 43.78125 136.999219 
L 322.78125 136.999219 
" style="fill: none; stroke: #000000; stroke-width: 0.8; stroke-linejoin: miter; stroke-linecap: square"/>
   </g>
   <g id="PathCollection_1">
    <defs>
     <path id="me0266c15a0" d="M 0 2.5 
C 0.663008 2.5 1.29895 2.236584 1.767767 1.767767 
C 2.236584 1.29895 2.5 0.663008 2.5 0 
C 2.5 -0.663008 2.236584 -1.29895 1.767767 -1.767767 
C 1.29895 -2.236584 0.663008 -2.5 0 -2.5 
C -0.663008 -2.5 -1.29895 -2.236584 -1.767767 -1.767767 
C -2.236584 -1.29895 -2.5 -0.663008 -2.5 0 
C -2.5 0.663008 -2.236584 1.29895 -1.767767 1.767767 
C -1.29895 2.236584 -0.663008 2.5 0 2.5 
z
" style="stroke: #000000"/>
    </defs>
    <g clip-path="url(#p74e427ba06)">
     <use xlink:href="#me0266c15a0" x="112.292401" y="39.393082" style="stroke: #000000"/>
     <use xlink:href="#me0266c15a0" x="146.197632" y="44.775589" style="stroke: #000000"/>
     <use xlink:href="#me0266c15a0" x="180.102863" y="58.8998" style="stroke: #000000"/>
     <use xlink:href="#me0266c15a0" x="214.008095" y="82.194776" style="stroke: #000000"/>
     <use xlink:href="#me0266c15a0" x="247.913326" y="114.945866" style="stroke: #000000"/>
     <use xlink:href="#me0266c15a0" x="281.818557" y="128.839941" style="stroke: #000000"/>
     <use xlink:href="#me0266c15a0" x="315.723788" y="130.158944" style="stroke: #000000"/>
     <use xlink:href="#me0266c15a0" x="349.629019" y="131.984342" style="stroke: #000000"/>
    </g>
   </g>
  </g>
  <g id="axes_2">
   <g id="patch_5">
    <path d="M 43.78125 288.199219 
L 322.78125 288.199219 
L 322.78125 162.199219 
L 43.78125 162.199219 
z
" style="fill: #ffffff"/>
   </g>
   <g id="matplotlib.axis_3">
    <g id="xtick_22">
     <g id="line2d_28">
      <g>
       <use xlink:href="#m9e874ad4a4" x="43.78125" y="288.199219" style="stroke: #000000; stroke-width: 0.8"/>
      </g>
     </g>
     <g id="text_7">
      <!-- $\mathdefault{10^{-1}}$ -->
      <g transform="translate(32.03125 302.797656) scale(0.1 -0.1)">
       <use xlink:href="#DejaVuSans-31" transform="translate(0 0.684375)"/>
       <use xlink:href="#DejaVuSans-30" transform="translate(63.623047 0.684375)"/>
       <use xlink:href="#DejaVuSans-2212" transform="translate(128.203125 38.965625) scale(0.7)"/>
       <use xlink:href="#DejaVuSans-31" transform="translate(186.855469 38.965625) scale(0.7)"/>
      </g>
     </g>
    </g>
    <g id="xtick_23">
     <g id="line2d_29">
      <g>
       <use xlink:href="#m9e874ad4a4" x="156.41199" y="288.199219" style="stroke: #000000; stroke-width: 0.8"/>
      </g>
     </g>
     <g id="text_8">
      <!-- $\mathdefault{10^{0}}$ -->
      <g transform="translate(147.61199 302.797656) scale(0.1 -0.1)">
       <use xlink:href="#DejaVuSans-31" transform="translate(0 0.765625)"/>
       <use xlink:href="#DejaVuSans-30" transform="translate(63.623047 0.765625)"/>
       <use xlink:href="#DejaVuSans-30" transform="translate(128.203125 39.046875) scale(0.7)"/>
      </g>
     </g>
    </g>
    <g id="xtick_24">
     <g id="line2d_30">
      <g>
       <use xlink:href="#m9e874ad4a4" x="269.04273" y="288.199219" style="stroke: #000000; stroke-width: 0.8"/>
      </g>
     </g>
     <g id="text_9">
      <!-- $\mathdefault{10^{1}}$ -->
      <g transform="translate(260.24273 302.797656) scale(0.1 -0.1)">
       <use xlink:href="#DejaVuSans-31" transform="translate(0 0.684375)"/>
       <use xlink:href="#DejaVuSans-30" transform="translate(63.623047 0.684375)"/>
       <use xlink:href="#DejaVuSans-31" transform="translate(128.203125 38.965625) scale(0.7)"/>
      </g>
     </g>
    </g>
    <g id="xtick_25">
     <g id="line2d_31">
      <g>
       <use xlink:href="#mb3d4d69536" x="77.686481" y="288.199219" style="stroke: #000000; stroke-width: 0.6"/>
      </g>
     </g>
    </g>
    <g id="xtick_26">
     <g id="line2d_32">
      <g>
       <use xlink:href="#mb3d4d69536" x="97.51977" y="288.199219" style="stroke: #000000; stroke-width: 0.6"/>
      </g>
     </g>
    </g>
    <g id="xtick_27">
     <g id="line2d_33">
      <g>
       <use xlink:href="#mb3d4d69536" x="111.591712" y="288.199219" style="stroke: #000000; stroke-width: 0.6"/>
      </g>
     </g>
    </g>
    <g id="xtick_28">
     <g id="line2d_34">
      <g>
       <use xlink:href="#mb3d4d69536" x="122.506759" y="288.199219" style="stroke: #000000; stroke-width: 0.6"/>
      </g>
     </g>
    </g>
    <g id="xtick_29">
     <g id="line2d_35">
      <g>
       <use xlink:href="#mb3d4d69536" x="131.425001" y="288.199219" style="stroke: #000000; stroke-width: 0.6"/>
      </g>
     </g>
    </g>
    <g id="xtick_30">
     <g id="line2d_36">
      <g>
       <use xlink:href="#mb3d4d69536" x="138.965268" y="288.199219" style="stroke: #000000; stroke-width: 0.6"/>
      </g>
     </g>
    </g>
    <g id="xtick_31">
     <g id="line2d_37">
      <g>
       <use xlink:href="#mb3d4d69536" x="145.496944" y="288.199219" style="stroke: #000000; stroke-width: 0.6"/>
      </g>
     </g>
    </g>
    <g id="xtick_32">
     <g id="line2d_38">
      <g>
       <use xlink:href="#mb3d4d69536" x="151.25829" y="288.199219" style="stroke: #000000; stroke-width: 0.6"/>
      </g>
     </g>
    </g>
    <g id="xtick_33">
     <g id="line2d_39">
      <g>
       <use xlink:href="#mb3d4d69536" x="190.317221" y="288.199219" style="stroke: #000000; stroke-width: 0.6"/>
      </g>
     </g>
    </g>
    <g id="xtick_34">
     <g id="line2d_40">
      <g>
       <use xlink:href="#mb3d4d69536" x="210.15051" y="288.199219" style="stroke: #000000; stroke-width: 0.6"/>
      </g>
     </g>
    </g>
    <g id="xtick_35">
     <g id="line2d_41">
      <g>
       <use xlink:href="#mb3d4d69536" x="224.222452" y="288.199219" style="stroke: #000000; stroke-width: 0.6"/>
      </g>
     </g>
    </g>
    <g id="xtick_36">
     <g id="line2d_42">
      <g>
       <use xlink:href="#mb3d4d69536" x="235.137499" y="288.199219" style="stroke: #000000; stroke-width: 0.6"/>
      </g>
     </g>
    </g>
    <g id="xtick_37">
     <g id="line2d_43">
      <g>
       <use xlink:href="#mb3d4d69536" x="244.055741" y="288.199219" style="stroke: #000000; stroke-width: 0.6"/>
      </g>
     </g>
    </g>
    <g id="xtick_38">
     <g id="line2d_44">
      <g>
       <use xlink:href="#mb3d4d69536" x="251.596008" y="288.199219" style="stroke: #000000; stroke-width: 0.6"/>
      </g>
     </g>
    </g>
    <g id="xtick_39">
     <g id="line2d_45">
      <g>
       <use xlink:href="#mb3d4d69536" x="258.127684" y="288.199219" style="stroke: #000000; stroke-width: 0.6"/>
      </g>
     </g>
    </g>
    <g id="xtick_40">
     <g id="line2d_46">
      <g>
       <use xlink:href="#mb3d4d69536" x="263.88903" y="288.199219" style="stroke: #000000; stroke-width: 0.6"/>
      </g>
     </g>
    </g>
    <g id="xtick_41">
     <g id="line2d_47">
      <g>
       <use xlink:href="#mb3d4d69536" x="302.947961" y="288.199219" style="stroke: #000000; stroke-width: 0.6"/>
      </g>
     </g>
    </g>
    <g id="xtick_42">
     <g id="line2d_48">
      <g>
       <use xlink:href="#mb3d4d69536" x="322.78125" y="288.199219" style="stroke: #000000; stroke-width: 0.6"/>
      </g>
     </g>
    </g>
    <g id="text_10">
     <!-- Concentration / mM -->
     <g transform="translate(133.863281 316.475781) scale(0.1 -0.1)">
      <defs>
       <path id="DejaVuSans-43" d="M 4122 4306 
L 4122 3641 
Q 3803 3938 3442 4084 
Q 3081 4231 2675 4231 
Q 1875 4231 1450 3742 
Q 1025 3253 1025 2328 
Q 1025 1406 1450 917 
Q 1875 428 2675 428 
Q 3081 428 3442 575 
Q 3803 722 4122 1019 
L 4122 359 
Q 3791 134 3420 21 
Q 3050 -91 2638 -91 
Q 1578 -91 968 557 
Q 359 1206 359 2328 
Q 359 3453 968 4101 
Q 1578 4750 2638 4750 
Q 3056 4750 3426 4639 
Q 3797 4528 4122 4306 
z
" transform="scale(0.015625)"/>
       <path id="DejaVuSans-4d" d="M 628 4666 
L 1569 4666 
L 2759 1491 
L 3956 4666 
L 4897 4666 
L 4897 0 
L 4281 0 
L 4281 4097 
L 3078 897 
L 2444 897 
L 1241 4097 
L 1241 0 
L 628 0 
L 628 4666 
z
" transform="scale(0.015625)"/>
      </defs>
      <use xlink:href="#DejaVuSans-43"/>
      <use xlink:href="#DejaVuSans-6f" x="69.824219"/>
      <use xlink:href="#DejaVuSans-6e" x="131.005859"/>
      <use xlink:href="#DejaVuSans-63" x="194.384766"/>
      <use xlink:href="#DejaVuSans-65" x="249.365234"/>
      <use xlink:href="#DejaVuSans-6e" x="310.888672"/>
      <use xlink:href="#DejaVuSans-74" x="374.267578"/>
      <use xlink:href="#DejaVuSans-72" x="413.476562"/>
      <use xlink:href="#DejaVuSans-61" x="454.589844"/>
      <use xlink:href="#DejaVuSans-74" x="515.869141"/>
      <use xlink:href="#DejaVuSans-69" x="555.078125"/>
      <use xlink:href="#DejaVuSans-6f" x="582.861328"/>
      <use xlink:href="#DejaVuSans-6e" x="644.042969"/>
      <use xlink:href="#DejaVuSans-20" x="707.421875"/>
      <use xlink:href="#DejaVuSans-2f" x="739.208984"/>
      <use xlink:href="#DejaVuSans-20" x="772.900391"/>
      <use xlink:href="#DejaVuSans-6d" x="804.6875"/>
      <use xlink:href="#DejaVuSans-4d" x="902.099609"/>
     </g>
    </g>
   </g>
   <g id="matplotlib.axis_4">
    <g id="ytick_6">
     <g id="line2d_49">
      <g>
       <use xlink:href="#md5d250f58d" x="43.78125" y="282.471946" style="stroke: #000000; stroke-width: 0.8"/>
      </g>
     </g>
     <g id="text_11">
      <!-- 0.0 -->
      <g transform="translate(20.878125 286.271165) scale(0.1 -0.1)">
       <defs>
        <path id="DejaVuSans-2e" d="M 684 794 
L 1344 794 
L 1344 0 
L 684 0 
L 684 794 
z
" transform="scale(0.015625)"/>
       </defs>
       <use xlink:href="#DejaVuSans-30"/>
       <use xlink:href="#DejaVuSans-2e" x="63.623047"/>
       <use xlink:href="#DejaVuSans-30" x="95.410156"/>
      </g>
     </g>
    </g>
    <g id="ytick_7">
     <g id="line2d_50">
      <g>
       <use xlink:href="#md5d250f58d" x="43.78125" y="250.948938" style="stroke: #000000; stroke-width: 0.8"/>
      </g>
     </g>
     <g id="text_12">
      <!-- 0.2 -->
      <g transform="translate(20.878125 254.748157) scale(0.1 -0.1)">
       <defs>
        <path id="DejaVuSans-32" d="M 1228 531 
L 3431 531 
L 3431 0 
L 469 0 
L 469 531 
Q 828 903 1448 1529 
Q 2069 2156 2228 2338 
Q 2531 2678 2651 2914 
Q 2772 3150 2772 3378 
Q 2772 3750 2511 3984 
Q 2250 4219 1831 4219 
Q 1534 4219 1204 4116 
Q 875 4013 500 3803 
L 500 4441 
Q 881 4594 1212 4672 
Q 1544 4750 1819 4750 
Q 2544 4750 2975 4387 
Q 3406 4025 3406 3419 
Q 3406 3131 3298 2873 
Q 3191 2616 2906 2266 
Q 2828 2175 2409 1742 
Q 1991 1309 1228 531 
z
" transform="scale(0.015625)"/>
       </defs>
       <use xlink:href="#DejaVuSans-30"/>
       <use xlink:href="#DejaVuSans-2e" x="63.623047"/>
       <use xlink:href="#DejaVuSans-32" x="95.410156"/>
      </g>
     </g>
    </g>
    <g id="ytick_8">
     <g id="line2d_51">
      <g>
       <use xlink:href="#md5d250f58d" x="43.78125" y="219.42593" style="stroke: #000000; stroke-width: 0.8"/>
      </g>
     </g>
     <g id="text_13">
      <!-- 0.4 -->
      <g transform="translate(20.878125 223.225149) scale(0.1 -0.1)">
       <use xlink:href="#DejaVuSans-30"/>
       <use xlink:href="#DejaVuSans-2e" x="63.623047"/>
       <use xlink:href="#DejaVuSans-34" x="95.410156"/>
      </g>
     </g>
    </g>
    <g id="ytick_9">
     <g id="line2d_52">
      <g>
       <use xlink:href="#md5d250f58d" x="43.78125" y="187.902923" style="stroke: #000000; stroke-width: 0.8"/>
      </g>
     </g>
     <g id="text_14">
      <!-- 0.6 -->
      <g transform="translate(20.878125 191.702141) scale(0.1 -0.1)">
       <use xlink:href="#DejaVuSans-30"/>
       <use xlink:href="#DejaVuSans-2e" x="63.623047"/>
       <use xlink:href="#DejaVuSans-36" x="95.410156"/>
      </g>
     </g>
    </g>
    <g id="text_15">
     <!-- Mutual information -->
     <g transform="translate(14.798438 272.710156) rotate(-90) scale(0.1 -0.1)">
      <defs>
       <path id="DejaVuSans-6c" d="M 603 4863 
L 1178 4863 
L 1178 0 
L 603 0 
L 603 4863 
z
" transform="scale(0.015625)"/>
      </defs>
      <use xlink:href="#DejaVuSans-4d"/>
      <use xlink:href="#DejaVuSans-75" x="86.279297"/>
      <use xlink:href="#DejaVuSans-74" x="149.658203"/>
      <use xlink:href="#DejaVuSans-75" x="188.867188"/>
      <use xlink:href="#DejaVuSans-61" x="252.246094"/>
      <use xlink:href="#DejaVuSans-6c" x="313.525391"/>
      <use xlink:href="#DejaVuSans-20" x="341.308594"/>
      <use xlink:href="#DejaVuSans-69" x="373.095703"/>
      <use xlink:href="#DejaVuSans-6e" x="400.878906"/>
      <use xlink:href="#DejaVuSans-66" x="464.257812"/>
      <use xlink:href="#DejaVuSans-6f" x="499.462891"/>
      <use xlink:href="#DejaVuSans-72" x="560.644531"/>
      <use xlink:href="#DejaVuSans-6d" x="600.007812"/>
      <use xlink:href="#DejaVuSans-61" x="697.419922"/>
      <use xlink:href="#DejaVuSans-74" x="758.699219"/>
      <use xlink:href="#DejaVuSans-69" x="797.908203"/>
      <use xlink:href="#DejaVuSans-6f" x="825.691406"/>
      <use xlink:href="#DejaVuSans-6e" x="886.873047"/>
     </g>
    </g>
   </g>
   <g id="line2d_53">
    <path d="M 44.481987 280.964142 
L 45.092898 280.755775 
L 45.398353 280.5328 
L 46.009237 280.337738 
L 46.925606 279.789323 
L 48.147401 279.415932 
L 48.758312 279.340664 
L 49.06377 279.182225 
L 49.369224 278.729121 
L 49.674679 278.794553 
L 49.980136 278.321 
L 50.285567 278.183502 
L 50.591022 278.180712 
L 50.896477 277.871539 
L 52.729184 277.400174 
L 53.034641 277.305466 
L 53.340096 277.405986 
L 53.645556 276.993679 
L 54.256464 276.856997 
L 54.561918 277.079972 
L 55.478262 277.158416 
L 56.089171 277.224623 
L 56.39463 277.175265 
L 57.005512 277.379542 
L 57.61643 277.049694 
L 58.227337 276.987369 
L 58.532791 277.520459 
L 58.838247 277.338095 
L 59.143681 277.882366 
L 59.449135 277.810944 
L 60.060044 277.970782 
L 60.670984 277.85453 
L 61.281896 278.138738 
L 62.198236 278.275023 
L 62.503693 277.969117 
L 62.809147 278.216431 
L 63.420061 278.168159 
L 63.725488 277.511979 
L 64.030946 277.599829 
L 64.336401 277.429044 
L 64.641853 277.542409 
L 64.947311 277.53672 
L 65.252771 277.661475 
L 65.863677 277.525179 
L 66.474565 277.080762 
L 67.085476 277.326826 
L 68.918182 277.173754 
L 69.223643 277.37624 
L 69.529095 277.406877 
L 70.140008 277.128181 
L 70.445437 276.939456 
L 70.750895 276.469271 
L 71.056351 276.579985 
L 71.66726 276.49646 
L 71.972714 276.724545 
L 72.583629 276.921296 
L 72.889055 277.483285 
L 73.194512 277.345437 
L 73.805423 277.355812 
L 74.110882 276.75877 
L 74.416335 276.550457 
L 74.721793 276.646402 
L 75.332676 276.514835 
L 75.638131 276.773843 
L 76.249044 276.379025 
L 76.859957 276.27353 
L 77.165414 275.983572 
L 77.470839 275.396791 
L 77.776297 275.531515 
L 78.081753 275.365325 
L 78.387211 275.43484 
L 78.692665 275.221066 
L 78.998119 275.303439 
L 79.303573 275.269341 
L 80.219915 275.669592 
L 80.830831 275.144263 
L 81.441741 275.230876 
L 81.747169 275.08262 
L 82.052625 274.389616 
L 82.358081 274.214019 
L 82.663537 274.33063 
L 82.968991 273.757481 
L 83.274449 274.32957 
L 83.579904 274.537884 
L 83.885361 274.568032 
L 84.190789 274.429606 
L 84.496243 274.696574 
L 84.801702 274.657132 
L 85.107157 274.820541 
L 85.412614 274.833068 
L 86.023526 274.092773 
L 86.328952 273.911596 
L 86.63441 274.519457 
L 87.245321 274.967468 
L 87.550775 275.037375 
L 88.161689 275.33961 
L 88.467117 275.19381 
L 88.77257 274.722937 
L 89.688941 274.820661 
L 89.994397 275.167435 
L 90.299855 275.167435 
L 90.60531 274.55769 
L 90.910738 274.604902 
L 91.216194 275.054408 
L 91.827132 275.079191 
L 92.13259 275.646179 
L 92.438044 275.729505 
L 92.743499 275.593888 
L 93.048928 275.278927 
L 93.354382 275.323773 
L 94.57621 274.546002 
L 94.881663 274.92833 
L 95.187122 274.90368 
L 95.492548 275.313923 
L 95.798003 274.723151 
L 96.714369 274.403599 
L 97.019827 273.961133 
L 97.325283 274.117721 
L 97.630714 273.86759 
L 98.241622 274.252737 
L 98.547079 274.475094 
L 99.46345 274.410124 
L 99.768904 275.010375 
L 100.074335 274.370532 
L 100.685247 274.162284 
L 100.990699 274.315172 
L 102.212495 274.047082 
L 103.128866 273.836757 
L 103.739778 274.452306 
L 104.045231 274.487297 
L 104.35069 274.850856 
L 104.656117 274.952524 
L 104.961574 275.490198 
L 105.572483 274.518934 
L 105.877937 274.586659 
L 106.183396 274.943958 
L 106.488848 274.45199 
L 107.405189 274.460563 
L 107.710646 274.160698 
L 108.016101 274.340385 
L 108.321562 274.346877 
L 108.627013 273.765685 
L 108.932442 273.684537 
L 109.543354 274.530618 
L 110.459721 273.79826 
L 111.376063 273.668471 
L 111.986977 273.904228 
L 114.125139 271.20001 
L 114.736052 271.840736 
L 115.346965 271.628718 
L 115.95785 272.604436 
L 116.263302 272.58205 
L 116.568758 272.175363 
L 117.17967 271.804266 
L 117.485125 271.628623 
L 117.790583 271.739655 
L 118.096011 271.651353 
L 118.401468 271.765718 
L 118.706924 271.311283 
L 119.012378 271.822628 
L 119.317836 271.773043 
L 119.623293 271.020506 
L 119.928748 270.567119 
L 120.234174 270.725138 
L 121.150543 270.180474 
L 121.456 270.210548 
L 121.761453 269.799283 
L 122.066909 270.122539 
L 122.372342 269.954579 
L 122.677795 269.535173 
L 122.983281 269.435146 
L 123.288736 269.923035 
L 123.594195 269.504089 
L 123.899645 269.365903 
L 124.205103 269.082187 
L 124.815986 267.827529 
L 125.121442 267.666816 
L 125.426903 267.715422 
L 125.732358 267.943704 
L 126.03781 267.702148 
L 126.343264 267.711779 
L 126.64872 267.380302 
L 127.259603 266.932927 
L 127.565065 266.564466 
L 127.870517 266.763971 
L 128.175975 266.494844 
L 128.481431 265.982238 
L 129.092343 266.620055 
L 129.703224 266.950744 
L 130.008683 266.565715 
L 130.61959 266.595216 
L 130.925048 265.817149 
L 131.535936 265.905125 
L 131.841389 266.068628 
L 132.146844 266.461378 
L 132.757759 265.776788 
L 133.368671 265.27669 
L 133.979557 265.905014 
L 134.285009 265.457989 
L 134.590469 265.300557 
L 135.506834 264.151418 
L 135.81229 264.085543 
L 136.117718 263.647098 
L 136.423176 263.635857 
L 136.728631 263.508327 
L 137.034088 263.047474 
L 137.339544 262.968365 
L 137.645 263.423813 
L 137.950453 263.628497 
L 138.255883 263.191956 
L 138.866797 261.6944 
L 139.477702 261.358426 
L 139.78316 261.332069 
L 140.088619 261.933351 
L 140.394043 261.614884 
L 140.699505 260.995659 
L 141.004958 260.80826 
L 141.310413 260.0939 
L 141.615869 259.841564 
L 141.921324 260.387988 
L 142.837666 259.945799 
L 143.448578 259.250083 
L 143.754033 258.917872 
L 144.059491 258.846158 
L 144.670401 259.222442 
L 144.975858 258.762372 
L 146.197655 259.279716 
L 146.50311 258.811638 
L 146.808567 258.852556 
L 147.114022 258.525328 
L 147.419452 258.912845 
L 147.724906 259.05359 
L 148.335817 260.019796 
L 148.641276 259.909987 
L 149.252186 259.185509 
L 149.557615 258.522552 
L 149.863071 258.784675 
L 150.168527 258.793626 
L 150.473979 258.047853 
L 150.779437 258.135518 
L 151.084892 257.606939 
L 151.390347 257.944973 
L 151.695778 258.067386 
L 152.001235 257.988366 
L 152.30669 257.520013 
L 152.612146 257.842259 
L 152.9176 257.782728 
L 153.223058 257.501055 
L 153.528515 257.839871 
L 153.83397 257.3849 
L 154.444881 258.202781 
L 155.055792 257.161736 
L 155.361249 256.393184 
L 155.666702 256.539808 
L 155.972157 255.872414 
L 156.277617 255.690253 
L 156.583044 255.023951 
L 156.888506 254.956474 
L 157.193956 254.440662 
L 157.499415 254.167096 
L 157.804871 253.567541 
L 158.415784 253.065038 
L 158.721211 252.965883 
L 159.026668 253.289921 
L 159.332124 252.89638 
L 159.637578 254.030079 
L 159.943036 253.940788 
L 160.24849 254.0583 
L 160.859374 252.725271 
L 161.470285 251.880409 
L 162.081196 251.235973 
L 162.386652 251.620148 
L 162.69211 250.891229 
L 162.997564 251.098997 
L 163.302996 250.539512 
L 163.60845 250.474415 
L 163.913904 250.094371 
L 164.219362 250.074384 
L 164.524816 250.354197 
L 164.830275 249.811589 
L 165.13573 249.96947 
L 165.441181 249.73337 
L 165.746616 249.714019 
L 166.662981 248.387435 
L 166.968437 248.511275 
L 167.273893 248.403225 
L 167.57932 248.606543 
L 167.884779 248.350679 
L 168.190231 247.884421 
L 168.495691 247.969674 
L 169.106602 246.608636 
L 169.412057 246.310071 
L 169.717512 246.351642 
L 170.02294 246.67095 
L 170.328398 246.789702 
L 170.633854 247.046757 
L 170.939311 246.509067 
L 171.244767 246.43476 
L 171.550223 246.078677 
L 171.855646 245.965463 
L 172.161105 245.116362 
L 172.466563 245.562013 
L 172.77202 245.068459 
L 173.077476 245.030035 
L 173.382929 245.250249 
L 173.688383 245.304732 
L 173.993842 245.642273 
L 174.299294 244.856174 
L 174.604729 244.763973 
L 174.910181 244.09467 
L 175.215636 243.725375 
L 175.826548 243.512724 
L 176.132005 243.739061 
L 176.43746 244.240988 
L 177.048343 243.965621 
L 177.353801 243.064644 
L 177.659256 243.404113 
L 177.964711 243.383511 
L 178.881053 242.965597 
L 179.186511 243.177398 
L 179.491965 242.327221 
L 179.797421 242.597884 
L 180.102876 242.626227 
L 180.713787 241.980857 
L 181.019242 240.90667 
L 181.324673 241.279109 
L 181.630126 240.589311 
L 181.935584 240.513544 
L 182.241038 240.73489 
L 182.851951 239.818297 
L 183.157407 240.157724 
L 183.462836 240.716486 
L 183.768295 240.78874 
L 184.073748 241.190697 
L 184.379204 241.383704 
L 184.684659 240.944436 
L 184.99012 240.941064 
L 185.601055 240.032964 
L 185.906486 239.399731 
L 186.21194 239.312559 
L 186.517396 240.741095 
L 186.82285 240.294453 
L 187.433765 241.104393 
L 187.739192 240.723598 
L 188.044648 240.962624 
L 188.350103 240.44633 
L 188.655559 241.211026 
L 188.961014 241.086149 
L 189.877383 242.140165 
L 190.18281 243.572671 
L 190.488269 244.170089 
L 190.793726 244.152566 
L 191.40464 243.730836 
L 192.015549 244.820023 
L 192.626459 243.917631 
L 193.237344 244.108465 
L 193.542798 244.303763 
L 193.848256 245.037907 
L 194.153711 245.179759 
L 194.459166 244.92808 
L 194.7646 245.398364 
L 195.070054 246.223542 
L 195.375511 246.686068 
L 195.680964 245.841055 
L 196.291878 245.621438 
L 196.597331 245.784873 
L 196.90279 246.126529 
L 197.208217 245.897021 
L 197.819126 245.867727 
L 198.124583 245.901996 
L 198.430043 245.577025 
L 198.735496 245.692508 
L 199.040923 245.665372 
L 199.651837 245.256999 
L 199.957292 245.416307 
L 200.262749 245.9275 
L 200.568202 246.131865 
L 200.873658 245.959047 
L 201.179115 245.937031 
L 201.790001 246.811103 
L 202.095453 247.396896 
L 202.400913 247.356449 
L 202.706365 247.486978 
L 203.011824 247.32075 
L 203.622708 248.043408 
L 204.233621 247.765147 
L 204.539076 248.054458 
L 204.844533 248.499614 
L 205.149989 249.179101 
L 206.371786 250.698565 
L 206.677243 250.847572 
L 206.982695 251.335058 
L 207.288152 251.274122 
L 207.593606 251.917189 
L 207.899065 251.467258 
L 208.204517 251.478948 
L 208.509948 251.310613 
L 208.815428 251.591121 
L 209.426316 252.972558 
L 209.731771 253.437252 
L 210.037228 253.397536 
L 210.342683 253.176801 
L 210.953593 253.210485 
L 211.259052 252.895806 
L 211.56448 253.000495 
L 211.869935 253.283326 
L 212.175392 253.962569 
L 212.480849 253.965157 
L 212.786302 255.114999 
L 213.397214 256.17467 
L 213.702671 256.471579 
L 214.008128 256.941931 
L 214.619011 255.715627 
L 215.840833 256.970956 
L 216.146263 257.09116 
L 216.451718 257.521775 
L 216.757176 257.694983 
L 217.062632 258.758243 
L 217.368087 258.955222 
L 217.673543 259.376107 
L 217.978999 259.319044 
L 218.284455 259.490946 
L 218.589883 259.173851 
L 218.895341 259.390525 
L 219.811707 261.477843 
L 220.728047 263.278174 
L 221.338959 263.484478 
L 221.644414 264.245038 
L 221.94987 264.093404 
L 223.477126 266.953432 
L 223.782579 268.258049 
L 224.088036 268.349841 
L 224.393489 267.876185 
L 224.698951 268.141349 
L 225.61531 270.251158 
L 226.837108 271.672837 
L 227.142569 272.304568 
L 227.448024 272.272076 
L 228.058931 273.136427 
L 228.669821 273.823911 
L 229.280732 273.903703 
L 229.586185 273.946983 
L 229.891643 274.278801 
L 230.197099 274.927096 
L 230.502557 275.033883 
L 230.807985 274.824177 
L 231.418892 274.609973 
L 231.724352 274.514693 
L 232.029805 273.69354 
L 232.640717 274.127383 
L 232.946173 274.069289 
L 233.251605 274.157926 
L 233.557059 274.680209 
L 233.862518 274.776024 
L 234.167971 274.686831 
L 234.77888 273.944038 
L 235.084337 273.879642 
L 235.389791 273.644181 
L 235.695223 273.066967 
L 236.000675 273.13263 
L 236.306135 272.843897 
L 236.611587 272.86562 
L 237.52793 272.170985 
L 237.833389 271.353427 
L 238.138843 271.036586 
L 238.444298 270.98675 
L 238.749756 270.162402 
L 239.360668 269.35072 
L 239.666121 268.631535 
L 240.277034 268.108811 
L 240.887947 266.994895 
L 241.193375 266.902128 
L 241.498829 266.542678 
L 243.026106 262.558368 
L 243.331535 261.57682 
L 243.942452 260.649125 
L 244.553359 258.849296 
L 245.164271 257.931285 
L 245.775158 255.545252 
L 248.524232 244.198661 
L 248.82969 243.658011 
L 249.440599 241.047175 
L 249.746057 239.081217 
L 250.356942 236.691807 
L 250.967853 232.570185 
L 251.578768 228.320871 
L 251.88422 227.000345 
L 253.106018 218.178699 
L 253.716929 214.150741 
L 254.633269 206.579934 
L 255.244181 202.798142 
L 255.855092 198.043268 
L 257.993255 181.967502 
L 258.604171 175.715413 
L 258.909626 174.214581 
L 259.825994 167.984766 
L 260.131421 167.926491 
L 260.742334 171.400291 
L 261.658702 179.541472 
L 264.10232 206.287475 
L 265.935031 228.599787 
L 267.156826 245.258929 
L 268.989531 271.649217 
L 269.295004 274.770076 
L 269.600445 276.38224 
L 269.905901 276.916656 
L 270.516809 277.229002 
L 270.822255 277.003692 
L 271.12771 276.986219 
L 271.433179 277.301452 
L 271.738634 277.425004 
L 272.044092 277.298586 
L 272.349538 277.454447 
L 272.960447 276.200569 
L 273.265904 276.117173 
L 273.876786 277.012853 
L 274.182244 277.002219 
L 274.487701 276.675103 
L 274.793141 276.93891 
L 275.098598 276.7168 
L 275.404052 277.052621 
L 275.709507 276.496253 
L 276.014964 276.302159 
L 276.320422 276.354214 
L 276.931321 275.848713 
L 277.236774 275.615714 
L 277.54223 275.59307 
L 277.847675 275.347318 
L 278.153126 275.4317 
L 278.458583 275.283377 
L 279.06948 275.679586 
L 279.680382 275.531521 
L 279.985836 275.648726 
L 280.291292 275.379516 
L 280.59675 275.395853 
L 280.902204 275.2671 
L 281.207648 274.955152 
L 281.513101 274.994138 
L 282.124013 276.164679 
L 282.429456 276.385502 
L 283.04037 276.205677 
L 283.345823 275.830344 
L 283.651278 276.046927 
L 284.262177 275.587096 
L 284.567635 275.496602 
L 284.873091 276.020392 
L 285.178546 276.15996 
L 285.483989 276.050508 
L 285.789441 276.460615 
L 286.400355 276.881775 
L 287.011255 276.986786 
L 287.927592 276.927235 
L 288.538506 276.17913 
L 289.149406 276.243268 
L 289.454861 276.505902 
L 289.760315 276.185147 
L 290.371217 276.375807 
L 290.676672 276.265883 
L 290.982138 276.370245 
L 291.287583 275.929956 
L 291.593038 275.727245 
L 291.898492 275.660583 
L 292.203951 275.725844 
L 292.509397 276.200203 
L 292.814846 276.462474 
L 293.731203 276.810658 
L 294.342114 276.500815 
L 294.64757 276.772175 
L 295.25847 276.59509 
L 295.869377 276.150329 
L 296.174822 276.287532 
L 296.480278 275.975334 
L 297.091189 276.032531 
L 297.702089 276.473413 
L 298.312984 276.597813 
L 298.618427 276.693965 
L 298.923895 276.940822 
L 299.229339 276.74518 
L 299.534794 276.921886 
L 299.840252 276.431934 
L 300.145711 276.31678 
L 300.451165 276.737688 
L 301.367516 276.5837 
L 302.894781 276.876732 
L 303.505681 276.698056 
L 304.116593 276.095834 
L 304.422031 275.880517 
L 305.032946 276.297268 
L 305.338402 276.180209 
L 305.949301 276.389766 
L 306.254761 276.288817 
L 306.560214 276.462454 
L 307.171126 276.141479 
L 307.782022 275.801903 
L 308.087479 275.990949 
L 308.69838 275.815777 
L 309.309279 276.24982 
L 309.61473 276.22056 
L 309.920174 276.372196 
L 310.225629 275.910178 
L 310.531086 276.057273 
L 311.141998 275.561937 
L 311.447437 274.839018 
L 311.752894 274.691164 
L 312.363806 274.737836 
L 313.280158 275.730058 
L 313.891075 275.79684 
L 314.196516 275.578401 
L 314.50197 275.768514 
L 315.112882 275.702533 
L 315.418325 276.004511 
L 315.723782 275.990939 
L 316.334691 276.580544 
L 316.640149 276.49833 
L 316.94559 276.572662 
L 317.251044 276.449056 
L 317.556502 276.773811 
L 318.472856 276.940728 
L 318.778312 276.734233 
L 319.083767 276.694508 
L 319.38921 277.106282 
L 319.694656 277.041762 
L 320.305567 277.428366 
L 320.611022 278.220851 
L 321.221921 278.010803 
L 321.527375 278.189717 
L 321.83283 277.900816 
L 322.138286 277.920906 
L 322.443728 277.415478 
L 322.749185 277.500781 
L 323.360095 277.300355 
L 323.665537 277.068634 
L 323.970997 277.297947 
L 324.276451 276.973746 
L 324.581906 276.903774 
L 324.887363 276.613717 
L 325.192808 276.587254 
L 325.803717 276.962575 
L 326.10917 276.813039 
L 326.720072 276.808599 
L 327.025525 276.633601 
L 327.330981 276.688238 
L 327.636428 276.368356 
L 327.941878 276.36706 
L 328.55279 276.823903 
L 329.469148 276.950543 
L 329.774597 276.723588 
L 330.080059 276.802622 
L 330.98125 276.641926 
L 330.98125 276.641926 
" clip-path="url(#p2fb3a3f998)" style="fill: none; stroke: #d62728; stroke-opacity: 0.5; stroke-width: 2; stroke-linecap: square"/>
   </g>
   <g id="patch_6">
    <path d="M 43.78125 288.199219 
L 43.78125 162.199219 
" style="fill: none; stroke: #000000; stroke-width: 0.8; stroke-linejoin: miter; stroke-linecap: square"/>
   </g>
   <g id="patch_7">
    <path d="M 43.78125 288.199219 
L 322.78125 288.199219 
" style="fill: none; stroke: #000000; stroke-width: 0.8; stroke-linejoin: miter; stroke-linecap: square"/>
   </g>
   <g id="legend_1">
    <g id="line2d_54">
     <path d="M 52.78125 175.297656 
L 62.78125 175.297656 
L 72.78125 175.297656 
" style="fill: none; stroke: #1f77b4; stroke-opacity: 0.5; stroke-width: 2; stroke-linecap: square"/>
    </g>
    <g id="text_16">
     <!-- CMC -->
     <g transform="translate(80.78125 178.797656) scale(0.1 -0.1)">
      <use xlink:href="#DejaVuSans-43"/>
      <use xlink:href="#DejaVuSans-4d" x="69.824219"/>
      <use xlink:href="#DejaVuSans-43" x="156.103516"/>
     </g>
    </g>
    <g id="line2d_55">
     <path d="M 52.78125 189.975781 
L 62.78125 189.975781 
L 72.78125 189.975781 
" style="fill: none; stroke: #ff7f0e; stroke-opacity: 0.5; stroke-width: 2; stroke-linecap: square"/>
    </g>
    <g id="text_17">
     <!-- $\Gamma_{\max}$ -->
     <g transform="translate(80.78125 193.475781) scale(0.1 -0.1)">
      <defs>
       <path id="DejaVuSans-393" d="M 628 0 
L 628 4666 
L 3531 4666 
L 3531 4134 
L 1259 4134 
L 1259 0 
L 628 0 
z
" transform="scale(0.015625)"/>
       <path id="DejaVuSans-78" d="M 3513 3500 
L 2247 1797 
L 3578 0 
L 2900 0 
L 1881 1375 
L 863 0 
L 184 0 
L 1544 1831 
L 300 3500 
L 978 3500 
L 1906 2253 
L 2834 3500 
L 3513 3500 
z
" transform="scale(0.015625)"/>
      </defs>
      <use xlink:href="#DejaVuSans-393" transform="translate(0 0.09375)"/>
      <use xlink:href="#DejaVuSans-6d" transform="translate(56.669922 -16.3125) scale(0.7)"/>
      <use xlink:href="#DejaVuSans-61" transform="translate(124.858398 -16.3125) scale(0.7)"/>
      <use xlink:href="#DejaVuSans-78" transform="translate(167.753906 -16.3125) scale(0.7)"/>
     </g>
    </g>
    <g id="line2d_56">
     <path d="M 52.78125 204.653906 
L 62.78125 204.653906 
L 72.78125 204.653906 
" style="fill: none; stroke: #2ca02c; stroke-opacity: 0.5; stroke-width: 2; stroke-linecap: square"/>
    </g>
    <g id="text_18">
     <!-- K$_{\mathrm{L}}$ -->
     <g transform="translate(80.78125 208.153906) scale(0.1 -0.1)">
      <defs>
       <path id="DejaVuSans-4b" d="M 628 4666 
L 1259 4666 
L 1259 2694 
L 3353 4666 
L 4166 4666 
L 1850 2491 
L 4331 0 
L 3500 0 
L 1259 2247 
L 1259 0 
L 628 0 
L 628 4666 
z
" transform="scale(0.015625)"/>
       <path id="DejaVuSans-4c" d="M 628 4666 
L 1259 4666 
L 1259 531 
L 3531 531 
L 3531 0 
L 628 0 
L 628 4666 
z
" transform="scale(0.015625)"/>
      </defs>
      <use xlink:href="#DejaVuSans-4b" transform="translate(0 0.09375)"/>
      <use xlink:href="#DejaVuSans-4c" transform="translate(66.533203 -16.3125) scale(0.7)"/>
     </g>
    </g>
    <g id="line2d_57">
     <path d="M 52.78125 219.332031 
L 62.78125 219.332031 
L 72.78125 219.332031 
" style="fill: none; stroke: #d62728; stroke-opacity: 0.5; stroke-width: 2; stroke-linecap: square"/>
    </g>
    <g id="text_19">
     <!-- total -->
     <g transform="translate(80.78125 222.832031) scale(0.1 -0.1)">
      <use xlink:href="#DejaVuSans-74"/>
      <use xlink:href="#DejaVuSans-6f" x="39.208984"/>
      <use xlink:href="#DejaVuSans-74" x="100.390625"/>
      <use xlink:href="#DejaVuSans-61" x="139.599609"/>
      <use xlink:href="#DejaVuSans-6c" x="200.878906"/>
     </g>
    </g>
   </g>
   <g id="line2d_58">
    <path d="M 44.481987 280.964142 
L 45.092898 280.863622 
L 45.703783 280.784128 
L 46.009237 280.784128 
L 46.620148 280.418479 
L 47.841975 280.315569 
L 49.674679 280.147958 
L 50.285567 280.155988 
L 51.201935 280.191635 
L 51.507392 280.292156 
L 51.812843 280.185834 
L 53.951009 280.773609 
L 54.256464 280.671357 
L 54.561918 280.750851 
L 55.172807 280.543165 
L 55.783721 280.71663 
L 56.700084 280.636877 
L 57.310969 280.735183 
L 57.921885 280.543072 
L 58.532791 280.76171 
L 59.143681 280.758605 
L 59.754592 280.915136 
L 60.060044 280.78141 
L 60.670984 280.78141 
L 60.976442 280.988251 
L 62.503693 281.097637 
L 63.420061 281.051837 
L 63.725488 280.878118 
L 64.030946 280.965968 
L 64.336401 280.899583 
L 64.947311 281.008487 
L 65.863677 281.098492 
L 66.474565 280.801927 
L 67.085476 281.069306 
L 67.69639 281.048491 
L 68.001846 281.127861 
L 68.918182 281.053847 
L 69.223643 281.350177 
L 69.529095 281.311608 
L 70.140008 281.095811 
L 71.361803 281.095811 
L 71.66726 280.926132 
L 72.278173 280.926132 
L 72.889055 281.221963 
L 74.110882 281.242245 
L 74.721793 281.054317 
L 75.027223 281.088326 
L 75.638131 281.384892 
L 76.554498 281.405706 
L 77.165414 281.041979 
L 77.776297 281.214607 
L 78.081753 281.090064 
L 78.692665 281.002913 
L 79.303573 281.022266 
L 79.609007 281.022266 
L 79.914461 280.79187 
L 81.441741 280.785763 
L 81.747169 280.674457 
L 82.052625 280.388917 
L 83.274449 280.018969 
L 83.579904 280.154578 
L 84.496243 280.086305 
L 84.801702 279.842713 
L 85.412614 279.842713 
L 85.718068 279.664114 
L 86.328952 279.904721 
L 86.939863 279.904721 
L 87.245321 280.029264 
L 87.856234 279.990136 
L 88.161689 280.173274 
L 89.383482 280.128292 
L 89.688941 279.971184 
L 89.994397 280.124579 
L 90.299855 280.124578 
L 90.60531 279.999632 
L 91.521678 280.284798 
L 91.827132 280.236605 
L 92.13259 280.518333 
L 92.743499 280.577833 
L 93.048928 280.408444 
L 93.659844 280.264604 
L 93.965297 280.508196 
L 94.270754 280.287192 
L 97.936168 280.139375 
L 98.547079 280.352668 
L 100.074335 280.411848 
L 100.990699 280.822664 
L 101.601612 280.729203 
L 101.907068 280.472793 
L 102.517954 280.803073 
L 103.128866 280.804674 
L 103.434322 281.025677 
L 103.739778 281.026929 
L 104.045231 281.223957 
L 104.656117 281.287554 
L 105.26703 281.333114 
L 105.877937 281.283067 
L 106.183396 281.303651 
L 106.488848 281.165463 
L 106.794278 281.179375 
L 107.099735 280.995737 
L 107.710646 280.995737 
L 108.321562 281.218746 
L 108.627013 280.954761 
L 109.543354 280.888997 
L 110.154268 280.448007 
L 110.765181 280.600885 
L 111.070609 280.857295 
L 111.681521 280.712278 
L 112.292431 280.814219 
L 112.903343 280.813442 
L 113.208797 280.514776 
L 113.819681 280.307291 
L 114.125139 280.072579 
L 114.736052 280.094572 
L 115.346965 280.053086 
L 116.263302 280.432036 
L 117.485125 280.404593 
L 117.790583 280.668578 
L 118.706924 280.665418 
L 119.012378 280.928708 
L 119.317836 281.04476 
L 119.623293 280.803605 
L 119.928748 280.803605 
L 120.845085 280.37507 
L 121.150543 280.20601 
L 121.456 280.20601 
L 121.761453 280.01046 
L 122.066909 280.023124 
L 122.372342 280.185513 
L 122.677795 280.122728 
L 122.983281 280.215622 
L 123.288736 280.450334 
L 123.594195 280.397306 
L 124.205103 280.103223 
L 124.510558 280.044583 
L 124.815986 279.844262 
L 126.343264 279.624804 
L 126.64872 279.604781 
L 126.954154 279.341132 
L 128.481431 279.39128 
L 129.39777 279.617552 
L 130.008683 279.636283 
L 130.314141 279.805343 
L 131.841389 279.788979 
L 132.146844 279.923655 
L 132.452306 279.612286 
L 132.757759 279.470818 
L 133.979557 280.085873 
L 134.285009 280.068233 
L 134.895921 280.163557 
L 135.20138 279.873832 
L 135.81229 279.733401 
L 136.117718 279.99705 
L 136.423176 279.689484 
L 137.034088 279.587152 
L 138.56134 279.386616 
L 139.172253 279.420549 
L 140.088619 279.348505 
L 140.699505 279.348505 
L 141.004958 279.529541 
L 141.310413 279.50016 
L 141.921324 279.794891 
L 142.226785 279.655921 
L 142.532236 279.643139 
L 143.143123 279.219705 
L 144.059491 279.228452 
L 144.975858 279.425321 
L 145.281287 279.225728 
L 146.197655 279.539676 
L 146.808567 279.587109 
L 147.114022 279.51361 
L 147.419452 279.614244 
L 147.724906 279.571881 
L 148.641276 279.863159 
L 148.94673 279.659083 
L 149.252186 279.781413 
L 149.863071 279.546511 
L 150.168527 279.550825 
L 150.473979 279.349055 
L 150.779437 279.493332 
L 151.084892 279.498081 
L 151.390347 279.707068 
L 151.695778 279.685532 
L 152.001235 279.441926 
L 152.612146 279.6413 
L 153.223058 279.360549 
L 153.528515 279.562532 
L 153.83397 279.457151 
L 154.139426 279.50521 
L 154.444881 279.667978 
L 155.666702 279.253545 
L 155.972157 278.912375 
L 156.277617 279.06238 
L 156.888506 279.007527 
L 157.499415 279.082664 
L 157.804871 278.784011 
L 158.110329 278.841825 
L 159.332124 278.531655 
L 159.637578 278.762806 
L 160.24849 278.818536 
L 160.859374 278.816486 
L 161.164828 279.189656 
L 161.470285 278.961503 
L 162.081196 278.866441 
L 162.386652 279.04584 
L 162.69211 278.980733 
L 162.997564 279.086114 
L 164.524816 278.82965 
L 164.830275 278.941885 
L 165.13573 279.272979 
L 165.441181 279.173823 
L 165.746616 279.234482 
L 166.052065 279.101433 
L 166.662981 278.605126 
L 166.968437 278.88106 
L 167.273893 278.687006 
L 167.57932 278.928655 
L 167.884779 278.902034 
L 168.495691 279.239037 
L 168.801143 279.239037 
L 169.106602 278.939747 
L 169.412057 278.946126 
L 169.717512 278.709948 
L 170.02294 278.82892 
L 170.939311 278.719691 
L 171.244767 278.906215 
L 172.161105 278.588193 
L 172.466563 278.689862 
L 173.077476 278.501089 
L 173.382929 278.681138 
L 173.993842 278.696044 
L 174.299294 278.609268 
L 174.604729 278.745823 
L 175.215636 278.329526 
L 175.826548 278.415881 
L 176.132005 278.443957 
L 176.43746 278.723752 
L 177.964711 278.095665 
L 178.270169 278.190292 
L 178.575625 278.09571 
L 178.881053 278.296277 
L 179.186511 278.243775 
L 179.491965 277.780471 
L 179.797421 278.020205 
L 180.408334 277.786951 
L 180.713787 277.860325 
L 181.019242 277.797941 
L 181.324673 277.868587 
L 181.630126 277.798128 
L 181.935584 277.923048 
L 182.241038 278.256173 
L 182.546497 277.99171 
L 182.851951 277.908581 
L 183.157407 277.968833 
L 183.768295 277.697754 
L 184.379204 277.902163 
L 184.684659 277.825694 
L 184.99012 277.965112 
L 185.295597 277.973637 
L 186.21194 277.619521 
L 186.517396 277.9291 
L 186.82285 277.792792 
L 187.433765 278.105502 
L 188.044648 278.125494 
L 188.350103 277.835318 
L 188.655559 278.370583 
L 189.266469 278.613811 
L 190.18281 278.75364 
L 190.793726 278.667539 
L 191.099181 278.369207 
L 191.40464 278.402221 
L 192.015549 278.78841 
L 192.321003 278.774591 
L 192.626459 279.035815 
L 192.931888 279.080085 
L 194.153711 279.709341 
L 194.459166 279.700732 
L 195.070054 279.901497 
L 195.375511 279.894914 
L 195.680964 279.690113 
L 196.90279 279.67778 
L 197.208217 279.406293 
L 197.513671 279.708011 
L 198.124583 279.616945 
L 198.735496 279.511169 
L 199.651837 279.757173 
L 200.568202 280.260957 
L 201.179115 280.340487 
L 202.400913 280.470093 
L 203.011824 280.365236 
L 204.539076 280.672247 
L 205.149989 280.997107 
L 205.455446 281.018733 
L 205.760899 280.912086 
L 206.371786 281.269484 
L 206.677243 281.091381 
L 206.982695 281.13802 
L 207.288152 280.987238 
L 207.593606 281.106976 
L 207.899065 280.946443 
L 208.204517 280.946443 
L 208.815428 280.590141 
L 210.037228 280.502447 
L 210.342683 280.378695 
L 211.259052 280.316732 
L 211.56448 280.139944 
L 211.869935 280.265794 
L 212.786302 280.300666 
L 213.091757 280.124952 
L 214.008128 280.411349 
L 214.619011 280.035119 
L 215.229925 280.143043 
L 215.535378 279.948341 
L 215.840833 280.167404 
L 216.146263 279.930442 
L 216.451718 279.983061 
L 216.757176 279.788425 
L 217.062632 279.817944 
L 217.368087 279.696445 
L 217.673543 279.932241 
L 218.589883 280.030782 
L 219.200796 280.042018 
L 219.50625 280.16577 
L 220.422592 280.083806 
L 220.728047 280.224356 
L 221.338959 279.968008 
L 221.94987 279.968008 
L 222.560781 280.206043 
L 223.477126 280.278194 
L 223.782579 280.457878 
L 224.088036 280.457878 
L 224.393489 280.34639 
L 224.698951 280.684953 
L 225.004401 280.684953 
L 225.30986 280.952076 
L 227.448024 280.894508 
L 228.058931 280.656154 
L 228.669821 280.652169 
L 229.891643 280.33196 
L 230.197099 280.506287 
L 230.502557 280.481812 
L 231.724352 279.611359 
L 232.029805 278.954855 
L 232.640717 278.764919 
L 233.557059 278.199008 
L 234.167971 277.779912 
L 234.77888 277.028803 
L 235.084337 276.9925 
L 235.389791 276.823881 
L 235.695223 276.396684 
L 236.000675 276.432305 
L 236.917046 275.440008 
L 237.52793 274.823579 
L 237.833389 274.222988 
L 238.444298 273.840299 
L 239.971551 271.791804 
L 240.277034 271.544676 
L 240.58249 270.946937 
L 240.887947 270.662617 
L 241.193375 270.784856 
L 241.804284 270.150989 
L 243.331535 267.67725 
L 243.636994 267.444345 
L 244.553359 266.070704 
L 245.775158 263.52263 
L 248.524232 257.79566 
L 249.440599 255.926339 
L 250.051484 254.62586 
L 250.356942 253.871446 
L 251.578768 249.737914 
L 251.88422 249.062779 
L 252.800562 246.142875 
L 254.022383 242.993382 
L 254.327842 241.937144 
L 254.938726 240.904876 
L 255.244181 240.252398 
L 255.855092 238.699599 
L 256.160547 237.779597 
L 256.466007 237.311643 
L 256.771462 236.609313 
L 258.298714 231.653423 
L 258.909626 230.055596 
L 259.825994 228.174433 
L 260.131421 228.530544 
L 261.353244 233.906283 
L 264.10232 248.290037 
L 264.713206 251.764003 
L 266.851395 264.268018 
L 268.073192 272.672538 
L 269.295004 279.610841 
L 269.600445 280.128818 
L 269.905901 280.384963 
L 270.516809 280.454771 
L 270.822255 280.223877 
L 271.433179 280.213386 
L 272.044092 280.314338 
L 272.349538 280.397006 
L 272.654991 280.064949 
L 273.265904 280.299595 
L 273.571344 280.533103 
L 274.793141 280.561787 
L 275.098598 280.352285 
L 275.404052 280.657826 
L 276.014964 280.359712 
L 276.320422 280.331088 
L 276.931321 280.560248 
L 277.236774 280.554093 
L 277.54223 280.337626 
L 278.76404 280.341669 
L 279.985836 280.57794 
L 280.291292 280.301748 
L 280.59675 280.301748 
L 281.513101 279.905909 
L 281.818558 280.113956 
L 282.734914 280.166748 
L 283.04037 280.027414 
L 283.651278 279.522644 
L 284.262177 279.468472 
L 284.567635 279.441953 
L 284.873091 279.675974 
L 285.178546 279.745352 
L 285.483989 279.541782 
L 286.094897 279.563214 
L 286.400355 279.534737 
L 287.011255 279.643096 
L 287.316697 279.623288 
L 287.622151 279.417647 
L 287.927592 279.462849 
L 288.233051 279.241756 
L 288.538506 279.262912 
L 288.843964 279.106235 
L 289.149406 279.258253 
L 289.454861 279.548512 
L 289.760315 279.429634 
L 290.982138 279.410581 
L 291.287583 279.201037 
L 291.593038 279.255938 
L 291.898492 279.179424 
L 292.203951 279.258669 
L 292.814846 279.780156 
L 293.425756 279.681324 
L 293.731203 279.707843 
L 294.342114 279.451786 
L 294.64757 279.706701 
L 296.174822 279.338374 
L 296.480278 279.004991 
L 296.785737 279.095674 
L 297.091189 278.990228 
L 297.396631 279.037684 
L 297.702089 278.770596 
L 298.00753 278.848406 
L 298.312984 278.790831 
L 300.451165 279.307954 
L 300.756606 279.051425 
L 301.062062 279.12794 
L 301.672976 279.160502 
L 301.978419 279.160502 
L 302.894781 279.516172 
L 304.116593 278.837316 
L 304.422031 278.422127 
L 304.727491 278.666246 
L 305.643847 278.703905 
L 305.949301 278.818863 
L 306.254761 278.808758 
L 306.86567 279.249482 
L 307.171126 279.136492 
L 307.476567 279.16209 
L 307.782022 278.983562 
L 308.087479 279.084715 
L 308.392936 279.042345 
L 308.69838 278.821936 
L 309.003821 279.035087 
L 309.920174 279.093067 
L 310.225629 278.814717 
L 310.531086 278.913302 
L 311.447437 278.208046 
L 311.752894 278.01904 
L 312.058353 278.01904 
L 312.363806 278.174226 
L 312.66926 278.537277 
L 313.280158 278.76941 
L 313.585617 279.064317 
L 313.891075 279.118457 
L 314.196516 278.968858 
L 316.334691 279.392773 
L 316.640149 279.319538 
L 316.94559 279.498066 
L 317.556502 279.482258 
L 317.861956 279.668044 
L 318.167401 279.584478 
L 318.472856 279.670938 
L 318.778312 279.504946 
L 319.083767 279.576309 
L 319.38921 279.798581 
L 319.694656 279.734061 
L 320.611022 280.458747 
L 321.83283 280.199725 
L 322.138286 280.269119 
L 322.443728 280.002515 
L 322.749185 280.140422 
L 323.665537 280.015899 
L 323.970997 280.140416 
L 324.276451 279.844367 
L 325.498263 279.917169 
L 325.803717 280.022379 
L 326.414616 279.919443 
L 327.636428 279.627319 
L 328.247334 279.917856 
L 329.469148 279.994003 
L 329.774597 279.74119 
L 330.385504 280.114747 
L 330.98125 279.913278 
L 330.98125 279.913278 
" clip-path="url(#p2fb3a3f998)" style="fill: none; stroke: #1f77b4; stroke-opacity: 0.5; stroke-width: 2; stroke-linecap: square"/>
   </g>
   <g id="line2d_59">
    <path d="M 44.481987 282.471946 
L 45.398353 282.384767 
L 46.009237 282.303546 
L 46.620148 282.279608 
L 47.53652 282.018062 
L 49.06377 282.018062 
L 49.369224 281.658425 
L 49.674679 281.658425 
L 49.980136 281.360208 
L 50.896477 281.026933 
L 51.812843 280.706952 
L 53.340096 280.311448 
L 53.645556 279.985696 
L 54.256464 279.835919 
L 55.172807 279.982991 
L 57.921885 279.974653 
L 58.227337 279.811998 
L 58.532791 280.171635 
L 58.838247 280.171635 
L 59.143681 280.469851 
L 59.754592 280.377716 
L 60.365528 280.726922 
L 61.587327 280.777189 
L 62.198236 280.999231 
L 62.503693 280.693325 
L 62.809147 280.964028 
L 63.420061 281.126677 
L 63.725488 280.890604 
L 64.947311 280.951609 
L 65.252771 281.034511 
L 65.863677 280.797271 
L 67.390936 280.669812 
L 69.834555 280.600805 
L 71.056351 280.202547 
L 71.361803 280.190836 
L 71.66726 280.496742 
L 72.583629 280.487945 
L 72.889055 280.724018 
L 73.194512 280.58617 
L 73.805423 280.599366 
L 74.110882 280.38896 
L 74.416335 280.38896 
L 74.721793 280.537223 
L 75.638131 280.578297 
L 76.249044 280.246883 
L 77.165414 280.103844 
L 77.470839 279.647959 
L 78.692665 279.658683 
L 79.914461 280.172762 
L 80.219915 280.142648 
L 81.136285 279.824819 
L 81.747169 279.859692 
L 82.052625 279.680186 
L 82.358081 279.812492 
L 82.663537 279.75355 
L 82.968991 279.515265 
L 83.274449 279.725672 
L 84.496243 279.790176 
L 85.107157 280.141165 
L 85.412614 280.184976 
L 86.328952 279.698272 
L 86.63441 280.154157 
L 88.161689 280.428006 
L 88.467117 280.365628 
L 88.77257 280.117821 
L 89.688941 280.267679 
L 89.994397 280.438092 
L 90.299855 280.438092 
L 90.60531 280.200646 
L 90.910738 280.14809 
L 91.521678 280.253713 
L 91.827132 280.312654 
L 92.13259 280.550939 
L 93.659844 280.567697 
L 93.965297 280.354521 
L 94.57621 280.32694 
L 94.881663 280.64955 
L 95.187122 280.560063 
L 95.492548 280.744555 
L 95.798003 280.257959 
L 96.408915 280.257959 
L 97.630714 279.917748 
L 97.936168 280.108863 
L 99.46345 280.0315 
L 99.768904 280.138841 
L 100.074335 279.774147 
L 100.685247 279.524168 
L 102.212495 279.454252 
L 102.823404 279.085149 
L 104.656117 279.391364 
L 104.961574 279.871137 
L 105.572483 279.141752 
L 106.183396 279.382025 
L 106.794278 279.130654 
L 107.099735 279.183609 
L 107.710646 279.007204 
L 108.627013 278.824805 
L 108.932442 278.778651 
L 109.543354 279.237298 
L 111.070609 278.602883 
L 111.986977 278.854901 
L 112.292431 278.696941 
L 112.597889 278.696941 
L 112.903343 278.433382 
L 113.208797 278.525657 
L 113.819681 278.326639 
L 114.125139 278.237947 
L 114.736052 278.796602 
L 115.346965 278.594251 
L 115.95785 278.962616 
L 116.568758 278.519852 
L 116.874213 278.367143 
L 117.17967 278.394824 
L 118.096011 278.137345 
L 118.401468 278.192634 
L 118.706924 277.967815 
L 119.012378 278.108504 
L 119.317836 278.074892 
L 119.928748 277.533245 
L 120.234174 277.641503 
L 120.539632 277.571846 
L 120.845085 277.700381 
L 121.150543 277.619466 
L 121.456 277.655208 
L 121.761453 277.301061 
L 122.066909 277.534003 
L 122.372342 277.243935 
L 122.983281 277.127693 
L 123.288736 277.135285 
L 123.594195 276.988048 
L 123.899645 277.095384 
L 124.205103 277.021937 
L 124.815986 276.490995 
L 125.121442 276.601911 
L 125.426903 276.86744 
L 126.03781 276.791022 
L 127.259603 276.345029 
L 127.565065 276.107326 
L 127.870517 276.248176 
L 128.175975 276.151094 
L 128.481431 275.776576 
L 129.092343 276.035311 
L 129.703224 276.128669 
L 130.008683 275.81815 
L 130.61959 275.710919 
L 131.230509 275.498878 
L 131.535936 275.437408 
L 132.452306 275.633259 
L 132.757759 275.555559 
L 133.368671 275.206286 
L 133.674126 275.379071 
L 133.979557 275.413635 
L 134.285009 275.143431 
L 134.895921 275.009755 
L 135.20138 275.066601 
L 135.506834 274.77431 
L 135.81229 274.875141 
L 136.117718 274.755498 
L 136.728631 274.693367 
L 137.034088 274.451827 
L 137.339544 274.486875 
L 137.645 274.853699 
L 137.950453 275.042538 
L 138.255883 274.888893 
L 138.866797 273.948475 
L 139.477702 273.816702 
L 139.78316 273.831574 
L 140.088619 274.129186 
L 141.004958 273.381873 
L 141.310413 272.999145 
L 141.615869 272.850447 
L 142.226785 272.973407 
L 143.448578 272.675891 
L 143.754033 272.406458 
L 144.670401 272.457721 
L 144.975858 272.212016 
L 145.586745 272.356348 
L 146.197655 272.45469 
L 146.50311 272.244237 
L 146.808567 272.289173 
L 147.114022 272.060604 
L 148.335817 273.059789 
L 148.94673 272.887299 
L 149.557615 272.297191 
L 150.168527 272.600836 
L 150.473979 272.114196 
L 150.779437 272.114716 
L 151.390347 271.902582 
L 152.001235 271.924422 
L 152.30669 271.733971 
L 152.9176 271.871782 
L 153.223058 271.844421 
L 153.528515 271.928904 
L 153.83397 271.732522 
L 154.139426 271.968957 
L 154.444881 271.933732 
L 155.055792 271.512743 
L 155.361249 271.168445 
L 155.666702 271.388793 
L 156.277617 271.19871 
L 156.583044 270.789629 
L 156.888506 270.86147 
L 157.193956 270.485822 
L 158.721211 269.921909 
L 159.026668 270.299698 
L 159.332124 270.149082 
L 159.637578 270.891833 
L 160.553946 270.366365 
L 161.164828 269.593696 
L 161.470285 269.660223 
L 162.081196 269.190907 
L 162.386652 269.220672 
L 162.69211 269.012556 
L 162.997564 269.022386 
L 163.302996 268.770464 
L 163.60845 268.932014 
L 163.913904 268.667507 
L 164.524816 268.77953 
L 164.830275 268.321746 
L 165.441181 268.043087 
L 165.746616 267.993262 
L 166.052065 267.57296 
L 166.357527 267.708925 
L 167.273893 267.481173 
L 167.884779 267.45065 
L 168.190231 266.986799 
L 168.495691 267.056524 
L 168.801143 266.482023 
L 169.412057 266.23255 
L 170.328398 266.71412 
L 170.633854 266.574704 
L 170.939311 266.308146 
L 171.244767 266.31339 
L 172.161105 265.86451 
L 172.466563 266.053377 
L 172.77202 265.726825 
L 173.382929 266.012976 
L 173.688383 266.113834 
L 173.993842 266.448696 
L 174.299294 266.117816 
L 174.910181 265.903012 
L 175.215636 265.913589 
L 175.521093 265.717893 
L 175.826548 265.674973 
L 176.132005 265.813509 
L 176.43746 266.131297 
L 177.048343 266.116369 
L 177.353801 265.797695 
L 177.964711 266.168553 
L 178.270169 265.978677 
L 178.575625 266.141753 
L 178.881053 265.991475 
L 179.186511 266.201977 
L 179.491965 266.004826 
L 179.797421 266.007765 
L 180.102876 266.175238 
L 180.408334 266.096313 
L 180.713787 265.831098 
L 181.019242 265.196432 
L 181.324673 265.348224 
L 181.630126 265.081411 
L 182.546497 264.88862 
L 182.851951 264.662038 
L 183.157407 264.777622 
L 183.768295 265.150086 
L 184.073748 265.255772 
L 184.99012 265.042255 
L 185.295597 264.951056 
L 186.21194 264.097807 
L 186.517396 264.616024 
L 186.82285 264.426407 
L 187.128307 264.476567 
L 187.433765 264.708656 
L 187.739192 264.39377 
L 188.350103 264.361949 
L 188.655559 264.513845 
L 188.961014 264.514518 
L 189.571928 264.772476 
L 189.877383 265.088385 
L 190.18281 265.91366 
L 190.488269 266.33125 
L 191.099181 266.396133 
L 191.40464 266.123898 
L 191.71009 266.231557 
L 192.015549 266.473631 
L 192.626459 265.885588 
L 192.931888 265.881914 
L 193.237344 265.735133 
L 194.7646 266.247306 
L 195.375511 267.116936 
L 195.680964 266.785283 
L 196.291878 266.647861 
L 196.597331 266.708608 
L 196.90279 267.01452 
L 197.208217 267.139027 
L 197.513671 266.792418 
L 197.819126 266.778843 
L 198.124583 266.880073 
L 198.430043 266.720624 
L 199.040923 266.740335 
L 199.957292 266.337818 
L 201.484542 266.71592 
L 202.706365 267.456352 
L 203.011824 267.305337 
L 203.317279 267.505026 
L 203.622708 267.481335 
L 203.928167 267.329276 
L 204.844533 267.682452 
L 205.760899 268.346022 
L 206.371786 268.335767 
L 206.982695 268.996398 
L 207.288152 269.0095 
L 207.593606 269.325542 
L 207.899065 269.195393 
L 208.204517 269.263051 
L 208.509948 269.190713 
L 208.815428 269.440192 
L 209.731771 270.857677 
L 210.037228 270.845142 
L 210.342683 270.653174 
L 211.869935 270.575731 
L 212.175392 271.047848 
L 212.480849 270.963142 
L 213.091757 272.003844 
L 213.397214 272.093242 
L 213.702671 272.059674 
L 214.008128 272.26873 
L 214.313554 272.330458 
L 214.619011 272.028054 
L 215.229925 272.407944 
L 215.535378 272.82671 
L 215.840833 272.781659 
L 216.451718 273.152393 
L 216.757176 273.303427 
L 217.062632 273.847985 
L 217.368087 273.905484 
L 217.673543 274.112386 
L 217.978999 273.842301 
L 218.284455 273.901058 
L 218.589883 273.60745 
L 218.895341 273.693206 
L 220.728047 275.560313 
L 221.338959 275.613942 
L 221.644414 276.013716 
L 221.94987 275.899234 
L 222.560781 276.214895 
L 222.866237 276.629305 
L 223.477126 276.885839 
L 223.782579 277.391278 
L 224.698951 276.99657 
L 225.004401 277.351601 
L 225.30986 277.443372 
L 225.920774 277.834233 
L 226.226201 277.879442 
L 227.142569 278.854215 
L 227.448024 278.725349 
L 228.058931 279.034118 
L 228.364386 279.077319 
L 228.669821 279.328658 
L 231.724352 279.780919 
L 232.029805 279.672257 
L 233.251605 280.178145 
L 233.557059 280.577575 
L 233.862518 280.7233 
L 235.389791 280.509211 
L 235.695223 280.3574 
L 236.306135 280.346788 
L 236.917046 280.689232 
L 237.52793 280.784567 
L 238.138843 280.444038 
L 238.444298 280.633152 
L 238.749756 280.430606 
L 239.360668 280.578257 
L 240.277034 280.395973 
L 240.58249 280.395973 
L 240.887947 280.04599 
L 242.415199 279.309375 
L 243.331535 278.619156 
L 243.636994 278.644939 
L 243.942452 278.522551 
L 244.247903 278.135015 
L 244.858817 277.910403 
L 245.164271 277.947193 
L 245.46973 277.674094 
L 245.775158 277.126364 
L 246.386069 276.491648 
L 246.691526 276.013401 
L 246.99698 275.822805 
L 247.607866 275.078479 
L 247.913324 274.947567 
L 248.524232 273.867743 
L 248.82969 273.915455 
L 249.135145 273.659695 
L 250.051484 272.538409 
L 250.356942 272.301513 
L 250.967853 271.248919 
L 251.578768 270.01147 
L 251.88422 269.613546 
L 252.189653 268.916884 
L 252.495108 268.5038 
L 254.022383 264.689115 
L 254.633269 262.702171 
L 254.938726 262.468904 
L 256.160547 259.167166 
L 257.993255 254.543441 
L 258.604171 252.270451 
L 258.909626 251.676419 
L 259.825994 249.064212 
L 260.131421 248.842105 
L 260.436877 248.899104 
L 261.04779 249.949708 
L 261.964157 252.188199 
L 263.185952 255.963574 
L 264.407778 260.38781 
L 266.545939 268.248917 
L 268.989531 278.85506 
L 269.295004 279.904978 
L 269.600445 280.535132 
L 270.211357 280.635847 
L 270.822255 280.723895 
L 271.12771 280.723896 
L 271.433179 280.936132 
L 272.044092 280.859946 
L 272.349538 280.952277 
L 273.571344 280.53615 
L 274.182244 280.837996 
L 275.098598 280.851214 
L 275.404052 280.897306 
L 275.709507 280.719346 
L 276.320422 280.785134 
L 276.625863 280.463354 
L 277.236774 280.232501 
L 277.54223 280.338544 
L 277.847675 280.12766 
L 278.458583 280.114733 
L 279.680382 280.537316 
L 280.291292 280.537316 
L 280.59675 280.404028 
L 280.902204 280.480214 
L 281.513101 280.435669 
L 282.734914 280.787127 
L 283.04037 280.834471 
L 283.345823 280.698034 
L 283.651278 280.856106 
L 284.567635 280.464103 
L 285.178546 280.565966 
L 285.483989 280.630022 
L 286.094897 280.894316 
L 287.011255 281.090692 
L 287.927592 281.08604 
L 288.538506 280.779315 
L 290.065769 280.673243 
L 290.676672 280.58172 
L 290.982138 280.570043 
L 291.287583 280.43295 
L 292.814846 280.542089 
L 293.425756 280.83862 
L 295.563922 280.987657 
L 295.869377 280.890598 
L 296.174822 281.012468 
L 297.091189 281.107917 
L 297.702089 281.414641 
L 298.312984 281.401235 
L 298.618427 281.424309 
L 298.923895 281.597758 
L 299.229339 281.515448 
L 299.534794 281.651516 
L 300.145711 281.338151 
L 300.451165 281.475244 
L 300.756606 281.351435 
L 301.367516 281.443402 
L 304.116593 281.426044 
L 304.422031 281.571517 
L 305.643847 281.489458 
L 306.86567 281.169221 
L 307.171126 281.171751 
L 307.476567 280.985105 
L 308.087479 280.985105 
L 308.392936 280.843909 
L 309.003821 280.897331 
L 309.309279 281.034713 
L 311.141998 280.96615 
L 311.447437 280.664471 
L 312.058353 280.700119 
L 312.66926 280.629313 
L 312.974703 280.746351 
L 314.196516 280.614737 
L 314.50197 280.790929 
L 314.807428 280.678143 
L 315.723782 280.789299 
L 316.640149 281.12505 
L 317.251044 281.049777 
L 317.556502 281.273283 
L 317.861956 281.156772 
L 318.167401 281.286483 
L 319.083767 281.278167 
L 319.694656 281.321862 
L 320.305567 281.280973 
L 320.611022 281.569363 
L 321.221921 281.620072 
L 321.83283 281.690879 
L 323.665537 281.40263 
L 324.276451 281.543509 
L 325.498263 281.489825 
L 326.10917 281.406612 
L 327.636428 281.445092 
L 327.941878 281.24712 
L 328.858252 281.325604 
L 329.774597 281.41256 
L 330.385504 281.10692 
L 330.98125 281.10692 
L 330.98125 281.10692 
" clip-path="url(#p2fb3a3f998)" style="fill: none; stroke: #ff7f0e; stroke-opacity: 0.5; stroke-width: 2; stroke-linecap: square"/>
   </g>
   <g id="line2d_60">
    <path d="M 44.481987 282.471946 
L 45.092898 282.385428 
L 46.009237 282.193956 
L 46.925606 282.147709 
L 47.53652 282.065852 
L 49.06377 282.042964 
L 50.285567 281.697383 
L 52.42373 281.680877 
L 53.034641 281.45938 
L 53.340096 281.45938 
L 53.951009 281.207094 
L 55.172807 281.485084 
L 58.838247 281.392924 
L 59.143681 281.597801 
L 60.365528 281.398722 
L 60.976442 281.289375 
L 61.892782 281.178992 
L 63.420061 280.933537 
L 63.725488 280.687149 
L 64.641853 280.595944 
L 65.252771 280.520516 
L 66.474565 280.606014 
L 67.390936 280.515892 
L 68.001846 280.469781 
L 68.307273 280.499582 
L 68.612731 280.327187 
L 68.918182 280.338441 
L 69.223643 280.221922 
L 69.834555 280.503092 
L 70.445437 280.393033 
L 70.750895 280.133969 
L 71.056351 280.225519 
L 71.66726 280.017479 
L 71.972714 280.227944 
L 73.194512 280.481196 
L 73.805423 280.389828 
L 74.110882 280.071458 
L 75.027223 279.879675 
L 75.332676 279.666255 
L 75.943589 279.754546 
L 76.554498 279.711466 
L 76.859957 279.806813 
L 77.165414 279.781642 
L 77.470839 279.596645 
L 78.387211 279.67058 
L 78.692665 279.503362 
L 78.998119 279.503362 
L 79.303573 279.319999 
L 79.609007 279.379315 
L 79.914461 279.638378 
L 80.525372 279.607914 
L 81.136285 279.515002 
L 81.747169 279.492363 
L 82.358081 279.07033 
L 82.663537 279.252902 
L 82.968991 279.199766 
L 83.274449 279.528821 
L 83.885361 279.601526 
L 84.190789 279.555384 
L 84.496243 279.763985 
L 85.718068 279.740922 
L 86.328952 279.252495 
L 87.245321 279.651958 
L 87.550775 279.651957 
L 87.856234 279.819176 
L 89.078033 279.330242 
L 89.383482 279.265117 
L 89.688941 279.52569 
L 90.299855 279.548657 
L 90.60531 279.301304 
L 90.910738 279.289767 
L 91.216194 279.496092 
L 92.13259 279.520798 
L 92.438044 279.544625 
L 93.048928 279.364853 
L 93.659844 279.214883 
L 94.270754 278.989167 
L 94.57621 278.888901 
L 95.187122 278.983119 
L 95.492548 279.29798 
L 96.714369 279.065922 
L 97.019827 278.752318 
L 97.325283 278.889271 
L 97.936168 278.825924 
L 98.241622 278.825805 
L 98.547079 278.987494 
L 99.157993 279.035616 
L 99.46345 279.035616 
L 99.768904 279.403578 
L 100.379787 278.941255 
L 101.296158 278.918393 
L 101.907068 279.029938 
L 102.212495 278.831447 
L 104.045231 278.9972 
L 104.35069 279.195642 
L 104.961574 279.230603 
L 105.877937 278.99252 
L 106.183396 279.202174 
L 106.488848 278.996365 
L 107.405189 279.332839 
L 107.710646 279.101649 
L 108.321562 279.173963 
L 108.627013 278.930011 
L 108.932442 278.895018 
L 109.848813 279.479998 
L 110.154268 279.479998 
L 111.070609 279.086253 
L 111.986977 279.179 
L 112.597889 278.69371 
L 112.903343 278.390109 
L 114.125139 277.833376 
L 115.041506 277.933135 
L 115.346965 277.925273 
L 116.263302 278.393082 
L 116.568758 278.167366 
L 116.874213 278.181518 
L 117.17967 277.899041 
L 118.401468 277.782634 
L 118.706924 277.621942 
L 119.012378 277.729308 
L 119.623293 277.35641 
L 119.928748 277.174161 
L 120.234174 277.336146 
L 121.456 277.293223 
L 122.066909 277.509303 
L 122.372342 277.469022 
L 122.983281 277.035724 
L 123.288736 277.281309 
L 123.594195 277.062628 
L 124.205103 276.900918 
L 124.510558 276.734442 
L 125.121442 276.225981 
L 125.426903 276.124246 
L 125.732358 276.349961 
L 126.03781 276.187391 
L 126.343264 276.328606 
L 126.64872 276.206361 
L 126.954154 276.366277 
L 127.565065 276.075855 
L 127.870517 276.130053 
L 128.481431 275.758274 
L 128.786889 275.81225 
L 129.092343 276.023309 
L 129.39777 276.011138 
L 129.703224 276.16365 
L 130.314141 275.952354 
L 130.61959 276.022846 
L 130.925048 275.48408 
L 131.841389 275.720991 
L 132.146844 275.817453 
L 132.757759 275.694302 
L 133.674126 275.211604 
L 133.979557 275.349398 
L 134.590469 275.034114 
L 134.895921 274.668854 
L 135.81229 274.420894 
L 136.117718 273.838443 
L 136.423176 274.13296 
L 136.728631 274.164478 
L 137.034088 273.952388 
L 137.339544 273.890496 
L 137.950453 274.01777 
L 138.255883 273.835508 
L 138.866797 273.242092 
L 139.78316 273.079485 
L 140.088619 273.399553 
L 140.394043 273.300754 
L 140.699505 272.90759 
L 141.004958 272.84074 
L 141.615869 272.329865 
L 141.921324 272.578415 
L 144.059491 272.161851 
L 144.364945 272.347838 
L 144.975858 272.068926 
L 145.281287 272.303606 
L 146.197655 272.229242 
L 146.50311 271.919349 
L 149.252186 271.83699 
L 149.557615 271.551132 
L 149.863071 271.687986 
L 150.779437 271.471363 
L 151.084892 271.059283 
L 151.695778 271.423163 
L 152.001235 271.565909 
L 152.30669 271.178838 
L 152.9176 271.314891 
L 153.223058 271.239975 
L 153.528515 271.292325 
L 153.83397 271.13912 
L 154.444881 271.544964 
L 154.750337 271.364658 
L 155.361249 270.714243 
L 155.666702 270.841361 
L 156.583044 270.176495 
L 157.499415 269.673628 
L 158.110329 269.280646 
L 158.721211 269.167756 
L 159.943036 269.321117 
L 160.24849 269.545106 
L 160.859374 268.798792 
L 161.164828 268.364427 
L 161.775738 268.092223 
L 162.081196 268.122515 
L 162.386652 268.297527 
L 162.69211 267.841831 
L 162.997564 267.93439 
L 163.60845 267.478206 
L 163.913904 267.344995 
L 164.219362 267.455109 
L 164.524816 267.688911 
L 164.830275 267.49185 
L 165.441181 267.460352 
L 165.746616 267.430167 
L 166.052065 267.523843 
L 166.662981 267.116851 
L 167.57932 267.108022 
L 169.412057 266.075288 
L 170.02294 266.23864 
L 170.328398 266.208421 
L 170.633854 266.563883 
L 170.939311 266.425122 
L 171.244767 266.159048 
L 171.855646 266.033918 
L 172.161105 265.607551 
L 172.466563 265.762666 
L 173.688383 265.425316 
L 173.993842 265.441424 
L 174.299294 265.072982 
L 174.604729 264.982128 
L 175.215636 264.426151 
L 177.048343 264.246524 
L 177.353801 263.973802 
L 177.659256 264.117679 
L 178.270169 263.989493 
L 178.881053 263.621737 
L 179.186511 263.675538 
L 179.491965 263.485816 
L 180.102876 263.52327 
L 180.713787 263.233323 
L 181.019242 262.856191 
L 181.324673 263.006192 
L 181.630126 262.653662 
L 182.241038 262.410432 
L 182.546497 262.376891 
L 182.851951 262.191573 
L 183.157407 262.355164 
L 183.462836 262.805061 
L 183.768295 262.884793 
L 184.379204 263.213804 
L 184.684659 262.938523 
L 184.99012 262.877586 
L 185.295597 262.581024 
L 185.906486 262.401636 
L 186.21194 262.539126 
L 186.517396 263.139864 
L 186.82285 263.019144 
L 187.433765 263.234128 
L 187.739192 263.147428 
L 188.044648 263.407346 
L 188.350103 263.192955 
L 188.655559 263.270492 
L 188.961014 263.075932 
L 189.571928 263.159749 
L 189.877383 263.312269 
L 190.18281 263.849261 
L 190.793726 264.079834 
L 191.40464 264.148609 
L 192.015549 264.501874 
L 192.321003 264.309906 
L 192.626459 263.94012 
L 193.542798 264.00097 
L 193.848256 264.273852 
L 194.153711 264.312402 
L 194.459166 264.114668 
L 194.7646 264.24029 
L 195.070054 264.508711 
L 195.375511 264.61811 
L 195.680964 264.309551 
L 196.597331 264.256676 
L 196.90279 264.378121 
L 197.208217 264.295593 
L 197.819126 264.41583 
L 198.430043 264.245824 
L 198.735496 264.364315 
L 199.957292 264.059758 
L 200.568202 264.311591 
L 201.179115 263.943794 
L 202.095453 264.6859 
L 202.400913 264.561109 
L 203.317279 264.757633 
L 203.622708 265.028408 
L 203.928167 264.953094 
L 204.233621 264.702259 
L 204.844533 264.884006 
L 205.149989 265.202749 
L 205.455446 265.310959 
L 206.371786 266.037207 
L 206.677243 266.028389 
L 207.593606 266.428563 
L 208.204517 266.213345 
L 208.815428 266.50468 
L 209.120859 266.857643 
L 209.731771 267.009783 
L 210.342683 267.088823 
L 210.953593 267.149309 
L 211.259052 267.010561 
L 211.869935 267.385693 
L 212.480849 267.680114 
L 213.091757 268.564718 
L 214.008128 269.205746 
L 214.619011 268.596346 
L 215.229925 268.715381 
L 216.146263 269.194214 
L 216.757176 269.547024 
L 217.062632 270.036208 
L 217.368087 270.297184 
L 217.673543 270.275372 
L 218.284455 270.579455 
L 218.589883 270.479512 
L 218.895341 270.610429 
L 219.50625 271.364837 
L 220.728047 272.437397 
L 221.338959 272.846419 
L 221.644414 273.207205 
L 221.94987 273.170056 
L 223.477126 274.733291 
L 223.782579 275.352785 
L 224.088036 275.580368 
L 224.393489 275.4124 
L 224.698951 275.403718 
L 225.920774 276.85175 
L 227.448024 277.596111 
L 228.058931 278.390047 
L 228.669821 278.786977 
L 229.280732 278.898685 
L 229.891643 279.392573 
L 230.502557 279.984127 
L 230.807985 279.905182 
L 231.113438 280.01098 
L 231.418892 279.924641 
L 231.724352 280.066308 
L 232.029805 280.01032 
L 232.640717 280.342888 
L 233.251605 280.404177 
L 233.557059 280.847518 
L 234.473424 281.224913 
L 236.000675 281.26167 
L 236.611587 281.548999 
L 237.222501 281.481426 
L 238.138843 281.457191 
L 238.444298 281.457191 
L 238.749756 281.266263 
L 239.360668 281.196715 
L 239.666121 280.936683 
L 239.971551 281.112053 
L 240.58249 281.198392 
L 240.887947 281.23018 
L 241.804284 280.970554 
L 242.415199 280.593962 
L 243.636994 280.047542 
L 243.942452 280.03105 
L 244.247903 279.778974 
L 244.553359 279.7411 
L 245.164271 280.100858 
L 246.386069 279.368256 
L 246.691526 279.004639 
L 246.99698 278.899765 
L 247.913324 277.90147 
L 248.218778 277.610104 
L 249.135145 277.208894 
L 249.440599 276.818606 
L 250.051484 275.83404 
L 250.662397 275.047265 
L 251.273308 274.027756 
L 251.578768 273.515379 
L 251.88422 273.267912 
L 253.411472 270.480261 
L 254.327842 268.042875 
L 256.160547 263.764765 
L 257.076919 262.093261 
L 257.993255 259.685499 
L 258.604171 257.635524 
L 258.909626 257.426455 
L 259.520536 255.958231 
L 260.131421 255.497729 
L 260.436877 255.707548 
L 261.04779 256.4948 
L 262.575068 259.521596 
L 263.185952 261.339954 
L 263.796863 262.920833 
L 266.545939 270.916377 
L 268.684102 278.701635 
L 269.600445 280.662182 
L 269.905901 280.916788 
L 271.12771 280.99283 
L 271.738634 281.194612 
L 272.654991 280.719609 
L 272.960447 280.344586 
L 273.265904 280.22532 
L 273.571344 280.401819 
L 273.876786 280.722258 
L 274.182244 280.643502 
L 274.487701 280.342005 
L 275.098598 280.457193 
L 275.404052 280.44138 
L 275.709507 280.237185 
L 277.847675 279.836842 
L 278.153126 279.921225 
L 278.458583 279.785827 
L 279.06948 279.785827 
L 279.374939 279.673481 
L 279.680382 279.439033 
L 281.513101 279.596452 
L 282.429456 280.31085 
L 283.345823 280.310572 
L 283.651278 280.612069 
L 284.873091 280.722344 
L 285.789441 281.01201 
L 286.400355 281.306731 
L 287.011255 281.196889 
L 287.316697 281.175704 
L 287.622151 281.397865 
L 288.538506 281.080795 
L 288.843964 281.29702 
L 289.760315 281.026162 
L 290.676672 281.209234 
L 290.982138 281.333513 
L 291.287583 281.239861 
L 291.593038 280.982248 
L 294.036658 281.065703 
L 294.64757 280.983596 
L 295.563922 280.929092 
L 295.869377 280.838044 
L 296.480278 280.901767 
L 296.785737 280.802651 
L 297.396631 280.878279 
L 297.702089 281.232067 
L 298.618427 281.35419 
L 298.923895 281.428013 
L 299.534794 281.038742 
L 299.840252 280.824113 
L 300.451165 280.898382 
L 300.756606 281.194968 
L 301.367516 280.994747 
L 302.589329 280.917752 
L 302.894781 280.861235 
L 303.505681 281.071495 
L 303.811137 281.060394 
L 304.116593 280.776367 
L 306.560214 281.119791 
L 306.86567 280.870931 
L 307.476567 280.777128 
L 308.087479 280.865021 
L 309.003821 281.088675 
L 311.141998 281.075592 
L 311.447437 280.910393 
L 312.974703 280.889289 
L 313.280158 281.173317 
L 313.585617 280.938697 
L 315.723782 280.845353 
L 316.029237 281.094213 
L 316.334691 281.193258 
L 316.640149 280.997634 
L 317.556502 280.962162 
L 318.778312 280.944995 
L 319.083767 280.783923 
L 319.38921 280.929731 
L 320.305567 280.908008 
L 320.611022 281.136634 
L 321.221921 281.060427 
L 321.527375 281.124895 
L 321.83283 280.954104 
L 322.138286 280.954104 
L 322.443728 280.768178 
L 323.360095 280.757066 
L 323.665537 280.593998 
L 324.581906 280.45979 
L 324.887363 280.262965 
L 325.498263 280.262965 
L 325.803717 280.458589 
L 326.10917 280.343989 
L 326.720072 280.486597 
L 327.025525 280.322237 
L 327.330981 280.436079 
L 327.636428 280.239837 
L 327.941878 280.259757 
L 328.55279 280.488221 
L 330.98125 280.565619 
L 330.98125 280.565619 
" clip-path="url(#p2fb3a3f998)" style="fill: none; stroke: #2ca02c; stroke-opacity: 0.5; stroke-width: 2; stroke-linecap: square"/>
   </g>
  </g>
 </g>
 <defs>
  <clipPath id="p74e427ba06">
   <rect x="43.78125" y="10.999219" width="279" height="126"/>
  </clipPath>
  <clipPath id="p2fb3a3f998">
   <rect x="43.78125" y="162.199219" width="279" height="126"/>
  </clipPath>
 </defs>
</svg>
